<svg width="264" height="191" viewBox="0 0 264 191" fill="none" xmlns="http://www.w3.org/2000/svg">
<g clip-path="url(#clip0_198_5220)">
<rect x="9" y="77.5" width="192" height="101" rx="4" fill="#ACBFFF"/>
<path opacity="0.5" d="M9 81.5C9 79.2909 10.7909 77.5 13 77.5H197C199.209 77.5 201 79.2909 201 81.5V95.5H9V81.5Z" fill="#89A4FF"/>
<path d="M9 119.5H201" stroke="#89A4FF"/>
<path d="M9 143.5H201" stroke="#89A4FF"/>
<path d="M9 167.5H201" stroke="#89A4FF"/>
<path d="M48 95.5L48 238.5" stroke="#89A4FF"/>
<path d="M103 95.5L103 238.5" stroke="#89A4FF"/>
<path d="M158 95.5L158 238.5" stroke="#89A4FF"/>
</g>
<g clip-path="url(#clip1_198_5220)">
<rect x="168" y="23.5" width="87" height="87" rx="4" fill="#89A4FF"/>
</g>
<g clip-path="url(#clip2_198_5220)">
<rect x="146" y="47.5" width="88" height="88" rx="4" fill="#7081FF"/>
</g>
<rect x="76" y="11.5" width="131" height="23" rx="4" fill="#616AFF"/>
<path d="M88.0573 27.5H86.7835V18.8401H88.0394V22.0636H88.1231C88.2786 21.7008 88.5138 21.4197 88.8288 21.2204C89.1478 21.021 89.5525 20.9213 90.0429 20.9213C90.4974 20.9213 90.8901 21.015 91.2211 21.2024C91.556 21.3858 91.8131 21.6609 91.9926 22.0277C92.176 22.3946 92.2677 22.8411 92.2677 23.3674V27.5H90.9938V23.5169C90.9938 23.2059 90.938 22.9388 90.8263 22.7155C90.7147 22.4883 90.5552 22.3168 90.3479 22.2012C90.1406 22.0856 89.8934 22.0277 89.6063 22.0277C89.3033 22.0277 89.0362 22.0915 88.8049 22.2191C88.5776 22.3427 88.3962 22.5281 88.2607 22.7753C88.1251 23.0185 88.0573 23.3096 88.0573 23.6485V27.5ZM96.8181 22.0218H93.2656V21.0051H96.8181V22.0218ZM95.5023 19.4501V25.5922C95.5023 25.8234 95.5362 26.0009 95.604 26.1245C95.6718 26.2481 95.7615 26.3338 95.8731 26.3816C95.9848 26.4295 96.1183 26.4534 96.2738 26.4534C96.4652 26.4534 96.6785 26.4454 96.9137 26.4295V27.5299C96.6865 27.5658 96.4233 27.5837 96.1243 27.5837C95.7774 27.5837 95.4585 27.5199 95.1674 27.3923C94.8803 27.2608 94.6491 27.0654 94.4737 26.8063C94.3022 26.5431 94.2165 26.2241 94.2165 25.8494V19.4501H95.5023ZM101.063 22.0218H97.5109V21.0051H101.063V22.0218ZM99.7477 19.4501V25.5922C99.7477 25.8234 99.7816 26.0009 99.8494 26.1245C99.9171 26.2481 100.007 26.3338 100.118 26.3816C100.23 26.4295 100.364 26.4534 100.519 26.4534C100.711 26.4534 100.924 26.4454 101.159 26.4295V27.5299C100.932 27.5658 100.669 27.5837 100.37 27.5837C100.023 27.5837 99.7038 27.5199 99.4128 27.3923C99.1257 27.2608 98.8945 27.0654 98.719 26.8063C98.5476 26.5431 98.4619 26.2241 98.4619 25.8494V19.4501H99.7477ZM102.283 21.0051H103.521V22.0517H103.628C103.752 21.8404 103.877 21.6589 104.005 21.5074C104.133 21.3559 104.32 21.2204 104.567 21.1008C104.818 20.9811 105.129 20.9213 105.5 20.9213C106.022 20.9213 106.489 21.0549 106.9 21.322C107.314 21.5852 107.637 21.9699 107.868 22.4763C108.1 22.9787 108.215 23.5747 108.215 24.2645C108.215 24.9463 108.1 25.5423 107.868 26.0527C107.641 26.5591 107.32 26.9478 106.906 27.2189C106.495 27.486 106.028 27.6196 105.506 27.6196C105.147 27.6196 104.84 27.5598 104.585 27.4402C104.334 27.3166 104.141 27.179 104.005 27.0275C103.869 26.876 103.744 26.6986 103.628 26.4953H103.556V29.9401H102.283V21.0051ZM103.527 24.2466C103.527 24.7011 103.592 25.1018 103.724 25.4487C103.855 25.7915 104.049 26.0587 104.304 26.2501C104.559 26.4414 104.866 26.5371 105.225 26.5371C105.588 26.5371 105.899 26.4394 106.158 26.2441C106.417 26.0447 106.611 25.7736 106.738 25.4307C106.866 25.0838 106.93 24.6891 106.93 24.2466C106.93 23.812 106.866 23.4252 106.738 23.0863C106.611 22.7474 106.419 22.4843 106.164 22.2969C105.909 22.1055 105.596 22.0098 105.225 22.0098C104.862 22.0098 104.553 22.1015 104.298 22.2849C104.047 22.4683 103.855 22.7275 103.724 23.0624C103.592 23.3973 103.527 23.792 103.527 24.2466ZM113.101 22.7753C113.041 22.5042 112.905 22.2949 112.694 22.1474C112.487 21.9998 112.212 21.9261 111.869 21.9261C111.629 21.9261 111.414 21.964 111.223 22.0397C111.035 22.1115 110.886 22.2151 110.774 22.3507C110.667 22.4823 110.613 22.6318 110.613 22.7992C110.613 22.9906 110.696 23.1561 110.864 23.2956C111.031 23.4352 111.289 23.5428 111.635 23.6186L112.67 23.8578C113.268 23.9934 113.715 24.2067 114.01 24.4977C114.305 24.7848 114.452 25.1576 114.452 25.6161C114.452 26.0068 114.345 26.3557 114.129 26.6627C113.918 26.9657 113.613 27.203 113.214 27.3744C112.816 27.5459 112.341 27.6316 111.791 27.6316C111.277 27.6316 110.832 27.5578 110.457 27.4103C110.082 27.2588 109.783 27.0415 109.56 26.7584C109.341 26.4713 109.203 26.1284 109.147 25.7297H110.457C110.517 26.0168 110.657 26.2341 110.876 26.3816C111.099 26.5291 111.4 26.6029 111.779 26.6029C112.05 26.6029 112.287 26.569 112.491 26.5012C112.698 26.4295 112.857 26.3258 112.969 26.1902C113.085 26.0547 113.143 25.8972 113.143 25.7178C113.143 25.5065 113.061 25.331 112.897 25.1915C112.738 25.0519 112.485 24.9463 112.138 24.8745L111.127 24.6473C110.541 24.5157 110.096 24.2984 109.793 23.9954C109.49 23.6923 109.341 23.3176 109.345 22.871C109.345 22.4883 109.448 22.1494 109.656 21.8543C109.867 21.5593 110.162 21.33 110.541 21.1665C110.92 21.0031 111.36 20.9213 111.863 20.9213C112.333 20.9213 112.748 20.9991 113.107 21.1546C113.465 21.3061 113.749 21.5214 113.956 21.8005C114.163 22.0796 114.285 22.4045 114.321 22.7753H113.101ZM116.509 27.5837C116.357 27.5837 116.216 27.5439 116.084 27.4641C115.953 27.3844 115.849 27.2807 115.773 27.1531C115.701 27.0216 115.665 26.88 115.665 26.7285C115.665 26.581 115.701 26.4414 115.773 26.3099C115.849 26.1783 115.953 26.0766 116.084 26.0048C116.216 25.9291 116.357 25.8912 116.509 25.8912C116.656 25.8912 116.796 25.9291 116.927 26.0048C117.059 26.0766 117.163 26.1783 117.238 26.3099C117.314 26.4414 117.352 26.581 117.352 26.7285C117.352 26.88 117.314 27.0216 117.238 27.1531C117.163 27.2807 117.059 27.3844 116.927 27.4641C116.796 27.5439 116.656 27.5837 116.509 27.5837ZM116.509 22.8591C116.357 22.8591 116.216 22.8192 116.084 22.7394C115.953 22.6597 115.849 22.556 115.773 22.4284C115.701 22.2969 115.665 22.1553 115.665 22.0038C115.665 21.8563 115.701 21.7168 115.773 21.5852C115.849 21.4536 115.953 21.3519 116.084 21.2802C116.216 21.2044 116.357 21.1665 116.509 21.1665C116.656 21.1665 116.796 21.2044 116.927 21.2802C117.059 21.3519 117.163 21.4536 117.238 21.5852C117.314 21.7168 117.352 21.8563 117.352 22.0038C117.352 22.1553 117.314 22.2969 117.238 22.4284C117.163 22.556 117.059 22.6597 116.927 22.7394C116.796 22.8192 116.656 22.8591 116.509 22.8591ZM119.373 28.8038H118.248L121.035 18.4334H122.172L119.373 28.8038ZM123.582 28.8038H122.458L125.245 18.4334H126.381L123.582 28.8038ZM131.206 24.5575C131.103 24.5575 130.778 24.5775 130.232 24.6173L129.586 24.6652C129.155 24.6971 128.82 24.7968 128.581 24.9642C128.346 25.1317 128.228 25.3709 128.228 25.6819C128.228 25.8852 128.28 26.0567 128.384 26.1962C128.487 26.3318 128.633 26.4374 128.82 26.5132C129.008 26.585 129.221 26.6209 129.46 26.6209C129.799 26.6209 130.092 26.5551 130.339 26.4235C130.59 26.2879 130.784 26.1085 130.919 25.8852C131.055 25.658 131.123 25.4148 131.123 25.1556L131.117 23.1102C131.117 22.863 131.067 22.6537 130.967 22.4823C130.872 22.3068 130.724 22.1753 130.525 22.0876C130.325 21.9959 130.082 21.95 129.795 21.95C129.432 21.95 129.135 22.0258 128.904 22.1773C128.677 22.3248 128.529 22.5241 128.461 22.7753H127.182C127.225 22.4125 127.361 22.0915 127.588 21.8124C127.815 21.5334 128.122 21.3161 128.509 21.1606C128.896 21.0011 129.339 20.9213 129.837 20.9213C130.256 20.9213 130.652 20.9851 131.027 21.1127C131.406 21.2363 131.727 21.4676 131.99 21.8065C132.253 22.1414 132.385 22.6019 132.385 23.188V27.5H131.147V26.6089H131.099C131.011 26.7883 130.884 26.9558 130.716 27.1113C130.549 27.2668 130.333 27.3943 130.07 27.494C129.811 27.5937 129.512 27.6435 129.173 27.6435C128.754 27.6435 128.38 27.5658 128.049 27.4103C127.718 27.2548 127.457 27.0275 127.265 26.7285C127.074 26.4295 126.978 26.0766 126.978 25.6699C126.978 24.9921 127.205 24.5097 127.66 24.2226C128.118 23.9356 128.701 23.7701 129.406 23.7262C129.502 23.7143 129.881 23.6904 130.543 23.6545L131.195 23.6305L131.206 24.5575ZM133.903 21.0051H135.177V27.5H133.903V21.0051ZM134.537 20.0003C134.393 20.0003 134.26 19.9684 134.136 19.9046C134.013 19.8369 133.915 19.7452 133.843 19.6295C133.771 19.5099 133.735 19.3823 133.735 19.2468C133.735 19.1072 133.771 18.9816 133.843 18.87C133.915 18.7544 134.013 18.6627 134.136 18.5949C134.26 18.5271 134.393 18.4932 134.537 18.4932C134.688 18.4932 134.826 18.5271 134.949 18.5949C135.073 18.6627 135.169 18.7544 135.237 18.87C135.308 18.9816 135.344 19.1072 135.344 19.2468C135.344 19.3823 135.308 19.5099 135.237 19.6295C135.169 19.7452 135.073 19.8369 134.949 19.9046C134.826 19.9684 134.688 20.0003 134.537 20.0003ZM139.422 30.0717C138.884 30.0717 138.407 29.9939 137.993 29.8384C137.578 29.6869 137.249 29.4656 137.006 29.1746C136.767 28.8835 136.629 28.5366 136.593 28.1339H137.891C137.955 28.437 138.12 28.6642 138.387 28.8157C138.659 28.9672 139.009 29.043 139.44 29.043C139.966 29.043 140.373 28.9254 140.66 28.6901C140.947 28.4549 141.091 28.0901 141.091 27.5957V26.3218H141.013C140.905 26.5172 140.784 26.6906 140.648 26.8421C140.513 26.9897 140.317 27.1212 140.062 27.2369C139.807 27.3485 139.496 27.4043 139.129 27.4043C138.615 27.4043 138.15 27.2787 137.736 27.0275C137.325 26.7763 137 26.4075 136.761 25.9211C136.525 25.4347 136.408 24.8546 136.408 24.1808C136.408 23.507 136.525 22.9248 136.761 22.4344C136.996 21.94 137.319 21.5652 137.73 21.3101C138.144 21.0509 138.615 20.9213 139.141 20.9213C139.508 20.9213 139.817 20.9811 140.068 21.1008C140.319 21.2204 140.505 21.3499 140.624 21.4895C140.744 21.629 140.877 21.8164 141.025 22.0517H141.103V21.0051H142.359V27.6435C142.359 28.1778 142.233 28.6263 141.982 28.9892C141.731 29.356 141.386 29.6271 140.947 29.8025C140.509 29.982 140 30.0717 139.422 30.0717ZM139.41 26.3457C139.769 26.3457 140.076 26.26 140.331 26.0886C140.586 25.9171 140.78 25.6739 140.911 25.3589C141.043 25.04 141.109 24.6572 141.109 24.2107C141.109 23.7681 141.043 23.3814 140.911 23.0504C140.78 22.7155 140.586 22.4584 140.331 22.2789C140.08 22.0995 139.773 22.0098 139.41 22.0098C139.047 22.0098 138.738 22.1055 138.483 22.2969C138.228 22.4843 138.035 22.7454 137.903 23.0803C137.771 23.4113 137.706 23.788 137.706 24.2107C137.706 24.6373 137.771 25.0121 137.903 25.335C138.035 25.654 138.228 25.9032 138.483 26.0826C138.738 26.258 139.047 26.3457 139.41 26.3457ZM146.622 27.6316C146.016 27.6316 145.482 27.492 145.019 27.2129C144.561 26.9338 144.206 26.5411 143.955 26.0348C143.703 25.5284 143.578 24.9443 143.578 24.2824C143.578 23.6126 143.703 23.0245 143.955 22.5182C144.206 22.0118 144.561 21.6191 145.019 21.34C145.482 21.0609 146.016 20.9213 146.622 20.9213C147.224 20.9213 147.754 21.0609 148.213 21.34C148.671 21.6191 149.024 22.0118 149.271 22.5182C149.518 23.0245 149.642 23.6126 149.642 24.2824C149.642 24.9443 149.518 25.5284 149.271 26.0348C149.024 26.5411 148.671 26.9338 148.213 27.2129C147.754 27.492 147.224 27.6316 146.622 27.6316ZM146.622 26.567C147.005 26.567 147.326 26.4654 147.585 26.262C147.844 26.0547 148.037 25.7796 148.165 25.4367C148.292 25.0898 148.356 24.7031 148.356 24.2765C148.356 23.8498 148.292 23.4631 148.165 23.1162C148.037 22.7693 147.844 22.4942 147.585 22.2909C147.326 22.0836 147.005 21.9799 146.622 21.9799C146.239 21.9799 145.916 22.0836 145.653 22.2909C145.39 22.4942 145.193 22.7693 145.061 23.1162C144.929 23.4631 144.864 23.8498 144.864 24.2765C144.864 24.7031 144.929 25.0898 145.061 25.4367C145.193 25.7796 145.39 26.0547 145.653 26.262C145.916 26.4654 146.239 26.567 146.622 26.567ZM151.716 27.5837C151.565 27.5837 151.423 27.5439 151.292 27.4641C151.16 27.3844 151.057 27.2807 150.981 27.1531C150.909 27.0216 150.873 26.88 150.873 26.7285C150.873 26.581 150.909 26.4414 150.981 26.3099C151.057 26.1783 151.16 26.0766 151.292 26.0048C151.423 25.9291 151.565 25.8912 151.716 25.8912C151.864 25.8912 152.004 25.9291 152.135 26.0048C152.267 26.0766 152.37 26.1783 152.446 26.3099C152.522 26.4414 152.56 26.581 152.56 26.7285C152.56 26.88 152.522 27.0216 152.446 27.1531C152.37 27.2807 152.267 27.3844 152.135 27.4641C152.004 27.5439 151.864 27.5837 151.716 27.5837ZM153.57 21.0051H154.891L156.159 25.7716H156.219L157.487 21.0051H158.809L160.071 25.7417H160.136L161.398 21.0051H162.708L160.806 27.5H159.502L158.187 22.8232H158.097L156.787 27.5H155.477L153.57 21.0051ZM166.337 27.6316C165.711 27.6316 165.163 27.494 164.693 27.2189C164.226 26.9438 163.867 26.5551 163.616 26.0527C163.365 25.5503 163.239 24.9662 163.239 24.3004C163.239 23.6345 163.365 23.0464 163.616 22.5361C163.867 22.0218 164.22 21.6251 164.675 21.346C165.129 21.0629 165.654 20.9213 166.248 20.9213C166.774 20.9213 167.254 21.035 167.689 21.2622C168.124 21.4855 168.472 21.8423 168.736 22.3328C168.999 22.8192 169.13 23.4352 169.13 24.1808V24.6293H163.957V23.6784H167.88C167.88 23.3475 167.813 23.0544 167.677 22.7992C167.545 22.5401 167.356 22.3367 167.109 22.1892C166.862 22.0417 166.579 21.9679 166.26 21.9679C165.913 21.9679 165.608 22.0517 165.345 22.2191C165.081 22.3866 164.876 22.6119 164.729 22.8949C164.581 23.178 164.507 23.481 164.507 23.804V24.5456C164.507 24.9722 164.583 25.339 164.735 25.646C164.89 25.953 165.105 26.1863 165.38 26.3457C165.66 26.5052 165.981 26.585 166.343 26.585C166.575 26.585 166.784 26.5531 166.971 26.4893C167.159 26.4215 167.318 26.3378 167.45 26.2381C167.581 26.1344 167.683 26.0128 167.755 25.8733H169.053C168.957 26.2241 168.785 26.5311 168.538 26.7943C168.291 27.0574 167.978 27.2628 167.599 27.4103C167.224 27.5578 166.804 27.6316 166.337 27.6316ZM170.457 18.8401H171.731V22.0517H171.803C171.95 21.8164 172.082 21.629 172.197 21.4895C172.313 21.3499 172.495 21.2204 172.742 21.1008C172.993 20.9811 173.302 20.9213 173.669 20.9213C174.195 20.9213 174.663 21.0549 175.074 21.322C175.489 21.5852 175.814 21.9699 176.049 22.4763C176.284 22.9787 176.402 23.5747 176.402 24.2645C176.402 24.9463 176.284 25.5423 176.049 26.0527C175.818 26.5591 175.497 26.9478 175.086 27.2189C174.679 27.486 174.211 27.6196 173.681 27.6196C173.318 27.6196 173.011 27.5598 172.76 27.4402C172.512 27.3166 172.323 27.181 172.192 27.0335C172.06 26.882 171.93 26.7026 171.803 26.4953H171.695V27.5H170.457V18.8401ZM171.701 24.2466C171.701 24.7011 171.767 25.1018 171.898 25.4487C172.03 25.7915 172.223 26.0587 172.479 26.2501C172.734 26.4414 173.037 26.5371 173.388 26.5371C173.754 26.5371 174.065 26.4394 174.321 26.2441C174.58 26.0447 174.775 25.7736 174.907 25.4307C175.038 25.0838 175.104 24.6891 175.104 24.2466C175.104 23.812 175.04 23.4252 174.913 23.0863C174.785 22.7474 174.592 22.4843 174.333 22.2969C174.073 22.1055 173.758 22.0098 173.388 22.0098C173.033 22.0098 172.728 22.1015 172.473 22.2849C172.221 22.4683 172.03 22.7275 171.898 23.0624C171.767 23.3973 171.701 23.792 171.701 24.2466ZM181.281 22.7753C181.221 22.5042 181.086 22.2949 180.874 22.1474C180.667 21.9998 180.392 21.9261 180.049 21.9261C179.81 21.9261 179.595 21.964 179.403 22.0397C179.216 22.1115 179.066 22.2151 178.955 22.3507C178.847 22.4823 178.793 22.6318 178.793 22.7992C178.793 22.9906 178.877 23.1561 179.044 23.2956C179.212 23.4352 179.469 23.5428 179.816 23.6186L180.851 23.8578C181.449 23.9934 181.895 24.2067 182.19 24.4977C182.485 24.7848 182.633 25.1576 182.633 25.6161C182.633 26.0068 182.525 26.3557 182.31 26.6627C182.099 26.9657 181.793 27.203 181.395 27.3744C180.996 27.5459 180.522 27.6316 179.971 27.6316C179.457 27.6316 179.013 27.5578 178.638 27.4103C178.263 27.2588 177.964 27.0415 177.741 26.7584C177.521 26.4713 177.384 26.1284 177.328 25.7297H178.638C178.698 26.0168 178.837 26.2341 179.056 26.3816C179.28 26.5291 179.581 26.6029 179.959 26.6029C180.231 26.6029 180.468 26.569 180.671 26.5012C180.878 26.4295 181.038 26.3258 181.15 26.1902C181.265 26.0547 181.323 25.8972 181.323 25.7178C181.323 25.5065 181.241 25.331 181.078 25.1915C180.918 25.0519 180.665 24.9463 180.318 24.8745L179.308 24.6473C178.721 24.5157 178.277 24.2984 177.974 23.9954C177.671 23.6923 177.521 23.3176 177.525 22.871C177.525 22.4883 177.629 22.1494 177.836 21.8543C178.048 21.5593 178.343 21.33 178.721 21.1665C179.1 21.0031 179.541 20.9213 180.043 20.9213C180.514 20.9213 180.928 20.9991 181.287 21.1546C181.646 21.3061 181.929 21.5214 182.136 21.8005C182.344 22.0796 182.465 22.4045 182.501 22.7753H181.281ZM183.858 21.0051H185.132V27.5H183.858V21.0051ZM184.492 20.0003C184.348 20.0003 184.215 19.9684 184.091 19.9046C183.968 19.8369 183.87 19.7452 183.798 19.6295C183.726 19.5099 183.69 19.3823 183.69 19.2468C183.69 19.1072 183.726 18.9816 183.798 18.87C183.87 18.7544 183.968 18.6627 184.091 18.5949C184.215 18.5271 184.348 18.4932 184.492 18.4932C184.643 18.4932 184.781 18.5271 184.905 18.5949C185.028 18.6627 185.124 18.7544 185.192 18.87C185.263 18.9816 185.299 19.1072 185.299 19.2468C185.299 19.3823 185.263 19.5099 185.192 19.6295C185.124 19.7452 185.028 19.8369 184.905 19.9046C184.781 19.9684 184.643 20.0003 184.492 20.0003ZM189.682 22.0218H186.13V21.0051H189.682V22.0218ZM188.366 19.4501V25.5922C188.366 25.8234 188.4 26.0009 188.468 26.1245C188.536 26.2481 188.626 26.3338 188.737 26.3816C188.849 26.4295 188.982 26.4534 189.138 26.4534C189.329 26.4534 189.543 26.4454 189.778 26.4295V27.5299C189.551 27.5658 189.287 27.5837 188.988 27.5837C188.642 27.5837 188.323 27.5199 188.032 27.3923C187.744 27.2608 187.513 27.0654 187.338 26.8063C187.166 26.5431 187.081 26.2241 187.081 25.8494V19.4501H188.366ZM193.629 27.6316C193.003 27.6316 192.454 27.494 191.984 27.2189C191.517 26.9438 191.159 26.5551 190.907 26.0527C190.656 25.5503 190.531 24.9662 190.531 24.3004C190.531 23.6345 190.656 23.0464 190.907 22.5361C191.159 22.0218 191.511 21.6251 191.966 21.346C192.42 21.0629 192.945 20.9213 193.539 20.9213C194.065 20.9213 194.546 21.035 194.98 21.2622C195.415 21.4855 195.764 21.8423 196.027 22.3328C196.29 22.8192 196.421 23.4352 196.421 24.1808V24.6293H191.248V23.6784H195.172C195.172 23.3475 195.104 23.0544 194.968 22.7992C194.837 22.5401 194.647 22.3367 194.4 22.1892C194.153 22.0417 193.87 21.9679 193.551 21.9679C193.204 21.9679 192.899 22.0517 192.636 22.2191C192.373 22.3866 192.167 22.6119 192.02 22.8949C191.872 23.178 191.798 23.481 191.798 23.804V24.5456C191.798 24.9722 191.874 25.339 192.026 25.646C192.181 25.953 192.397 26.1863 192.672 26.3457C192.951 26.5052 193.272 26.585 193.634 26.585C193.866 26.585 194.075 26.5531 194.262 26.4893C194.45 26.4215 194.609 26.3378 194.741 26.2381C194.872 26.1344 194.974 26.0128 195.046 25.8733H196.344C196.248 26.2241 196.077 26.5311 195.829 26.7943C195.582 27.0574 195.269 27.2628 194.89 27.4103C194.516 27.5578 194.095 27.6316 193.629 27.6316Z" fill="#B8C8FF"/>
<defs>
<clipPath id="clip0_198_5220">
<rect x="9" y="77.5" width="192" height="101" rx="4" fill="white"/>
</clipPath>
<clipPath id="clip1_198_5220">
<rect x="168" y="23.5" width="87" height="87" rx="4" fill="white"/>
</clipPath>
<clipPath id="clip2_198_5220">
<rect x="146" y="47.5" width="88" height="88" rx="4" fill="white"/>
</clipPath>
</defs>
</svg>
