<svg width="264" height="190" viewBox="0 0 264 190" fill="none" xmlns="http://www.w3.org/2000/svg">
<rect x="56" y="30" width="208" height="160" rx="4" fill="#ACBFFF"/>
<path d="M74.2561 155.961H244.872" stroke="#9AB2FF" stroke-width="2.56696"/>
<circle cx="103.277" cy="155.96" r="5.77566" fill="#B8C8FF"/>
<path d="M74.2561 172.954H244.872" stroke="#9AB2FF" stroke-width="2.56696"/>
<circle cx="176.665" cy="172.954" r="5.77566" fill="#B8C8FF"/>
<rect x="74.6282" y="63.8301" width="107.812" height="10.5673" fill="#9AB2FF"/>
<rect x="56" y="30" width="208" height="18" fill="#89A4FF"/>
<rect x="74.6282" y="82.0381" width="87.0326" height="10.5673" fill="#9AB2FF"/>
<rect x="74.6282" y="100.247" width="61.361" height="10.5673" fill="#9AB2FF"/>
<rect x="74.6282" y="118.456" width="94.2387" height="10.5673" fill="#9AB2FF"/>
<rect x="209" y="63" width="35.8875" height="18.9614" rx="9.48071" fill="#7081FF"/>
<circle cx="235.289" cy="72.4807" r="7.11053" fill="#9AB2FF"/>
<rect x="22" y="101.83" width="42.3726" height="35.1693" rx="4" fill="#89A4FF"/>
<path d="M56.7457 101.83C56.7457 93.6398 50.675 87 43.1864 87C35.6979 87 29.6272 93.6398 29.6272 101.83" stroke="#89A4FF" stroke-width="6.12241"/>
<ellipse cx="43.1863" cy="116.025" rx="3.81353" ry="4.0254" fill="#616AFF"/>
<rect x="41.9153" y="117.603" width="2.31637" height="9.65154" fill="#616AFF"/>
</svg>
