<svg width="264" height="190" viewBox="0 0 264 190" fill="none" xmlns="http://www.w3.org/2000/svg">
<path d="M102.484 27.633C102.484 25.701 104.05 24.1348 105.982 24.1348H153.742V59.6921H102.484V27.633Z" fill="#7081FF"/>
<path d="M153.742 24.1348H201.502C203.434 24.1348 205 25.701 205 27.633V59.6921H153.742V24.1348Z" fill="#89A4FF"/>
<rect x="102.484" y="59.6924" width="51.258" height="35.5573" fill="#616AFF"/>
<rect x="153.742" y="59.6924" width="51.258" height="35.5573" fill="#7081FF"/>
<rect x="102.484" y="94.7871" width="51.258" height="35.5573" fill="#616AFF"/>
<rect x="153.742" y="94.7871" width="51.258" height="35.5573" fill="#616AFF"/>
<path d="M102.484 129.883H153.742V165.44H105.982C104.05 165.44 102.484 163.874 102.484 161.942V129.883Z" fill="#616AFF"/>
<path d="M153.742 129.883H205V161.942C205 163.874 203.434 165.44 201.502 165.44H153.742V129.883Z" fill="#616AFF"/>
<rect x="60" y="69.3887" width="60.0319" height="60.0319" rx="3.4982" fill="#89A4FF"/>
<path d="M89.6141 96.0808H89.8553L96.7914 84.4785H101.918L92.871 99.3459L101.978 114.213H96.8316L89.8553 102.775H89.6141L82.6378 114.213H77.491L86.7793 99.3459L77.5513 84.4785H82.6981L89.6141 96.0808Z" fill="#B8C8FF"/>
</svg>
