<svg width="198" height="186" viewBox="0 0 198 186" fill="none" xmlns="http://www.w3.org/2000/svg">
<path d="M184 93C184 110.998 178.663 128.592 168.664 143.557C158.665 158.522 144.452 170.185 127.824 177.073C111.196 183.961 92.8991 185.763 75.2468 182.251C57.5945 178.74 41.3799 170.073 28.6533 157.347C15.9267 144.62 7.25983 128.405 3.74858 110.753C0.237326 93.1009 2.03943 74.8039 8.927 58.1758C15.8146 41.5477 27.4783 27.3355 42.4431 17.3363C57.408 7.33706 75.0019 2 93 2M184 93L171.5 105.5M184 93L196.5 105.5" stroke="#E7E4FF" stroke-width="3" stroke-dasharray="5 5"/>
</svg>
