<svg width="36" height="36" viewBox="0 0 36 36" fill="none" xmlns="http://www.w3.org/2000/svg">
<circle cx="17.6175" cy="18.0677" r="17.5526" fill="#7393FF"/>
<path d="M17.1115 10.719H18.0383V25.1969H17.1115V10.719ZM20.2116 15.0815C20.169 14.7087 20.0358 14.3864 19.8121 14.1147C19.5884 13.8431 19.2901 13.638 18.9172 13.4995C18.5444 13.361 18.1235 13.2918 17.6548 13.2918C17.1541 13.2918 16.712 13.3717 16.3285 13.5315C15.9449 13.6913 15.6466 13.915 15.4336 14.2026C15.2205 14.4903 15.114 14.8205 15.114 15.1934C15.114 15.7261 15.3324 16.1335 15.7692 16.4159C16.2059 16.6982 16.7333 16.9192 17.3512 17.079L18.5017 17.3986C19.3966 17.6223 20.1663 17.9739 20.8108 18.4533C21.4554 18.9327 21.7776 19.6465 21.7776 20.5946C21.7776 21.2232 21.6125 21.7931 21.2823 22.3045C20.952 22.8158 20.4699 23.218 19.8361 23.511C19.2022 23.8039 18.4485 23.9504 17.5749 23.9504C16.7546 23.9504 16.0382 23.8172 15.4256 23.5509C14.813 23.2846 14.3336 22.9091 13.9874 22.4243C13.6412 21.9396 13.4467 21.3776 13.4041 20.7384H14.8743C14.9169 21.1539 15.0634 21.5028 15.3137 21.7851C15.5641 22.0674 15.8863 22.2805 16.2805 22.4243C16.6747 22.5681 17.1062 22.6401 17.5749 22.6401C18.1076 22.6401 18.587 22.5548 19.0131 22.3844C19.4392 22.2139 19.7721 21.9689 20.0118 21.6493C20.2515 21.3297 20.3714 20.9675 20.3714 20.5627C20.3714 20.2111 20.2729 19.9155 20.0758 19.6758C19.8787 19.4361 19.6177 19.2417 19.2927 19.0925C18.9678 18.9434 18.5657 18.7995 18.0863 18.661L16.664 18.2775C15.7159 18.0005 14.9888 17.617 14.4828 17.127C13.9767 16.6369 13.7237 16.0137 13.7237 15.2573C13.7237 14.6181 13.8995 14.0535 14.2511 13.5634C14.6026 13.0734 15.0794 12.6925 15.6813 12.4209C16.2832 12.1492 16.957 12.0134 17.7027 12.0134C18.4378 12.0134 19.0983 12.1465 19.6843 12.4129C20.2702 12.6792 20.7336 13.0441 21.0745 13.5075C21.4154 13.9709 21.5965 14.4956 21.6178 15.0815H20.2116Z" fill="white"/>
</svg>
