<svg width="25" height="25" viewBox="0 0 25 25" fill="none" xmlns="http://www.w3.org/2000/svg">
<circle cx="12.8162" cy="12.5589" r="12.1839" fill="#7393FF"/>
<path d="M15.4365 12.0471H8.06972L8.46922 10.9125H15.9638L15.4365 12.0471ZM14.4617 14.3002H8.06972L8.46922 13.1657H14.9891L14.4617 14.3002ZM16.7468 9.05881C16.6297 8.95228 16.4539 8.81378 16.2195 8.64333C15.9212 8.43027 15.6069 8.27047 15.2767 8.16393C14.9464 8.0574 14.6002 8.00413 14.238 8.00413C13.5881 8.00413 13.0102 8.18258 12.5042 8.53946C11.9981 8.89635 11.5986 9.42102 11.3057 10.1135C11.0127 10.806 10.8662 11.6369 10.8662 12.6064C10.8662 13.5758 11.0127 14.4068 11.3057 15.0992C11.5986 15.7917 11.9981 16.3164 12.5042 16.6733C13.0102 17.0302 13.5881 17.2086 14.238 17.2086C14.6428 17.2086 15.0263 17.142 15.3886 17.0088C15.7508 16.8757 16.0917 16.6919 16.4113 16.4575C16.5071 16.3723 16.603 16.2924 16.6989 16.2178L17.2902 17.4163C16.896 17.7892 16.4352 18.0715 15.9079 18.2633C15.3806 18.455 14.8239 18.5509 14.238 18.5509C13.3112 18.5509 12.4855 18.3086 11.7611 17.8238C11.0367 17.3391 10.472 16.6466 10.0672 15.7464C9.6624 14.8462 9.45998 13.7995 9.45998 12.6064C9.45998 11.4025 9.6624 10.3532 10.0672 9.45831C10.472 8.56343 11.0367 7.87363 11.7611 7.3889C12.4855 6.90418 13.3112 6.66182 14.238 6.66182C14.8346 6.66182 15.3912 6.76302 15.9079 6.96543C16.4246 7.16785 16.8907 7.46081 17.3061 7.84433L16.7468 9.05881Z" fill="white"/>
</svg>
