<svg width="160" height="160" viewBox="0 0 160 160" fill="none" xmlns="http://www.w3.org/2000/svg">
<path d="M23.4729 28.835C24.4115 24.5175 28.6723 21.7785 32.9898 22.7171L146.342 47.3599C150.659 48.2985 153.399 52.5594 152.46 56.8768L136.527 130.165C135.588 134.482 131.328 137.221 127.01 136.283L13.6579 111.64C9.34045 110.701 6.60138 106.44 7.53999 102.123L23.4729 28.835Z" fill="#ACBFFF"/>
<path d="M23.4729 28.835C24.4115 24.5175 28.6723 21.7785 32.9898 22.7171L146.342 47.3599C150.659 48.2985 153.399 52.5594 152.46 56.8768L136.527 130.165C135.588 134.482 131.328 137.221 127.01 136.283L13.6579 111.64C9.34045 110.701 6.60138 106.44 7.53999 102.123L23.4729 28.835Z" fill="#ACBFFF"/>
<path d="M145.141 68.2347L82.9646 81.2132C80.7399 81.6776 78.4227 81.1738 76.5915 79.8277L25.4156 42.2064C22.8721 40.3366 21.6661 37.1459 22.3367 34.0612L23.4729 28.835C24.4115 24.5175 28.6723 21.7785 32.9898 22.7171L146.342 47.3599C150.659 48.2985 153.398 52.5594 152.46 56.8768L151.324 62.103C150.653 65.1877 148.231 67.5897 145.141 68.2347Z" fill="#89A4FF"/>
<g clip-path="url(#clip0_226_2723)">
<path d="M128.907 121.953L122.073 120.467L123.39 114.41C123.422 114.265 123.33 114.121 123.186 114.09L121.388 113.699C121.245 113.668 121.101 113.761 121.07 113.905L119.753 119.963L114.374 118.794C114.231 118.762 114.088 118.853 114.057 118.996L113.66 120.821C113.629 120.962 113.721 121.105 113.865 121.136L128.397 124.296C128.541 124.327 128.684 124.237 128.715 124.093L129.111 122.269C129.143 122.125 129.05 121.984 128.907 121.953Z" fill="#7081FF"/>
<path d="M117.477 108.61L128.368 110.978L128.313 111.213C127.91 112.958 127.386 114.69 126.755 116.363L126.16 117.941C126.107 118.079 126.176 118.235 126.314 118.288L128.033 118.942C128.171 118.995 128.326 118.925 128.379 118.786L128.974 117.208C129.643 115.435 130.199 113.598 130.627 111.748L131.166 109.415C131.199 109.269 131.108 109.124 130.963 109.092L117.985 106.271C117.842 106.239 117.698 106.332 117.667 106.477L117.272 108.292C117.241 108.436 117.333 108.58 117.476 108.612L117.477 108.61Z" fill="#7081FF"/>
<path d="M113.705 105.338L111.941 104.955C111.787 104.922 111.637 105.013 111.605 105.158L108.455 119.651C108.42 119.812 108.53 119.974 108.7 120.01L110.433 120.387C110.587 120.421 110.737 120.329 110.769 120.184L113.926 105.662C113.957 105.517 113.858 105.372 113.705 105.338Z" fill="#7081FF"/>
<path d="M93.4104 100.926L91.647 100.543C91.4932 100.51 91.3428 100.601 91.3113 100.746L88.1605 115.239C88.1255 115.4 88.2361 115.561 88.4058 115.598L90.1388 115.975C90.2925 116.009 90.443 115.917 90.4745 115.772L93.6316 101.25C93.6631 101.105 93.5641 100.96 93.4104 100.926Z" fill="#7081FF"/>
<path d="M88.1692 99.7874L86.4057 99.404C86.252 99.3706 86.1015 99.462 86.07 99.6069L84.4856 106.895L80.4366 106.015C84.5635 102.31 84.462 100.716 84.4257 100.157C84.3806 99.4556 84.0283 98.8688 83.4337 98.502C81.0844 97.055 76.5788 100.043 73.213 102.803C67.587 107.417 67.7098 109.304 67.7497 109.924C67.7947 110.625 68.1471 111.211 68.7417 111.578C68.9786 111.725 69.2377 111.826 69.5161 111.886C71.7639 112.375 75.2257 110.22 78.1105 107.961L83.9766 109.236L82.9129 114.129C82.8814 114.274 82.9804 114.419 83.1341 114.453L84.8976 114.836C85.0513 114.87 85.2018 114.778 85.2333 114.633L88.3904 100.111C88.4218 99.9664 88.3229 99.8208 88.1692 99.7874ZM70.162 109.572C70.3238 109.086 71.0909 107.625 74.7062 104.66C79.1127 101.046 81.3427 100.478 82.0095 100.512C81.8477 100.998 81.0806 102.459 77.4653 105.424C73.0573 109.038 70.8288 109.606 70.162 109.572Z" fill="#7081FF"/>
<path d="M102.756 102.571C100.617 102.106 98.81 102.496 97.3835 103.727C96.0783 104.855 95.1498 106.652 94.6243 109.07C94.0988 111.487 94.1971 113.508 94.9164 115.075C95.7026 116.789 97.1849 117.893 99.3239 118.358C101.463 118.823 103.27 118.433 104.697 117.202C106.002 116.074 106.93 114.276 107.456 111.859C107.981 109.442 107.883 107.421 107.164 105.853C106.378 104.139 104.895 103.036 102.756 102.571ZM102.596 111.377C98.8456 114.453 96.7042 115.054 95.9515 114.59C95.7813 114.485 95.6923 114.336 95.6797 114.135C95.6237 113.254 97.0102 111.585 99.4869 109.554C102.847 106.798 104.916 106.03 105.851 106.233C105.96 106.257 106.053 106.294 106.131 106.341C106.301 106.446 106.39 106.595 106.403 106.796C106.459 107.677 105.072 109.346 102.596 111.377Z" fill="#7081FF"/>
</g>
<rect x="24.4612" y="67" width="17" height="21" rx="4" transform="rotate(12.2653 24.4612 67)" fill="#9AB2FF"/>
<defs>
<clipPath id="clip0_226_2723">
<rect width="65" height="20" fill="white" transform="translate(69.8669 93.1592) rotate(12.2653)"/>
</clipPath>
</defs>
</svg>
