<svg width="141" height="29" viewBox="0 0 141 29" fill="none" xmlns="http://www.w3.org/2000/svg">
<g clip-path="url(#clip0_271_4027)">
<path d="M0.175781 1.77066C0.175781 0.999858 0.800638 0.375 1.57144 0.375H26.7802C27.5509 0.375 28.1758 0.999857 28.1758 1.77066V3.875H10.3214C9.55062 3.875 8.92578 4.49986 8.92578 5.27066V28.375H1.57144C0.800639 28.375 0.175781 27.7502 0.175781 26.9794V1.77066Z" fill="#101010"/>
<path d="M11.7285 7.71792C11.7285 6.94712 12.3534 6.32227 13.1242 6.32227H28.1785V9.99728H17.3242C16.5534 9.99728 15.9285 10.6221 15.9285 11.3929V28.3723H11.7285V7.71792Z" fill="#101010"/>
<path d="M18.5508 14.0206C18.5508 13.2498 19.1756 12.625 19.9464 12.625H28.1758V26.9794C28.1758 27.7502 27.5509 28.375 26.7802 28.375H18.5508V14.0206Z" fill="#101010"/>
<path d="M45.7817 23.3877C42.0254 23.3877 39.7046 20.7319 39.7046 16.7363C39.7046 12.7407 42.0493 9.9653 45.5903 9.9653C48.3178 9.9653 51.189 11.6401 51.189 16.4492V17.3106H41.7622C41.8579 20.062 43.461 21.5694 45.7817 21.5694C47.3369 21.5694 48.3178 20.8994 48.7964 20.0859H50.9975C50.3755 22.0478 48.4614 23.3877 45.7817 23.3877ZM41.7861 15.564H49.1074C49.1074 13.3867 47.7197 11.7837 45.5903 11.7837C43.3413 11.7837 41.9057 13.5542 41.7861 15.564ZM64.1567 10.1328L59.3476 23.1245H57.2182L52.4331 10.1328H54.6821L58.2231 20.4448H58.3667L61.9077 10.1328H64.1567ZM71.4062 23.3877C67.6499 23.3877 65.3291 20.7319 65.3291 16.7363C65.3291 12.7407 67.6738 9.9653 71.2148 9.9653C73.9424 9.9653 76.8134 11.6401 76.8134 16.4492V17.3106H67.3867C67.4824 20.062 69.0854 21.5694 71.4062 21.5694C72.9614 21.5694 73.9424 20.8994 74.4209 20.0859H76.6221C75.9999 22.0478 74.086 23.3877 71.4062 23.3877ZM67.4106 15.564H74.7319C74.7319 13.3867 73.3442 11.7837 71.2148 11.7837C68.9658 11.7837 67.5303 13.5542 67.4106 15.564ZM79.4931 23.1245V10.1328H81.479V12.1187H81.6225C82.1011 10.8028 83.4409 9.91744 84.9722 9.91744C85.2832 9.91744 85.8096 9.94141 86.0488 9.9653V12.0468C85.9053 11.9991 85.331 11.9033 84.8047 11.9033C82.9384 11.9033 81.5508 13.1953 81.5508 14.9419V23.1245H79.4931ZM88.059 23.1245V10.1328H90.1161V23.1245H88.059ZM89.0871 7.97949C88.2979 7.97949 87.6519 7.38134 87.6519 6.61572C87.6519 5.85009 88.2979 5.25195 89.0871 5.25195C89.8773 5.25195 90.5466 5.85009 90.5466 6.61572C90.5466 7.38134 89.8773 7.97949 89.0871 7.97949ZM99.0648 10.1328V11.8555H96.3365V19.3921C96.3365 21.0669 97.1503 21.3301 98.0358 21.3301C98.4181 21.3301 98.9449 21.3062 99.2555 21.2822V23.1963C98.9449 23.2441 98.4181 23.292 97.8205 23.292C96.0976 23.292 94.2558 22.2153 94.2558 19.9184V11.8555H92.2931V10.1328H94.2558V7.02246H96.3365V10.1328H99.0648ZM106.481 23.3877C103.252 23.3877 100.955 20.7798 100.955 16.6646C100.955 12.5493 103.252 9.9653 106.506 9.9653C109.018 9.9653 109.831 11.4965 110.261 12.1904H110.406V5.80224H112.486V23.1245H110.477V21.1387H110.261C109.807 21.8565 108.97 23.3877 106.481 23.3877ZM106.768 21.5454C109.137 21.5454 110.477 19.5356 110.477 16.6167C110.477 13.7456 109.185 11.8076 106.768 11.8076C104.281 11.8076 103.036 13.9131 103.036 16.6167C103.036 19.3921 104.304 21.5454 106.768 21.5454ZM115.43 19.44C115.43 16.4492 118.062 15.7793 120.311 15.6118C121.136 15.552 123.241 15.4444 123.827 15.4204V14.3677C123.827 12.7168 122.846 11.7597 120.885 11.7597C119.234 11.7597 118.253 12.5254 117.966 13.5063H115.812C116.076 11.4248 118.109 9.9653 120.98 9.9653C122.679 9.9653 125.862 10.4678 125.862 14.559V23.1245H123.827V21.354H123.732C123.301 22.2393 122.105 23.4356 119.856 23.4356C117.392 23.4356 115.43 21.9761 115.43 19.44ZM117.487 19.5356C117.487 20.8994 118.636 21.5933 120.215 21.5933C122.536 21.5933 123.827 20.0381 123.827 18.4111V17.0952L120.55 17.3345C118.684 17.4541 117.487 18.1241 117.487 19.5356ZM130 28.0053C129.546 28.0053 129.115 27.9815 128.852 27.9575V26.1153C129.068 26.1391 129.546 26.1631 129.857 26.1631C130.694 26.1631 131.388 26.0913 132.082 24.2012L132.465 23.2202L127.655 10.1328H129.905L133.446 20.4448H133.59L137.131 10.1328H139.38L133.877 24.9907C133.111 27.0244 131.843 28.0053 130 28.0053Z" fill="#101010"/>
</g>
<defs>
<clipPath id="clip0_271_4027">
<rect width="140" height="28" fill="white" transform="translate(0.175781 0.375)"/>
</clipPath>
</defs>
</svg>
