<svg width="91" height="28" viewBox="0 0 91 28" fill="none" xmlns="http://www.w3.org/2000/svg">
<path d="M89.333 21.8324H79.5428V13.1537C79.5428 12.9462 79.3745 12.7764 79.1688 12.7764H76.5924C76.3867 12.7764 76.2184 12.9462 76.2184 13.1537V21.8324H68.5122C68.3065 21.8324 68.1382 21.998 68.1382 22.2034V24.8175C68.1382 25.0209 68.3065 25.1886 68.5122 25.1886H89.333C89.5386 25.1886 89.7069 25.0229 89.7069 24.8175V22.2034C89.7069 21.998 89.5386 21.8324 89.333 21.8324Z" fill="white"/>
<path d="M69.7273 6.97796H85.3309L85.3267 7.31546C85.2935 9.82264 85.092 12.3487 84.7263 14.8244L84.3814 17.1597C84.3502 17.3651 84.4915 17.558 84.6951 17.5894L87.2424 17.973C87.446 18.0045 87.6372 17.8619 87.6683 17.6565L88.0132 15.3212C88.4018 12.6967 88.6158 10.0176 88.6511 7.35948L88.6947 4.0075C88.6968 3.79787 88.5285 3.62598 88.3207 3.62598H69.7273C69.5216 3.62598 69.3533 3.79578 69.3533 4.00331V6.60272C69.3533 6.81025 69.5216 6.98005 69.7273 6.98005V6.97796Z" fill="white"/>
<path d="M63.5941 3.62402H61.0676C60.8474 3.62402 60.6687 3.79382 60.6687 4.00135V24.7652C60.6687 24.9958 60.8682 25.1845 61.1113 25.1845H63.5941C63.8144 25.1845 63.993 25.0147 63.993 24.8071V4.00135C63.993 3.79382 63.8144 3.62402 63.5941 3.62402Z" fill="white"/>
<path d="M34.5187 3.62402H31.9922C31.7719 3.62402 31.5933 3.79382 31.5933 4.00135V24.7652C31.5933 24.9958 31.7927 25.1845 32.0358 25.1845H34.5187C34.7389 25.1845 34.9176 25.0147 34.9176 24.8071V4.00135C34.9176 3.79382 34.7389 3.62402 34.5187 3.62402Z" fill="white"/>
<path d="M27.0095 3.62445H24.483C24.2628 3.62445 24.0841 3.79425 24.0841 4.00179V14.4435H18.2831C22.8271 8.14827 22.2141 5.99746 21.998 5.2428C21.7279 4.29737 21.0714 3.5993 20.1489 3.27437C16.5046 1.99353 11.2292 7.42085 7.44573 12.1983C1.12117 20.1831 1.85045 22.728 2.08938 23.5644C2.35949 24.5099 3.01604 25.2079 3.93855 25.5329C4.3063 25.6628 4.69068 25.7236 5.0896 25.7236C8.31006 25.7236 12.4052 21.747 15.6797 17.7975H24.0841V24.8075C24.0841 25.0151 24.2628 25.1849 24.483 25.1849H27.0095C27.2297 25.1849 27.4084 25.0151 27.4084 24.8075V4.00179C27.4084 3.79425 27.2297 3.62445 27.0095 3.62445ZM5.2849 22.3654C5.36178 21.6526 5.97679 19.4264 10.0408 14.2946C14.9941 8.03926 17.8759 6.5991 18.7984 6.44817C18.7215 7.16091 18.1065 9.38718 14.0425 14.5189C9.08713 20.7743 6.20741 22.2144 5.2849 22.3654Z" fill="white"/>
<path d="M47.7931 3.09375C44.7285 3.09375 42.3724 4.16496 40.7871 6.27383C39.3368 8.20453 38.6013 10.9402 38.6013 14.4033C38.6013 17.8664 39.3368 20.602 40.7871 22.5327C42.3724 24.6437 44.7285 25.7128 47.7931 25.7128C50.8578 25.7128 53.2139 24.6416 54.7992 22.5327C56.2494 20.602 56.9849 17.8664 56.9849 14.4033C56.9849 10.9402 56.2494 8.20453 54.7992 6.27383C53.2139 4.16286 50.8578 3.09375 47.7931 3.09375ZM50.1929 15.1894C45.9772 20.5119 43.2263 21.9709 42.0586 21.56C41.7948 21.4678 41.6285 21.2896 41.5517 21.0192C41.213 19.8306 42.6134 17.1348 45.3975 13.6193C49.1748 8.85018 51.7761 7.18363 53.1162 7.18363C53.2721 7.18363 53.4113 7.20669 53.5318 7.24861C53.7956 7.34085 53.9619 7.51904 54.0387 7.78946C54.3774 8.97806 52.977 11.6739 50.1929 15.1894Z" fill="white"/>
</svg>
