<svg width="136" height="139" viewBox="0 0 136 139" fill="none" xmlns="http://www.w3.org/2000/svg">
<circle cx="66.9777" cy="68.3297" r="66.2663" fill="#7393FF"/>
<mask id="mask0_198_4995" style="mask-type:alpha" maskUnits="userSpaceOnUse" x="3" y="0" width="133" height="139">
<path d="M72.0967 138.56L71.8332 138.518C71.8701 138.546 71.9135 138.565 71.9595 138.572C72.0055 138.579 72.0527 138.575 72.0967 138.56ZM131.998 46.1098C131.923 45.7201 131.717 45.3661 131.413 45.1042C131.11 44.8422 130.726 44.6872 130.322 44.6639C129.918 44.6405 129.518 44.75 129.185 44.9751C128.852 45.2002 128.605 45.528 128.484 45.9063C128.368 46.2656 128.139 46.5794 127.829 46.8028C127.52 47.0263 127.146 47.1478 126.762 47.1499H121.667C121.338 47.1499 121.014 47.0617 120.732 46.8947L113.362 42.56C113.08 42.3931 112.757 42.3048 112.427 42.3048H100.638C100.279 42.3048 99.9283 42.4094 99.6301 42.6052L85.0912 52.1113C84.8398 52.2754 84.6342 52.4984 84.4927 52.7601C84.3513 53.0217 84.2786 53.3138 84.2811 53.61V67.0922C84.2807 67.4153 84.3699 67.7325 84.5394 68.0096C84.7088 68.2867 84.9519 68.5134 85.2426 68.6653L104.306 78.6461C104.593 78.7973 104.833 79.0206 105.002 79.2932C105.171 79.5657 105.263 79.8776 105.268 80.1965L105.357 87.7839C105.362 88.098 105.451 88.4053 105.616 88.6746C105.781 88.944 106.015 89.166 106.295 89.3182L113.955 93.4753C114.239 93.6299 114.475 93.856 114.64 94.1302C114.805 94.4045 114.893 94.717 114.894 95.0354V110.733C114.894 111.077 114.995 111.412 115.184 111.7C115.374 111.989 115.645 112.217 115.963 112.358C116.282 112.499 116.636 112.547 116.982 112.496C117.327 112.445 117.651 112.298 117.913 112.071C121.002 109.403 125.431 105.507 126.021 104.616C126.996 103.136 127.91 101.621 128.764 100.071C130.533 96.8586 132.03 93.5097 133.243 90.0579C137.418 78.2004 134.119 56.8853 131.998 46.1098ZM78.4852 83.2619L58.2888 68.4036C58.0608 68.2359 57.7834 68.1452 57.4984 68.1452H47.9156C47.7516 68.1454 47.5893 68.1138 47.4378 68.0523C47.2864 67.9908 47.1488 67.9005 47.033 67.7867L42.5149 63.3551C42.3925 63.2351 42.2472 63.14 42.0873 63.0752C41.9273 63.0103 41.756 62.977 41.583 62.9771H24.0671C23.8202 62.9772 23.5789 62.9054 23.3736 62.7708C23.1684 62.6363 23.0084 62.4451 22.9139 62.2214C22.8195 61.9977 22.7948 61.7516 22.8429 61.5141C22.8911 61.2766 23.0099 61.0585 23.1845 60.8873L25.9573 58.1676C26.0731 58.0538 26.2106 57.9635 26.3621 57.902C26.5135 57.8405 26.6759 57.8089 26.8398 57.8091H37.4995C38.0737 57.8091 38.6321 57.6251 39.0898 57.2852C39.5475 56.9452 39.8795 56.468 40.0352 55.9259L42.3041 48.0123C42.3525 47.8423 42.4359 47.6837 42.5492 47.5465C42.6625 47.4093 42.8032 47.2963 42.9628 47.2145L52.0089 42.6472C52.2124 42.544 52.3831 42.3879 52.5021 42.1959C52.6212 42.0039 52.6841 41.7834 52.6839 41.5587V37.5211C52.6839 37.2705 52.762 37.0259 52.9079 36.8202L57.7158 30.0306C57.86 29.8267 58.0646 29.6711 58.3019 29.5849L65.0297 27.1074C65.2677 27.02 65.4728 26.8633 65.6176 26.6584C65.7623 26.4535 65.8399 26.2101 65.8398 25.9608V22.2785C65.8398 22.0766 65.789 21.8778 65.6919 21.6998C65.5948 21.5217 65.4545 21.3699 65.2833 21.2578L58.539 16.8585C58.3537 16.7389 58.1396 16.6694 57.9181 16.6569C57.6967 16.6444 57.4758 16.6895 57.2778 16.7874L48.0967 21.2901C47.8866 21.3918 47.6516 21.4334 47.4186 21.41C47.1856 21.3865 46.9641 21.2991 46.7794 21.1577L42.426 17.7823C42.2774 17.6651 42.1581 17.5162 42.0772 17.3469C41.9963 17.1775 41.9559 16.9923 41.959 16.8054C41.9622 16.6184 42.0089 16.4346 42.0955 16.268C42.1822 16.1015 42.3065 15.9565 42.4589 15.8443L45.9957 13.2893C46.1558 13.1741 46.2855 13.023 46.3739 12.8486C46.4624 12.6743 46.507 12.4817 46.5041 12.2869C46.5012 12.0922 46.4509 11.901 46.3573 11.7292C46.2637 11.5574 46.1295 11.4101 45.966 11.2996L40.4567 7.53011C40.266 7.3984 40.0414 7.32191 39.8085 7.30934C39.5756 7.29678 39.3438 7.34865 39.1395 7.45905C37.1472 8.52819 31.302 11.6936 29.2273 13.1181C19.6285 19.721 11.9035 28.6143 6.78166 38.9585C6.18232 40.173 5.44138 41.4101 5.36893 42.7441C5.29648 44.0781 4.22953 47.0562 3.78496 48.261C3.72499 48.4239 3.70103 48.5974 3.71465 48.77C3.72828 48.9427 3.77918 49.1105 3.86399 49.2624L15.617 70.445C15.7228 70.6376 15.8798 70.7983 16.0714 70.9101L28.437 78.1907C28.5974 78.2844 28.7343 78.4123 28.8374 78.565C28.9406 78.7176 29.0075 78.8911 29.033 79.0725L31.5094 96.6892C31.5336 96.858 31.5932 97.0201 31.6845 97.1652C31.7757 97.3103 31.8966 97.4353 32.0396 97.5322L41.6883 104.038C41.9678 104.226 42.1625 104.513 42.2317 104.839L47.3491 128.676C47.3778 128.816 47.4325 128.95 47.5105 129.07C47.9913 129.833 49.9079 132.623 52.2196 133.037C52.0056 133.095 51.8146 133.228 51.6005 133.289C52.1558 133.385 52.7054 133.51 53.2471 133.664C53.9057 133.838 54.5643 133.987 55.2229 134.125C56.2536 134.326 56.3557 134.481 56.8497 133.583C57.5083 132.381 58.2624 131.968 58.8255 131.819C59.0579 131.767 59.2705 131.651 59.4389 131.485C59.6072 131.32 59.7245 131.111 59.7772 130.882L63.0934 115.805C63.1631 115.489 63.3511 115.21 63.6203 115.023L78.4391 104.719C78.6113 104.6 78.7518 104.441 78.8486 104.257C78.9455 104.074 78.9959 103.87 78.9957 103.663V84.2955C78.9976 84.0963 78.9525 83.8993 78.864 83.72C78.7754 83.5407 78.6458 83.3839 78.4852 83.2619Z" fill="black"/>
<path d="M69.0655 0.341309C69.0655 0.341309 67.8731 0.408601 67.6314 0.41501C65.8607 0.46628 64.0944 0.585911 62.3324 0.773902C55.9094 1.45758 49.619 3.03839 43.6521 5.46835C44.4459 6.00669 43.0804 6.50017 43.0804 6.50017L45.2169 10.5954H56.6512L64.4918 14.4407L71.3524 10.5954L69.0655 0.341309ZM99.1965 23.4322L104.459 18.9461C104.624 18.8058 104.751 18.6273 104.827 18.4269C104.903 18.2265 104.927 18.0105 104.897 17.7987C104.866 17.5868 104.782 17.3858 104.652 17.214C104.522 17.0422 104.35 16.9051 104.152 16.8151L98.0073 14.0177C97.6951 13.8749 97.3381 13.8587 97.0138 13.9727C96.6896 14.0867 96.4244 14.3217 96.2758 14.6265L93.7439 19.8209C93.6061 20.1048 93.5796 20.4286 93.6693 20.7305C93.7591 21.0325 93.9589 21.2915 94.2307 21.4583L97.6479 23.554C97.8854 23.6989 98.1639 23.7652 98.4426 23.7433C98.7214 23.7214 98.9856 23.6123 99.1965 23.4322ZM123.832 30.0365L121.928 27.1525C121.898 27.1077 121.872 27.0628 121.846 27.0147C121.503 26.3258 118.664 20.7021 116.292 18.5199C114.512 16.8696 114.005 17.3439 113.865 17.7092C113.785 17.9112 113.65 18.0883 113.476 18.2219L104.054 25.6913C103.822 25.8755 103.533 25.9761 103.234 25.9765H98.3568C98.1852 25.9764 98.0152 26.0094 97.8566 26.0737C97.6979 26.1381 97.5537 26.2324 97.4323 26.3514L93.512 30.1967C93.3905 30.3157 93.2941 30.4571 93.2283 30.6127C93.1626 30.7683 93.1287 30.9351 93.1287 31.1035C93.1287 31.272 93.1626 31.4388 93.2283 31.5944C93.2941 31.75 93.3905 31.8914 93.512 32.0104L97.4323 35.8557C97.5537 35.9747 97.6979 36.069 97.8566 36.1334C98.0152 36.1977 98.1852 36.2307 98.3568 36.2306H122.914C123.091 36.2307 123.265 36.1959 123.428 36.1281C123.59 36.0603 123.737 35.961 123.859 35.8361C123.981 35.7113 124.076 35.5635 124.138 35.4016C124.2 35.2398 124.229 35.0672 124.221 34.8944L124.041 30.6806C124.032 30.4514 123.96 30.229 123.832 30.0365Z" fill="black"/>
</mask>
<g mask="url(#mask0_198_4995)">
<circle cx="66.9777" cy="68.3297" r="66.2663" fill="#5079FF"/>
</g>
</svg>
