<svg width="361" height="324" viewBox="0 0 361 324" fill="none" xmlns="http://www.w3.org/2000/svg">
<rect x="0.770508" y="1.125" width="359.25" height="321.75" rx="1.125" fill="white"/>
<rect x="0.770508" y="1.125" width="359.25" height="321.75" rx="1.125" stroke="#DBDFEA" stroke-width="0.75"/>
<g clip-path="url(#clip0_383_5256)">
<path d="M21.673 32.6725C22.519 32.6725 23.248 32.767 23.86 32.956C24.472 33.145 24.9445 33.415 25.2775 33.766C25.6105 34.108 25.777 34.5265 25.777 35.0215C25.777 35.5075 25.6105 35.926 25.2775 36.277C24.9445 36.628 24.472 36.8935 23.86 37.0735C23.248 37.2625 22.519 37.357 21.673 37.357C20.827 37.357 20.0935 37.2625 19.4725 37.0735C18.8605 36.8935 18.388 36.628 18.055 36.277C17.731 35.926 17.569 35.5075 17.569 35.0215C17.569 34.5265 17.731 34.108 18.055 33.766C18.388 33.415 18.8605 33.145 19.4725 32.956C20.0935 32.767 20.827 32.6725 21.673 32.6725ZM21.673 33.793C21.106 33.793 20.62 33.8425 20.215 33.9415C19.81 34.0315 19.4995 34.1665 19.2835 34.3465C19.0675 34.5265 18.9595 34.747 18.9595 35.008C18.9595 35.287 19.0675 35.5165 19.2835 35.6965C19.4995 35.8765 19.81 36.016 20.215 36.115C20.62 36.205 21.106 36.25 21.673 36.25C22.249 36.25 22.735 36.205 23.131 36.115C23.536 36.016 23.8465 35.8765 24.0625 35.6965C24.2785 35.5165 24.3865 35.287 24.3865 35.008C24.3865 34.747 24.2785 34.5265 24.0625 34.3465C23.8465 34.1665 23.536 34.0315 23.131 33.9415C22.735 33.8425 22.249 33.793 21.673 33.793ZM24.238 25.0315H25.642V32.3755H24.238V25.0315ZM25.264 28.0285H27.3835V29.203H25.264V28.0285ZM16.4485 25.801H17.8525V27.5155H20.863V25.801H22.267V31.5385H16.4485V25.801ZM17.8525 28.6225V30.418H20.863V28.6225H17.8525ZM28.422 31.2415H39.6V32.3755H28.422V31.2415ZM33.417 31.9435H34.8345V34.684H33.417V31.9435ZM29.8395 25.5715H38.169V30.0265H29.8395V25.5715ZM36.765 26.692H31.2165V28.906H36.765V26.692ZM29.7855 35.9665H38.358V37.114H29.7855V35.9665ZM29.7855 33.5635H31.203V36.358H29.7855V33.5635ZM43.5679 32.7265H45.0124V37.357H43.5679V32.7265ZM47.8204 32.7265H49.2514V37.357H47.8204V32.7265ZM40.8544 31.9705H52.0324V33.1315H40.8544V31.9705ZM46.4164 25.4905C47.2804 25.4905 48.0409 25.603 48.6979 25.828C49.3549 26.044 49.8679 26.3545 50.2369 26.7595C50.6059 27.1645 50.7904 27.646 50.7904 28.204C50.7904 28.753 50.6059 29.2345 50.2369 29.6485C49.8679 30.0535 49.3549 30.3685 48.6979 30.5935C48.0409 30.8095 47.2804 30.9175 46.4164 30.9175C45.5524 30.9175 44.7874 30.8095 44.1214 30.5935C43.4644 30.3685 42.9514 30.0535 42.5824 29.6485C42.2134 29.2345 42.0289 28.753 42.0289 28.204C42.0289 27.646 42.2134 27.1645 42.5824 26.7595C42.9514 26.3545 43.4644 26.044 44.1214 25.828C44.7874 25.603 45.5524 25.4905 46.4164 25.4905ZM46.4164 26.611C45.8224 26.611 45.3049 26.6785 44.8639 26.8135C44.4319 26.9395 44.0944 27.1195 43.8514 27.3535C43.6084 27.5875 43.4869 27.871 43.4869 28.204C43.4869 28.537 43.6084 28.825 43.8514 29.068C44.0944 29.302 44.4319 29.482 44.8639 29.608C45.3049 29.725 45.8224 29.7835 46.4164 29.7835C47.0014 29.7835 47.5099 29.725 47.9419 29.608C48.3829 29.482 48.7249 29.302 48.9679 29.068C49.2109 28.825 49.3324 28.537 49.3324 28.204C49.3324 27.871 49.2109 27.5875 48.9679 27.3535C48.7249 27.1195 48.3829 26.9395 47.9419 26.8135C47.5099 26.6785 47.0014 26.611 46.4164 26.611ZM60.2258 27.88H62.6288V29.014H60.2258V27.88ZM60.1988 30.31H62.6018V31.444H60.1988V30.31ZM53.3003 26.2735H60.1448V27.394H53.3003V26.2735ZM56.7698 27.934C57.3368 27.934 57.8318 28.033 58.2548 28.231C58.6778 28.42 59.0108 28.6855 59.2538 29.0275C59.4968 29.3695 59.6183 29.77 59.6183 30.229C59.6183 30.688 59.4968 31.093 59.2538 31.444C59.0108 31.786 58.6778 32.056 58.2548 32.254C57.8318 32.443 57.3368 32.5375 56.7698 32.5375C56.2208 32.5375 55.7303 32.443 55.2983 32.254C54.8753 32.056 54.5423 31.786 54.2993 31.444C54.0563 31.093 53.9348 30.688 53.9348 30.229C53.9348 29.77 54.0563 29.3695 54.2993 29.0275C54.5423 28.6855 54.8753 28.42 55.2983 28.231C55.7303 28.033 56.2208 27.934 56.7698 27.934ZM56.7698 29.014C56.3198 29.014 55.9553 29.122 55.6763 29.338C55.4063 29.554 55.2713 29.8555 55.2713 30.2425C55.2713 30.6205 55.4063 30.922 55.6763 31.147C55.9553 31.363 56.3198 31.471 56.7698 31.471C57.2288 31.471 57.5978 31.363 57.8768 31.147C58.1558 30.922 58.2953 30.6205 58.2953 30.2425C58.2953 29.8555 58.1558 29.554 57.8768 29.338C57.5978 29.122 57.2288 29.014 56.7698 29.014ZM56.0813 24.9235H57.4988V27.0565H56.0813V24.9235ZM62.0753 25.018H63.4928V32.9425H62.0753V25.018ZM59.4023 33.091C60.2573 33.091 60.9953 33.1765 61.6163 33.3475C62.2373 33.5095 62.7143 33.7525 63.0473 34.0765C63.3893 34.3915 63.5603 34.774 63.5603 35.224C63.5603 35.665 63.3893 36.043 63.0473 36.358C62.7143 36.682 62.2373 36.925 61.6163 37.087C60.9953 37.258 60.2573 37.3435 59.4023 37.3435C58.5383 37.3435 57.7958 37.258 57.1748 37.087C56.5538 36.925 56.0723 36.682 55.7303 36.358C55.3973 36.043 55.2308 35.665 55.2308 35.224C55.2308 34.774 55.3973 34.3915 55.7303 34.0765C56.0723 33.7525 56.5538 33.5095 57.1748 33.3475C57.7958 33.1765 58.5383 33.091 59.4023 33.091ZM59.4023 34.1845C58.5563 34.1845 57.8948 34.27 57.4178 34.441C56.9498 34.612 56.7158 34.873 56.7158 35.224C56.7158 35.557 56.9498 35.8135 57.4178 35.9935C57.8948 36.1735 58.5563 36.2635 59.4023 36.2635C60.2393 36.2635 60.8918 36.1735 61.3598 35.9935C61.8368 35.8135 62.0753 35.557 62.0753 35.224C62.0753 34.873 61.8368 34.612 61.3598 34.441C60.8918 34.27 60.2393 34.1845 59.4023 34.1845ZM71.303 38.9365C70.673 37.9105 70.1825 36.8395 69.8315 35.7235C69.4805 34.5985 69.305 33.3655 69.305 32.0245C69.305 30.6925 69.4805 29.464 69.8315 28.339C70.1825 27.214 70.673 26.1385 71.303 25.1125L72.275 25.5445C71.699 26.5165 71.2715 27.5605 70.9925 28.6765C70.7225 29.7835 70.5875 30.8995 70.5875 32.0245C70.5875 33.1585 70.7225 34.279 70.9925 35.386C71.2715 36.493 71.699 37.5325 72.275 38.5045L71.303 38.9365ZM74.225 36.25V26.3005H77.2355C77.9825 26.3005 78.6395 26.3995 79.2065 26.5975C79.7735 26.7865 80.219 27.1015 80.543 27.5425C80.876 27.9745 81.0425 28.5685 81.0425 29.3245C81.0425 30.0445 80.8805 30.6385 80.5565 31.1065C80.2325 31.5655 79.787 31.912 79.22 32.146C78.662 32.371 78.0185 32.4835 77.2895 32.4835H75.791V36.25H74.225ZM75.791 31.2145H77.1545C77.9375 31.2145 78.5225 31.0615 78.9095 30.7555C79.2965 30.4495 79.49 29.9725 79.49 29.3245C79.49 28.6585 79.2875 28.1995 78.8825 27.9475C78.4775 27.6955 77.879 27.5695 77.087 27.5695H75.791V31.2145ZM86.8534 36.439C86.2324 36.439 85.6519 36.3265 85.1119 36.1015C84.5809 35.8675 84.1129 35.53 83.7079 35.089C83.3029 34.648 82.9879 34.1125 82.7629 33.4825C82.5379 32.8435 82.4254 32.1145 82.4254 31.2955C82.4254 30.4855 82.5424 29.761 82.7764 29.122C83.0104 28.483 83.3299 27.943 83.7349 27.502C84.1399 27.052 84.6169 26.71 85.1659 26.476C85.7149 26.242 86.3044 26.125 86.9344 26.125C87.5464 26.125 88.0909 26.251 88.5679 26.503C89.0449 26.755 89.4364 27.0475 89.7424 27.3805L88.9054 28.3795C88.6444 28.1185 88.3519 27.907 88.0279 27.745C87.7129 27.574 87.3574 27.4885 86.9614 27.4885C86.3854 27.4885 85.8769 27.6415 85.4359 27.9475C85.0039 28.2535 84.6619 28.6855 84.4099 29.2435C84.1669 29.8015 84.0454 30.472 84.0454 31.255C84.0454 32.038 84.1624 32.7175 84.3964 33.2935C84.6304 33.8605 84.9634 34.297 85.3954 34.603C85.8274 34.909 86.3359 35.062 86.9209 35.062C87.3709 35.062 87.7714 34.9675 88.1224 34.7785C88.4824 34.5805 88.8109 34.3195 89.1079 33.9955L89.9584 34.9945C89.5534 35.4625 89.0944 35.8225 88.5814 36.0745C88.0774 36.3175 87.5014 36.439 86.8534 36.439ZM97.2632 32.389C96.9752 32.389 96.7277 32.2855 96.5207 32.0785C96.3227 31.8625 96.2237 31.6015 96.2237 31.2955C96.2237 30.9715 96.3227 30.706 96.5207 30.499C96.7277 30.292 96.9752 30.1885 97.2632 30.1885C97.5512 30.1885 97.7987 30.292 98.0057 30.499C98.2127 30.706 98.3162 30.9715 98.3162 31.2955C98.3162 31.6015 98.2127 31.8625 98.0057 32.0785C97.7987 32.2855 97.5512 32.389 97.2632 32.389ZM105.523 36.25V26.3005H107.332L109.141 31.336C109.258 31.66 109.37 31.993 109.478 32.335C109.586 32.668 109.694 33.001 109.802 33.334H109.87C109.987 33.001 110.095 32.668 110.194 32.335C110.302 31.993 110.41 31.66 110.518 31.336L112.3 26.3005H114.122V36.25H112.664V31.336C112.664 31.039 112.673 30.7105 112.691 30.3505C112.718 29.9905 112.745 29.626 112.772 29.257C112.808 28.888 112.844 28.555 112.88 28.258H112.813L112.016 30.553L110.288 35.2915H109.316L107.575 30.553L106.778 28.258H106.724C106.76 28.555 106.792 28.888 106.819 29.257C106.855 29.626 106.882 29.9905 106.9 30.3505C106.927 30.7105 106.94 31.039 106.94 31.336V36.25H105.523ZM119.577 36.439C118.965 36.439 118.389 36.286 117.849 35.98C117.318 35.665 116.886 35.2195 116.553 34.6435C116.229 34.0585 116.067 33.3565 116.067 32.5375C116.067 31.7095 116.229 31.0075 116.553 30.4315C116.886 29.8465 117.318 29.401 117.849 29.095C118.389 28.789 118.965 28.636 119.577 28.636C120.027 28.636 120.464 28.726 120.887 28.906C121.31 29.077 121.683 29.329 122.007 29.662C122.331 29.995 122.588 30.4045 122.777 30.8905C122.966 31.3675 123.06 31.9165 123.06 32.5375C123.06 33.3565 122.894 34.0585 122.561 34.6435C122.237 35.2195 121.809 35.665 121.278 35.98C120.756 36.286 120.189 36.439 119.577 36.439ZM119.577 35.143C119.964 35.143 120.297 35.035 120.576 34.819C120.864 34.603 121.085 34.3015 121.238 33.9145C121.391 33.5185 121.467 33.0595 121.467 32.5375C121.467 32.0155 121.391 31.561 121.238 31.174C121.085 30.778 120.864 30.472 120.576 30.256C120.297 30.031 119.964 29.9185 119.577 29.9185C119.181 29.9185 118.839 30.031 118.551 30.256C118.272 30.472 118.056 30.778 117.903 31.174C117.75 31.561 117.674 32.0155 117.674 32.5375C117.674 33.0595 117.75 33.5185 117.903 33.9145C118.056 34.3015 118.272 34.603 118.551 34.819C118.839 35.035 119.181 35.143 119.577 35.143ZM128.356 36.439C128.023 36.439 127.676 36.3535 127.316 36.1825C126.956 36.0115 126.623 35.7775 126.317 35.4805H126.263L126.128 36.25H124.9V25.4905H126.452V28.339L126.398 29.608C126.722 29.32 127.073 29.086 127.451 28.906C127.838 28.726 128.225 28.636 128.612 28.636C129.242 28.636 129.773 28.7935 130.205 29.1085C130.646 29.4145 130.979 29.851 131.204 30.418C131.438 30.985 131.555 31.651 131.555 32.416C131.555 33.262 131.402 33.9865 131.096 34.5895C130.799 35.1925 130.408 35.6515 129.922 35.9665C129.436 36.2815 128.914 36.439 128.356 36.439ZM128.059 35.1295C128.419 35.1295 128.738 35.026 129.017 34.819C129.305 34.612 129.53 34.3105 129.692 33.9145C129.863 33.5095 129.949 33.019 129.949 32.443C129.949 31.921 129.886 31.4755 129.76 31.1065C129.643 30.7285 129.458 30.4405 129.206 30.2425C128.954 30.0355 128.621 29.932 128.207 29.932C127.919 29.932 127.631 30.0085 127.343 30.1615C127.055 30.3055 126.758 30.5305 126.452 30.8365V34.468C126.731 34.711 127.01 34.882 127.289 34.981C127.577 35.08 127.834 35.1295 128.059 35.1295ZM133.39 36.25V28.8115H134.942V36.25H133.39ZM134.173 27.4345C133.876 27.4345 133.637 27.349 133.457 27.178C133.286 27.007 133.201 26.7775 133.201 26.4895C133.201 26.2195 133.286 25.999 133.457 25.828C133.637 25.657 133.876 25.5715 134.173 25.5715C134.452 25.5715 134.681 25.657 134.861 25.828C135.041 25.999 135.131 26.2195 135.131 26.4895C135.131 26.7775 135.041 27.007 134.861 27.178C134.681 27.349 134.452 27.4345 134.173 27.4345ZM138.818 36.439C138.44 36.439 138.138 36.3625 137.913 36.2095C137.688 36.0475 137.526 35.8225 137.427 35.5345C137.328 35.2375 137.279 34.891 137.279 34.495V25.4905H138.831V34.576C138.831 34.783 138.867 34.9315 138.939 35.0215C139.02 35.1025 139.106 35.143 139.196 35.143C139.232 35.143 139.268 35.143 139.304 35.143C139.34 35.134 139.394 35.125 139.466 35.116L139.655 36.2905C139.565 36.3265 139.452 36.358 139.317 36.385C139.182 36.421 139.016 36.439 138.818 36.439ZM144.405 36.439C143.73 36.439 143.118 36.286 142.569 35.98C142.02 35.665 141.583 35.2195 141.259 34.6435C140.935 34.0585 140.773 33.3565 140.773 32.5375C140.773 31.9345 140.868 31.3945 141.057 30.9175C141.246 30.4315 141.502 30.022 141.826 29.689C142.15 29.347 142.515 29.086 142.92 28.906C143.325 28.726 143.739 28.636 144.162 28.636C144.819 28.636 145.372 28.7845 145.822 29.0815C146.272 29.3695 146.614 29.779 146.848 30.31C147.082 30.832 147.199 31.444 147.199 32.146C147.199 32.299 147.19 32.4475 147.172 32.5915C147.163 32.7265 147.145 32.8435 147.118 32.9425H142.299C142.344 33.4105 142.465 33.8155 142.663 34.1575C142.87 34.4905 143.136 34.7515 143.46 34.9405C143.793 35.1205 144.171 35.2105 144.594 35.2105C144.927 35.2105 145.237 35.161 145.525 35.062C145.813 34.963 146.092 34.828 146.362 34.657L146.902 35.6425C146.56 35.8675 146.178 36.0565 145.755 36.2095C145.341 36.3625 144.891 36.439 144.405 36.439ZM142.285 31.8625H145.849C145.849 31.2325 145.705 30.742 145.417 30.391C145.138 30.04 144.729 29.8645 144.189 29.8645C143.883 29.8645 143.595 29.941 143.325 30.094C143.055 30.247 142.825 30.472 142.636 30.769C142.456 31.066 142.339 31.4305 142.285 31.8625ZM149.365 38.9365L148.393 38.5045C148.969 37.5325 149.396 36.493 149.675 35.386C149.954 34.279 150.094 33.1585 150.094 32.0245C150.094 30.8995 149.954 29.7835 149.675 28.6765C149.396 27.5605 148.969 26.5165 148.393 25.5445L149.365 25.1125C150.004 26.1385 150.499 27.214 150.85 28.339C151.201 29.464 151.376 30.6925 151.376 32.0245C151.376 33.3655 151.201 34.5985 150.85 35.7235C150.499 36.8395 150.004 37.9105 149.365 38.9365Z" fill="#141414"/>
<path d="M264.396 216.75C264.396 263.142 226.787 300.75 180.396 300.75C134.004 300.75 96.3955 263.142 96.3955 216.75C96.3955 170.358 134.004 132.75 180.396 132.75C226.787 132.75 264.396 170.358 264.396 216.75ZM129.996 216.75C129.996 244.585 152.56 267.15 180.396 267.15C208.231 267.15 230.796 244.585 230.796 216.75C230.796 188.915 208.231 166.35 180.396 166.35C152.56 166.35 129.996 188.915 129.996 216.75Z" fill="#7EAA86"/>
<path d="M264.396 216.75C264.396 231.434 260.546 245.862 253.231 258.595C245.916 271.327 235.391 281.92 222.706 289.316C210.02 296.713 195.617 300.654 180.933 300.748C166.249 300.842 151.797 297.085 139.018 289.852C126.239 282.619 115.579 272.162 108.102 259.524C100.624 246.886 96.5904 232.509 96.4024 217.826C96.2144 203.143 99.8787 188.667 107.03 175.841C114.181 163.016 124.57 152.29 137.16 144.732L154.454 173.539C146.9 178.074 140.667 184.51 136.376 192.205C132.085 199.9 129.887 208.586 130 217.395C130.112 226.205 132.533 234.832 137.019 242.414C141.506 249.997 147.902 256.271 155.569 260.611C163.237 264.951 171.908 267.205 180.718 267.149C189.529 267.093 198.17 264.728 205.782 260.29C213.393 255.852 219.708 249.496 224.097 241.857C228.486 234.217 230.796 225.561 230.796 216.75H264.396Z" fill="#215281"/>
<path d="M145.602 212.123V204.385H147.943C148.524 204.385 149.035 204.462 149.476 204.616C149.917 204.763 150.264 205.008 150.516 205.351C150.775 205.687 150.904 206.149 150.904 206.737C150.904 207.297 150.778 207.759 150.526 208.123C150.274 208.48 149.928 208.749 149.487 208.931C149.053 209.106 148.552 209.194 147.985 209.194H146.82V212.123H145.602ZM146.82 208.207H147.88C148.489 208.207 148.944 208.088 149.245 207.85C149.546 207.612 149.697 207.241 149.697 206.737C149.697 206.219 149.539 205.862 149.224 205.666C148.909 205.47 148.444 205.372 147.828 205.372H146.82V208.207ZM155.424 212.27C154.941 212.27 154.489 212.183 154.069 212.008C153.656 211.826 153.292 211.563 152.977 211.22C152.662 210.877 152.417 210.461 152.242 209.971C152.067 209.474 151.98 208.907 151.98 208.27C151.98 207.64 152.071 207.076 152.253 206.579C152.435 206.082 152.683 205.662 152.998 205.319C153.313 204.969 153.684 204.703 154.111 204.521C154.538 204.339 154.997 204.248 155.487 204.248C155.963 204.248 156.386 204.346 156.757 204.542C157.128 204.738 157.433 204.966 157.671 205.225L157.02 206.002C156.817 205.799 156.589 205.634 156.337 205.508C156.092 205.375 155.816 205.309 155.508 205.309C155.06 205.309 154.664 205.428 154.321 205.666C153.985 205.904 153.719 206.24 153.523 206.674C153.334 207.108 153.24 207.629 153.24 208.238C153.24 208.847 153.331 209.376 153.513 209.824C153.695 210.265 153.954 210.604 154.29 210.842C154.626 211.08 155.021 211.199 155.476 211.199C155.826 211.199 156.138 211.126 156.411 210.979C156.691 210.825 156.946 210.622 157.177 210.37L157.839 211.147C157.524 211.511 157.167 211.791 156.768 211.987C156.376 212.176 155.928 212.27 155.424 212.27Z" fill="#215281"/>
<path d="M198.871 212.123V211.126H200.572V205.75H199.186V204.983C199.55 204.92 199.865 204.84 200.131 204.742C200.404 204.644 200.652 204.525 200.876 204.385H201.79V211.126H203.291V212.123H198.871ZM207.526 212.123V207.083C207.526 206.873 207.533 206.625 207.547 206.338C207.561 206.044 207.572 205.792 207.579 205.582H207.537C207.439 205.778 207.337 205.977 207.232 206.18C207.134 206.383 207.029 206.583 206.917 206.779L205.405 209.099H209.637V210.044H204.177V209.236L207.253 204.385H208.66V212.123H207.526ZM212.958 212.27C212.454 212.27 212.013 212.12 211.635 211.819C211.257 211.518 210.963 211.07 210.753 210.475C210.55 209.873 210.448 209.124 210.448 208.228C210.448 207.332 210.55 206.59 210.753 206.002C210.963 205.414 211.257 204.976 211.635 204.689C212.013 204.395 212.454 204.248 212.958 204.248C213.462 204.248 213.899 204.395 214.27 204.689C214.641 204.983 214.928 205.424 215.131 206.012C215.341 206.593 215.446 207.332 215.446 208.228C215.446 209.124 215.341 209.873 215.131 210.475C214.928 211.07 214.641 211.518 214.27 211.819C213.899 212.12 213.462 212.27 212.958 212.27ZM212.958 211.304C213.217 211.304 213.448 211.203 213.651 211C213.854 210.797 214.011 210.471 214.123 210.023C214.235 209.568 214.291 208.97 214.291 208.228C214.291 207.486 214.235 206.894 214.123 206.453C214.011 206.012 213.854 205.694 213.651 205.498C213.448 205.302 213.217 205.204 212.958 205.204C212.699 205.204 212.468 205.302 212.265 205.498C212.062 205.694 211.901 206.012 211.782 206.453C211.67 206.894 211.614 207.486 211.614 208.228C211.614 208.97 211.67 209.568 211.782 210.023C211.901 210.471 212.062 210.797 212.265 211C212.468 211.203 212.699 211.304 212.958 211.304Z" fill="#215281"/>
<path d="M145.602 231.635V223.896H147.009L148.416 227.813C148.507 228.065 148.594 228.324 148.678 228.59C148.762 228.849 148.846 229.108 148.93 229.367H148.983C149.074 229.108 149.158 228.849 149.235 228.59C149.319 228.324 149.403 228.065 149.487 227.813L150.873 223.896H152.29V231.635H151.156V227.813C151.156 227.582 151.163 227.326 151.177 227.046C151.198 226.766 151.219 226.483 151.24 226.196C151.268 225.909 151.296 225.65 151.324 225.419H151.272L150.652 227.204L149.308 230.889H148.552L147.198 227.204L146.578 225.419H146.536C146.564 225.65 146.589 225.909 146.61 226.196C146.638 226.483 146.659 226.766 146.673 227.046C146.694 227.326 146.704 227.582 146.704 227.813V231.635H145.602ZM156.533 231.782C156.057 231.782 155.609 231.663 155.189 231.425C154.776 231.18 154.44 230.833 154.181 230.385C153.929 229.93 153.803 229.384 153.803 228.747C153.803 228.103 153.929 227.557 154.181 227.109C154.44 226.654 154.776 226.308 155.189 226.07C155.609 225.832 156.057 225.713 156.533 225.713C156.883 225.713 157.222 225.783 157.551 225.923C157.88 226.056 158.171 226.252 158.423 226.511C158.675 226.77 158.874 227.088 159.021 227.466C159.168 227.837 159.242 228.264 159.242 228.747C159.242 229.384 159.112 229.93 158.853 230.385C158.601 230.833 158.269 231.18 157.856 231.425C157.45 231.663 157.009 231.782 156.533 231.782ZM156.533 230.774C156.834 230.774 157.093 230.69 157.31 230.522C157.534 230.354 157.705 230.119 157.824 229.818C157.943 229.51 158.003 229.153 158.003 228.747C158.003 228.341 157.943 227.988 157.824 227.687C157.705 227.379 157.534 227.141 157.31 226.973C157.093 226.798 156.834 226.71 156.533 226.71C156.225 226.71 155.959 226.798 155.735 226.973C155.518 227.141 155.35 227.379 155.231 227.687C155.112 227.988 155.052 228.341 155.052 228.747C155.052 229.153 155.112 229.51 155.231 229.818C155.35 230.119 155.518 230.354 155.735 230.522C155.959 230.69 156.225 230.774 156.533 230.774ZM163.36 231.782C163.101 231.782 162.832 231.715 162.552 231.582C162.272 231.449 162.013 231.267 161.775 231.036H161.733L161.628 231.635H160.672V223.266H161.88V225.482L161.838 226.469C162.09 226.245 162.363 226.063 162.657 225.923C162.958 225.783 163.259 225.713 163.56 225.713C164.05 225.713 164.463 225.835 164.799 226.08C165.142 226.318 165.401 226.658 165.576 227.099C165.758 227.54 165.849 228.058 165.849 228.653C165.849 229.311 165.73 229.874 165.492 230.343C165.261 230.812 164.956 231.169 164.578 231.414C164.2 231.659 163.794 231.782 163.36 231.782ZM163.129 230.763C163.409 230.763 163.658 230.683 163.875 230.522C164.099 230.361 164.274 230.126 164.4 229.818C164.533 229.503 164.599 229.122 164.599 228.674C164.599 228.268 164.55 227.921 164.452 227.634C164.361 227.34 164.218 227.116 164.022 226.962C163.826 226.801 163.567 226.721 163.245 226.721C163.021 226.721 162.797 226.78 162.573 226.899C162.349 227.011 162.118 227.186 161.88 227.424V230.249C162.097 230.438 162.314 230.571 162.531 230.648C162.755 230.725 162.954 230.763 163.129 230.763ZM167.276 231.635V225.849H168.483V231.635H167.276ZM167.885 224.778C167.654 224.778 167.468 224.712 167.328 224.579C167.195 224.446 167.129 224.267 167.129 224.043C167.129 223.833 167.195 223.662 167.328 223.529C167.468 223.396 167.654 223.329 167.885 223.329C168.102 223.329 168.28 223.396 168.42 223.529C168.56 223.662 168.63 223.833 168.63 224.043C168.63 224.267 168.56 224.446 168.42 224.579C168.28 224.712 168.102 224.778 167.885 224.778ZM171.498 231.782C171.204 231.782 170.969 231.722 170.794 231.603C170.619 231.477 170.493 231.302 170.416 231.078C170.339 230.847 170.301 230.578 170.301 230.27V223.266H171.508V230.333C171.508 230.494 171.536 230.609 171.592 230.679C171.655 230.742 171.722 230.774 171.792 230.774C171.82 230.774 171.848 230.774 171.876 230.774C171.904 230.767 171.946 230.76 172.002 230.753L172.149 231.666C172.079 231.694 171.991 231.719 171.886 231.74C171.781 231.768 171.652 231.782 171.498 231.782ZM175.843 231.782C175.318 231.782 174.842 231.663 174.415 231.425C173.988 231.18 173.649 230.833 173.397 230.385C173.145 229.93 173.019 229.384 173.019 228.747C173.019 228.278 173.092 227.858 173.239 227.487C173.386 227.109 173.586 226.791 173.838 226.532C174.09 226.266 174.373 226.063 174.688 225.923C175.003 225.783 175.325 225.713 175.654 225.713C176.165 225.713 176.596 225.828 176.946 226.059C177.296 226.283 177.562 226.602 177.744 227.015C177.926 227.421 178.017 227.897 178.017 228.443C178.017 228.562 178.01 228.677 177.996 228.789C177.989 228.894 177.975 228.985 177.954 229.062H174.205C174.24 229.426 174.335 229.741 174.489 230.007C174.65 230.266 174.856 230.469 175.108 230.616C175.367 230.756 175.661 230.826 175.99 230.826C176.249 230.826 176.491 230.788 176.715 230.711C176.939 230.634 177.156 230.529 177.366 230.396L177.786 231.162C177.52 231.337 177.222 231.484 176.893 231.603C176.571 231.722 176.221 231.782 175.843 231.782ZM174.195 228.222H176.967C176.967 227.732 176.855 227.351 176.631 227.078C176.414 226.805 176.095 226.668 175.675 226.668C175.437 226.668 175.213 226.728 175.003 226.847C174.793 226.966 174.615 227.141 174.468 227.372C174.328 227.603 174.237 227.886 174.195 228.222Z" fill="#7EAA86"/>
<path d="M204.673 231.635V230.931C205.436 230.252 206.073 229.633 206.584 229.073C207.095 228.506 207.476 227.981 207.728 227.498C207.987 227.015 208.117 226.563 208.117 226.143C208.117 225.863 208.068 225.618 207.97 225.408C207.879 225.191 207.735 225.027 207.539 224.915C207.35 224.796 207.109 224.736 206.815 224.736C206.514 224.736 206.237 224.82 205.985 224.988C205.733 225.149 205.502 225.349 205.292 225.587L204.61 224.915C204.939 224.551 205.285 224.267 205.649 224.064C206.02 223.861 206.461 223.76 206.972 223.76C207.441 223.76 207.851 223.858 208.201 224.054C208.551 224.243 208.82 224.512 209.009 224.862C209.205 225.205 209.303 225.611 209.303 226.08C209.303 226.577 209.181 227.081 208.936 227.592C208.691 228.096 208.355 228.607 207.928 229.125C207.501 229.636 207.014 230.154 206.468 230.679C206.671 230.658 206.885 230.641 207.109 230.627C207.34 230.606 207.546 230.595 207.728 230.595H209.671V231.635H204.673ZM213.013 231.782C212.614 231.782 212.257 231.733 211.942 231.635C211.627 231.537 211.351 231.407 211.113 231.246C210.875 231.085 210.665 230.917 210.483 230.742L211.06 229.955C211.207 230.102 211.368 230.238 211.543 230.364C211.718 230.483 211.914 230.581 212.131 230.658C212.355 230.735 212.604 230.774 212.877 230.774C213.164 230.774 213.423 230.711 213.654 230.585C213.885 230.452 214.067 230.263 214.2 230.018C214.333 229.766 214.399 229.468 214.399 229.125C214.399 228.621 214.263 228.229 213.99 227.949C213.724 227.669 213.37 227.529 212.929 227.529C212.684 227.529 212.474 227.564 212.299 227.634C212.124 227.704 211.925 227.813 211.701 227.96L211.102 227.571L211.333 223.896H215.25V224.925H212.383L212.205 226.899C212.373 226.815 212.541 226.752 212.709 226.71C212.877 226.661 213.062 226.637 213.265 226.637C213.699 226.637 214.095 226.724 214.452 226.899C214.809 227.074 215.092 227.344 215.302 227.708C215.512 228.065 215.617 228.527 215.617 229.094C215.617 229.661 215.495 230.147 215.25 230.553C215.005 230.952 214.683 231.257 214.284 231.467C213.892 231.677 213.468 231.782 213.013 231.782Z" fill="#7EAA86"/>
<path d="M21.8995 73.44H23.9995V74.724H21.8995V73.44ZM23.5795 70.956H25.1755V77.028H23.5795V70.956ZM17.8075 77.472H19.3915V78.492H23.6035V77.472H25.1755V81.948H17.8075V77.472ZM19.3915 79.716V80.664H23.6035V79.716H19.3915ZM18.4555 71.808H19.7515V72.516C19.7515 73.212 19.6395 73.876 19.4155 74.508C19.1915 75.14 18.8475 75.692 18.3835 76.164C17.9275 76.636 17.3395 76.992 16.6195 77.232L15.8275 75.972C16.2835 75.812 16.6755 75.612 17.0035 75.372C17.3395 75.132 17.6115 74.856 17.8195 74.544C18.0355 74.232 18.1955 73.904 18.2995 73.56C18.4035 73.216 18.4555 72.868 18.4555 72.516V71.808ZM18.7915 71.808H20.0635V72.504C20.0635 72.936 20.1515 73.368 20.3275 73.8C20.5035 74.224 20.7755 74.608 21.1435 74.952C21.5195 75.296 21.9995 75.568 22.5835 75.768L21.8035 77.016C21.1155 76.784 20.5475 76.44 20.0995 75.984C19.6595 75.528 19.3315 75 19.1155 74.4C18.8995 73.8 18.7915 73.168 18.7915 72.504V71.808ZM16.2595 71.46H22.2355V72.72H16.2595V71.46ZM26.9146 76.344H36.9826V77.604H26.9146V76.344ZM31.1266 74.904H32.7226V76.896H31.1266V74.904ZM31.1146 71.148H32.4826V71.484C32.4826 71.892 32.4186 72.284 32.2906 72.66C32.1626 73.028 31.9746 73.368 31.7266 73.68C31.4786 73.992 31.1746 74.276 30.8146 74.532C30.4546 74.78 30.0386 74.992 29.5666 75.168C29.1026 75.344 28.5826 75.472 28.0066 75.552L27.4186 74.292C27.9226 74.236 28.3706 74.144 28.7626 74.016C29.1626 73.88 29.5066 73.72 29.7946 73.536C30.0906 73.352 30.3346 73.148 30.5266 72.924C30.7266 72.7 30.8746 72.468 30.9706 72.228C31.0666 71.98 31.1146 71.732 31.1146 71.484V71.148ZM31.3786 71.148H32.7346V71.484C32.7346 71.74 32.7826 71.992 32.8786 72.24C32.9746 72.488 33.1186 72.724 33.3106 72.948C33.5026 73.164 33.7426 73.364 34.0306 73.548C34.3266 73.732 34.6746 73.888 35.0746 74.016C35.4746 74.144 35.9266 74.236 36.4306 74.292L35.8426 75.552C35.2746 75.472 34.7546 75.344 34.2826 75.168C33.8186 74.992 33.4026 74.784 33.0346 74.544C32.6746 74.296 32.3706 74.016 32.1226 73.704C31.8746 73.384 31.6866 73.04 31.5586 72.672C31.4386 72.304 31.3786 71.908 31.3786 71.484V71.148ZM28.0306 78.384H35.7586V82.068H34.1626V79.644H28.0306V78.384ZM42.1536 71.268H43.5456V71.796C43.5456 72.22 43.4776 72.632 43.3416 73.032C43.2136 73.424 43.0216 73.792 42.7656 74.136C42.5096 74.48 42.1976 74.788 41.8296 75.06C41.4616 75.332 41.0336 75.564 40.5456 75.756C40.0656 75.94 39.5376 76.08 38.9616 76.176L38.3376 74.892C38.8496 74.828 39.3056 74.72 39.7056 74.568C40.1136 74.416 40.4696 74.236 40.7736 74.028C41.0856 73.82 41.3416 73.592 41.5416 73.344C41.7416 73.096 41.8936 72.84 41.9976 72.576C42.1016 72.312 42.1536 72.052 42.1536 71.796V71.268ZM42.4536 71.268H43.8456V71.796C43.8456 72.052 43.8976 72.312 44.0016 72.576C44.1056 72.84 44.2576 73.096 44.4576 73.344C44.6576 73.592 44.9096 73.82 45.2136 74.028C45.5256 74.236 45.8816 74.416 46.2816 74.568C46.6896 74.72 47.1496 74.828 47.6616 74.892L47.0376 76.176C46.4536 76.08 45.9216 75.94 45.4416 75.756C44.9616 75.564 44.5376 75.332 44.1696 75.06C43.8016 74.78 43.4896 74.468 43.2336 74.124C42.9776 73.78 42.7816 73.412 42.6456 73.02C42.5176 72.628 42.4536 72.22 42.4536 71.796V71.268ZM42.1536 77.988H43.7496V82.068H42.1536V77.988ZM37.9656 76.98H48.0216V78.276H37.9656V76.98Z" fill="#4E7FB0"/>
<path d="M54.2847 72.492H57.1887V73.464H54.2847V72.492ZM54.2847 74.496H57.1887V75.468H54.2847V74.496ZM56.8887 71.028H58.1487V76.704H56.8887V71.028ZM51.0087 77.184H58.1487V79.932H52.2687V81.492H51.0327V79.008H56.9007V78.168H51.0087V77.184ZM51.0327 80.868H58.5087V81.852H51.0327V80.868ZM49.5687 71.508H50.8167V72.936H53.3847V71.508H54.6207V76.32H49.5687V71.508ZM50.8167 73.908V75.336H53.3847V73.908H50.8167Z" fill="#777777"/>
<path d="M157.13 81V79.56H159.05V73.956H157.43V72.852C157.878 72.772 158.262 72.676 158.582 72.564C158.91 72.444 159.214 72.292 159.494 72.108H160.802V79.56H162.47V81H157.13ZM166.548 81.168C166.076 81.168 165.656 81.112 165.288 81C164.92 80.888 164.592 80.74 164.304 80.556C164.016 80.372 163.76 80.172 163.536 79.956L164.352 78.828C164.52 78.996 164.7 79.148 164.892 79.284C165.092 79.42 165.308 79.528 165.54 79.608C165.78 79.688 166.036 79.728 166.308 79.728C166.612 79.728 166.88 79.664 167.112 79.536C167.352 79.408 167.54 79.224 167.676 78.984C167.812 78.736 167.88 78.44 167.88 78.096C167.88 77.584 167.74 77.188 167.46 76.908C167.188 76.628 166.828 76.488 166.38 76.488C166.124 76.488 165.904 76.524 165.72 76.596C165.536 76.66 165.312 76.776 165.048 76.944L164.244 76.428L164.484 72.108H169.236V73.596H166.008L165.84 75.48C166.016 75.4 166.188 75.34 166.356 75.3C166.524 75.26 166.708 75.24 166.908 75.24C167.404 75.24 167.86 75.34 168.276 75.54C168.692 75.732 169.024 76.036 169.272 76.452C169.52 76.868 169.644 77.4 169.644 78.048C169.644 78.704 169.496 79.268 169.2 79.74C168.912 80.204 168.532 80.56 168.06 80.808C167.596 81.048 167.092 81.168 166.548 81.168ZM173.842 81.168C173.242 81.168 172.714 80.996 172.258 80.652C171.81 80.3 171.458 79.78 171.202 79.092C170.954 78.396 170.83 77.536 170.83 76.512C170.83 75.496 170.954 74.652 171.202 73.98C171.458 73.3 171.81 72.792 172.258 72.456C172.714 72.12 173.242 71.952 173.842 71.952C174.45 71.952 174.978 72.124 175.426 72.468C175.874 72.804 176.222 73.308 176.47 73.98C176.726 74.652 176.854 75.496 176.854 76.512C176.854 77.536 176.726 78.396 176.47 79.092C176.222 79.78 175.874 80.3 175.426 80.652C174.978 80.996 174.45 81.168 173.842 81.168ZM173.842 79.788C174.106 79.788 174.338 79.688 174.538 79.488C174.738 79.288 174.894 78.952 175.006 78.48C175.118 78 175.174 77.344 175.174 76.512C175.174 75.688 175.118 75.044 175.006 74.58C174.894 74.108 174.738 73.78 174.538 73.596C174.338 73.404 174.106 73.308 173.842 73.308C173.594 73.308 173.366 73.404 173.158 73.596C172.958 73.78 172.798 74.108 172.678 74.58C172.558 75.044 172.498 75.688 172.498 76.512C172.498 77.344 172.558 78 172.678 78.48C172.798 78.952 172.958 79.288 173.158 79.488C173.366 79.688 173.594 79.788 173.842 79.788Z" fill="#215281"/>
<path d="M200.455 81V75.54C200.455 75.284 200.463 74.98 200.479 74.628C200.495 74.268 200.511 73.956 200.527 73.692H200.467C200.363 73.932 200.251 74.172 200.131 74.412C200.011 74.652 199.887 74.896 199.759 75.144L198.379 77.352H203.155V78.696H196.663V77.496L199.975 72.108H202.099V81H200.455ZM207.029 81.168C206.429 81.168 205.901 80.996 205.445 80.652C204.997 80.3 204.645 79.78 204.389 79.092C204.141 78.396 204.017 77.536 204.017 76.512C204.017 75.496 204.141 74.652 204.389 73.98C204.645 73.3 204.997 72.792 205.445 72.456C205.901 72.12 206.429 71.952 207.029 71.952C207.637 71.952 208.165 72.124 208.613 72.468C209.061 72.804 209.409 73.308 209.657 73.98C209.913 74.652 210.041 75.496 210.041 76.512C210.041 77.536 209.913 78.396 209.657 79.092C209.409 79.78 209.061 80.3 208.613 80.652C208.165 80.996 207.637 81.168 207.029 81.168ZM207.029 79.788C207.293 79.788 207.525 79.688 207.725 79.488C207.925 79.288 208.081 78.952 208.193 78.48C208.305 78 208.361 77.344 208.361 76.512C208.361 75.688 208.305 75.044 208.193 74.58C208.081 74.108 207.925 73.78 207.725 73.596C207.525 73.404 207.293 73.308 207.029 73.308C206.781 73.308 206.553 73.404 206.345 73.596C206.145 73.78 205.985 74.108 205.865 74.58C205.745 75.044 205.685 75.688 205.685 76.512C205.685 77.344 205.745 78 205.865 78.48C205.985 78.952 206.145 79.288 206.345 79.488C206.553 79.688 206.781 79.788 207.029 79.788Z" fill="#7EAA86"/>
<path d="M324.38 81V79.56H326.3V73.956H324.68V72.852C325.128 72.772 325.512 72.676 325.832 72.564C326.16 72.444 326.464 72.292 326.744 72.108H328.052V79.56H329.72V81H324.38ZM333.534 81.168C332.982 81.168 332.502 81.068 332.094 80.868C331.694 80.668 331.362 80.432 331.098 80.16L332.034 79.092C332.194 79.276 332.402 79.428 332.658 79.548C332.914 79.668 333.174 79.728 333.438 79.728C333.694 79.728 333.938 79.672 334.17 79.56C334.402 79.44 334.602 79.252 334.77 78.996C334.946 78.732 335.082 78.384 335.178 77.952C335.282 77.52 335.334 76.988 335.334 76.356C335.334 75.596 335.262 74.992 335.118 74.544C334.982 74.096 334.798 73.776 334.566 73.584C334.334 73.384 334.07 73.284 333.774 73.284C333.558 73.284 333.358 73.344 333.174 73.464C332.99 73.584 332.842 73.764 332.73 74.004C332.626 74.244 332.574 74.548 332.574 74.916C332.574 75.26 332.626 75.548 332.73 75.78C332.834 76.004 332.978 76.172 333.162 76.284C333.354 76.396 333.578 76.452 333.834 76.452C334.082 76.452 334.338 76.376 334.602 76.224C334.866 76.072 335.106 75.816 335.322 75.456L335.406 76.644C335.254 76.86 335.066 77.048 334.842 77.208C334.626 77.368 334.402 77.492 334.17 77.58C333.938 77.668 333.714 77.712 333.498 77.712C333.01 77.712 332.574 77.612 332.19 77.412C331.806 77.204 331.502 76.896 331.278 76.488C331.062 76.072 330.954 75.548 330.954 74.916C330.954 74.308 331.082 73.784 331.338 73.344C331.594 72.896 331.934 72.552 332.358 72.312C332.782 72.072 333.246 71.952 333.75 71.952C334.174 71.952 334.574 72.04 334.95 72.216C335.334 72.384 335.674 72.648 335.97 73.008C336.274 73.36 336.51 73.816 336.678 74.376C336.854 74.928 336.942 75.588 336.942 76.356C336.942 77.196 336.85 77.92 336.666 78.528C336.482 79.128 336.226 79.624 335.898 80.016C335.578 80.408 335.214 80.7 334.806 80.892C334.398 81.076 333.974 81.168 333.534 81.168ZM341.092 81.168C340.492 81.168 339.964 80.996 339.508 80.652C339.06 80.3 338.708 79.78 338.452 79.092C338.204 78.396 338.08 77.536 338.08 76.512C338.08 75.496 338.204 74.652 338.452 73.98C338.708 73.3 339.06 72.792 339.508 72.456C339.964 72.12 340.492 71.952 341.092 71.952C341.7 71.952 342.228 72.124 342.676 72.468C343.124 72.804 343.472 73.308 343.72 73.98C343.976 74.652 344.104 75.496 344.104 76.512C344.104 77.536 343.976 78.396 343.72 79.092C343.472 79.78 343.124 80.3 342.676 80.652C342.228 80.996 341.7 81.168 341.092 81.168ZM341.092 79.788C341.356 79.788 341.588 79.688 341.788 79.488C341.988 79.288 342.144 78.952 342.256 78.48C342.368 78 342.424 77.344 342.424 76.512C342.424 75.688 342.368 75.044 342.256 74.58C342.144 74.108 341.988 73.78 341.788 73.596C341.588 73.404 341.356 73.308 341.092 73.308C340.844 73.308 340.616 73.404 340.408 73.596C340.208 73.78 340.048 74.108 339.928 74.58C339.808 75.044 339.748 75.688 339.748 76.512C339.748 77.344 339.808 78 339.928 78.48C340.048 78.952 340.208 79.288 340.408 79.488C340.616 79.688 340.844 79.788 341.092 79.788Z" fill="#313131"/>
<path d="M21.8995 94.94H23.9995V96.224H21.8995V94.94ZM23.5795 92.456H25.1755V98.528H23.5795V92.456ZM17.8075 98.972H19.3915V99.992H23.6035V98.972H25.1755V103.448H17.8075V98.972ZM19.3915 101.216V102.164H23.6035V101.216H19.3915ZM18.4555 93.308H19.7515V94.016C19.7515 94.712 19.6395 95.376 19.4155 96.008C19.1915 96.64 18.8475 97.192 18.3835 97.664C17.9275 98.136 17.3395 98.492 16.6195 98.732L15.8275 97.472C16.2835 97.312 16.6755 97.112 17.0035 96.872C17.3395 96.632 17.6115 96.356 17.8195 96.044C18.0355 95.732 18.1955 95.404 18.2995 95.06C18.4035 94.716 18.4555 94.368 18.4555 94.016V93.308ZM18.7915 93.308H20.0635V94.004C20.0635 94.436 20.1515 94.868 20.3275 95.3C20.5035 95.724 20.7755 96.108 21.1435 96.452C21.5195 96.796 21.9995 97.068 22.5835 97.268L21.8035 98.516C21.1155 98.284 20.5475 97.94 20.0995 97.484C19.6595 97.028 19.3315 96.5 19.1155 95.9C18.8995 95.3 18.7915 94.668 18.7915 94.004V93.308ZM16.2595 92.96H22.2355V94.22H16.2595V92.96ZM26.9146 97.844H36.9826V99.104H26.9146V97.844ZM31.1266 96.404H32.7226V98.396H31.1266V96.404ZM31.1146 92.648H32.4826V92.984C32.4826 93.392 32.4186 93.784 32.2906 94.16C32.1626 94.528 31.9746 94.868 31.7266 95.18C31.4786 95.492 31.1746 95.776 30.8146 96.032C30.4546 96.28 30.0386 96.492 29.5666 96.668C29.1026 96.844 28.5826 96.972 28.0066 97.052L27.4186 95.792C27.9226 95.736 28.3706 95.644 28.7626 95.516C29.1626 95.38 29.5066 95.22 29.7946 95.036C30.0906 94.852 30.3346 94.648 30.5266 94.424C30.7266 94.2 30.8746 93.968 30.9706 93.728C31.0666 93.48 31.1146 93.232 31.1146 92.984V92.648ZM31.3786 92.648H32.7346V92.984C32.7346 93.24 32.7826 93.492 32.8786 93.74C32.9746 93.988 33.1186 94.224 33.3106 94.448C33.5026 94.664 33.7426 94.864 34.0306 95.048C34.3266 95.232 34.6746 95.388 35.0746 95.516C35.4746 95.644 35.9266 95.736 36.4306 95.792L35.8426 97.052C35.2746 96.972 34.7546 96.844 34.2826 96.668C33.8186 96.492 33.4026 96.284 33.0346 96.044C32.6746 95.796 32.3706 95.516 32.1226 95.204C31.8746 94.884 31.6866 94.54 31.5586 94.172C31.4386 93.804 31.3786 93.408 31.3786 92.984V92.648ZM28.0306 99.884H35.7586V103.568H34.1626V101.144H28.0306V99.884ZM40.4496 94.208H41.7096V95.456C41.7096 96.072 41.6416 96.688 41.5056 97.304C41.3776 97.92 41.1856 98.5 40.9296 99.044C40.6736 99.58 40.3496 100.06 39.9576 100.484C39.5736 100.908 39.1256 101.24 38.6136 101.48L37.7136 100.22C38.1776 100.004 38.5776 99.72 38.9136 99.368C39.2576 99.016 39.5416 98.624 39.7656 98.192C39.9976 97.76 40.1696 97.312 40.2816 96.848C40.3936 96.376 40.4496 95.912 40.4496 95.456V94.208ZM40.7856 94.208H42.0456V95.456C42.0456 95.872 42.1016 96.3 42.2136 96.74C42.3256 97.18 42.4896 97.604 42.7056 98.012C42.9296 98.42 43.2096 98.792 43.5456 99.128C43.8896 99.456 44.2896 99.724 44.7456 99.932L43.8576 101.204C43.3456 100.964 42.8976 100.644 42.5136 100.244C42.1376 99.836 41.8176 99.376 41.5536 98.864C41.2976 98.344 41.1056 97.796 40.9776 97.22C40.8496 96.636 40.7856 96.048 40.7856 95.456V94.208ZM38.1456 93.512H44.2536V94.832H38.1456V93.512ZM45.0576 92.456H46.6656V103.568H45.0576V92.456ZM46.3176 96.692H48.2736V98H46.3176V96.692Z" fill="#384D9F"/>
<path d="M54.2847 93.992H57.1887V94.964H54.2847V93.992ZM54.2847 95.996H57.1887V96.968H54.2847V95.996ZM56.8887 92.528H58.1487V98.204H56.8887V92.528ZM51.0087 98.684H58.1487V101.432H52.2687V102.992H51.0327V100.508H56.9007V99.668H51.0087V98.684ZM51.0327 102.368H58.5087V103.352H51.0327V102.368ZM49.5687 93.008H50.8167V94.436H53.3847V93.008H54.6207V97.82H49.5687V93.008ZM50.8167 95.408V96.836H53.3847V95.408H50.8167Z" fill="#777777"/>
<path d="M157.13 102.5V101.06H159.05V95.456H157.43V94.352C157.878 94.272 158.262 94.176 158.582 94.064C158.91 93.944 159.214 93.792 159.494 93.608H160.802V101.06H162.47V102.5H157.13ZM167.268 102.5V97.04C167.268 96.784 167.276 96.48 167.292 96.128C167.308 95.768 167.324 95.456 167.34 95.192H167.28C167.176 95.432 167.064 95.672 166.944 95.912C166.824 96.152 166.7 96.396 166.572 96.644L165.192 98.852H169.968V100.196H163.476V98.996L166.788 93.608H168.912V102.5H167.268ZM173.842 102.668C173.242 102.668 172.714 102.496 172.258 102.152C171.81 101.8 171.458 101.28 171.202 100.592C170.954 99.896 170.83 99.036 170.83 98.012C170.83 96.996 170.954 96.152 171.202 95.48C171.458 94.8 171.81 94.292 172.258 93.956C172.714 93.62 173.242 93.452 173.842 93.452C174.45 93.452 174.978 93.624 175.426 93.968C175.874 94.304 176.222 94.808 176.47 95.48C176.726 96.152 176.854 96.996 176.854 98.012C176.854 99.036 176.726 99.896 176.47 100.592C176.222 101.28 175.874 101.8 175.426 102.152C174.978 102.496 174.45 102.668 173.842 102.668ZM173.842 101.288C174.106 101.288 174.338 101.188 174.538 100.988C174.738 100.788 174.894 100.452 175.006 99.98C175.118 99.5 175.174 98.844 175.174 98.012C175.174 97.188 175.118 96.544 175.006 96.08C174.894 95.608 174.738 95.28 174.538 95.096C174.338 94.904 174.106 94.808 173.842 94.808C173.594 94.808 173.366 94.904 173.158 95.096C172.958 95.28 172.798 95.608 172.678 96.08C172.558 96.544 172.498 97.188 172.498 98.012C172.498 98.844 172.558 99.5 172.678 99.98C172.798 100.452 172.958 100.788 173.158 100.988C173.366 101.188 173.594 101.288 173.842 101.288Z" fill="#215281"/>
<path d="M196.927 102.5V101.48C197.735 100.76 198.423 100.092 198.991 99.476C199.567 98.86 200.007 98.288 200.311 97.76C200.615 97.224 200.767 96.728 200.767 96.272C200.767 95.984 200.715 95.732 200.611 95.516C200.507 95.3 200.355 95.136 200.155 95.024C199.963 94.904 199.723 94.844 199.435 94.844C199.115 94.844 198.819 94.936 198.547 95.12C198.283 95.296 198.039 95.508 197.815 95.756L196.831 94.808C197.247 94.36 197.671 94.024 198.103 93.8C198.543 93.568 199.063 93.452 199.663 93.452C200.223 93.452 200.711 93.568 201.127 93.8C201.551 94.024 201.879 94.34 202.111 94.748C202.343 95.156 202.459 95.636 202.459 96.188C202.459 96.724 202.323 97.272 202.051 97.832C201.787 98.384 201.431 98.936 200.983 99.488C200.535 100.04 200.039 100.584 199.495 101.12C199.727 101.088 199.975 101.064 200.239 101.048C200.511 101.024 200.751 101.012 200.959 101.012H202.879V102.5H196.927ZM206.813 102.668C206.341 102.668 205.921 102.612 205.553 102.5C205.185 102.388 204.857 102.24 204.569 102.056C204.281 101.872 204.025 101.672 203.801 101.456L204.617 100.328C204.785 100.496 204.965 100.648 205.157 100.784C205.357 100.92 205.573 101.028 205.805 101.108C206.045 101.188 206.301 101.228 206.573 101.228C206.877 101.228 207.145 101.164 207.377 101.036C207.617 100.908 207.805 100.724 207.941 100.484C208.077 100.236 208.145 99.94 208.145 99.596C208.145 99.084 208.005 98.688 207.725 98.408C207.453 98.128 207.093 97.988 206.645 97.988C206.389 97.988 206.169 98.024 205.985 98.096C205.801 98.16 205.577 98.276 205.313 98.444L204.509 97.928L204.749 93.608H209.501V95.096H206.273L206.105 96.98C206.281 96.9 206.453 96.84 206.621 96.8C206.789 96.76 206.973 96.74 207.173 96.74C207.669 96.74 208.125 96.84 208.541 97.04C208.957 97.232 209.289 97.536 209.537 97.952C209.785 98.368 209.909 98.9 209.909 99.548C209.909 100.204 209.761 100.768 209.465 101.24C209.177 101.704 208.797 102.06 208.325 102.308C207.861 102.548 207.357 102.668 206.813 102.668Z" fill="#7EAA86"/>
<path d="M324.38 102.5V101.06H326.3V95.456H324.68V94.352C325.128 94.272 325.512 94.176 325.832 94.064C326.16 93.944 326.464 93.792 326.744 93.608H328.052V101.06H329.72V102.5H324.38ZM334.266 102.668C333.85 102.668 333.446 102.58 333.054 102.404C332.67 102.228 332.33 101.96 332.034 101.6C331.738 101.232 331.502 100.768 331.326 100.208C331.158 99.64 331.074 98.964 331.074 98.18C331.074 97.356 331.166 96.644 331.35 96.044C331.542 95.444 331.798 94.956 332.118 94.58C332.438 94.196 332.802 93.912 333.21 93.728C333.626 93.544 334.062 93.452 334.518 93.452C335.062 93.452 335.53 93.552 335.922 93.752C336.322 93.944 336.654 94.18 336.918 94.46L335.982 95.516C335.83 95.34 335.63 95.188 335.382 95.06C335.134 94.932 334.882 94.868 334.626 94.868C334.266 94.868 333.938 94.972 333.642 95.18C333.354 95.388 333.122 95.732 332.946 96.212C332.77 96.692 332.682 97.348 332.682 98.18C332.682 98.948 332.75 99.564 332.886 100.028C333.03 100.484 333.218 100.816 333.45 101.024C333.682 101.232 333.942 101.336 334.23 101.336C334.454 101.336 334.654 101.276 334.83 101.156C335.014 101.028 335.162 100.844 335.274 100.604C335.386 100.356 335.442 100.052 335.442 99.692C335.442 99.34 335.386 99.052 335.274 98.828C335.17 98.604 335.022 98.436 334.83 98.324C334.646 98.212 334.426 98.156 334.17 98.156C333.93 98.156 333.678 98.232 333.414 98.384C333.15 98.528 332.906 98.784 332.682 99.152L332.598 97.964C332.758 97.74 332.946 97.548 333.162 97.388C333.386 97.228 333.614 97.108 333.846 97.028C334.086 96.948 334.302 96.908 334.494 96.908C334.99 96.908 335.43 97.008 335.814 97.208C336.206 97.408 336.51 97.712 336.726 98.12C336.942 98.528 337.05 99.052 337.05 99.692C337.05 100.3 336.922 100.828 336.666 101.276C336.418 101.716 336.082 102.06 335.658 102.308C335.234 102.548 334.77 102.668 334.266 102.668ZM340.876 102.668C340.404 102.668 339.984 102.612 339.616 102.5C339.248 102.388 338.92 102.24 338.632 102.056C338.344 101.872 338.088 101.672 337.864 101.456L338.68 100.328C338.848 100.496 339.028 100.648 339.22 100.784C339.42 100.92 339.636 101.028 339.868 101.108C340.108 101.188 340.364 101.228 340.636 101.228C340.94 101.228 341.208 101.164 341.44 101.036C341.68 100.908 341.868 100.724 342.004 100.484C342.14 100.236 342.208 99.94 342.208 99.596C342.208 99.084 342.068 98.688 341.788 98.408C341.516 98.128 341.156 97.988 340.708 97.988C340.452 97.988 340.232 98.024 340.048 98.096C339.864 98.16 339.64 98.276 339.376 98.444L338.572 97.928L338.812 93.608H343.564V95.096H340.336L340.168 96.98C340.344 96.9 340.516 96.84 340.684 96.8C340.852 96.76 341.036 96.74 341.236 96.74C341.732 96.74 342.188 96.84 342.604 97.04C343.02 97.232 343.352 97.536 343.6 97.952C343.848 98.368 343.972 98.9 343.972 99.548C343.972 100.204 343.824 100.768 343.528 101.24C343.24 101.704 342.86 102.06 342.388 102.308C341.924 102.548 341.42 102.668 340.876 102.668Z" fill="#313131"/>
</g>
<defs>
<clipPath id="clip0_383_5256">
<rect width="337.5" height="277.5" fill="white" transform="translate(11.6455 23.25)"/>
</clipPath>
</defs>
</svg>
