<svg width="361" height="324" viewBox="0 0 361 324" fill="none" xmlns="http://www.w3.org/2000/svg">
<g clip-path="url(#clip0_383_5254)">
<rect x="0.395508" y="0.75" width="360" height="322.5" rx="1.5" fill="white"/>
<path d="M15.3955 36.25L18.6895 26.3005H20.4985L23.7925 36.25H22.132L20.5255 30.85C20.3635 30.31 20.206 29.7655 20.053 29.2165C19.9 28.6585 19.747 28.1005 19.594 27.5425H19.54C19.396 28.1095 19.243 28.6675 19.081 29.2165C18.928 29.7655 18.7705 30.31 18.6085 30.85L17.002 36.25H15.3955ZM17.2585 33.4285V32.1865H21.9025V33.4285H17.2585ZM25.103 36.25V26.3005H26.669V36.25H25.103ZM39.8342 25.018H41.2382V31.606H39.8342V25.018ZM40.8602 27.8125H42.9797V28.9735H40.8602V27.8125ZM32.1257 30.1075H33.1247C33.9887 30.1075 34.7357 30.0985 35.3657 30.0805C36.0047 30.0625 36.5852 30.0265 37.1072 29.9725C37.6292 29.9095 38.1512 29.824 38.6732 29.716L38.8217 30.85C38.2907 30.958 37.7552 31.0435 37.2152 31.1065C36.6752 31.1605 36.0767 31.201 35.4197 31.228C34.7717 31.255 34.0067 31.2685 33.1247 31.2685H32.1257V30.1075ZM32.1257 25.801H37.5797V26.935H33.5432V30.8905H32.1257V25.801ZM33.3407 32.254H34.7447V33.5905H39.8477V32.254H41.2382V37.1815H33.3407V32.254ZM34.7447 34.6975V36.034H39.8477V34.6975H34.7447ZM49.9851 27.205H53.3601V28.339H49.9851V27.205ZM49.9851 29.851H53.4006V30.9985H49.9851V29.851ZM52.8336 25.0315H54.2511V34.144H52.8336V25.0315ZM46.2186 35.9665H54.5346V37.114H46.2186V35.9665ZM46.2186 33.2665H47.6361V36.5875H46.2186V33.2665ZM44.5986 25.8415H46.0026V27.8935H48.8916V25.8415H50.2821V32.1325H44.5986V25.8415ZM46.0026 28.987V30.9985H48.8916V28.987H46.0026ZM62.5203 30.7555H63.9243V32.4025H62.5203V30.7555ZM67.7313 25.0315H69.1353V33.361H67.7313V25.0315ZM68.5953 28.663H70.8363V29.8375H68.5953V28.663ZM59.5503 33.0505L59.3748 31.93C60.1218 31.93 60.9273 31.9255 61.7913 31.9165C62.6643 31.9075 63.5508 31.8805 64.4508 31.8355C65.3598 31.7815 66.2373 31.696 67.0833 31.579L67.1913 32.5645C66.3183 32.7175 65.4318 32.83 64.5318 32.902C63.6318 32.965 62.7543 33.0055 61.8993 33.0235C61.0533 33.0415 60.2703 33.0505 59.5503 33.0505ZM60.9138 33.928H69.1353V37.3705H67.7313V35.035H60.9138V33.928ZM59.6853 26.044H66.7323V27.0835H59.6853V26.044ZM63.2088 27.475C64.0998 27.475 64.8108 27.6415 65.3418 27.9745C65.8818 28.2985 66.1518 28.744 66.1518 29.311C66.1518 29.878 65.8818 30.3235 65.3418 30.6475C64.8108 30.9715 64.0998 31.1335 63.2088 31.1335C62.3268 31.1335 61.6158 30.9715 61.0758 30.6475C60.5448 30.3235 60.2793 29.878 60.2793 29.311C60.2793 28.744 60.5448 28.2985 61.0758 27.9745C61.6158 27.6415 62.3268 27.475 63.2088 27.475ZM63.2088 28.42C62.7228 28.42 62.3358 28.4965 62.0478 28.6495C61.7598 28.8025 61.6158 29.023 61.6158 29.311C61.6158 29.581 61.7598 29.797 62.0478 29.959C62.3358 30.112 62.7228 30.1885 63.2088 30.1885C63.7038 30.1885 64.0908 30.112 64.3698 29.959C64.6578 29.797 64.8018 29.581 64.8018 29.311C64.8018 29.023 64.6578 28.8025 64.3698 28.6495C64.0908 28.4965 63.7038 28.42 63.2088 28.42ZM62.5203 24.9235H63.9243V26.5435H62.5203V24.9235ZM80.6498 25.0315H82.0673V33.982H80.6498V25.0315ZM74.0213 35.9665H82.4183V37.114H74.0213V35.9665ZM74.0213 33.0775H75.4253V36.412H74.0213V33.0775ZM75.4118 25.855C76.0328 25.855 76.5908 25.9855 77.0858 26.2465C77.5808 26.5075 77.9723 26.872 78.2603 27.34C78.5483 27.799 78.6923 28.33 78.6923 28.933C78.6923 29.527 78.5483 30.058 78.2603 30.526C77.9723 30.994 77.5808 31.3585 77.0858 31.6195C76.5908 31.8805 76.0328 32.011 75.4118 32.011C74.7908 32.011 74.2328 31.8805 73.7378 31.6195C73.2428 31.3585 72.8513 30.994 72.5633 30.526C72.2753 30.058 72.1313 29.527 72.1313 28.933C72.1313 28.33 72.2753 27.799 72.5633 27.34C72.8513 26.872 73.2428 26.5075 73.7378 26.2465C74.2328 25.9855 74.7908 25.855 75.4118 25.855ZM75.4118 27.0835C75.0518 27.0835 74.7278 27.16 74.4398 27.313C74.1518 27.466 73.9268 27.682 73.7648 27.961C73.6028 28.231 73.5218 28.555 73.5218 28.933C73.5218 29.311 73.6028 29.6395 73.7648 29.9185C73.9268 30.1885 74.1518 30.4 74.4398 30.553C74.7278 30.706 75.0518 30.7825 75.4118 30.7825C75.7718 30.7825 76.0958 30.706 76.3838 30.553C76.6718 30.4 76.8968 30.1885 77.0588 29.9185C77.2298 29.6395 77.3153 29.311 77.3153 28.933C77.3153 28.555 77.2298 28.231 77.0588 27.961C76.8968 27.682 76.6718 27.466 76.3838 27.313C76.0958 27.16 75.7718 27.0835 75.4118 27.0835ZM96.1279 25.0315H97.5454V31.39H96.1279V25.0315ZM89.3644 31.9435H97.5454V35.062H90.7954V36.7495H89.3914V34.036H96.1414V33.037H89.3644V31.9435ZM89.3914 36.142H97.9504V37.249H89.3914V36.142ZM87.8929 25.8145H94.5214V26.9215H87.8929V25.8145ZM87.7174 31.0525L87.5689 29.9185C88.2979 29.9095 89.0899 29.9005 89.9449 29.8915C90.7999 29.8735 91.6639 29.842 92.5369 29.797C93.4189 29.743 94.2604 29.6665 95.0614 29.5675L95.1289 30.5935C94.3189 30.7195 93.4774 30.8185 92.6044 30.8905C91.7314 30.9535 90.8764 30.9985 90.0394 31.0255C89.2114 31.0435 88.4374 31.0525 87.7174 31.0525ZM88.9999 26.3275H90.3634V30.445H88.9999V26.3275ZM92.0509 26.3275H93.4144V30.445H92.0509V26.3275ZM102.391 31.336H103.795V34.927H102.391V31.336ZM106.9 31.336H108.317V34.927H106.9V31.336ZM99.7719 34.684H110.95V35.845H99.7719V34.684ZM105.347 25.7335C106.22 25.7335 106.999 25.8685 107.683 26.1385C108.367 26.3995 108.902 26.773 109.289 27.259C109.685 27.736 109.883 28.303 109.883 28.96C109.883 29.617 109.685 30.1885 109.289 30.6745C108.902 31.1515 108.367 31.525 107.683 31.795C106.999 32.056 106.22 32.1865 105.347 32.1865C104.474 32.1865 103.691 32.056 102.998 31.795C102.314 31.525 101.774 31.1515 101.378 30.6745C100.991 30.1885 100.798 29.617 100.798 28.96C100.798 28.303 100.991 27.736 101.378 27.259C101.774 26.773 102.314 26.3995 102.998 26.1385C103.691 25.8685 104.474 25.7335 105.347 25.7335ZM105.347 26.8405C104.726 26.8405 104.177 26.926 103.7 27.097C103.223 27.268 102.85 27.5155 102.58 27.8395C102.319 28.1545 102.188 28.528 102.188 28.96C102.188 29.392 102.319 29.77 102.58 30.094C102.85 30.409 103.223 30.6565 103.7 30.8365C104.177 31.0075 104.726 31.093 105.347 31.093C105.968 31.093 106.513 31.0075 106.981 30.8365C107.458 30.6565 107.831 30.409 108.101 30.094C108.371 29.77 108.506 29.392 108.506 28.96C108.506 28.528 108.371 28.1545 108.101 27.8395C107.831 27.5155 107.458 27.268 106.981 27.097C106.513 26.926 105.968 26.8405 105.347 26.8405ZM114.769 38.9365C114.139 37.9105 113.649 36.8395 113.298 35.7235C112.947 34.5985 112.771 33.3655 112.771 32.0245C112.771 30.6925 112.947 29.464 113.298 28.339C113.649 27.214 114.139 26.1385 114.769 25.1125L115.741 25.5445C115.165 26.5165 114.738 27.5605 114.459 28.6765C114.189 29.7835 114.054 30.8995 114.054 32.0245C114.054 33.1585 114.189 34.279 114.459 35.386C114.738 36.493 115.165 37.5325 115.741 38.5045L114.769 38.9365ZM125.805 25.0315H127.222V34.1035H125.805V25.0315ZM123.388 28.7305H126.048V29.8915H123.388V28.7305ZM121.971 25.963H123.456C123.456 27.052 123.226 28.042 122.767 28.933C122.308 29.815 121.651 30.58 120.796 31.228C119.95 31.876 118.938 32.3935 117.759 32.7805L117.165 31.6465C118.146 31.3315 118.996 30.922 119.716 30.418C120.436 29.914 120.99 29.338 121.377 28.69C121.773 28.042 121.971 27.3355 121.971 26.5705V25.963ZM117.799 25.963H122.875V27.1105H117.799V25.963ZM119.298 35.9665H127.533V37.114H119.298V35.9665ZM119.298 33.1855H120.729V36.601H119.298V33.1855ZM130.394 38.9365L129.422 38.5045C129.998 37.5325 130.425 36.493 130.704 35.386C130.983 34.279 131.123 33.1585 131.123 32.0245C131.123 30.8995 130.983 29.7835 130.704 28.6765C130.425 27.5605 129.998 26.5165 129.422 25.5445L130.394 25.1125C131.033 26.1385 131.528 27.214 131.879 28.339C132.23 29.464 132.405 30.6925 132.405 32.0245C132.405 33.3655 132.23 34.5985 131.879 35.7235C131.528 36.8395 131.033 37.9105 130.394 38.9365Z" fill="#141414"/>
<path d="M333.72 36.418C333.248 36.418 332.828 36.362 332.46 36.25C332.092 36.138 331.764 35.99 331.476 35.806C331.188 35.622 330.932 35.422 330.708 35.206L331.524 34.078C331.692 34.246 331.872 34.398 332.064 34.534C332.264 34.67 332.48 34.778 332.712 34.858C332.952 34.938 333.208 34.978 333.48 34.978C333.784 34.978 334.052 34.914 334.284 34.786C334.524 34.658 334.712 34.474 334.848 34.234C334.984 33.986 335.052 33.69 335.052 33.346C335.052 32.834 334.912 32.438 334.632 32.158C334.36 31.878 334 31.738 333.552 31.738C333.296 31.738 333.076 31.774 332.892 31.846C332.708 31.91 332.484 32.026 332.22 32.194L331.416 31.678L331.656 27.358H336.408V28.846H333.18L333.012 30.73C333.188 30.65 333.36 30.59 333.528 30.55C333.696 30.51 333.88 30.49 334.08 30.49C334.576 30.49 335.032 30.59 335.448 30.79C335.864 30.982 336.196 31.286 336.444 31.702C336.692 32.118 336.816 32.65 336.816 33.298C336.816 33.954 336.668 34.518 336.372 34.99C336.084 35.454 335.704 35.81 335.232 36.058C334.768 36.298 334.264 36.418 333.72 36.418ZM341.014 36.418C340.414 36.418 339.886 36.246 339.43 35.902C338.982 35.55 338.63 35.03 338.374 34.342C338.126 33.646 338.002 32.786 338.002 31.762C338.002 30.746 338.126 29.902 338.374 29.23C338.63 28.55 338.982 28.042 339.43 27.706C339.886 27.37 340.414 27.202 341.014 27.202C341.622 27.202 342.15 27.374 342.598 27.718C343.046 28.054 343.394 28.558 343.642 29.23C343.898 29.902 344.026 30.746 344.026 31.762C344.026 32.786 343.898 33.646 343.642 34.342C343.394 35.03 343.046 35.55 342.598 35.902C342.15 36.246 341.622 36.418 341.014 36.418ZM341.014 35.038C341.278 35.038 341.51 34.938 341.71 34.738C341.91 34.538 342.066 34.202 342.178 33.73C342.29 33.25 342.346 32.594 342.346 31.762C342.346 30.938 342.29 30.294 342.178 29.83C342.066 29.358 341.91 29.03 341.71 28.846C341.51 28.654 341.278 28.558 341.014 28.558C340.766 28.558 340.538 28.654 340.33 28.846C340.13 29.03 339.97 29.358 339.85 29.83C339.73 30.294 339.67 30.938 339.67 31.762C339.67 32.594 339.73 33.25 339.85 33.73C339.97 34.202 340.13 34.538 340.33 34.738C340.538 34.938 340.766 35.038 341.014 35.038Z" fill="#3F3F3F"/>
<path d="M17.7115 125.25C17.7515 124.442 17.8195 123.702 17.9155 123.03C18.0115 122.35 18.1515 121.71 18.3355 121.11C18.5195 120.502 18.7595 119.914 19.0555 119.346C19.3515 118.77 19.7115 118.182 20.1355 117.582H15.9955V116.406H21.6715V117.258C21.1595 117.898 20.7435 118.518 20.4235 119.118C20.1035 119.71 19.8555 120.314 19.6795 120.93C19.5035 121.546 19.3755 122.206 19.2955 122.91C19.2155 123.606 19.1595 124.386 19.1275 125.25H17.7115ZM25.8753 115.638C26.4273 115.638 26.9193 115.742 27.3513 115.95C27.7833 116.158 28.1233 116.45 28.3713 116.826C28.6193 117.194 28.7433 117.622 28.7433 118.11C28.7433 118.59 28.6193 119.014 28.3713 119.382C28.1233 119.75 27.7833 120.038 27.3513 120.246C26.9193 120.454 26.4273 120.558 25.8753 120.558C25.3233 120.558 24.8313 120.454 24.3993 120.246C23.9673 120.038 23.6233 119.75 23.3673 119.382C23.1193 119.014 22.9953 118.59 22.9953 118.11C22.9953 117.622 23.1193 117.194 23.3673 116.826C23.6233 116.45 23.9673 116.158 24.3993 115.95C24.8313 115.742 25.3233 115.638 25.8753 115.638ZM25.8753 116.658C25.5553 116.658 25.2713 116.718 25.0233 116.838C24.7753 116.958 24.5793 117.126 24.4353 117.342C24.2913 117.558 24.2193 117.81 24.2193 118.098C24.2193 118.394 24.2913 118.65 24.4353 118.866C24.5793 119.082 24.7753 119.25 25.0233 119.37C25.2713 119.482 25.5553 119.538 25.8753 119.538C26.1953 119.538 26.4793 119.482 26.7273 119.37C26.9753 119.25 27.1713 119.082 27.3153 118.866C27.4593 118.65 27.5313 118.394 27.5313 118.098C27.5313 117.81 27.4593 117.558 27.3153 117.342C27.1713 117.126 26.9713 116.958 26.7153 116.838C26.4673 116.718 26.1873 116.658 25.8753 116.658ZM30.5673 115.278H31.8273V120.834H30.5673V115.278ZM24.6393 121.326H31.8273V124.146H25.8993V125.646H24.6633V123.222H30.5913V122.31H24.6393V121.326ZM24.6633 125.118H32.1633V126.102H24.6633V125.118ZM41.9543 115.266H43.1663V126.234H41.9543V115.266ZM40.2983 119.634H42.2903V120.654H40.2983V119.634ZM39.4943 115.494H40.6703V125.694H39.4943V115.494ZM34.3103 116.55H35.5703V122.874H34.3103V116.55ZM34.3103 122.394H35.0423C35.5943 122.394 36.1783 122.374 36.7943 122.334C37.4183 122.286 38.0823 122.194 38.7863 122.058L38.9063 123.138C38.1783 123.282 37.4943 123.374 36.8543 123.414C36.2143 123.454 35.6103 123.474 35.0423 123.474H34.3103V122.394Z" fill="#777777"/>
<path d="M330.912 125.25V124.23C331.72 123.51 332.408 122.842 332.976 122.226C333.552 121.61 333.992 121.038 334.296 120.51C334.6 119.974 334.752 119.478 334.752 119.022C334.752 118.734 334.7 118.482 334.596 118.266C334.492 118.05 334.34 117.886 334.14 117.774C333.948 117.654 333.708 117.594 333.42 117.594C333.1 117.594 332.804 117.686 332.532 117.87C332.268 118.046 332.024 118.258 331.8 118.506L330.816 117.558C331.232 117.11 331.656 116.774 332.088 116.55C332.528 116.318 333.048 116.202 333.648 116.202C334.208 116.202 334.696 116.318 335.112 116.55C335.536 116.774 335.864 117.09 336.096 117.498C336.328 117.906 336.444 118.386 336.444 118.938C336.444 119.474 336.308 120.022 336.036 120.582C335.772 121.134 335.416 121.686 334.968 122.238C334.52 122.79 334.024 123.334 333.48 123.87C333.712 123.838 333.96 123.814 334.224 123.798C334.496 123.774 334.736 123.762 334.944 123.762H336.864V125.25H330.912ZM341.014 125.418C340.446 125.418 339.938 125.318 339.49 125.118C339.042 124.918 338.686 124.638 338.422 124.278C338.166 123.918 338.038 123.506 338.038 123.042C338.038 122.658 338.106 122.322 338.242 122.034C338.386 121.738 338.574 121.482 338.806 121.266C339.038 121.05 339.29 120.87 339.562 120.726V120.666C339.226 120.426 338.946 120.134 338.722 119.79C338.498 119.438 338.386 119.03 338.386 118.566C338.386 118.086 338.502 117.67 338.734 117.318C338.966 116.966 339.282 116.694 339.682 116.502C340.09 116.31 340.55 116.214 341.062 116.214C341.59 116.214 342.046 116.314 342.43 116.514C342.814 116.706 343.11 116.978 343.318 117.33C343.534 117.682 343.642 118.098 343.642 118.578C343.642 118.866 343.586 119.138 343.474 119.394C343.37 119.65 343.23 119.882 343.054 120.09C342.886 120.29 342.702 120.462 342.502 120.606V120.666C342.782 120.81 343.034 120.99 343.258 121.206C343.482 121.422 343.662 121.682 343.798 121.986C343.934 122.282 344.002 122.634 344.002 123.042C344.002 123.49 343.874 123.894 343.618 124.254C343.37 124.614 343.022 124.898 342.574 125.106C342.126 125.314 341.606 125.418 341.014 125.418ZM341.566 120.174C341.782 119.942 341.942 119.702 342.046 119.454C342.15 119.206 342.202 118.95 342.202 118.686C342.202 118.446 342.154 118.234 342.058 118.05C341.97 117.858 341.838 117.71 341.662 117.606C341.486 117.502 341.274 117.45 341.026 117.45C340.722 117.45 340.466 117.546 340.258 117.738C340.05 117.93 339.946 118.206 339.946 118.566C339.946 118.838 340.014 119.074 340.15 119.274C340.294 119.466 340.49 119.634 340.738 119.778C340.986 119.914 341.262 120.046 341.566 120.174ZM341.05 124.17C341.306 124.17 341.53 124.126 341.722 124.038C341.922 123.942 342.078 123.806 342.19 123.63C342.302 123.446 342.358 123.23 342.358 122.982C342.358 122.75 342.306 122.55 342.202 122.382C342.106 122.206 341.97 122.054 341.794 121.926C341.618 121.79 341.41 121.666 341.17 121.554C340.93 121.442 340.666 121.322 340.378 121.194C340.138 121.394 339.942 121.638 339.79 121.926C339.638 122.206 339.562 122.514 339.562 122.85C339.562 123.114 339.626 123.346 339.754 123.546C339.89 123.738 340.07 123.89 340.294 124.002C340.518 124.114 340.77 124.17 341.05 124.17Z" fill="#3F3F3F"/>
<path d="M17.1775 299.25C17.2075 298.626 17.2585 298.053 17.3305 297.531C17.4085 297.003 17.5195 296.508 17.6635 296.046C17.8075 295.578 17.9905 295.125 18.2125 294.687C18.4405 294.249 18.7165 293.805 19.0405 293.355H15.8365V292.653H19.9675V293.148C19.5835 293.646 19.2685 294.123 19.0225 294.579C18.7825 295.035 18.5935 295.5 18.4555 295.974C18.3235 296.448 18.2245 296.952 18.1585 297.486C18.0985 298.014 18.0565 298.602 18.0325 299.25H17.1775ZM23.1237 292.104C23.5317 292.104 23.8917 292.182 24.2037 292.338C24.5217 292.488 24.7707 292.698 24.9507 292.968C25.1307 293.238 25.2207 293.553 25.2207 293.913C25.2207 294.267 25.1307 294.582 24.9507 294.858C24.7707 295.128 24.5217 295.338 24.2037 295.488C23.8917 295.638 23.5317 295.713 23.1237 295.713C22.7217 295.713 22.3617 295.638 22.0437 295.488C21.7257 295.338 21.4737 295.128 21.2877 294.858C21.1077 294.582 21.0177 294.267 21.0177 293.913C21.0177 293.553 21.1077 293.238 21.2877 292.968C21.4737 292.698 21.7257 292.488 22.0437 292.338C22.3617 292.182 22.7217 292.104 23.1237 292.104ZM23.1237 292.725C22.8597 292.725 22.6227 292.776 22.4127 292.878C22.2087 292.974 22.0467 293.112 21.9267 293.292C21.8067 293.472 21.7467 293.679 21.7467 293.913C21.7467 294.147 21.8067 294.354 21.9267 294.534C22.0467 294.708 22.2087 294.846 22.4127 294.948C22.6227 295.05 22.8597 295.101 23.1237 295.101C23.3877 295.101 23.6217 295.05 23.8257 294.948C24.0357 294.846 24.2007 294.708 24.3207 294.534C24.4407 294.354 24.5007 294.147 24.5007 293.913C24.5007 293.679 24.4407 293.472 24.3207 293.292C24.2007 293.112 24.0357 292.974 23.8257 292.878C23.6217 292.776 23.3877 292.725 23.1237 292.725ZM26.7597 291.807H27.5067V295.974H26.7597V291.807ZM22.2417 296.379H27.5067V298.35H22.9887V299.574H22.2687V297.792H26.7687V296.973H22.2417V296.379ZM22.2687 299.241H27.7857V299.844H22.2687V299.241ZM35.4407 294.057H37.5017V294.669H35.4407V294.057ZM37.0787 291.816H37.8257V297.783H37.0787V291.816ZM32.6327 299.16H38.0507V299.772H32.6327V299.16ZM32.6327 297.252H33.3707V299.466H32.6327V297.252ZM33.1997 292.824H33.8117V293.481C33.8117 293.973 33.7157 294.438 33.5237 294.876C33.3377 295.308 33.0737 295.686 32.7317 296.01C32.3897 296.328 31.9937 296.574 31.5437 296.748L31.1567 296.145C31.4567 296.037 31.7297 295.893 31.9757 295.713C32.2277 295.533 32.4467 295.326 32.6327 295.092C32.8187 294.858 32.9597 294.603 33.0557 294.327C33.1517 294.051 33.1997 293.769 33.1997 293.481V292.824ZM33.3437 292.824H33.9557V293.481C33.9557 293.829 34.0367 294.168 34.1987 294.498C34.3607 294.828 34.5917 295.122 34.8917 295.38C35.1917 295.632 35.5367 295.827 35.9267 295.965L35.5487 296.559C35.1047 296.397 34.7177 296.163 34.3877 295.857C34.0577 295.545 33.7997 295.185 33.6137 294.777C33.4337 294.369 33.3437 293.937 33.3437 293.481V292.824ZM31.3907 292.473H35.7377V293.085H31.3907V292.473Z" fill="#777777"/>
<path d="M326.277 291.807H327.024V299.952H326.277V291.807ZM323.892 292.689H324.63C324.63 293.277 324.558 293.844 324.414 294.39C324.276 294.936 324.057 295.455 323.757 295.947C323.457 296.433 323.067 296.886 322.587 297.306C322.107 297.726 321.525 298.101 320.841 298.431L320.445 297.828C321.231 297.45 321.879 297.009 322.389 296.505C322.899 296.001 323.277 295.44 323.523 294.822C323.769 294.198 323.892 293.526 323.892 292.806V292.689ZM320.823 292.689H324.207V293.292H320.823V292.689ZM331.82 292.581H332.477V292.824C332.477 293.166 332.393 293.481 332.225 293.769C332.057 294.057 331.826 294.315 331.532 294.543C331.244 294.765 330.911 294.951 330.533 295.101C330.161 295.245 329.765 295.347 329.345 295.407L329.066 294.813C329.354 294.771 329.633 294.708 329.903 294.624C330.179 294.54 330.431 294.438 330.659 294.318C330.887 294.192 331.088 294.051 331.262 293.895C331.436 293.739 331.571 293.571 331.667 293.391C331.769 293.211 331.82 293.022 331.82 292.824V292.581ZM332.126 292.581H332.783V292.824C332.783 293.016 332.831 293.202 332.927 293.382C333.029 293.562 333.167 293.733 333.341 293.895C333.515 294.051 333.716 294.192 333.944 294.318C334.178 294.438 334.43 294.54 334.7 294.624C334.97 294.708 335.249 294.771 335.537 294.813L335.258 295.407C334.844 295.347 334.448 295.245 334.07 295.101C333.692 294.951 333.359 294.765 333.071 294.543C332.783 294.315 332.552 294.057 332.378 293.769C332.21 293.481 332.126 293.166 332.126 292.824V292.581ZM329.3 292.212H335.312V292.815H329.3V292.212ZM328.616 295.992H335.996V296.604H328.616V295.992ZM331.982 296.379H332.729V298.251H331.982V296.379ZM329.552 299.16H335.177V299.772H329.552V299.16ZM329.552 297.459H330.299V299.385H329.552V297.459ZM339.19 292.104C339.598 292.104 339.958 292.182 340.27 292.338C340.588 292.488 340.837 292.698 341.017 292.968C341.197 293.238 341.287 293.553 341.287 293.913C341.287 294.267 341.197 294.582 341.017 294.858C340.837 295.128 340.588 295.338 340.27 295.488C339.958 295.638 339.598 295.713 339.19 295.713C338.788 295.713 338.428 295.638 338.11 295.488C337.792 295.338 337.54 295.128 337.354 294.858C337.174 294.582 337.084 294.267 337.084 293.913C337.084 293.553 337.174 293.238 337.354 292.968C337.54 292.698 337.792 292.488 338.11 292.338C338.428 292.182 338.788 292.104 339.19 292.104ZM339.19 292.725C338.926 292.725 338.689 292.776 338.479 292.878C338.275 292.974 338.113 293.112 337.993 293.292C337.873 293.472 337.813 293.679 337.813 293.913C337.813 294.147 337.873 294.354 337.993 294.534C338.113 294.708 338.275 294.846 338.479 294.948C338.689 295.05 338.926 295.101 339.19 295.101C339.454 295.101 339.688 295.05 339.892 294.948C340.102 294.846 340.267 294.708 340.387 294.534C340.507 294.354 340.567 294.147 340.567 293.913C340.567 293.679 340.507 293.472 340.387 293.292C340.267 293.112 340.102 292.974 339.892 292.878C339.688 292.776 339.454 292.725 339.19 292.725ZM342.826 291.807H343.573V295.974H342.826V291.807ZM338.308 296.379H343.573V298.35H339.055V299.574H338.335V297.792H342.835V296.973H338.308V296.379ZM338.335 299.241H343.852V299.844H338.335V299.241Z" fill="#777777"/>
<line x1="15.3955" y1="286.125" x2="345.396" y2="286.125" stroke="#A8A8A8" stroke-width="0.75"/>
<path d="M34.8044 227.656C34.3884 227.656 34.0004 227.568 33.6404 227.392C33.2804 227.208 32.9684 226.936 32.7044 226.576C32.4404 226.208 32.2324 225.752 32.0804 225.208C31.9364 224.664 31.8644 224.028 31.8644 223.3C31.8644 222.444 31.9524 221.712 32.1284 221.104C32.3044 220.496 32.5444 220.004 32.8484 219.628C33.1524 219.252 33.5004 218.98 33.8924 218.812C34.2844 218.636 34.6924 218.548 35.1164 218.548C35.5724 218.548 35.9684 218.632 36.3044 218.8C36.6404 218.968 36.9324 219.184 37.1804 219.448L36.5564 220.12C36.3884 219.912 36.1804 219.748 35.9324 219.628C35.6844 219.508 35.4284 219.448 35.1644 219.448C34.7484 219.448 34.3684 219.572 34.0244 219.82C33.6804 220.06 33.4044 220.46 33.1964 221.02C32.9964 221.58 32.8964 222.34 32.8964 223.3C32.8964 224.052 32.9684 224.688 33.1124 225.208C33.2644 225.728 33.4804 226.124 33.7604 226.396C34.0484 226.66 34.3964 226.792 34.8044 226.792C35.0924 226.792 35.3444 226.708 35.5604 226.54C35.7844 226.372 35.9604 226.14 36.0884 225.844C36.2244 225.54 36.2924 225.192 36.2924 224.8C36.2924 224.4 36.2324 224.056 36.1124 223.768C36.0004 223.472 35.8284 223.248 35.5964 223.096C35.3644 222.936 35.0684 222.856 34.7084 222.856C34.4284 222.856 34.1244 222.948 33.7964 223.132C33.4684 223.308 33.1564 223.616 32.8604 224.056L32.8244 223.192C33.0084 222.952 33.2124 222.748 33.4364 222.58C33.6604 222.404 33.8964 222.272 34.1444 222.184C34.4004 222.088 34.6484 222.04 34.8884 222.04C35.3844 222.04 35.8124 222.144 36.1724 222.352C36.5404 222.552 36.8244 222.856 37.0244 223.264C37.2324 223.672 37.3364 224.184 37.3364 224.8C37.3364 225.368 37.2204 225.868 36.9884 226.3C36.7564 226.724 36.4484 227.056 36.0644 227.296C35.6884 227.536 35.2684 227.656 34.8044 227.656Z" fill="#747474"/>
<rect width="26.25" height="53.25" transform="translate(21.3955 233.25)" fill="#6A8096"/>
<path d="M80.9984 273.25V272.338H82.9664V265.774H81.3944V265.078C81.7864 265.006 82.1264 264.918 82.4144 264.814C82.7104 264.71 82.9784 264.59 83.2184 264.454H84.0584V272.338H85.8224V273.25H80.9984Z" fill="#747474"/>
<rect width="26.25" height="7.5" transform="translate(70.1455 279)" fill="#6A8096"/>
<path d="M132.772 250.75V244.75C132.772 244.534 132.78 244.27 132.796 243.958C132.812 243.646 132.824 243.378 132.832 243.154H132.784C132.672 243.362 132.556 243.578 132.436 243.802C132.324 244.018 132.204 244.234 132.076 244.45L130.072 247.45H134.98V248.326H128.932V247.606L132.592 241.954H133.804V250.75H132.772Z" fill="#747474"/>
<rect width="26.25" height="30" transform="translate(118.896 256.5)" fill="#6A8096"/>
<path d="M180.802 205.156C180.258 205.156 179.774 205.056 179.35 204.856C178.926 204.656 178.594 204.38 178.354 204.028C178.114 203.676 177.994 203.272 177.994 202.816C177.994 202.424 178.07 202.072 178.222 201.76C178.382 201.44 178.586 201.168 178.834 200.944C179.082 200.712 179.338 200.524 179.602 200.38V200.332C179.282 200.108 179.002 199.832 178.762 199.504C178.53 199.168 178.414 198.768 178.414 198.304C178.414 197.856 178.518 197.468 178.726 197.14C178.942 196.804 179.23 196.544 179.59 196.36C179.958 196.168 180.37 196.072 180.826 196.072C181.33 196.072 181.762 196.172 182.122 196.372C182.482 196.572 182.758 196.844 182.95 197.188C183.142 197.532 183.238 197.932 183.238 198.388C183.238 198.692 183.174 198.98 183.046 199.252C182.926 199.524 182.778 199.768 182.602 199.984C182.426 200.192 182.25 200.368 182.074 200.512V200.572C182.33 200.716 182.57 200.892 182.794 201.1C183.018 201.3 183.198 201.548 183.334 201.844C183.478 202.132 183.55 202.48 183.55 202.888C183.55 203.304 183.434 203.688 183.202 204.04C182.978 204.384 182.658 204.656 182.242 204.856C181.834 205.056 181.354 205.156 180.802 205.156ZM181.402 200.224C181.698 199.96 181.922 199.68 182.074 199.384C182.226 199.08 182.302 198.768 182.302 198.448C182.302 198.152 182.242 197.888 182.122 197.656C182.01 197.424 181.842 197.24 181.618 197.104C181.394 196.96 181.126 196.888 180.814 196.888C180.406 196.888 180.07 197.016 179.806 197.272C179.542 197.528 179.41 197.872 179.41 198.304C179.41 198.648 179.502 198.94 179.686 199.18C179.878 199.412 180.126 199.612 180.43 199.78C180.734 199.94 181.058 200.088 181.402 200.224ZM180.814 204.34C181.158 204.34 181.454 204.276 181.702 204.148C181.958 204.02 182.154 203.844 182.29 203.62C182.434 203.396 182.506 203.14 182.506 202.852C182.506 202.556 182.442 202.304 182.314 202.096C182.186 201.88 182.014 201.692 181.798 201.532C181.59 201.372 181.346 201.228 181.066 201.1C180.786 200.972 180.49 200.848 180.178 200.728C179.826 200.952 179.534 201.236 179.302 201.58C179.078 201.916 178.966 202.296 178.966 202.72C178.966 203.024 179.046 203.3 179.206 203.548C179.366 203.796 179.586 203.992 179.866 204.136C180.154 204.272 180.47 204.34 180.814 204.34Z" fill="#747474"/>
<rect width="26.25" height="75.75" transform="translate(167.646 210.75)" fill="#6A8096"/>
<path d="M229.336 232.906C228.88 232.906 228.476 232.85 228.124 232.738C227.78 232.626 227.476 232.482 227.212 232.306C226.956 232.13 226.724 231.942 226.516 231.742L227.068 231.022C227.236 231.19 227.42 231.35 227.62 231.502C227.828 231.646 228.064 231.766 228.328 231.862C228.592 231.95 228.892 231.994 229.228 231.994C229.572 231.994 229.884 231.91 230.164 231.742C230.452 231.574 230.68 231.334 230.848 231.022C231.016 230.71 231.1 230.342 231.1 229.918C231.1 229.294 230.932 228.806 230.596 228.454C230.268 228.094 229.828 227.914 229.276 227.914C228.988 227.914 228.736 227.958 228.52 228.046C228.304 228.134 228.068 228.262 227.812 228.43L227.224 228.058L227.512 223.954H231.784V224.89H228.472L228.244 227.434C228.436 227.322 228.636 227.238 228.844 227.182C229.06 227.118 229.3 227.086 229.564 227.086C230.052 227.086 230.496 227.186 230.896 227.386C231.296 227.578 231.616 227.882 231.856 228.298C232.096 228.714 232.216 229.246 232.216 229.894C232.216 230.534 232.076 231.078 231.796 231.526C231.524 231.974 231.168 232.318 230.728 232.558C230.288 232.79 229.824 232.906 229.336 232.906Z" fill="#747474"/>
<rect width="26.25" height="48" transform="translate(216.396 238.5)" fill="#6A8096"/>
<path d="M278.098 262.156C277.642 262.156 277.238 262.1 276.886 261.988C276.542 261.876 276.238 261.728 275.974 261.544C275.71 261.36 275.482 261.16 275.29 260.944L275.854 260.236C276.11 260.5 276.41 260.736 276.754 260.944C277.106 261.144 277.53 261.244 278.026 261.244C278.378 261.244 278.686 261.18 278.95 261.052C279.222 260.916 279.434 260.728 279.586 260.488C279.738 260.24 279.814 259.948 279.814 259.612C279.814 259.26 279.726 258.952 279.55 258.688C279.382 258.424 279.098 258.22 278.698 258.076C278.298 257.924 277.758 257.848 277.078 257.848V257.008C277.686 257.008 278.166 256.936 278.518 256.792C278.87 256.64 279.122 256.436 279.274 256.18C279.434 255.924 279.514 255.64 279.514 255.328C279.514 254.904 279.382 254.568 279.118 254.32C278.854 254.064 278.49 253.936 278.026 253.936C277.674 253.936 277.342 254.016 277.03 254.176C276.726 254.336 276.45 254.54 276.202 254.788L275.614 254.092C275.95 253.788 276.314 253.54 276.706 253.348C277.106 253.148 277.558 253.048 278.062 253.048C278.558 253.048 278.998 253.136 279.382 253.312C279.774 253.48 280.078 253.728 280.294 254.056C280.518 254.384 280.63 254.78 280.63 255.244C280.63 255.78 280.486 256.224 280.198 256.576C279.91 256.928 279.534 257.188 279.07 257.356V257.416C279.414 257.496 279.726 257.636 280.006 257.836C280.286 258.036 280.51 258.288 280.678 258.592C280.846 258.896 280.93 259.248 280.93 259.648C280.93 260.168 280.802 260.616 280.546 260.992C280.29 261.368 279.95 261.656 279.526 261.856C279.102 262.056 278.626 262.156 278.098 262.156Z" fill="#747474"/>
<rect width="26.25" height="18.75" transform="translate(265.146 267.75)" fill="#6A8096"/>
<path d="M324.749 273.25V272.338H326.717V265.774H325.145V265.078C325.537 265.006 325.877 264.918 326.165 264.814C326.461 264.71 326.729 264.59 326.969 264.454H327.809V272.338H329.573V273.25H324.749Z" fill="#747474"/>
<rect width="26.25" height="7.5" transform="translate(313.896 279)" fill="#214A72"/>
</g>
<rect x="0.770508" y="1.125" width="359.25" height="321.75" rx="1.125" stroke="#DBDFEA" stroke-width="0.75"/>
<defs>
<clipPath id="clip0_383_5254">
<rect x="0.395508" y="0.75" width="360" height="322.5" rx="1.5" fill="white"/>
</clipPath>
</defs>
</svg>
