<svg width="361" height="324" viewBox="0 0 361 324" fill="none" xmlns="http://www.w3.org/2000/svg">
<g clip-path="url(#clip0_383_5259)">
<rect x="0.930176" y="0.75" width="360" height="322.5" rx="1.5" fill="white"/>
<path d="M18.0312 29.0275H26.5497V30.175H18.0312V29.0275ZM16.6137 31.822H27.7917V32.983H16.6137V31.822ZM21.4467 32.4835H22.8507V37.3705H21.4467V32.4835ZM18.0312 25.612H19.4487V29.581H18.0312V25.612ZM32.0431 26.2735H33.2041V27.178C33.2041 27.934 33.0646 28.6495 32.7856 29.3245C32.5156 29.9995 32.1241 30.589 31.6111 31.093C31.0981 31.597 30.4771 31.9795 29.7481 32.2405L29.0191 31.12C29.5051 30.949 29.9326 30.7285 30.3016 30.4585C30.6796 30.1885 30.9991 29.878 31.2601 29.527C31.5211 29.167 31.7146 28.789 31.8406 28.393C31.9756 27.988 32.0431 27.583 32.0431 27.178V26.2735ZM32.3266 26.2735H33.4741V27.1645C33.4741 27.6775 33.5866 28.177 33.8116 28.663C34.0366 29.149 34.3651 29.5855 34.7971 29.9725C35.2291 30.3505 35.7556 30.6475 36.3766 30.8635L35.6746 31.9705C34.9636 31.7275 34.3561 31.363 33.8521 30.877C33.3571 30.391 32.9791 29.8285 32.7181 29.1895C32.4571 28.5505 32.3266 27.8755 32.3266 27.1645V26.2735ZM35.6881 28.123H38.2396V29.284H35.6881V28.123ZM29.4376 25.801H36.0391V26.935H29.4376V25.801ZM30.9496 33.01H39.2521V37.3705H37.8346V34.144H30.9496V33.01ZM37.8346 25.0315H39.2521V32.389H37.8346V25.0315ZM52.6243 25.018H54.0418V37.357H52.6243V25.018ZM53.6773 29.8915H55.9048V31.066H53.6773V29.8915ZM49.4383 26.3275H50.8153C50.8153 27.5245 50.6308 28.6675 50.2618 29.7565C49.9018 30.8365 49.3123 31.831 48.4933 32.74C47.6833 33.649 46.6033 34.441 45.2533 35.116L44.4703 34.036C45.5863 33.46 46.5088 32.803 47.2378 32.065C47.9758 31.327 48.5248 30.499 48.8848 29.581C49.2538 28.663 49.4383 27.655 49.4383 26.557V26.3275ZM45.0913 26.3275H50.1673V27.475H45.0913V26.3275ZM65.6507 25.0315H67.0682V31.6465H65.6507V25.0315ZM59.0222 32.2405H60.4127V33.577H65.6777V32.2405H67.0682V37.2085H59.0222V32.2405ZM60.4127 34.6705V36.0745H65.6777V34.6705H60.4127ZM60.4127 25.585C61.0427 25.585 61.6052 25.7065 62.1002 25.9495C62.5952 26.1925 62.9822 26.53 63.2612 26.962C63.5492 27.385 63.6932 27.88 63.6932 28.447C63.6932 29.014 63.5492 29.5135 63.2612 29.9455C62.9822 30.3775 62.5952 30.715 62.1002 30.958C61.6052 31.201 61.0427 31.3225 60.4127 31.3225C59.7827 31.3225 59.2202 31.201 58.7252 30.958C58.2302 30.715 57.8387 30.3775 57.5507 29.9455C57.2717 29.5135 57.1322 29.014 57.1322 28.447C57.1322 27.88 57.2717 27.385 57.5507 26.962C57.8387 26.53 58.2302 26.1925 58.7252 25.9495C59.2202 25.7065 59.7827 25.585 60.4127 25.585ZM60.4127 26.746C60.0437 26.746 59.7152 26.818 59.4272 26.962C59.1482 27.097 58.9277 27.295 58.7657 27.556C58.6037 27.808 58.5227 28.105 58.5227 28.447C58.5227 28.789 58.6037 29.0905 58.7657 29.3515C58.9277 29.6035 59.1482 29.8015 59.4272 29.9455C59.7152 30.0805 60.0437 30.148 60.4127 30.148C60.7817 30.148 61.1057 30.0805 61.3847 29.9455C61.6727 29.8015 61.8977 29.6035 62.0597 29.3515C62.2307 29.0905 62.3162 28.789 62.3162 28.447C62.3162 28.105 62.2307 27.808 62.0597 27.556C61.8977 27.295 61.6727 27.097 61.3847 26.962C61.1057 26.818 60.7817 26.746 60.4127 26.746ZM73.5149 26.179H81.3989V27.3265H73.5149V26.179ZM72.3539 34.5895H83.5049V35.7505H72.3539V34.5895ZM76.5119 30.256H77.9294V35.1565H76.5119V30.256ZM80.8859 26.179H82.2899V27.3805C82.2899 27.8935 82.2854 28.4335 82.2764 29.0005C82.2674 29.5675 82.2314 30.193 82.1684 30.877C82.1054 31.561 81.9929 32.3305 81.8309 33.1855L80.4134 33.0235C80.6474 31.8175 80.7824 30.76 80.8184 29.851C80.8634 28.942 80.8859 28.1185 80.8859 27.3805V26.179ZM93.8718 25.0315H95.2218V32.2675H93.8718V25.0315ZM92.1168 28.015H94.2768V29.1625H92.1168V28.015ZM91.1718 25.261H92.5083V32.227H91.1718V25.261ZM86.8113 32.821H95.2218V37.3705H93.8178V33.9685H86.8113V32.821ZM88.7013 25.909H90.1188C90.1188 26.917 89.9433 27.8305 89.5923 28.6495C89.2503 29.4595 88.7328 30.175 88.0398 30.796C87.3468 31.417 86.4738 31.9435 85.4208 32.3755L84.7458 31.3495C85.6458 30.9895 86.3838 30.5665 86.9598 30.0805C87.5448 29.5945 87.9813 29.0455 88.2693 28.4335C88.5573 27.8125 88.7013 27.142 88.7013 26.422V25.909ZM85.2858 25.909H89.1873V27.0565H85.2858V25.909ZM102.025 25.423H103.267V26.071C103.267 26.539 103.186 26.989 103.024 27.421C102.862 27.844 102.628 28.2355 102.322 28.5955C102.025 28.9555 101.665 29.2795 101.242 29.5675C100.828 29.8555 100.369 30.0985 99.8648 30.2965C99.3608 30.4855 98.8208 30.625 98.2448 30.715L97.6913 29.581C98.1953 29.509 98.6633 29.3965 99.0953 29.2435C99.5363 29.0815 99.9368 28.888 100.297 28.663C100.657 28.429 100.963 28.1725 101.215 27.8935C101.476 27.6145 101.674 27.322 101.809 27.016C101.953 26.71 102.025 26.395 102.025 26.071V25.423ZM102.295 25.423H103.523V26.071C103.523 26.386 103.591 26.6965 103.726 27.0025C103.87 27.3085 104.072 27.601 104.333 27.88C104.594 28.159 104.905 28.4155 105.265 28.6495C105.625 28.8745 106.021 29.068 106.453 29.23C106.894 29.392 107.362 29.509 107.857 29.581L107.303 30.715C106.736 30.625 106.201 30.481 105.697 30.283C105.193 30.085 104.729 29.842 104.306 29.554C103.892 29.266 103.532 28.942 103.226 28.582C102.929 28.222 102.7 27.8305 102.538 27.4075C102.376 26.9845 102.295 26.539 102.295 26.071V25.423ZM102.038 32.74H103.442V37.3705H102.038V32.74ZM97.1918 31.8625H108.343V33.0235H97.1918V31.8625ZM112.189 38.9365C111.559 37.9105 111.069 36.8395 110.718 35.7235C110.367 34.5985 110.191 33.3655 110.191 32.0245C110.191 30.6925 110.367 29.464 110.718 28.339C111.069 27.214 111.559 26.1385 112.189 25.1125L113.161 25.5445C112.585 26.5165 112.158 27.5605 111.879 28.6765C111.609 29.7835 111.474 30.8995 111.474 32.0245C111.474 33.1585 111.609 34.279 111.879 35.386C112.158 36.493 112.585 37.5325 113.161 38.5045L112.189 38.9365ZM120.336 26.9215H123.711V28.069H120.336V26.9215ZM120.336 29.3785H123.751V30.526H120.336V29.3785ZM123.225 25.0315H124.642V32.2945H123.225V25.0315ZM114.963 25.936H120.673V31.5115H114.963V25.936ZM119.296 27.07H116.353V30.391H119.296V27.07ZM120.538 32.632C121.825 32.632 122.838 32.839 123.576 33.253C124.323 33.667 124.696 34.2475 124.696 34.9945C124.696 35.7415 124.323 36.3175 123.576 36.7225C122.838 37.1365 121.825 37.3435 120.538 37.3435C119.251 37.3435 118.234 37.1365 117.487 36.7225C116.74 36.3175 116.367 35.7415 116.367 34.9945C116.367 34.2475 116.74 33.667 117.487 33.253C118.234 32.839 119.251 32.632 120.538 32.632ZM120.538 33.739C119.953 33.739 119.454 33.7885 119.04 33.8875C118.635 33.9775 118.324 34.117 118.108 34.306C117.892 34.486 117.784 34.7155 117.784 34.9945C117.784 35.2645 117.892 35.494 118.108 35.683C118.324 35.872 118.635 36.016 119.04 36.115C119.454 36.205 119.953 36.25 120.538 36.25C121.123 36.25 121.618 36.205 122.023 36.115C122.428 36.016 122.739 35.872 122.955 35.683C123.18 35.494 123.292 35.2645 123.292 34.9945C123.292 34.7155 123.18 34.486 122.955 34.306C122.739 34.117 122.428 33.9775 122.023 33.8875C121.618 33.7885 121.123 33.739 120.538 33.739ZM127.814 38.9365L126.842 38.5045C127.418 37.5325 127.845 36.493 128.124 35.386C128.403 34.279 128.543 33.1585 128.543 32.0245C128.543 30.8995 128.403 29.7835 128.124 28.6765C127.845 27.5605 127.418 26.5165 126.842 25.5445L127.814 25.1125C128.453 26.1385 128.948 27.214 129.299 28.339C129.65 29.464 129.825 30.6925 129.825 32.0245C129.825 33.3655 129.65 34.5985 129.299 35.7235C128.948 36.8395 128.453 37.9105 127.814 38.9365Z" fill="#141414"/>
<path d="M312.678 36.439C312.156 36.439 311.688 36.376 311.274 36.25C310.86 36.133 310.491 35.971 310.167 35.764C309.852 35.548 309.578 35.3095 309.344 35.0485L310.275 33.793C310.581 34.072 310.914 34.315 311.274 34.522C311.643 34.72 312.053 34.819 312.503 34.819C312.845 34.819 313.142 34.765 313.394 34.657C313.655 34.549 313.853 34.3915 313.988 34.1845C314.132 33.9775 314.204 33.7255 314.204 33.4285C314.204 33.0955 314.123 32.812 313.961 32.578C313.808 32.335 313.533 32.1505 313.137 32.0245C312.741 31.8985 312.183 31.8355 311.463 31.8355V30.4045C312.075 30.4045 312.557 30.3415 312.908 30.2155C313.259 30.0805 313.506 29.9005 313.65 29.6755C313.803 29.4415 313.88 29.176 313.88 28.879C313.88 28.492 313.763 28.1905 313.529 27.9745C313.295 27.7495 312.966 27.637 312.543 27.637C312.192 27.637 311.864 27.718 311.558 27.88C311.261 28.033 310.964 28.2445 310.667 28.5145L309.641 27.286C310.082 26.917 310.545 26.6245 311.031 26.4085C311.517 26.1835 312.053 26.071 312.638 26.071C313.277 26.071 313.839 26.1745 314.325 26.3815C314.82 26.5885 315.203 26.89 315.473 27.286C315.743 27.682 315.878 28.1635 315.878 28.7305C315.878 29.2705 315.734 29.734 315.446 30.121C315.158 30.508 314.748 30.805 314.217 31.012V31.0795C314.586 31.1785 314.919 31.3405 315.216 31.5655C315.522 31.7815 315.761 32.056 315.932 32.389C316.112 32.722 316.202 33.109 316.202 33.55C316.202 34.153 316.04 34.6705 315.716 35.1025C315.401 35.5345 314.973 35.8675 314.433 36.1015C313.902 36.3265 313.317 36.439 312.678 36.439ZM317.536 36.25V35.1025C318.445 34.2925 319.219 33.541 319.858 32.848C320.506 32.155 321.001 31.5115 321.343 30.9175C321.685 30.3145 321.856 29.7565 321.856 29.2435C321.856 28.9195 321.798 28.636 321.681 28.393C321.564 28.15 321.393 27.9655 321.168 27.8395C320.952 27.7045 320.682 27.637 320.358 27.637C319.998 27.637 319.665 27.7405 319.359 27.9475C319.062 28.1455 318.787 28.384 318.535 28.663L317.428 27.5965C317.896 27.0925 318.373 26.7145 318.859 26.4625C319.354 26.2015 319.939 26.071 320.614 26.071C321.244 26.071 321.793 26.2015 322.261 26.4625C322.738 26.7145 323.107 27.07 323.368 27.529C323.629 27.988 323.76 28.528 323.76 29.149C323.76 29.752 323.607 30.3685 323.301 30.9985C323.004 31.6195 322.603 32.2405 322.099 32.8615C321.595 33.4825 321.037 34.0945 320.425 34.6975C320.686 34.6615 320.965 34.6345 321.262 34.6165C321.568 34.5895 321.838 34.576 322.072 34.576H324.232V36.25H317.536ZM328.658 36.439C328.127 36.439 327.654 36.376 327.24 36.25C326.826 36.124 326.457 35.9575 326.133 35.7505C325.809 35.5435 325.521 35.3185 325.269 35.0755L326.187 33.8065C326.376 33.9955 326.579 34.1665 326.795 34.3195C327.02 34.4725 327.263 34.594 327.524 34.684C327.794 34.774 328.082 34.819 328.388 34.819C328.73 34.819 329.031 34.747 329.292 34.603C329.562 34.459 329.774 34.252 329.927 33.982C330.08 33.703 330.156 33.37 330.156 32.983C330.156 32.407 329.999 31.9615 329.684 31.6465C329.378 31.3315 328.973 31.174 328.469 31.174C328.181 31.174 327.933 31.2145 327.726 31.2955C327.519 31.3675 327.267 31.498 326.97 31.687L326.066 31.1065L326.336 26.2465H331.682V27.9205H328.05L327.861 30.04C328.059 29.95 328.253 29.8825 328.442 29.8375C328.631 29.7925 328.838 29.77 329.063 29.77C329.621 29.77 330.134 29.8825 330.602 30.1075C331.07 30.3235 331.443 30.6655 331.722 31.1335C332.001 31.6015 332.141 32.2 332.141 32.929C332.141 33.667 331.974 34.3015 331.641 34.8325C331.317 35.3545 330.89 35.755 330.359 36.034C329.837 36.304 329.27 36.439 328.658 36.439ZM339.469 26.746H342.655V28.177H339.469V26.746ZM339.469 29.2435H342.709V30.6745H339.469V29.2435ZM342.088 24.9505H343.897V32.2675H342.088V24.9505ZM333.934 25.8415H339.847V31.5925H333.934V25.8415ZM338.092 27.259H335.703V30.1885H338.092V27.259ZM339.658 32.5915C340.981 32.5915 342.025 32.8075 342.79 33.2395C343.555 33.6625 343.938 34.252 343.938 35.008C343.938 35.782 343.555 36.3805 342.79 36.8035C342.025 37.2355 340.981 37.4515 339.658 37.4515C338.335 37.4515 337.291 37.2355 336.526 36.8035C335.761 36.3805 335.379 35.782 335.379 35.008C335.379 34.252 335.761 33.6625 336.526 33.2395C337.291 32.8075 338.335 32.5915 339.658 32.5915ZM339.658 33.9685C339.118 33.9685 338.664 34.0045 338.295 34.0765C337.926 34.1485 337.642 34.2655 337.444 34.4275C337.255 34.5805 337.161 34.7785 337.161 35.0215C337.161 35.2555 337.255 35.4535 337.444 35.6155C337.642 35.7685 337.926 35.8855 338.295 35.9665C338.664 36.0385 339.118 36.0745 339.658 36.0745C340.198 36.0745 340.653 36.0385 341.022 35.9665C341.391 35.8855 341.67 35.7685 341.859 35.6155C342.048 35.4535 342.142 35.2555 342.142 35.0215C342.142 34.7785 342.048 34.5805 341.859 34.4275C341.67 34.2655 341.391 34.1485 341.022 34.0765C340.653 34.0045 340.198 33.9685 339.658 33.9685Z" fill="#3F3F3F"/>
<path d="M24.3447 48.766H25.6047V59.734H24.3447V48.766ZM21.1167 49.93H22.3647C22.3647 50.746 22.2767 51.526 22.1007 52.27C21.9247 53.014 21.6367 53.722 21.2367 54.394C20.8447 55.058 20.3247 55.674 19.6767 56.242C19.0367 56.81 18.2447 57.322 17.3007 57.778L16.6287 56.782C17.6927 56.27 18.5527 55.686 19.2087 55.03C19.8647 54.374 20.3447 53.642 20.6487 52.834C20.9607 52.018 21.1167 51.122 21.1167 50.146V49.93ZM17.1687 49.93H21.6807V50.938H17.1687V49.93ZM34.8797 48.778H36.1397V56.71H34.8797V48.778ZM35.7677 51.982H37.6877V53.014H35.7677V51.982ZM31.8557 49.606H33.1997C33.1997 50.574 32.9957 51.446 32.5877 52.222C32.1797 52.998 31.5917 53.666 30.8237 54.226C30.0637 54.786 29.1477 55.226 28.0757 55.546L27.5477 54.538C28.4597 54.274 29.2357 53.926 29.8757 53.494C30.5237 53.062 31.0157 52.566 31.3517 52.006C31.6877 51.446 31.8557 50.842 31.8557 50.194V49.606ZM28.0157 49.606H32.5157V50.626H28.0157V49.606ZM29.1917 58.498H36.5717V59.518H29.1917V58.498ZM29.1917 55.906H30.4517V58.942H29.1917V55.906ZM46.7468 48.766H47.9588V59.734H46.7468V48.766ZM45.0908 53.134H47.0828V54.154H45.0908V53.134ZM44.2868 48.994H45.4628V59.194H44.2868V48.994ZM39.1028 50.05H40.3628V56.374H39.1028V50.05ZM39.1028 55.894H39.8348C40.3868 55.894 40.9708 55.874 41.5868 55.834C42.2108 55.786 42.8748 55.694 43.5788 55.558L43.6988 56.638C42.9708 56.782 42.2868 56.874 41.6468 56.914C41.0068 56.954 40.4028 56.974 39.8348 56.974H39.1028V55.894Z" fill="#777777"/>
<path d="M333.225 58.75C333.265 57.982 333.333 57.274 333.429 56.626C333.525 55.97 333.661 55.354 333.837 54.778C334.013 54.194 334.241 53.622 334.521 53.062C334.809 52.502 335.165 51.93 335.589 51.346H331.593V49.858H337.497V50.938C336.985 51.562 336.569 52.162 336.249 52.738C335.937 53.314 335.697 53.898 335.529 54.49C335.369 55.082 335.249 55.722 335.169 56.41C335.097 57.098 335.041 57.878 335.001 58.75H333.225ZM341.611 58.918C341.011 58.918 340.483 58.746 340.027 58.402C339.579 58.05 339.227 57.53 338.971 56.842C338.723 56.146 338.599 55.286 338.599 54.262C338.599 53.246 338.723 52.402 338.971 51.73C339.227 51.05 339.579 50.542 340.027 50.206C340.483 49.87 341.011 49.702 341.611 49.702C342.219 49.702 342.747 49.874 343.195 50.218C343.643 50.554 343.991 51.058 344.239 51.73C344.495 52.402 344.623 53.246 344.623 54.262C344.623 55.286 344.495 56.146 344.239 56.842C343.991 57.53 343.643 58.05 343.195 58.402C342.747 58.746 342.219 58.918 341.611 58.918ZM341.611 57.538C341.875 57.538 342.107 57.438 342.307 57.238C342.507 57.038 342.663 56.702 342.775 56.23C342.887 55.75 342.943 55.094 342.943 54.262C342.943 53.438 342.887 52.794 342.775 52.33C342.663 51.858 342.507 51.53 342.307 51.346C342.107 51.154 341.875 51.058 341.611 51.058C341.363 51.058 341.135 51.154 340.927 51.346C340.727 51.53 340.567 51.858 340.447 52.33C340.327 52.794 340.267 53.438 340.267 54.262C340.267 55.094 340.327 55.75 340.447 56.23C340.567 56.702 340.727 57.038 340.927 57.238C341.135 57.438 341.363 57.538 341.611 57.538Z" fill="#3F3F3F"/>
<path d="M17.7122 299.25C17.7422 298.626 17.7932 298.053 17.8652 297.531C17.9432 297.003 18.0542 296.508 18.1982 296.046C18.3422 295.578 18.5252 295.125 18.7472 294.687C18.9752 294.249 19.2512 293.805 19.5752 293.355H16.3712V292.653H20.5022V293.148C20.1182 293.646 19.8032 294.123 19.5572 294.579C19.3172 295.035 19.1282 295.5 18.9902 295.974C18.8582 296.448 18.7592 296.952 18.6932 297.486C18.6332 298.014 18.5912 298.602 18.5672 299.25H17.7122ZM23.6584 292.104C24.0664 292.104 24.4264 292.182 24.7384 292.338C25.0564 292.488 25.3054 292.698 25.4854 292.968C25.6654 293.238 25.7554 293.553 25.7554 293.913C25.7554 294.267 25.6654 294.582 25.4854 294.858C25.3054 295.128 25.0564 295.338 24.7384 295.488C24.4264 295.638 24.0664 295.713 23.6584 295.713C23.2564 295.713 22.8964 295.638 22.5784 295.488C22.2604 295.338 22.0084 295.128 21.8224 294.858C21.6424 294.582 21.5524 294.267 21.5524 293.913C21.5524 293.553 21.6424 293.238 21.8224 292.968C22.0084 292.698 22.2604 292.488 22.5784 292.338C22.8964 292.182 23.2564 292.104 23.6584 292.104ZM23.6584 292.725C23.3944 292.725 23.1574 292.776 22.9474 292.878C22.7434 292.974 22.5814 293.112 22.4614 293.292C22.3414 293.472 22.2814 293.679 22.2814 293.913C22.2814 294.147 22.3414 294.354 22.4614 294.534C22.5814 294.708 22.7434 294.846 22.9474 294.948C23.1574 295.05 23.3944 295.101 23.6584 295.101C23.9224 295.101 24.1564 295.05 24.3604 294.948C24.5704 294.846 24.7354 294.708 24.8554 294.534C24.9754 294.354 25.0354 294.147 25.0354 293.913C25.0354 293.679 24.9754 293.472 24.8554 293.292C24.7354 293.112 24.5704 292.974 24.3604 292.878C24.1564 292.776 23.9224 292.725 23.6584 292.725ZM27.2944 291.807H28.0414V295.974H27.2944V291.807ZM22.7764 296.379H28.0414V298.35H23.5234V299.574H22.8034V297.792H27.3034V296.973H22.7764V296.379ZM22.8034 299.241H28.3204V299.844H22.8034V299.241ZM35.9754 294.057H38.0364V294.669H35.9754V294.057ZM37.6134 291.816H38.3604V297.783H37.6134V291.816ZM33.1674 299.16H38.5854V299.772H33.1674V299.16ZM33.1674 297.252H33.9054V299.466H33.1674V297.252ZM33.7344 292.824H34.3464V293.481C34.3464 293.973 34.2504 294.438 34.0584 294.876C33.8724 295.308 33.6084 295.686 33.2664 296.01C32.9244 296.328 32.5284 296.574 32.0784 296.748L31.6914 296.145C31.9914 296.037 32.2644 295.893 32.5104 295.713C32.7624 295.533 32.9814 295.326 33.1674 295.092C33.3534 294.858 33.4944 294.603 33.5904 294.327C33.6864 294.051 33.7344 293.769 33.7344 293.481V292.824ZM33.8784 292.824H34.4904V293.481C34.4904 293.829 34.5714 294.168 34.7334 294.498C34.8954 294.828 35.1264 295.122 35.4264 295.38C35.7264 295.632 36.0714 295.827 36.4614 295.965L36.0834 296.559C35.6394 296.397 35.2524 296.163 34.9224 295.857C34.5924 295.545 34.3344 295.185 34.1484 294.777C33.9684 294.369 33.8784 293.937 33.8784 293.481V292.824ZM31.9254 292.473H36.2724V293.085H31.9254V292.473Z" fill="#777777"/>
<path d="M326.811 291.807H327.558V299.952H326.811V291.807ZM324.426 292.689H325.164C325.164 293.277 325.092 293.844 324.948 294.39C324.81 294.936 324.591 295.455 324.291 295.947C323.991 296.433 323.601 296.886 323.121 297.306C322.641 297.726 322.059 298.101 321.375 298.431L320.979 297.828C321.765 297.45 322.413 297.009 322.923 296.505C323.433 296.001 323.811 295.44 324.057 294.822C324.303 294.198 324.426 293.526 324.426 292.806V292.689ZM321.357 292.689H324.741V293.292H321.357V292.689ZM332.355 292.581H333.012V292.824C333.012 293.166 332.928 293.481 332.76 293.769C332.592 294.057 332.361 294.315 332.067 294.543C331.779 294.765 331.446 294.951 331.068 295.101C330.696 295.245 330.3 295.347 329.88 295.407L329.601 294.813C329.889 294.771 330.168 294.708 330.438 294.624C330.714 294.54 330.966 294.438 331.194 294.318C331.422 294.192 331.623 294.051 331.797 293.895C331.971 293.739 332.106 293.571 332.202 293.391C332.304 293.211 332.355 293.022 332.355 292.824V292.581ZM332.661 292.581H333.318V292.824C333.318 293.016 333.366 293.202 333.462 293.382C333.564 293.562 333.702 293.733 333.876 293.895C334.05 294.051 334.251 294.192 334.479 294.318C334.713 294.438 334.965 294.54 335.235 294.624C335.505 294.708 335.784 294.771 336.072 294.813L335.793 295.407C335.379 295.347 334.983 295.245 334.605 295.101C334.227 294.951 333.894 294.765 333.606 294.543C333.318 294.315 333.087 294.057 332.913 293.769C332.745 293.481 332.661 293.166 332.661 292.824V292.581ZM329.835 292.212H335.847V292.815H329.835V292.212ZM329.151 295.992H336.531V296.604H329.151V295.992ZM332.517 296.379H333.264V298.251H332.517V296.379ZM330.087 299.16H335.712V299.772H330.087V299.16ZM330.087 297.459H330.834V299.385H330.087V297.459ZM339.725 292.104C340.133 292.104 340.493 292.182 340.805 292.338C341.123 292.488 341.372 292.698 341.552 292.968C341.732 293.238 341.822 293.553 341.822 293.913C341.822 294.267 341.732 294.582 341.552 294.858C341.372 295.128 341.123 295.338 340.805 295.488C340.493 295.638 340.133 295.713 339.725 295.713C339.323 295.713 338.963 295.638 338.645 295.488C338.327 295.338 338.075 295.128 337.889 294.858C337.709 294.582 337.619 294.267 337.619 293.913C337.619 293.553 337.709 293.238 337.889 292.968C338.075 292.698 338.327 292.488 338.645 292.338C338.963 292.182 339.323 292.104 339.725 292.104ZM339.725 292.725C339.461 292.725 339.224 292.776 339.014 292.878C338.81 292.974 338.648 293.112 338.528 293.292C338.408 293.472 338.348 293.679 338.348 293.913C338.348 294.147 338.408 294.354 338.528 294.534C338.648 294.708 338.81 294.846 339.014 294.948C339.224 295.05 339.461 295.101 339.725 295.101C339.989 295.101 340.223 295.05 340.427 294.948C340.637 294.846 340.802 294.708 340.922 294.534C341.042 294.354 341.102 294.147 341.102 293.913C341.102 293.679 341.042 293.472 340.922 293.292C340.802 293.112 340.637 292.974 340.427 292.878C340.223 292.776 339.989 292.725 339.725 292.725ZM343.361 291.807H344.108V295.974H343.361V291.807ZM338.843 296.379H344.108V298.35H339.59V299.574H338.87V297.792H343.37V296.973H338.843V296.379ZM338.87 299.241H344.387V299.844H338.87V299.241Z" fill="#777777"/>
<rect width="26.25" height="75.75" transform="translate(21.9302 210.75)" fill="#6A8096"/>
<rect width="26.25" height="48" transform="translate(70.6802 238.5)" fill="#6A8096"/>
<rect width="26.25" height="30" transform="translate(119.43 256.5)" fill="#6A8096"/>
<rect width="26.25" height="30" transform="translate(168.18 256.5)" fill="#6A8096"/>
<rect width="26.25" height="90" transform="translate(216.93 196.5)" fill="#6A8096"/>
<rect width="26.25" height="90" transform="translate(265.68 196.5)" fill="#6A8096"/>
<line x1="15.9927" y1="286.125" x2="345.993" y2="286.125" stroke="#A8A8A8" stroke-width="0.75"/>
<path d="M272.736 190.5V189.588H274.704V183.024H273.132V182.328C273.524 182.256 273.864 182.168 274.152 182.064C274.448 181.96 274.716 181.84 274.956 181.704H275.796V189.588H277.56V190.5H272.736ZM281.672 190.656C281.12 190.656 280.636 190.488 280.22 190.152C279.812 189.816 279.496 189.308 279.272 188.628C279.048 187.948 278.936 187.096 278.936 186.072C278.936 185.048 279.048 184.204 279.272 183.54C279.496 182.868 279.812 182.368 280.22 182.04C280.636 181.712 281.12 181.548 281.672 181.548C282.232 181.548 282.716 181.716 283.124 182.052C283.532 182.38 283.848 182.876 284.072 183.54C284.296 184.204 284.408 185.048 284.408 186.072C284.408 187.096 284.296 187.948 284.072 188.628C283.848 189.308 283.532 189.816 283.124 190.152C282.716 190.488 282.232 190.656 281.672 190.656ZM281.672 189.768C282.008 189.768 282.3 189.64 282.548 189.384C282.804 189.128 283 188.728 283.136 188.184C283.28 187.632 283.352 186.928 283.352 186.072C283.352 185.216 283.28 184.52 283.136 183.984C283 183.44 282.804 183.044 282.548 182.796C282.3 182.54 282.008 182.412 281.672 182.412C281.344 182.412 281.052 182.54 280.796 182.796C280.54 183.044 280.34 183.44 280.196 183.984C280.06 184.52 279.992 185.216 279.992 186.072C279.992 186.928 280.06 187.632 280.196 188.184C280.34 188.728 280.54 189.128 280.796 189.384C281.052 189.64 281.344 189.768 281.672 189.768Z" fill="#747474"/>
<path d="M223.986 190.5V189.588H225.954V183.024H224.382V182.328C224.774 182.256 225.114 182.168 225.402 182.064C225.698 181.96 225.966 181.84 226.206 181.704H227.046V189.588H228.81V190.5H223.986ZM232.922 190.656C232.37 190.656 231.886 190.488 231.47 190.152C231.062 189.816 230.746 189.308 230.522 188.628C230.298 187.948 230.186 187.096 230.186 186.072C230.186 185.048 230.298 184.204 230.522 183.54C230.746 182.868 231.062 182.368 231.47 182.04C231.886 181.712 232.37 181.548 232.922 181.548C233.482 181.548 233.966 181.716 234.374 182.052C234.782 182.38 235.098 182.876 235.322 183.54C235.546 184.204 235.658 185.048 235.658 186.072C235.658 187.096 235.546 187.948 235.322 188.628C235.098 189.308 234.782 189.816 234.374 190.152C233.966 190.488 233.482 190.656 232.922 190.656ZM232.922 189.768C233.258 189.768 233.55 189.64 233.798 189.384C234.054 189.128 234.25 188.728 234.386 188.184C234.53 187.632 234.602 186.928 234.602 186.072C234.602 185.216 234.53 184.52 234.386 183.984C234.25 183.44 234.054 183.044 233.798 182.796C233.55 182.54 233.258 182.412 232.922 182.412C232.594 182.412 232.302 182.54 232.046 182.796C231.79 183.044 231.59 183.44 231.446 183.984C231.31 184.52 231.242 185.216 231.242 186.072C231.242 186.928 231.31 187.632 231.446 188.184C231.59 188.728 231.79 189.128 232.046 189.384C232.302 189.64 232.594 189.768 232.922 189.768Z" fill="#747474"/>
<path d="M132.336 250.656C131.88 250.656 131.476 250.6 131.124 250.488C130.78 250.376 130.476 250.228 130.212 250.044C129.948 249.86 129.72 249.66 129.528 249.444L130.092 248.736C130.348 249 130.648 249.236 130.992 249.444C131.344 249.644 131.768 249.744 132.264 249.744C132.616 249.744 132.924 249.68 133.188 249.552C133.46 249.416 133.672 249.228 133.824 248.988C133.976 248.74 134.052 248.448 134.052 248.112C134.052 247.76 133.964 247.452 133.788 247.188C133.62 246.924 133.336 246.72 132.936 246.576C132.536 246.424 131.996 246.348 131.316 246.348V245.508C131.924 245.508 132.404 245.436 132.756 245.292C133.108 245.14 133.36 244.936 133.512 244.68C133.672 244.424 133.752 244.14 133.752 243.828C133.752 243.404 133.62 243.068 133.356 242.82C133.092 242.564 132.728 242.436 132.264 242.436C131.912 242.436 131.58 242.516 131.268 242.676C130.964 242.836 130.688 243.04 130.44 243.288L129.852 242.592C130.188 242.288 130.552 242.04 130.944 241.848C131.344 241.648 131.796 241.548 132.3 241.548C132.796 241.548 133.236 241.636 133.62 241.812C134.012 241.98 134.316 242.228 134.532 242.556C134.756 242.884 134.868 243.28 134.868 243.744C134.868 244.28 134.724 244.724 134.436 245.076C134.148 245.428 133.772 245.688 133.308 245.856V245.916C133.652 245.996 133.964 246.136 134.244 246.336C134.524 246.536 134.748 246.788 134.916 247.092C135.084 247.396 135.168 247.748 135.168 248.148C135.168 248.668 135.04 249.116 134.784 249.492C134.528 249.868 134.188 250.156 133.764 250.356C133.34 250.556 132.864 250.656 132.336 250.656Z" fill="#747474"/>
<path d="M181.086 250.656C180.63 250.656 180.226 250.6 179.874 250.488C179.53 250.376 179.226 250.228 178.962 250.044C178.698 249.86 178.47 249.66 178.278 249.444L178.842 248.736C179.098 249 179.398 249.236 179.742 249.444C180.094 249.644 180.518 249.744 181.014 249.744C181.366 249.744 181.674 249.68 181.938 249.552C182.21 249.416 182.422 249.228 182.574 248.988C182.726 248.74 182.802 248.448 182.802 248.112C182.802 247.76 182.714 247.452 182.538 247.188C182.37 246.924 182.086 246.72 181.686 246.576C181.286 246.424 180.746 246.348 180.066 246.348V245.508C180.674 245.508 181.154 245.436 181.506 245.292C181.858 245.14 182.11 244.936 182.262 244.68C182.422 244.424 182.502 244.14 182.502 243.828C182.502 243.404 182.37 243.068 182.106 242.82C181.842 242.564 181.478 242.436 181.014 242.436C180.662 242.436 180.33 242.516 180.018 242.676C179.714 242.836 179.438 243.04 179.19 243.288L178.602 242.592C178.938 242.288 179.302 242.04 179.694 241.848C180.094 241.648 180.546 241.548 181.05 241.548C181.546 241.548 181.986 241.636 182.37 241.812C182.762 241.98 183.066 242.228 183.282 242.556C183.506 242.884 183.618 243.28 183.618 243.744C183.618 244.28 183.474 244.724 183.186 245.076C182.898 245.428 182.522 245.688 182.058 245.856V245.916C182.402 245.996 182.714 246.136 182.994 246.336C183.274 246.536 183.498 246.788 183.666 247.092C183.834 247.396 183.918 247.748 183.918 248.148C183.918 248.668 183.79 249.116 183.534 249.492C183.278 249.868 182.938 250.156 182.514 250.356C182.09 250.556 181.614 250.656 181.086 250.656Z" fill="#747474"/>
<path d="M83.5742 232.656C83.1182 232.656 82.7142 232.6 82.3622 232.488C82.0182 232.376 81.7142 232.232 81.4502 232.056C81.1942 231.88 80.9622 231.692 80.7542 231.492L81.3062 230.772C81.4742 230.94 81.6582 231.1 81.8582 231.252C82.0662 231.396 82.3022 231.516 82.5662 231.612C82.8302 231.7 83.1302 231.744 83.4662 231.744C83.8102 231.744 84.1222 231.66 84.4022 231.492C84.6902 231.324 84.9182 231.084 85.0862 230.772C85.2542 230.46 85.3382 230.092 85.3382 229.668C85.3382 229.044 85.1702 228.556 84.8342 228.204C84.5062 227.844 84.0662 227.664 83.5142 227.664C83.2262 227.664 82.9742 227.708 82.7582 227.796C82.5422 227.884 82.3062 228.012 82.0502 228.18L81.4622 227.808L81.7502 223.704H86.0222V224.64H82.7102L82.4822 227.184C82.6742 227.072 82.8742 226.988 83.0822 226.932C83.2982 226.868 83.5382 226.836 83.8022 226.836C84.2902 226.836 84.7342 226.936 85.1342 227.136C85.5342 227.328 85.8542 227.632 86.0942 228.048C86.3342 228.464 86.4542 228.996 86.4542 229.644C86.4542 230.284 86.3142 230.828 86.0342 231.276C85.7622 231.724 85.4062 232.068 84.9662 232.308C84.5262 232.54 84.0622 232.656 83.5742 232.656Z" fill="#747474"/>
<path d="M35.0404 204.906C34.4964 204.906 34.0124 204.806 33.5884 204.606C33.1644 204.406 32.8324 204.13 32.5924 203.778C32.3524 203.426 32.2324 203.022 32.2324 202.566C32.2324 202.174 32.3084 201.822 32.4604 201.51C32.6204 201.19 32.8244 200.918 33.0724 200.694C33.3204 200.462 33.5764 200.274 33.8404 200.13V200.082C33.5204 199.858 33.2404 199.582 33.0004 199.254C32.7684 198.918 32.6524 198.518 32.6524 198.054C32.6524 197.606 32.7564 197.218 32.9644 196.89C33.1804 196.554 33.4684 196.294 33.8284 196.11C34.1964 195.918 34.6084 195.822 35.0644 195.822C35.5684 195.822 36.0004 195.922 36.3604 196.122C36.7204 196.322 36.9964 196.594 37.1884 196.938C37.3804 197.282 37.4764 197.682 37.4764 198.138C37.4764 198.442 37.4124 198.73 37.2844 199.002C37.1644 199.274 37.0164 199.518 36.8404 199.734C36.6644 199.942 36.4884 200.118 36.3124 200.262V200.322C36.5684 200.466 36.8084 200.642 37.0324 200.85C37.2564 201.05 37.4364 201.298 37.5724 201.594C37.7164 201.882 37.7884 202.23 37.7884 202.638C37.7884 203.054 37.6724 203.438 37.4404 203.79C37.2164 204.134 36.8964 204.406 36.4804 204.606C36.0724 204.806 35.5924 204.906 35.0404 204.906ZM35.6404 199.974C35.9364 199.71 36.1604 199.43 36.3124 199.134C36.4644 198.83 36.5404 198.518 36.5404 198.198C36.5404 197.902 36.4804 197.638 36.3604 197.406C36.2484 197.174 36.0804 196.99 35.8564 196.854C35.6324 196.71 35.3644 196.638 35.0524 196.638C34.6444 196.638 34.3084 196.766 34.0444 197.022C33.7804 197.278 33.6484 197.622 33.6484 198.054C33.6484 198.398 33.7404 198.69 33.9244 198.93C34.1164 199.162 34.3644 199.362 34.6684 199.53C34.9724 199.69 35.2964 199.838 35.6404 199.974ZM35.0524 204.09C35.3964 204.09 35.6924 204.026 35.9404 203.898C36.1964 203.77 36.3924 203.594 36.5284 203.37C36.6724 203.146 36.7444 202.89 36.7444 202.602C36.7444 202.306 36.6804 202.054 36.5524 201.846C36.4244 201.63 36.2524 201.442 36.0364 201.282C35.8284 201.122 35.5844 200.978 35.3044 200.85C35.0244 200.722 34.7284 200.598 34.4164 200.478C34.0644 200.702 33.7724 200.986 33.5404 201.33C33.3164 201.666 33.2044 202.046 33.2044 202.47C33.2044 202.774 33.2844 203.05 33.4444 203.298C33.6044 203.546 33.8244 203.742 34.1044 203.886C34.3924 204.022 34.7084 204.09 35.0524 204.09Z" fill="#747474"/>
<path d="M324.708 257.25V256.602C325.628 255.794 326.384 255.058 326.976 254.394C327.576 253.73 328.02 253.114 328.308 252.546C328.596 251.97 328.74 251.43 328.74 250.926C328.74 250.59 328.68 250.29 328.56 250.026C328.448 249.762 328.272 249.558 328.032 249.414C327.792 249.262 327.488 249.186 327.12 249.186C326.76 249.186 326.424 249.282 326.112 249.474C325.808 249.666 325.536 249.91 325.296 250.206L324.66 249.582C325.012 249.19 325.392 248.878 325.8 248.646C326.208 248.414 326.692 248.298 327.252 248.298C327.78 248.298 328.232 248.406 328.608 248.622C328.992 248.83 329.288 249.13 329.496 249.522C329.712 249.906 329.82 250.358 329.82 250.878C329.82 251.462 329.672 252.054 329.376 252.654C329.088 253.254 328.684 253.866 328.164 254.49C327.652 255.106 327.052 255.738 326.364 256.386C326.596 256.37 326.836 256.354 327.084 256.338C327.34 256.314 327.58 256.302 327.804 256.302H330.24V257.25H324.708Z" fill="#747474"/>
<rect width="26.25" height="23.25" transform="translate(314.43 263.25)" fill="#214A72"/>
<path d="M18.3087 125.25C18.3487 124.442 18.4167 123.702 18.5127 123.03C18.6087 122.35 18.7487 121.71 18.9327 121.11C19.1167 120.502 19.3567 119.914 19.6527 119.346C19.9487 118.77 20.3087 118.182 20.7327 117.582H16.5927V116.406H22.2687V117.258C21.7567 117.898 21.3407 118.518 21.0207 119.118C20.7007 119.71 20.4527 120.314 20.2767 120.93C20.1007 121.546 19.9727 122.206 19.8927 122.91C19.8127 123.606 19.7567 124.386 19.7247 125.25H18.3087ZM26.4724 115.638C27.0244 115.638 27.5164 115.742 27.9484 115.95C28.3804 116.158 28.7204 116.45 28.9684 116.826C29.2164 117.194 29.3404 117.622 29.3404 118.11C29.3404 118.59 29.2164 119.014 28.9684 119.382C28.7204 119.75 28.3804 120.038 27.9484 120.246C27.5164 120.454 27.0244 120.558 26.4724 120.558C25.9204 120.558 25.4284 120.454 24.9964 120.246C24.5644 120.038 24.2204 119.75 23.9644 119.382C23.7164 119.014 23.5924 118.59 23.5924 118.11C23.5924 117.622 23.7164 117.194 23.9644 116.826C24.2204 116.45 24.5644 116.158 24.9964 115.95C25.4284 115.742 25.9204 115.638 26.4724 115.638ZM26.4724 116.658C26.1524 116.658 25.8684 116.718 25.6204 116.838C25.3724 116.958 25.1764 117.126 25.0324 117.342C24.8884 117.558 24.8164 117.81 24.8164 118.098C24.8164 118.394 24.8884 118.65 25.0324 118.866C25.1764 119.082 25.3724 119.25 25.6204 119.37C25.8684 119.482 26.1524 119.538 26.4724 119.538C26.7924 119.538 27.0764 119.482 27.3244 119.37C27.5724 119.25 27.7684 119.082 27.9124 118.866C28.0564 118.65 28.1284 118.394 28.1284 118.098C28.1284 117.81 28.0564 117.558 27.9124 117.342C27.7684 117.126 27.5684 116.958 27.3124 116.838C27.0644 116.718 26.7844 116.658 26.4724 116.658ZM31.1644 115.278H32.4244V120.834H31.1644V115.278ZM25.2364 121.326H32.4244V124.146H26.4964V125.646H25.2604V123.222H31.1884V122.31H25.2364V121.326ZM25.2604 125.118H32.7604V126.102H25.2604V125.118ZM42.5515 115.266H43.7635V126.234H42.5515V115.266ZM40.8955 119.634H42.8875V120.654H40.8955V119.634ZM40.0915 115.494H41.2675V125.694H40.0915V115.494ZM34.9075 116.55H36.1675V122.874H34.9075V116.55ZM34.9075 122.394H35.6395C36.1915 122.394 36.7755 122.374 37.3915 122.334C38.0155 122.286 38.6795 122.194 39.3835 122.058L39.5035 123.138C38.7755 123.282 38.0915 123.374 37.4515 123.414C36.8115 123.454 36.2075 123.474 35.6395 123.474H34.9075V122.394Z" fill="#777777"/>
<path d="M335.037 125.25V119.79C335.037 119.534 335.045 119.23 335.061 118.878C335.077 118.518 335.093 118.206 335.109 117.942H335.049C334.945 118.182 334.833 118.422 334.713 118.662C334.593 118.902 334.469 119.146 334.341 119.394L332.961 121.602H337.737V122.946H331.245V121.746L334.557 116.358H336.681V125.25H335.037ZM339.055 125.25V123.81H340.975V118.206H339.355V117.102C339.803 117.022 340.187 116.926 340.507 116.814C340.835 116.694 341.139 116.542 341.419 116.358H342.727V123.81H344.395V125.25H339.055Z" fill="#3F3F3F"/>
</g>
<rect x="1.30518" y="1.125" width="359.25" height="321.75" rx="1.125" stroke="#DBDFEA" stroke-width="0.75"/>
<defs>
<clipPath id="clip0_383_5259">
<rect x="0.930176" y="0.75" width="360" height="322.5" rx="1.5" fill="white"/>
</clipPath>
</defs>
</svg>
