<svg width="361" height="324" viewBox="0 0 361 324" fill="none" xmlns="http://www.w3.org/2000/svg">
<g clip-path="url(#clip0_383_5258)">
<rect x="0.930176" y="0.75" width="360" height="322.5" rx="1.5" fill="white"/>
<path d="M25.3534 25.0315H26.7844V34.171H25.3534V25.0315ZM21.5734 25.9765H23.0584C23.0584 27.0565 22.8244 28.042 22.3564 28.933C21.8974 29.815 21.2404 30.5845 20.3854 31.2415C19.5304 31.8895 18.5134 32.4025 17.3344 32.7805L16.7269 31.6465C17.7169 31.3315 18.5719 30.922 19.2919 30.418C20.0209 29.914 20.5834 29.3425 20.9794 28.7035C21.3754 28.0555 21.5734 27.3535 21.5734 26.5975V25.9765ZM17.3614 25.9765H22.4509V27.124H17.3614V25.9765ZM22.4374 27.4885H25.5694V28.636H22.4374V27.4885ZM22.3294 30.256H25.5019V31.4035H22.3294V30.256ZM18.8464 35.9665H27.0814V37.114H18.8464V35.9665ZM18.8464 33.28H20.2774V36.682H18.8464V33.28ZM31.9809 26.2735H33.1419V27.178C33.1419 27.934 33.0024 28.6495 32.7234 29.3245C32.4534 29.9995 32.0619 30.589 31.5489 31.093C31.0359 31.597 30.4149 31.9795 29.6859 32.2405L28.9569 31.12C29.4429 30.949 29.8704 30.7285 30.2394 30.4585C30.6174 30.1885 30.9369 29.878 31.1979 29.527C31.4589 29.167 31.6524 28.789 31.7784 28.393C31.9134 27.988 31.9809 27.583 31.9809 27.178V26.2735ZM32.2644 26.2735H33.4119V27.1645C33.4119 27.6775 33.5244 28.177 33.7494 28.663C33.9744 29.149 34.3029 29.5855 34.7349 29.9725C35.1669 30.3505 35.6934 30.6475 36.3144 30.8635L35.6124 31.9705C34.9014 31.7275 34.2939 31.363 33.7899 30.877C33.2949 30.391 32.9169 29.8285 32.6559 29.1895C32.3949 28.5505 32.2644 27.8755 32.2644 27.1645V26.2735ZM35.6259 28.123H38.1774V29.284H35.6259V28.123ZM29.3754 25.801H35.9769V26.935H29.3754V25.801ZM30.8874 33.01H39.1899V37.3705H37.7724V34.144H30.8874V33.01ZM37.7724 25.0315H39.1899V32.389H37.7724V25.0315ZM45.11 36.25V26.3005H48.1205C48.8675 26.3005 49.5245 26.3995 50.0915 26.5975C50.6585 26.7865 51.104 27.1015 51.428 27.5425C51.761 27.9745 51.9275 28.5685 51.9275 29.3245C51.9275 30.0445 51.7655 30.6385 51.4415 31.1065C51.1175 31.5655 50.672 31.912 50.105 32.146C49.547 32.371 48.9035 32.4835 48.1745 32.4835H46.676V36.25H45.11ZM46.676 31.2145H48.0395C48.8225 31.2145 49.4075 31.0615 49.7945 30.7555C50.1815 30.4495 50.375 29.9725 50.375 29.3245C50.375 28.6585 50.1725 28.1995 49.7675 27.9475C49.3625 27.6955 48.764 27.5695 47.972 27.5695H46.676V31.2145ZM53.8639 36.25V26.3005H56.4424C57.4684 26.3005 58.3369 26.4895 59.0479 26.8675C59.7589 27.2365 60.2989 27.7855 60.6679 28.5145C61.0459 29.2435 61.2349 30.1525 61.2349 31.2415C61.2349 32.3215 61.0459 33.235 60.6679 33.982C60.2989 34.729 59.7634 35.296 59.0614 35.683C58.3594 36.061 57.5134 36.25 56.5234 36.25H53.8639ZM55.4299 34.9675H56.3344C57.0454 34.9675 57.6439 34.828 58.1299 34.549C58.6249 34.27 58.9939 33.856 59.2369 33.307C59.4889 32.749 59.6149 32.0605 59.6149 31.2415C59.6149 30.4135 59.4889 29.7295 59.2369 29.1895C58.9939 28.6495 58.6249 28.249 58.1299 27.988C57.6439 27.718 57.0454 27.583 56.3344 27.583H55.4299V34.9675ZM63.3034 36.25V26.3005H69.1894V27.6235H64.8694V30.661H68.5549V31.9705H64.8694V36.25H63.3034ZM81.4341 25.018H82.8516V37.384H81.4341V25.018ZM82.5411 29.7565H84.7686V30.931H82.5411V29.7565ZM73.7931 33.172H74.7921C75.5301 33.172 76.2096 33.163 76.8306 33.145C77.4516 33.118 78.0546 33.0775 78.6396 33.0235C79.2246 32.9605 79.8186 32.875 80.4216 32.767L80.5701 33.9415C79.9491 34.0585 79.3371 34.1485 78.7341 34.2115C78.1401 34.2655 77.5191 34.306 76.8711 34.333C76.2321 34.351 75.5391 34.36 74.7921 34.36H73.7931V33.172ZM73.7931 26.1925H79.5306V27.34H75.1971V33.7255H73.7931V26.1925ZM85.7125 31.174H96.8905V32.308H85.7125V31.174ZM90.667 31.903H92.1115V34.63H90.667V31.903ZM87.076 35.9665H95.6485V37.114H87.076V35.9665ZM87.076 33.469H88.507V36.2635H87.076V33.469ZM91.288 25.288C92.161 25.288 92.926 25.3915 93.583 25.5985C94.24 25.8055 94.7485 26.098 95.1085 26.476C95.4775 26.854 95.662 27.2995 95.662 27.8125C95.662 28.3255 95.4775 28.771 95.1085 29.149C94.7485 29.527 94.24 29.8195 93.583 30.0265C92.926 30.2245 92.161 30.3235 91.288 30.3235C90.415 30.3235 89.6455 30.2245 88.9795 30.0265C88.3225 29.8195 87.814 29.527 87.454 29.149C87.094 28.771 86.914 28.3255 86.914 27.8125C86.914 27.2995 87.094 26.854 87.454 26.476C87.814 26.098 88.3225 25.8055 88.9795 25.5985C89.6455 25.3915 90.415 25.288 91.288 25.288ZM91.288 26.4355C90.712 26.4355 90.208 26.4895 89.776 26.5975C89.344 26.7055 89.011 26.863 88.777 27.07C88.543 27.277 88.426 27.5245 88.426 27.8125C88.426 28.1005 88.543 28.348 88.777 28.555C89.011 28.762 89.344 28.9195 89.776 29.0275C90.208 29.1355 90.712 29.1895 91.288 29.1895C91.873 29.1895 92.377 29.1355 92.8 29.0275C93.223 28.9195 93.5515 28.762 93.7855 28.555C94.0285 28.348 94.15 28.1005 94.15 27.8125C94.15 27.5245 94.0285 27.277 93.7855 27.07C93.5515 26.863 93.223 26.7055 92.8 26.5975C92.377 26.4895 91.873 26.4355 91.288 26.4355ZM98.1315 34.7515H109.309V35.9125H98.1315V34.7515ZM102.991 32.2405H104.409V35.224H102.991V32.2405ZM99.4545 25.882H107.986V29.797H100.872V32.0785H99.4815V28.6765H106.582V27.0295H99.4545V25.882ZM99.4815 31.5115H108.27V32.6455H99.4815V31.5115ZM111.914 30.8365H120.473V31.984H111.914V30.8365ZM110.55 34.6165H121.728V35.7775H110.55V34.6165ZM111.914 26.1115H120.365V27.259H113.318V31.336H111.914V26.1115ZM125.548 38.9365C124.918 37.9105 124.427 36.8395 124.076 35.7235C123.725 34.5985 123.55 33.3655 123.55 32.0245C123.55 30.6925 123.725 29.464 124.076 28.339C124.427 27.214 124.918 26.1385 125.548 25.1125L126.52 25.5445C125.944 26.5165 125.516 27.5605 125.237 28.6765C124.967 29.7835 124.832 30.8995 124.832 32.0245C124.832 33.1585 124.967 34.279 125.237 35.386C125.516 36.493 125.944 37.5325 126.52 38.5045L125.548 38.9365ZM136.583 25.0315H138.001V34.1035H136.583V25.0315ZM134.167 28.7305H136.826V29.8915H134.167V28.7305ZM132.749 25.963H134.234C134.234 27.052 134.005 28.042 133.546 28.933C133.087 29.815 132.43 30.58 131.575 31.228C130.729 31.876 129.716 32.3935 128.537 32.7805L127.943 31.6465C128.924 31.3315 129.775 30.922 130.495 30.418C131.215 29.914 131.768 29.338 132.155 28.69C132.551 28.042 132.749 27.3355 132.749 26.5705V25.963ZM128.578 25.963H133.654V27.1105H128.578V25.963ZM130.076 35.9665H138.311V37.114H130.076V35.9665ZM130.076 33.1855H131.507V36.601H130.076V33.1855ZM141.172 38.9365L140.2 38.5045C140.776 37.5325 141.204 36.493 141.483 35.386C141.762 34.279 141.901 33.1585 141.901 32.0245C141.901 30.8995 141.762 29.7835 141.483 28.6765C141.204 27.5605 140.776 26.5165 140.2 25.5445L141.172 25.1125C141.811 26.1385 142.306 27.214 142.657 28.339C143.008 29.464 143.184 30.6925 143.184 32.0245C143.184 33.3655 143.008 34.5985 142.657 35.7235C142.306 36.8395 141.811 37.9105 141.172 38.9365Z" fill="#141414"/>
<path d="M324.914 36.25V34.81H326.834V29.206H325.214V28.102C325.662 28.022 326.046 27.926 326.366 27.814C326.694 27.694 326.998 27.542 327.278 27.358H328.586V34.81H330.254V36.25H324.914ZM331.525 36.25V35.23C332.333 34.51 333.021 33.842 333.589 33.226C334.165 32.61 334.605 32.038 334.909 31.51C335.213 30.974 335.365 30.478 335.365 30.022C335.365 29.734 335.313 29.482 335.209 29.266C335.105 29.05 334.953 28.886 334.753 28.774C334.561 28.654 334.321 28.594 334.033 28.594C333.713 28.594 333.417 28.686 333.145 28.87C332.881 29.046 332.637 29.258 332.413 29.506L331.429 28.558C331.845 28.11 332.269 27.774 332.701 27.55C333.141 27.318 333.661 27.202 334.261 27.202C334.821 27.202 335.309 27.318 335.725 27.55C336.149 27.774 336.477 28.09 336.709 28.498C336.941 28.906 337.057 29.386 337.057 29.938C337.057 30.474 336.921 31.022 336.649 31.582C336.385 32.134 336.029 32.686 335.581 33.238C335.133 33.79 334.637 34.334 334.093 34.87C334.325 34.838 334.573 34.814 334.837 34.798C335.109 34.774 335.349 34.762 335.557 34.762H337.477V36.25H331.525ZM341.627 36.418C341.027 36.418 340.499 36.246 340.043 35.902C339.595 35.55 339.243 35.03 338.987 34.342C338.739 33.646 338.615 32.786 338.615 31.762C338.615 30.746 338.739 29.902 338.987 29.23C339.243 28.55 339.595 28.042 340.043 27.706C340.499 27.37 341.027 27.202 341.627 27.202C342.235 27.202 342.763 27.374 343.211 27.718C343.659 28.054 344.007 28.558 344.255 29.23C344.511 29.902 344.639 30.746 344.639 31.762C344.639 32.786 344.511 33.646 344.255 34.342C344.007 35.03 343.659 35.55 343.211 35.902C342.763 36.246 342.235 36.418 341.627 36.418ZM341.627 35.038C341.891 35.038 342.123 34.938 342.323 34.738C342.523 34.538 342.679 34.202 342.791 33.73C342.903 33.25 342.959 32.594 342.959 31.762C342.959 30.938 342.903 30.294 342.791 29.83C342.679 29.358 342.523 29.03 342.323 28.846C342.123 28.654 341.891 28.558 341.627 28.558C341.379 28.558 341.151 28.654 340.943 28.846C340.743 29.03 340.583 29.358 340.463 29.83C340.343 30.294 340.283 30.938 340.283 31.762C340.283 32.594 340.343 33.25 340.463 33.73C340.583 34.202 340.743 34.538 340.943 34.738C341.151 34.938 341.379 35.038 341.627 35.038Z" fill="#3F3F3F"/>
<path d="M18.2467 125.25C18.2867 124.442 18.3547 123.702 18.4507 123.03C18.5467 122.35 18.6867 121.71 18.8707 121.11C19.0547 120.502 19.2947 119.914 19.5907 119.346C19.8867 118.77 20.2467 118.182 20.6707 117.582H16.5307V116.406H22.2067V117.258C21.6947 117.898 21.2787 118.518 20.9587 119.118C20.6387 119.71 20.3907 120.314 20.2147 120.93C20.0387 121.546 19.9107 122.206 19.8307 122.91C19.7507 123.606 19.6947 124.386 19.6627 125.25H18.2467ZM26.4104 115.638C26.9624 115.638 27.4544 115.742 27.8864 115.95C28.3184 116.158 28.6584 116.45 28.9064 116.826C29.1544 117.194 29.2784 117.622 29.2784 118.11C29.2784 118.59 29.1544 119.014 28.9064 119.382C28.6584 119.75 28.3184 120.038 27.8864 120.246C27.4544 120.454 26.9624 120.558 26.4104 120.558C25.8584 120.558 25.3664 120.454 24.9344 120.246C24.5024 120.038 24.1584 119.75 23.9024 119.382C23.6544 119.014 23.5304 118.59 23.5304 118.11C23.5304 117.622 23.6544 117.194 23.9024 116.826C24.1584 116.45 24.5024 116.158 24.9344 115.95C25.3664 115.742 25.8584 115.638 26.4104 115.638ZM26.4104 116.658C26.0904 116.658 25.8064 116.718 25.5584 116.838C25.3104 116.958 25.1144 117.126 24.9704 117.342C24.8264 117.558 24.7544 117.81 24.7544 118.098C24.7544 118.394 24.8264 118.65 24.9704 118.866C25.1144 119.082 25.3104 119.25 25.5584 119.37C25.8064 119.482 26.0904 119.538 26.4104 119.538C26.7304 119.538 27.0144 119.482 27.2624 119.37C27.5104 119.25 27.7064 119.082 27.8504 118.866C27.9944 118.65 28.0664 118.394 28.0664 118.098C28.0664 117.81 27.9944 117.558 27.8504 117.342C27.7064 117.126 27.5064 116.958 27.2504 116.838C27.0024 116.718 26.7224 116.658 26.4104 116.658ZM31.1024 115.278H32.3624V120.834H31.1024V115.278ZM25.1744 121.326H32.3624V124.146H26.4344V125.646H25.1984V123.222H31.1264V122.31H25.1744V121.326ZM25.1984 125.118H32.6984V126.102H25.1984V125.118ZM42.4895 115.266H43.7015V126.234H42.4895V115.266ZM40.8335 119.634H42.8255V120.654H40.8335V119.634ZM40.0295 115.494H41.2055V125.694H40.0295V115.494ZM34.8455 116.55H36.1055V122.874H34.8455V116.55ZM34.8455 122.394H35.5775C36.1295 122.394 36.7135 122.374 37.3295 122.334C37.9535 122.286 38.6175 122.194 39.3215 122.058L39.4415 123.138C38.7135 123.282 38.0295 123.374 37.3895 123.414C36.7495 123.454 36.1455 123.474 35.5775 123.474H34.8455V122.394Z" fill="#777777"/>
<path d="M334.207 125.418C333.743 125.418 333.327 125.362 332.959 125.25C332.591 125.146 332.263 125.002 331.975 124.818C331.695 124.626 331.451 124.414 331.243 124.182L332.071 123.066C332.343 123.314 332.639 123.53 332.959 123.714C333.287 123.89 333.651 123.978 334.051 123.978C334.355 123.978 334.619 123.93 334.843 123.834C335.075 123.738 335.251 123.598 335.371 123.414C335.499 123.23 335.563 123.006 335.563 122.742C335.563 122.446 335.491 122.194 335.347 121.986C335.211 121.77 334.967 121.606 334.615 121.494C334.263 121.382 333.767 121.326 333.127 121.326V120.054C333.671 120.054 334.099 119.998 334.411 119.886C334.723 119.766 334.943 119.606 335.071 119.406C335.207 119.198 335.275 118.962 335.275 118.698C335.275 118.354 335.171 118.086 334.963 117.894C334.755 117.694 334.463 117.594 334.087 117.594C333.775 117.594 333.483 117.666 333.211 117.81C332.947 117.946 332.683 118.134 332.419 118.374L331.507 117.282C331.899 116.954 332.311 116.694 332.743 116.502C333.175 116.302 333.651 116.202 334.171 116.202C334.739 116.202 335.239 116.294 335.671 116.478C336.111 116.662 336.451 116.93 336.691 117.282C336.931 117.634 337.051 118.062 337.051 118.566C337.051 119.046 336.923 119.458 336.667 119.802C336.411 120.146 336.047 120.41 335.575 120.594V120.654C335.903 120.742 336.199 120.886 336.463 121.086C336.735 121.278 336.947 121.522 337.099 121.818C337.259 122.114 337.339 122.458 337.339 122.85C337.339 123.386 337.195 123.846 336.907 124.23C336.627 124.614 336.247 124.91 335.767 125.118C335.295 125.318 334.775 125.418 334.207 125.418ZM341.333 125.418C340.861 125.418 340.441 125.362 340.073 125.25C339.705 125.138 339.377 124.99 339.089 124.806C338.801 124.622 338.545 124.422 338.321 124.206L339.137 123.078C339.305 123.246 339.485 123.398 339.677 123.534C339.877 123.67 340.093 123.778 340.325 123.858C340.565 123.938 340.821 123.978 341.093 123.978C341.397 123.978 341.665 123.914 341.897 123.786C342.137 123.658 342.325 123.474 342.461 123.234C342.597 122.986 342.665 122.69 342.665 122.346C342.665 121.834 342.525 121.438 342.245 121.158C341.973 120.878 341.613 120.738 341.165 120.738C340.909 120.738 340.689 120.774 340.505 120.846C340.321 120.91 340.097 121.026 339.833 121.194L339.029 120.678L339.269 116.358H344.021V117.846H340.793L340.625 119.73C340.801 119.65 340.973 119.59 341.141 119.55C341.309 119.51 341.493 119.49 341.693 119.49C342.189 119.49 342.645 119.59 343.061 119.79C343.477 119.982 343.809 120.286 344.057 120.702C344.305 121.118 344.429 121.65 344.429 122.298C344.429 122.954 344.281 123.518 343.985 123.99C343.697 124.454 343.317 124.81 342.845 125.058C342.381 125.298 341.877 125.418 341.333 125.418Z" fill="#3F3F3F"/>
<path d="M17.7127 299.25C17.7427 298.626 17.7937 298.053 17.8657 297.531C17.9437 297.003 18.0547 296.508 18.1987 296.046C18.3427 295.578 18.5257 295.125 18.7477 294.687C18.9757 294.249 19.2517 293.805 19.5757 293.355H16.3717V292.653H20.5027V293.148C20.1187 293.646 19.8037 294.123 19.5577 294.579C19.3177 295.035 19.1287 295.5 18.9907 295.974C18.8587 296.448 18.7597 296.952 18.6937 297.486C18.6337 298.014 18.5917 298.602 18.5677 299.25H17.7127ZM23.6589 292.104C24.0669 292.104 24.4269 292.182 24.7389 292.338C25.0569 292.488 25.3059 292.698 25.4859 292.968C25.6659 293.238 25.7559 293.553 25.7559 293.913C25.7559 294.267 25.6659 294.582 25.4859 294.858C25.3059 295.128 25.0569 295.338 24.7389 295.488C24.4269 295.638 24.0669 295.713 23.6589 295.713C23.2569 295.713 22.8969 295.638 22.5789 295.488C22.2609 295.338 22.0089 295.128 21.8229 294.858C21.6429 294.582 21.5529 294.267 21.5529 293.913C21.5529 293.553 21.6429 293.238 21.8229 292.968C22.0089 292.698 22.2609 292.488 22.5789 292.338C22.8969 292.182 23.2569 292.104 23.6589 292.104ZM23.6589 292.725C23.3949 292.725 23.1579 292.776 22.9479 292.878C22.7439 292.974 22.5819 293.112 22.4619 293.292C22.3419 293.472 22.2819 293.679 22.2819 293.913C22.2819 294.147 22.3419 294.354 22.4619 294.534C22.5819 294.708 22.7439 294.846 22.9479 294.948C23.1579 295.05 23.3949 295.101 23.6589 295.101C23.9229 295.101 24.1569 295.05 24.3609 294.948C24.5709 294.846 24.7359 294.708 24.8559 294.534C24.9759 294.354 25.0359 294.147 25.0359 293.913C25.0359 293.679 24.9759 293.472 24.8559 293.292C24.7359 293.112 24.5709 292.974 24.3609 292.878C24.1569 292.776 23.9229 292.725 23.6589 292.725ZM27.2949 291.807H28.0419V295.974H27.2949V291.807ZM22.7769 296.379H28.0419V298.35H23.5239V299.574H22.8039V297.792H27.3039V296.973H22.7769V296.379ZM22.8039 299.241H28.3209V299.844H22.8039V299.241ZM35.9758 294.057H38.0368V294.669H35.9758V294.057ZM37.6138 291.816H38.3608V297.783H37.6138V291.816ZM33.1678 299.16H38.5858V299.772H33.1678V299.16ZM33.1678 297.252H33.9058V299.466H33.1678V297.252ZM33.7348 292.824H34.3468V293.481C34.3468 293.973 34.2508 294.438 34.0588 294.876C33.8728 295.308 33.6088 295.686 33.2668 296.01C32.9248 296.328 32.5288 296.574 32.0788 296.748L31.6918 296.145C31.9918 296.037 32.2648 295.893 32.5108 295.713C32.7628 295.533 32.9818 295.326 33.1678 295.092C33.3538 294.858 33.4948 294.603 33.5908 294.327C33.6868 294.051 33.7348 293.769 33.7348 293.481V292.824ZM33.8788 292.824H34.4908V293.481C34.4908 293.829 34.5718 294.168 34.7338 294.498C34.8958 294.828 35.1268 295.122 35.4268 295.38C35.7268 295.632 36.0718 295.827 36.4618 295.965L36.0838 296.559C35.6398 296.397 35.2528 296.163 34.9228 295.857C34.5928 295.545 34.3348 295.185 34.1488 294.777C33.9688 294.369 33.8788 293.937 33.8788 293.481V292.824ZM31.9258 292.473H36.2728V293.085H31.9258V292.473Z" fill="#777777"/>
<path d="M326.811 291.807H327.558V299.952H326.811V291.807ZM324.426 292.689H325.164C325.164 293.277 325.092 293.844 324.948 294.39C324.81 294.936 324.591 295.455 324.291 295.947C323.991 296.433 323.601 296.886 323.121 297.306C322.641 297.726 322.059 298.101 321.375 298.431L320.979 297.828C321.765 297.45 322.413 297.009 322.923 296.505C323.433 296.001 323.811 295.44 324.057 294.822C324.303 294.198 324.426 293.526 324.426 292.806V292.689ZM321.357 292.689H324.741V293.292H321.357V292.689ZM332.355 292.581H333.012V292.824C333.012 293.166 332.928 293.481 332.76 293.769C332.592 294.057 332.361 294.315 332.067 294.543C331.779 294.765 331.446 294.951 331.068 295.101C330.696 295.245 330.3 295.347 329.88 295.407L329.601 294.813C329.889 294.771 330.168 294.708 330.438 294.624C330.714 294.54 330.966 294.438 331.194 294.318C331.422 294.192 331.623 294.051 331.797 293.895C331.971 293.739 332.106 293.571 332.202 293.391C332.304 293.211 332.355 293.022 332.355 292.824V292.581ZM332.661 292.581H333.318V292.824C333.318 293.016 333.366 293.202 333.462 293.382C333.564 293.562 333.702 293.733 333.876 293.895C334.05 294.051 334.251 294.192 334.479 294.318C334.713 294.438 334.965 294.54 335.235 294.624C335.505 294.708 335.784 294.771 336.072 294.813L335.793 295.407C335.379 295.347 334.983 295.245 334.605 295.101C334.227 294.951 333.894 294.765 333.606 294.543C333.318 294.315 333.087 294.057 332.913 293.769C332.745 293.481 332.661 293.166 332.661 292.824V292.581ZM329.835 292.212H335.847V292.815H329.835V292.212ZM329.151 295.992H336.531V296.604H329.151V295.992ZM332.517 296.379H333.264V298.251H332.517V296.379ZM330.087 299.16H335.712V299.772H330.087V299.16ZM330.087 297.459H330.834V299.385H330.087V297.459ZM339.725 292.104C340.133 292.104 340.493 292.182 340.805 292.338C341.123 292.488 341.372 292.698 341.552 292.968C341.732 293.238 341.822 293.553 341.822 293.913C341.822 294.267 341.732 294.582 341.552 294.858C341.372 295.128 341.123 295.338 340.805 295.488C340.493 295.638 340.133 295.713 339.725 295.713C339.323 295.713 338.963 295.638 338.645 295.488C338.327 295.338 338.075 295.128 337.889 294.858C337.709 294.582 337.619 294.267 337.619 293.913C337.619 293.553 337.709 293.238 337.889 292.968C338.075 292.698 338.327 292.488 338.645 292.338C338.963 292.182 339.323 292.104 339.725 292.104ZM339.725 292.725C339.461 292.725 339.224 292.776 339.014 292.878C338.81 292.974 338.648 293.112 338.528 293.292C338.408 293.472 338.348 293.679 338.348 293.913C338.348 294.147 338.408 294.354 338.528 294.534C338.648 294.708 338.81 294.846 339.014 294.948C339.224 295.05 339.461 295.101 339.725 295.101C339.989 295.101 340.223 295.05 340.427 294.948C340.637 294.846 340.802 294.708 340.922 294.534C341.042 294.354 341.102 294.147 341.102 293.913C341.102 293.679 341.042 293.472 340.922 293.292C340.802 293.112 340.637 292.974 340.427 292.878C340.223 292.776 339.989 292.725 339.725 292.725ZM343.361 291.807H344.108V295.974H343.361V291.807ZM338.843 296.379H344.108V298.35H339.59V299.574H338.87V297.792H343.37V296.973H338.843V296.379ZM338.87 299.241H344.387V299.844H338.87V299.241Z" fill="#777777"/>
<line x1="15.9307" y1="286.125" x2="345.931" y2="286.125" stroke="#A8A8A8" stroke-width="0.75"/>
<path d="M328.26 257.25V251.25C328.26 251.034 328.268 250.77 328.284 250.458C328.3 250.146 328.312 249.878 328.32 249.654H328.272C328.16 249.862 328.044 250.078 327.924 250.302C327.812 250.518 327.692 250.734 327.564 250.95L325.56 253.95H330.468V254.826H324.42V254.106L328.08 248.454H329.292V257.25H328.26Z" fill="#747474"/>
<path d="M32.2555 264.25V263.602C33.1755 262.794 33.9315 262.058 34.5235 261.394C35.1235 260.73 35.5675 260.114 35.8555 259.546C36.1435 258.97 36.2875 258.43 36.2875 257.926C36.2875 257.59 36.2275 257.29 36.1075 257.026C35.9955 256.762 35.8195 256.558 35.5795 256.414C35.3395 256.262 35.0355 256.186 34.6675 256.186C34.3075 256.186 33.9715 256.282 33.6595 256.474C33.3555 256.666 33.0835 256.91 32.8435 257.206L32.2075 256.582C32.5595 256.19 32.9395 255.878 33.3475 255.646C33.7555 255.414 34.2395 255.298 34.7995 255.298C35.3275 255.298 35.7795 255.406 36.1555 255.622C36.5395 255.83 36.8355 256.13 37.0435 256.522C37.2595 256.906 37.3675 257.358 37.3675 257.878C37.3675 258.462 37.2195 259.054 36.9235 259.654C36.6355 260.254 36.2315 260.866 35.7115 261.49C35.1995 262.106 34.5995 262.738 33.9115 263.386C34.1435 263.37 34.3835 263.354 34.6315 263.338C34.8875 263.314 35.1275 263.302 35.3515 263.302H37.7875V264.25H32.2555Z" fill="#747474"/>
<rect width="26.25" height="16.5" transform="translate(21.9307 270)" fill="#6A8096"/>
<path d="M83.6335 250.906C83.1775 250.906 82.7735 250.85 82.4215 250.738C82.0775 250.626 81.7735 250.478 81.5095 250.294C81.2455 250.11 81.0175 249.91 80.8255 249.694L81.3895 248.986C81.6455 249.25 81.9455 249.486 82.2895 249.694C82.6415 249.894 83.0655 249.994 83.5615 249.994C83.9135 249.994 84.2215 249.93 84.4855 249.802C84.7575 249.666 84.9695 249.478 85.1215 249.238C85.2735 248.99 85.3495 248.698 85.3495 248.362C85.3495 248.01 85.2615 247.702 85.0855 247.438C84.9175 247.174 84.6335 246.97 84.2335 246.826C83.8335 246.674 83.2935 246.598 82.6135 246.598V245.758C83.2215 245.758 83.7015 245.686 84.0535 245.542C84.4055 245.39 84.6575 245.186 84.8095 244.93C84.9695 244.674 85.0495 244.39 85.0495 244.078C85.0495 243.654 84.9175 243.318 84.6535 243.07C84.3895 242.814 84.0255 242.686 83.5615 242.686C83.2095 242.686 82.8775 242.766 82.5655 242.926C82.2615 243.086 81.9855 243.29 81.7375 243.538L81.1495 242.842C81.4855 242.538 81.8495 242.29 82.2415 242.098C82.6415 241.898 83.0935 241.798 83.5975 241.798C84.0935 241.798 84.5335 241.886 84.9175 242.062C85.3095 242.23 85.6135 242.478 85.8295 242.806C86.0535 243.134 86.1655 243.53 86.1655 243.994C86.1655 244.53 86.0215 244.974 85.7335 245.326C85.4455 245.678 85.0695 245.938 84.6055 246.106V246.166C84.9495 246.246 85.2615 246.386 85.5415 246.586C85.8215 246.786 86.0455 247.038 86.2135 247.342C86.3815 247.646 86.4655 247.998 86.4655 248.398C86.4655 248.918 86.3375 249.366 86.0815 249.742C85.8255 250.118 85.4855 250.406 85.0615 250.606C84.6375 250.806 84.1615 250.906 83.6335 250.906Z" fill="#747474"/>
<rect width="26.25" height="30" transform="translate(70.6807 256.5)" fill="#6A8096"/>
<path d="M132.384 262.156C131.928 262.156 131.524 262.1 131.172 261.988C130.828 261.876 130.524 261.728 130.26 261.544C129.996 261.36 129.768 261.16 129.576 260.944L130.14 260.236C130.396 260.5 130.696 260.736 131.04 260.944C131.392 261.144 131.816 261.244 132.312 261.244C132.664 261.244 132.972 261.18 133.236 261.052C133.508 260.916 133.72 260.728 133.872 260.488C134.024 260.24 134.1 259.948 134.1 259.612C134.1 259.26 134.012 258.952 133.836 258.688C133.668 258.424 133.384 258.22 132.984 258.076C132.584 257.924 132.044 257.848 131.364 257.848V257.008C131.972 257.008 132.452 256.936 132.804 256.792C133.156 256.64 133.408 256.436 133.56 256.18C133.72 255.924 133.8 255.64 133.8 255.328C133.8 254.904 133.668 254.568 133.404 254.32C133.14 254.064 132.776 253.936 132.312 253.936C131.96 253.936 131.628 254.016 131.316 254.176C131.012 254.336 130.736 254.54 130.488 254.788L129.9 254.092C130.236 253.788 130.6 253.54 130.992 253.348C131.392 253.148 131.844 253.048 132.348 253.048C132.844 253.048 133.284 253.136 133.668 253.312C134.06 253.48 134.364 253.728 134.58 254.056C134.804 254.384 134.916 254.78 134.916 255.244C134.916 255.78 134.772 256.224 134.484 256.576C134.196 256.928 133.82 257.188 133.356 257.356V257.416C133.7 257.496 134.012 257.636 134.292 257.836C134.572 258.036 134.796 258.288 134.964 258.592C135.132 258.896 135.216 259.248 135.216 259.648C135.216 260.168 135.088 260.616 134.832 260.992C134.576 261.368 134.236 261.656 133.812 261.856C133.388 262.056 132.912 262.156 132.384 262.156Z" fill="#747474"/>
<rect width="26.25" height="18.75" transform="translate(119.431 267.75)" fill="#6A8096"/>
<path d="M181.338 205.156C180.794 205.156 180.31 205.056 179.886 204.856C179.462 204.656 179.13 204.38 178.89 204.028C178.65 203.676 178.53 203.272 178.53 202.816C178.53 202.424 178.606 202.072 178.758 201.76C178.918 201.44 179.122 201.168 179.37 200.944C179.618 200.712 179.874 200.524 180.138 200.38V200.332C179.818 200.108 179.538 199.832 179.298 199.504C179.066 199.168 178.95 198.768 178.95 198.304C178.95 197.856 179.054 197.468 179.262 197.14C179.478 196.804 179.766 196.544 180.126 196.36C180.494 196.168 180.906 196.072 181.362 196.072C181.866 196.072 182.298 196.172 182.658 196.372C183.018 196.572 183.294 196.844 183.486 197.188C183.678 197.532 183.774 197.932 183.774 198.388C183.774 198.692 183.71 198.98 183.582 199.252C183.462 199.524 183.314 199.768 183.138 199.984C182.962 200.192 182.786 200.368 182.61 200.512V200.572C182.866 200.716 183.106 200.892 183.33 201.1C183.554 201.3 183.734 201.548 183.87 201.844C184.014 202.132 184.086 202.48 184.086 202.888C184.086 203.304 183.97 203.688 183.738 204.04C183.514 204.384 183.194 204.656 182.778 204.856C182.37 205.056 181.89 205.156 181.338 205.156ZM181.938 200.224C182.234 199.96 182.458 199.68 182.61 199.384C182.762 199.08 182.838 198.768 182.838 198.448C182.838 198.152 182.778 197.888 182.658 197.656C182.546 197.424 182.378 197.24 182.154 197.104C181.93 196.96 181.662 196.888 181.35 196.888C180.942 196.888 180.606 197.016 180.342 197.272C180.078 197.528 179.946 197.872 179.946 198.304C179.946 198.648 180.038 198.94 180.222 199.18C180.414 199.412 180.662 199.612 180.966 199.78C181.27 199.94 181.594 200.088 181.938 200.224ZM181.35 204.34C181.694 204.34 181.99 204.276 182.238 204.148C182.494 204.02 182.69 203.844 182.826 203.62C182.97 203.396 183.042 203.14 183.042 202.852C183.042 202.556 182.978 202.304 182.85 202.096C182.722 201.88 182.55 201.692 182.334 201.532C182.126 201.372 181.882 201.228 181.602 201.1C181.322 200.972 181.026 200.848 180.714 200.728C180.362 200.952 180.07 201.236 179.838 201.58C179.614 201.916 179.502 202.296 179.502 202.72C179.502 203.024 179.582 203.3 179.742 203.548C179.902 203.796 180.122 203.992 180.402 204.136C180.69 204.272 181.006 204.34 181.35 204.34Z" fill="#747474"/>
<rect width="26.25" height="75.75" transform="translate(168.181 210.75)" fill="#6A8096"/>
<path d="M229.872 232.906C229.416 232.906 229.012 232.85 228.66 232.738C228.316 232.626 228.012 232.482 227.748 232.306C227.492 232.13 227.26 231.942 227.052 231.742L227.604 231.022C227.772 231.19 227.956 231.35 228.156 231.502C228.364 231.646 228.6 231.766 228.864 231.862C229.128 231.95 229.428 231.994 229.764 231.994C230.108 231.994 230.42 231.91 230.7 231.742C230.988 231.574 231.216 231.334 231.384 231.022C231.552 230.71 231.636 230.342 231.636 229.918C231.636 229.294 231.468 228.806 231.132 228.454C230.804 228.094 230.364 227.914 229.812 227.914C229.524 227.914 229.272 227.958 229.056 228.046C228.84 228.134 228.604 228.262 228.348 228.43L227.76 228.058L228.048 223.954H232.32V224.89H229.008L228.78 227.434C228.972 227.322 229.172 227.238 229.38 227.182C229.596 227.118 229.836 227.086 230.1 227.086C230.588 227.086 231.032 227.186 231.432 227.386C231.832 227.578 232.152 227.882 232.392 228.298C232.632 228.714 232.752 229.246 232.752 229.894C232.752 230.534 232.612 231.078 232.332 231.526C232.06 231.974 231.704 232.318 231.264 232.558C230.824 232.79 230.36 232.906 229.872 232.906Z" fill="#747474"/>
<rect width="26.25" height="48" transform="translate(216.931 238.5)" fill="#6A8096"/>
<path d="M273.205 190.75V189.838H275.173V183.274H273.601V182.578C273.993 182.506 274.333 182.418 274.621 182.314C274.917 182.21 275.185 182.09 275.425 181.954H276.265V189.838H278.029V190.75H273.205ZM282.142 190.906C281.59 190.906 281.106 190.738 280.69 190.402C280.282 190.066 279.966 189.558 279.742 188.878C279.518 188.198 279.406 187.346 279.406 186.322C279.406 185.298 279.518 184.454 279.742 183.79C279.966 183.118 280.282 182.618 280.69 182.29C281.106 181.962 281.59 181.798 282.142 181.798C282.702 181.798 283.186 181.966 283.594 182.302C284.002 182.63 284.318 183.126 284.542 183.79C284.766 184.454 284.878 185.298 284.878 186.322C284.878 187.346 284.766 188.198 284.542 188.878C284.318 189.558 284.002 190.066 283.594 190.402C283.186 190.738 282.702 190.906 282.142 190.906ZM282.142 190.018C282.478 190.018 282.77 189.89 283.018 189.634C283.274 189.378 283.47 188.978 283.606 188.434C283.75 187.882 283.822 187.178 283.822 186.322C283.822 185.466 283.75 184.77 283.606 184.234C283.47 183.69 283.274 183.294 283.018 183.046C282.77 182.79 282.478 182.662 282.142 182.662C281.814 182.662 281.522 182.79 281.266 183.046C281.01 183.294 280.81 183.69 280.666 184.234C280.53 184.77 280.462 185.466 280.462 186.322C280.462 187.178 280.53 187.882 280.666 188.434C280.81 188.978 281.01 189.378 281.266 189.634C281.522 189.89 281.814 190.018 282.142 190.018Z" fill="#747474"/>
<rect width="26.25" height="90" transform="translate(265.681 196.5)" fill="#6A8096"/>
<rect width="26.25" height="23.25" transform="translate(314.431 263.25)" fill="#214A72"/>
</g>
<rect x="1.30518" y="1.125" width="359.25" height="321.75" rx="1.125" stroke="#DBDFEA" stroke-width="0.75"/>
<defs>
<clipPath id="clip0_383_5258">
<rect x="0.930176" y="0.75" width="360" height="322.5" rx="1.5" fill="white"/>
</clipPath>
</defs>
</svg>
