<svg width="24" height="25" viewBox="0 0 24 25" fill="none" xmlns="http://www.w3.org/2000/svg">
<g clip-path="url(#clip0_273_4965)">
<path fill-rule="evenodd" clip-rule="evenodd" d="M15.7071 11.7927C15.8946 11.9802 15.9999 12.2345 15.9999 12.4997C15.9999 12.7648 15.8946 13.0191 15.7071 13.2067L10.0501 18.8637C9.95785 18.9592 9.84751 19.0353 9.7255 19.0878C9.6035 19.1402 9.47228 19.1678 9.3395 19.1689C9.20672 19.1701 9.07504 19.1448 8.95215 19.0945C8.82925 19.0442 8.7176 18.9699 8.6237 18.8761C8.52981 18.7822 8.45556 18.6705 8.40528 18.5476C8.355 18.4247 8.32969 18.293 8.33085 18.1603C8.332 18.0275 8.35959 17.8963 8.412 17.7743C8.46441 17.6522 8.54059 17.5419 8.6361 17.4497L13.5861 12.4997L8.6361 7.54966C8.45394 7.36105 8.35315 7.10845 8.35542 6.84626C8.3577 6.58406 8.46287 6.33325 8.64828 6.14784C8.83369 5.96243 9.0845 5.85726 9.3467 5.85498C9.60889 5.8527 9.8615 5.9535 10.0501 6.13566L15.7071 11.7927Z" fill="#A6A6A6"/>
</g>
<defs>
<clipPath id="clip0_273_4965">
<rect width="24" height="24" fill="white" transform="matrix(0 -1 1 0 0 24.5)"/>
</clipPath>
</defs>
</svg>
