<svg width="19" height="18" viewBox="0 0 19 18" fill="none" xmlns="http://www.w3.org/2000/svg">
<g clip-path="url(#clip0_194_1720)">
<path fill-rule="evenodd" clip-rule="evenodd" d="M9.81829 11.5187C9.68077 11.6561 9.49427 11.7334 9.29982 11.7334C9.10537 11.7334 8.91887 11.6561 8.78135 11.5187L4.63289 7.37019C4.56285 7.30254 4.50698 7.22162 4.46854 7.13215C4.43011 7.04268 4.40988 6.94645 4.40904 6.84908C4.40819 6.75171 4.42674 6.65514 4.46362 6.56502C4.50049 6.4749 4.55494 6.39302 4.6238 6.32416C4.69265 6.25531 4.77453 6.20086 4.86465 6.16398C4.95478 6.12711 5.05134 6.10856 5.14871 6.1094C5.24609 6.11025 5.34231 6.13048 5.43178 6.16891C5.52125 6.20735 5.60217 6.26321 5.66982 6.33325L9.29982 9.96325L12.9298 6.33325C13.0681 6.19967 13.2534 6.12575 13.4456 6.12743C13.6379 6.1291 13.8219 6.20622 13.9578 6.34219C14.0938 6.47815 14.1709 6.66208 14.1726 6.85436C14.1743 7.04664 14.1003 7.23188 13.9668 7.37019L9.81829 11.5187Z" fill="#888888"/>
</g>
<defs>
<clipPath id="clip0_194_1720">
<rect width="17.6" height="17.6" fill="white" transform="matrix(0 1 -1 0 18.1001 0)"/>
</clipPath>
</defs>
</svg>
