<svg width="18" height="18" viewBox="0 0 18 18" fill="none" xmlns="http://www.w3.org/2000/svg">
<path d="M6.85911 4.00944C7.29636 2.72985 9.06439 2.6911 9.58281 3.89318L9.62668 4.01017L10.2168 5.7358C10.352 6.13154 10.5705 6.49369 10.8576 6.7978C11.1447 7.10191 11.4936 7.34092 11.881 7.49871L12.0396 7.55793L13.7652 8.14728C15.0448 8.58453 15.0836 10.3526 13.8822 10.871L13.7652 10.9149L12.0396 11.5049C11.6437 11.6401 11.2815 11.8586 10.9772 12.1456C10.673 12.4327 10.4338 12.7817 10.276 13.1691L10.2168 13.3271L9.62741 15.0534C9.19016 16.333 7.42213 16.3718 6.90444 15.1704L6.85911 15.0534L6.26976 13.3278C6.13462 12.9319 5.91614 12.5696 5.62905 12.2654C5.34196 11.9611 4.99295 11.722 4.60556 11.5642L4.44763 11.5049L2.722 10.9156C1.44168 10.4783 1.40293 8.7103 2.60501 8.19261L2.722 8.14728L4.44763 7.55793C4.84337 7.4227 5.20552 7.20418 5.50963 6.91709C5.81374 6.63001 6.05275 6.28104 6.21054 5.89373L6.26976 5.7358L6.85911 4.00944ZM14.0928 1.48828C14.2296 1.48828 14.3637 1.52665 14.4797 1.59904C14.5958 1.67142 14.6892 1.77491 14.7494 1.89775L14.7845 1.9833L15.0405 2.73351L15.7914 2.98943C15.9285 3.036 16.0486 3.12222 16.1367 3.23717C16.2247 3.35211 16.2766 3.4906 16.2859 3.63509C16.2951 3.77957 16.2613 3.92355 16.1886 4.04877C16.1159 4.17399 16.0077 4.27482 15.8777 4.33848L15.7914 4.37358L15.0412 4.6295L14.7853 5.38043C14.7386 5.51748 14.6523 5.63759 14.5373 5.72555C14.4223 5.81351 14.2838 5.86536 14.1394 5.87452C13.9949 5.88368 13.8509 5.84975 13.7257 5.77702C13.6006 5.70429 13.4998 5.59604 13.4362 5.46598L13.4011 5.38043L13.1452 4.63023L12.3943 4.37431C12.2572 4.32774 12.137 4.24151 12.049 4.12657C11.9609 4.01163 11.909 3.87313 11.8998 3.72865C11.8905 3.58416 11.9244 3.44018 11.9971 3.31496C12.0697 3.18974 12.1779 3.08891 12.308 3.02525L12.3943 2.99016L13.1445 2.73424L13.4004 1.9833C13.4497 1.83884 13.543 1.71342 13.6671 1.62465C13.7913 1.53587 13.9402 1.48819 14.0928 1.48828Z" fill="#EDCA1C"/>
</svg>
