<svg width="18" height="18" viewBox="0 0 18 18" fill="none" xmlns="http://www.w3.org/2000/svg">
<path d="M8.97432 2.95068C9.75002 2.95068 10.4939 3.25883 11.0425 3.80733C11.591 4.35583 11.8991 5.09976 11.8991 5.87546C11.8991 6.65117 11.591 7.39509 11.0425 7.9436C10.4939 8.4921 9.75002 8.80025 8.97432 8.80025C8.19862 8.80025 7.45469 8.4921 6.90619 7.9436C6.35768 7.39509 6.04954 6.65117 6.04954 5.87546C6.04954 5.09976 6.35768 4.35583 6.90619 3.80733C7.45469 3.25883 8.19862 2.95068 8.97432 2.95068ZM8.97432 10.2626C12.2062 10.2626 14.8239 11.5715 14.8239 13.1874V14.6498H3.12476V13.1874C3.12476 11.5715 5.74243 10.2626 8.97432 10.2626Z" fill="#97C4FF"/>
</svg>
