<svg width="90" height="29" viewBox="0 0 90 29" fill="none" xmlns="http://www.w3.org/2000/svg">
<path d="M0 9.89176C0 4.6687 4.23412 0.43457 9.45718 0.43457H80.1642C85.3873 0.43457 89.6214 4.66869 89.6214 9.89175V19.0545C89.6214 24.2775 85.3873 28.5117 80.1642 28.5117H0V9.89176Z" fill="#323CEF"/>
<path d="M23.1161 17.5512H21.7197V7.82799H23.1161V17.5512ZM25.0445 12.9482H22.6876V11.7808H25.0445V12.9482ZM23.6776 20.8021H14.7302V19.6421H23.6776V20.8021ZM16.1193 20.1223H14.7302V16.5389H16.1193V20.1223ZM16.437 8.72938C17.097 8.72938 17.6955 8.86976 18.2324 9.15052C18.7742 9.43128 19.1978 9.82286 19.5032 10.3253C19.8135 10.8228 19.9686 11.3892 19.9686 12.0246C19.9686 12.6551 19.8135 13.2215 19.5032 13.724C19.1978 14.2264 18.7742 14.6204 18.2324 14.9061C17.6955 15.1869 17.097 15.3272 16.437 15.3272C15.7769 15.3272 15.1785 15.1869 14.6416 14.9061C14.1047 14.6204 13.6811 14.2264 13.3708 13.724C13.0654 13.2215 12.9127 12.6551 12.9127 12.0246C12.9127 11.3892 13.0654 10.8228 13.3708 10.3253C13.6811 9.82286 14.1022 9.43128 14.6342 9.15052C15.1711 8.86976 15.772 8.72938 16.437 8.72938ZM16.437 9.95586C16.0429 9.95586 15.6809 10.0421 15.3509 10.2145C15.0209 10.3868 14.7598 10.6331 14.5677 10.9533C14.3805 11.2685 14.2869 11.6256 14.2869 12.0246C14.2869 12.4285 14.3805 12.7881 14.5677 13.1033C14.7598 13.4136 15.0209 13.6575 15.3509 13.8348C15.6809 14.0072 16.0429 14.0934 16.437 14.0934C16.8507 14.0934 17.2201 14.0072 17.5452 13.8348C17.8703 13.6575 18.1265 13.4136 18.3136 13.1033C18.5008 12.7881 18.5944 12.4285 18.5944 12.0246C18.5944 11.6158 18.5008 11.2562 18.3136 10.9459C18.1265 10.6307 17.8703 10.3868 17.5452 10.2145C17.2201 10.0421 16.8507 9.95586 16.437 9.95586ZM27.9168 14.2559H26.4982V8.59639H27.9168V14.2559ZM27.5326 13.9382C28.7492 13.9481 29.7959 13.921 30.6727 13.8569C31.5544 13.788 32.441 13.6624 33.3325 13.4801L33.4951 14.6327C32.5691 14.81 31.6529 14.9357 30.7466 15.0095C29.8403 15.0785 28.7689 15.1105 27.5326 15.1056H26.4982V13.9382H27.5326ZM36.7534 15.8961H35.3496V7.8206H36.7534V15.8961ZM35.719 10.377H31.7366V9.26873H35.719V10.377ZM35.719 12.697H31.7366V11.6035H35.719V12.697ZM32.3129 16.0144C33.2389 16.0144 34.0393 16.1153 34.7142 16.3173C35.389 16.5143 35.9037 16.8049 36.2583 17.1891C36.6179 17.5684 36.7977 18.024 36.7977 18.556C36.7977 19.0781 36.6179 19.5263 36.2583 19.9007C35.9037 20.2799 35.389 20.5681 34.7142 20.7651C34.0443 20.9621 33.2439 21.0631 32.3129 21.068C31.3918 21.0631 30.5963 20.9621 29.9265 20.7651C29.2566 20.5681 28.7418 20.2799 28.3823 19.9007C28.0227 19.5263 27.8429 19.0781 27.8429 18.556C27.8429 18.024 28.0227 17.5684 28.3823 17.1891C28.7418 16.8049 29.2566 16.5143 29.9265 16.3173C30.5963 16.1153 31.3918 16.0144 32.3129 16.0144ZM32.3129 17.13C31.6775 17.1251 31.1258 17.1793 30.6579 17.2926C30.1949 17.4009 29.8403 17.5635 29.594 17.7802C29.3526 17.992 29.2319 18.2506 29.2319 18.556C29.2319 18.8417 29.3526 19.0904 29.594 19.3022C29.8403 19.5091 30.1949 19.6692 30.6579 19.7825C31.1258 19.8957 31.6775 19.9524 32.3129 19.9524C32.9631 19.9524 33.5172 19.8957 33.9753 19.7825C34.4383 19.6692 34.7905 19.5091 35.0319 19.3022C35.2781 19.0904 35.4013 18.8417 35.4013 18.556C35.4013 18.2506 35.2781 17.992 35.0319 17.7802C34.7905 17.5635 34.4383 17.4009 33.9753 17.2926C33.5172 17.1793 32.9631 17.1251 32.3129 17.13ZM49.0311 21.0607H47.6421V7.8206H49.0311V21.0607ZM51.1664 14.352H48.7134V13.192H51.1664V14.352ZM46.4895 11.042H38.643V9.89675H46.4895V11.042ZM42.6254 12.0246C43.2559 12.0246 43.8198 12.1551 44.3173 12.4162C44.8197 12.6773 45.2113 13.0418 45.4921 13.5097C45.7778 13.9776 45.9206 14.5071 45.9206 15.0982C45.9206 15.6942 45.7778 16.2262 45.4921 16.6941C45.2113 17.162 44.8197 17.5265 44.3173 17.7876C43.8198 18.0486 43.2559 18.1792 42.6254 18.1792C41.99 18.1792 41.4235 18.0486 40.926 17.7876C40.4286 17.5265 40.037 17.162 39.7513 16.6941C39.4705 16.2262 39.3301 15.6942 39.3301 15.0982C39.3301 14.5071 39.4705 13.9776 39.7513 13.5097C40.037 13.0418 40.4286 12.6773 40.926 12.4162C41.4235 12.1551 41.99 12.0246 42.6254 12.0246ZM42.6254 13.1846C42.251 13.1846 41.9161 13.2659 41.6206 13.4284C41.325 13.586 41.0911 13.8101 40.9187 14.1008C40.7512 14.3914 40.6675 14.7239 40.6675 15.0982C40.6675 15.4775 40.7512 15.8099 40.9187 16.0956C41.0911 16.3813 41.325 16.6054 41.6206 16.768C41.9161 16.9256 42.251 17.0044 42.6254 17.0044C42.9997 17.0044 43.3347 16.9256 43.6302 16.768C43.9257 16.6054 44.1572 16.3813 44.3247 16.0956C44.4922 15.8099 44.5759 15.4775 44.5759 15.0982C44.5759 14.7239 44.4922 14.3914 44.3247 14.1008C44.1572 13.8101 43.9257 13.586 43.6302 13.4284C43.3347 13.2659 42.9997 13.1846 42.6254 13.1846ZM43.3125 10.3844H41.9161V7.99792H43.3125V10.3844ZM59.4618 13.6501H56.9793V12.4753H59.4618V13.6501ZM55.4942 11.5C55.4942 12.4507 55.3736 13.3693 55.1322 14.2559C54.8958 15.1425 54.5461 15.9356 54.0831 16.635C53.62 17.3295 53.0634 17.8762 52.4133 18.2752L51.534 17.2261C52.1399 16.8616 52.6595 16.3764 53.093 15.7705C53.5265 15.1598 53.8515 14.4874 54.0683 13.7535C54.2899 13.0196 54.4008 12.2684 54.4008 11.5V9.0323H55.4942V11.5ZM55.7528 11.4409C55.7528 12.1748 55.8538 12.8915 56.0558 13.591C56.2577 14.2855 56.5582 14.9233 56.9571 15.5046C57.361 16.0858 57.8462 16.5513 58.4127 16.901L57.6295 17.9797C56.9892 17.5955 56.4498 17.0611 56.0114 16.3764C55.5731 15.6868 55.243 14.9209 55.0214 14.0786C54.8047 13.2363 54.6963 12.3571 54.6963 11.4409V9.0323H55.7528V11.4409ZM63.1117 21.0607H61.7596V7.8206H63.1117V21.0607ZM60.3632 20.4105H59.0407V8.07181H60.3632V20.4105ZM69.0059 18.5043H67.6243V14.6253H69.0059V18.5043ZM73.9414 18.5043H72.5302V14.6253H73.9414V18.5043ZM76.8376 19.413H64.7206V18.2531H76.8376V19.413ZM70.7569 8.589C71.7027 8.589 72.5449 8.7343 73.2838 9.02491C74.0226 9.3106 74.5989 9.71696 75.0127 10.244C75.4314 10.7661 75.6407 11.367 75.6407 12.0468C75.6407 12.7314 75.4314 13.3348 75.0127 13.8569C74.5989 14.3741 74.0226 14.778 73.2838 15.0686C72.5449 15.3543 71.7027 15.4972 70.7569 15.4972C69.8162 15.4972 68.9739 15.3543 68.2301 15.0686C67.4913 14.778 66.9125 14.3741 66.4938 13.8569C66.0752 13.3348 65.8658 12.7314 65.8658 12.0468C65.8658 11.367 66.0752 10.7661 66.4938 10.244C66.9125 9.71696 67.4913 9.3106 68.2301 9.02491C68.9739 8.7343 69.8162 8.589 70.7569 8.589ZM70.7569 9.72681C70.0674 9.72189 69.4566 9.81548 68.9246 10.0076C68.3976 10.1947 67.9838 10.4657 67.6834 10.8203C67.3878 11.17 67.2401 11.5788 67.2401 12.0468C67.2401 12.5147 67.3878 12.926 67.6834 13.2806C67.9838 13.6353 68.4 13.9111 68.932 14.1081C69.464 14.3052 70.0723 14.4037 70.7569 14.4037C71.4367 14.4037 72.0425 14.3052 72.5745 14.1081C73.1065 13.9111 73.5227 13.6353 73.8231 13.2806C74.1236 12.926 74.2738 12.5147 74.2738 12.0468C74.2738 11.5788 74.1236 11.17 73.8231 10.8203C73.5276 10.4657 73.1139 10.1947 72.5819 10.0076C72.0499 9.81548 71.4416 9.72189 70.7569 9.72681Z" fill="white"/>
</svg>
