<svg width="102" height="29" viewBox="0 0 102 29" fill="none" xmlns="http://www.w3.org/2000/svg">
<path d="M0.0517578 9.83072C0.0517578 4.60767 4.28588 0.373535 9.50894 0.373535H91.7305C96.9536 0.373535 101.188 4.60766 101.188 9.83072V18.9935C101.188 24.2165 96.9535 28.4506 91.7305 28.4506H0.0517578V9.83072Z" fill="#161DA0"/>
<path d="M21.2305 19.9662C20.1518 19.9662 19.1987 19.8431 18.3712 19.5968C17.5486 19.3505 16.9108 19.0057 16.4576 18.5624C16.0094 18.1191 15.7853 17.6044 15.7853 17.0182C15.7853 16.5355 15.9478 16.006 16.2729 15.4297C16.6029 14.8534 17.0979 14.218 17.758 13.5235L18.9549 14.1294C18.3884 14.7106 17.9599 15.2327 17.6693 15.6957C17.3836 16.1538 17.2408 16.5503 17.2408 16.8852C17.2408 17.2448 17.4058 17.565 17.7358 17.8457C18.0658 18.1265 18.5337 18.3432 19.1396 18.4959C19.7454 18.6486 20.4424 18.725 21.2305 18.725C21.9644 18.725 22.7772 18.6634 23.6687 18.5403C24.5602 18.4171 25.304 18.2644 25.9 18.0822L26.1955 19.316C25.5995 19.4983 24.8262 19.651 23.8756 19.7741C22.9299 19.9022 22.0482 19.9662 21.2305 19.9662ZM16.5019 9.23823H25.8187V10.4869H16.5019V9.23823ZM28.8093 19.7963L33.4566 8.32206L34.72 8.71365L32.1932 14.8904L31.7499 14.5948C32.2079 14.1909 32.6759 13.8757 33.1537 13.6491C33.6364 13.4225 34.0994 13.3092 34.5427 13.3092C35.0205 13.3092 35.4071 13.4398 35.7027 13.7008C36.0031 13.957 36.242 14.3116 36.4193 14.7648C36.5967 15.2179 36.7567 15.8065 36.8996 16.5306C37.0129 17.0379 37.1139 17.4345 37.2025 17.7201C37.2912 18.0058 37.4168 18.2373 37.5793 18.4146C37.7468 18.592 37.9635 18.6806 38.2295 18.6806C38.5349 18.6806 38.823 18.5501 39.094 18.289C39.3649 18.028 39.6161 17.6339 39.8476 17.1069C40.084 16.5799 40.3007 15.9124 40.4978 15.1046L41.739 15.511C41.4878 16.5405 41.1923 17.3877 40.8524 18.0526C40.5175 18.7126 40.1259 19.2077 39.6776 19.5377C39.2343 19.8628 38.727 20.0253 38.1556 20.0253C37.6483 20.0253 37.2321 19.8973 36.907 19.6411C36.5819 19.385 36.3208 19.0353 36.1238 18.592C35.9317 18.1437 35.7593 17.5724 35.6066 16.8779C35.4933 16.3508 35.3825 15.9371 35.2741 15.6366C35.1658 15.3361 35.0205 15.0997 34.8382 14.9273C34.656 14.75 34.4122 14.6613 34.1068 14.6613C33.8014 14.6613 33.4788 14.7401 33.1389 14.8978C32.8039 15.0554 32.4764 15.309 32.1562 15.6588C31.841 16.0036 31.5775 16.4395 31.3657 16.9665L30.0136 20.247L28.8093 19.7963ZM51.5786 19.5746C50.7265 19.5746 49.9655 19.4613 49.2956 19.2348C48.6257 19.0033 48.1036 18.6831 47.7292 18.2743C47.3549 17.8654 47.1677 17.4024 47.1677 16.8852C47.1677 16.4025 47.3278 15.9174 47.648 15.4297C47.9731 14.9421 48.4558 14.452 49.0961 13.9594L50.064 14.75C49.5369 15.149 49.1478 15.511 48.8966 15.8361C48.6454 16.1612 48.5198 16.4789 48.5198 16.7892C48.5198 17.0946 48.6454 17.3655 48.8966 17.6019C49.1478 17.8334 49.5025 18.0132 49.9605 18.1413C50.4236 18.2644 50.9629 18.326 51.5786 18.326C52.5046 18.326 53.6252 18.193 54.9403 17.927L55.1472 19.1461C54.5414 19.2791 53.9306 19.385 53.3149 19.4638C52.6992 19.5377 52.1204 19.5746 51.5786 19.5746ZM47.8105 9.62981H55.0659V10.8785H47.8105V9.62981ZM44.4931 20.2396C44.2567 19.2791 44.0818 18.3309 43.9685 17.395C43.8552 16.4543 43.7986 15.4568 43.7986 14.4027C43.7986 13.3487 43.8552 12.3537 43.9685 11.4178C44.0818 10.477 44.2567 9.52638 44.4931 8.56588L45.8674 8.7432C45.6457 9.684 45.4807 10.6149 45.3723 11.536C45.264 12.4522 45.2098 13.4078 45.2098 14.4027C45.2098 15.3977 45.264 16.3557 45.3723 17.2768C45.4807 18.193 45.6457 19.1116 45.8674 20.0327L44.4931 20.2396ZM63.221 20.0623C62.5954 20.0623 61.896 20.0229 61.1227 19.9441C60.3494 19.8652 59.6278 19.7618 58.9579 19.6337L59.1204 18.3777C59.7952 18.5107 60.4971 18.6141 61.2261 18.688C61.9551 18.7619 62.6201 18.7988 63.221 18.7988C64.0978 18.7988 64.8366 18.7077 65.4375 18.5255C66.0384 18.3383 66.4916 18.0649 66.797 17.7054C67.1073 17.3458 67.2625 16.9049 67.2625 16.3828C67.2625 15.7277 67.0137 15.2278 66.5162 14.883C66.0237 14.5333 65.3045 14.3584 64.3588 14.3584C63.5412 14.3584 62.7728 14.4988 62.0536 14.7795C61.3345 15.0554 60.5907 15.5011 59.8223 16.1168L58.618 15.6218C58.9283 15.0061 59.2485 14.2328 59.5785 13.3019C59.9085 12.366 60.1942 11.4277 60.4356 10.4869C60.6818 9.54608 60.8419 8.75552 60.9158 8.11519L62.2901 8.19646C62.2014 9.04859 61.9871 10.1076 61.6473 11.3735C61.3074 12.6394 60.9552 13.7008 60.5907 14.5579L60.3321 14.3658C60.9922 13.9471 61.6719 13.6393 62.3713 13.4422C63.0757 13.2403 63.8022 13.1393 64.5509 13.1393C65.4227 13.1393 66.1714 13.2698 66.797 13.5309C67.4225 13.792 67.8979 14.1712 68.223 14.6687C68.548 15.1662 68.7106 15.7573 68.7106 16.4419C68.7106 17.2103 68.4988 17.8654 68.0752 18.4073C67.6516 18.9491 67.031 19.3604 66.2133 19.6411C65.3957 19.9219 64.3982 20.0623 63.221 20.0623ZM57.4654 9.99924H69.3608V11.174H57.4654V9.99924ZM78.0847 19.9736C77.4198 19.9736 76.8509 19.8751 76.378 19.6781C75.9051 19.4761 75.5431 19.188 75.2919 18.8136C75.0456 18.4393 74.9225 17.991 74.9225 17.4689C74.9225 16.9271 75.0456 16.469 75.2919 16.0947C75.5382 15.7203 75.8978 15.4371 76.3706 15.245C76.8484 15.048 77.4198 14.9495 78.0847 14.9495C78.7152 14.9495 79.3014 15.0529 79.8432 15.2598C80.385 15.4617 80.981 15.8188 81.6312 16.3311C82.2863 16.8434 83.1015 17.5871 84.0767 18.5624L83.2345 19.4638C82.3281 18.5575 81.5819 17.8704 80.9958 17.4024C80.4145 16.9345 79.8974 16.6069 79.4442 16.4198C78.996 16.2326 78.5182 16.139 78.0108 16.139C77.4001 16.139 76.942 16.2498 76.6366 16.4715C76.3312 16.6882 76.1785 17.0207 76.1785 17.4689C76.1785 17.9024 76.3312 18.2299 76.6366 18.4516C76.942 18.6732 77.4001 18.7841 78.0108 18.7841C78.464 18.7841 78.8236 18.7225 79.0896 18.5994C79.3605 18.4762 79.555 18.2817 79.6732 18.0157C79.7964 17.7448 79.8579 17.3852 79.8579 16.937V8.2334H81.2026V16.9887C81.2026 17.6536 81.0869 18.2078 80.8554 18.6511C80.6288 19.0944 80.284 19.4269 79.821 19.6485C79.3629 19.8652 78.7842 19.9736 78.0847 19.9736ZM74.8929 10.5238H83.8994V11.7133H74.8929V10.5238ZM72.3513 20.2396C72.1198 19.2889 71.9499 18.3457 71.8415 17.4098C71.7331 16.469 71.679 15.4667 71.679 14.4027C71.679 13.3388 71.7331 12.3414 71.8415 11.4104C71.9499 10.4746 72.1198 9.52638 72.3513 8.56588L73.7182 8.7432C73.4965 9.66429 73.3315 10.5854 73.2231 11.5065C73.1148 12.4226 73.0606 13.3881 73.0606 14.4027C73.0606 15.4125 73.1148 16.3779 73.2231 17.299C73.3315 18.2152 73.4965 19.1264 73.7182 20.0327L72.3513 20.2396Z" fill="white"/>
</svg>
