<svg width="62" height="29" viewBox="0 0 62 29" fill="none" xmlns="http://www.w3.org/2000/svg">
<path d="M0.344971 10.0973C0.344971 4.87427 4.57909 0.640137 9.80215 0.640137H51.5562C56.7792 0.640137 61.0134 4.87426 61.0134 10.0973V19.2601C61.0134 24.4831 56.7792 28.7172 51.5562 28.7172H0.344971V10.0973Z" fill="#323CEF"/>
<path d="M13.447 9.3211H15.0724V13.9684H20.3921V9.3211H22.0249V20.0195H20.3921V15.3574H15.0724V20.0195H13.447V9.3211ZM27.461 20.1821C26.6877 20.1821 26.0105 20.0121 25.4292 19.6723C24.8529 19.3324 24.4096 18.8522 24.0993 18.2315C23.789 17.6109 23.6338 16.8893 23.6338 16.0667C23.6338 15.2441 23.789 14.5176 24.0993 13.8871C24.4096 13.2517 24.8455 12.7616 25.4071 12.4168C25.9686 12.0671 26.6163 11.8923 27.3502 11.8923C28.0004 11.8923 28.5939 12.0326 29.1308 12.3134C29.6677 12.5892 30.0987 13.0301 30.4238 13.6359C30.7489 14.2369 30.9114 14.9979 30.9114 15.919V16.4731H24.5205V15.2983H29.3673C29.3673 14.8895 29.2835 14.5275 29.1161 14.2122C28.9535 13.8921 28.7195 13.6409 28.4142 13.4586C28.1088 13.2764 27.759 13.1852 27.365 13.1852C26.9365 13.1852 26.5597 13.2887 26.2346 13.4956C25.9095 13.7024 25.6558 13.9807 25.4736 14.3304C25.2913 14.6802 25.2002 15.0545 25.2002 15.4535V16.3697C25.2002 16.8967 25.2938 17.3498 25.4809 17.7291C25.673 18.1084 25.939 18.3965 26.2789 18.5936C26.6237 18.7906 27.0202 18.8891 27.4684 18.8891C27.7541 18.8891 28.0127 18.8497 28.2442 18.7709C28.4757 18.6872 28.6727 18.5837 28.8353 18.4606C28.9978 18.3325 29.1234 18.1823 29.2121 18.0099H30.8154C30.6972 18.4433 30.4854 18.8226 30.18 19.1477C29.8746 19.4728 29.4879 19.7265 29.02 19.9087C28.557 20.091 28.0373 20.1821 27.461 20.1821ZM33.9685 20.0195H32.3947V9.3211H33.9685V20.0195ZM37.3801 20.0195H35.8064V9.3211H37.3801V20.0195ZM42.6094 20.1821C41.8607 20.1821 41.2007 20.0097 40.6293 19.6649C40.0628 19.3201 39.6245 18.8349 39.3141 18.2094C39.0038 17.5838 38.8487 16.8622 38.8487 16.0446C38.8487 15.2171 39.0038 14.4905 39.3141 13.865C39.6245 13.2394 40.0628 12.7542 40.6293 12.4095C41.2007 12.0647 41.8607 11.8923 42.6094 11.8923C43.3531 11.8923 44.0083 12.0647 44.5747 12.4095C45.1411 12.7542 45.5771 13.2394 45.8825 13.865C46.1878 14.4905 46.3405 15.2171 46.3405 16.0446C46.3405 16.8622 46.1878 17.5838 45.8825 18.2094C45.5771 18.8349 45.1411 19.3201 44.5747 19.6649C44.0083 20.0097 43.3531 20.1821 42.6094 20.1821ZM42.6094 18.8669C43.0822 18.8669 43.4788 18.7413 43.7989 18.4901C44.1191 18.234 44.358 17.8941 44.5156 17.4705C44.6732 17.042 44.752 16.5642 44.752 16.0372C44.752 15.5101 44.6732 15.0323 44.5156 14.6038C44.358 14.1753 44.1191 13.8354 43.7989 13.5842C43.4788 13.3281 43.0822 13.2 42.6094 13.2C42.1365 13.2 41.7375 13.3281 41.4125 13.5842C41.0874 13.8354 40.8435 14.1753 40.681 14.6038C40.5185 15.0323 40.4372 15.5101 40.4372 16.0372C40.4372 16.5642 40.5185 17.042 40.681 17.4705C40.8435 17.8941 41.0874 18.234 41.4125 18.4901C41.7375 18.7413 42.1365 18.8669 42.6094 18.8669Z" fill="white"/>
</svg>
