<svg width="77" height="29" viewBox="0 0 77 29" fill="none" xmlns="http://www.w3.org/2000/svg">
<path d="M76.6353 9.49381C76.6353 4.27075 72.4011 0.0366211 67.1781 0.0366211H10.2637C5.04067 0.0366211 0.806534 4.27075 0.806534 9.4938V18.6565C0.806534 23.8796 5.04066 28.1137 10.2637 28.1137H76.6353V9.49381Z" fill="#161DA0"/>
<path d="M13.3622 8.7166H17.2781C18.0218 8.7166 18.6449 8.83728 19.1473 9.07864C19.6547 9.31999 20.034 9.65247 20.2852 10.0761C20.5364 10.4948 20.662 10.9775 20.662 11.5242C20.662 11.9478 20.5832 12.3148 20.4255 12.6251C20.2679 12.9305 20.0537 13.1792 19.7827 13.3713C19.5118 13.5585 19.2015 13.6964 18.8518 13.7851V13.8885C19.2212 13.9082 19.5759 14.0264 19.9157 14.2431C20.2605 14.4599 20.5413 14.7653 20.758 15.1593C20.9747 15.5484 21.0831 16.009 21.0831 16.5409C21.0831 17.0975 20.9526 17.5926 20.6915 18.026C20.4305 18.4545 20.029 18.7944 19.4872 19.0456C18.9454 19.2919 18.2706 19.415 17.4628 19.415H13.3622V8.7166ZM17.3002 18.0186C17.8027 18.0186 18.2139 17.9521 18.5341 17.8191C18.8543 17.6812 19.0882 17.4965 19.236 17.265C19.3838 17.0335 19.4577 16.7651 19.4577 16.4597C19.4577 16.1149 19.3739 15.7996 19.2065 15.514C19.039 15.2283 18.7952 15.0066 18.475 14.849C18.1548 14.6864 17.7879 14.6052 17.3741 14.6052H14.9877V18.0186H17.3002ZM17.1377 13.3344C17.4973 13.3344 17.8224 13.2654 18.113 13.1275C18.4085 12.9846 18.64 12.7876 18.8075 12.5364C18.9799 12.2852 19.0661 11.9897 19.0661 11.6498C19.0661 11.3444 18.9971 11.076 18.8592 10.8445C18.7213 10.613 18.5095 10.4332 18.2238 10.3051C17.943 10.1721 17.5958 10.1056 17.182 10.1056H14.9877V13.3344H17.1377ZM26.0094 19.5776C25.2607 19.5776 24.6007 19.4052 24.0293 19.0604C23.4629 18.7156 23.0245 18.2304 22.7142 17.6049C22.4039 16.9793 22.2487 16.2577 22.2487 15.4401C22.2487 14.6126 22.4039 13.886 22.7142 13.2605C23.0245 12.6349 23.4629 12.1498 24.0293 11.805C24.6007 11.4602 25.2607 11.2878 26.0094 11.2878C26.7532 11.2878 27.4083 11.4602 27.9747 11.805C28.5412 12.1498 28.9771 12.6349 29.2825 13.2605C29.5879 13.886 29.7406 14.6126 29.7406 15.4401C29.7406 16.2577 29.5879 16.9793 29.2825 17.6049C28.9771 18.2304 28.5412 18.7156 27.9747 19.0604C27.4083 19.4052 26.7532 19.5776 26.0094 19.5776ZM26.0094 18.2624C26.4823 18.2624 26.8788 18.1368 27.199 17.8856C27.5191 17.6295 27.758 17.2896 27.9156 16.866C28.0732 16.4375 28.1521 15.9597 28.1521 15.4327C28.1521 14.9056 28.0732 14.4279 27.9156 13.9993C27.758 13.5708 27.5191 13.2309 27.199 12.9797C26.8788 12.7236 26.4823 12.5955 26.0094 12.5955C25.5366 12.5955 25.1376 12.7236 24.8125 12.9797C24.4874 13.2309 24.2436 13.5708 24.081 13.9993C23.9185 14.4279 23.8372 14.9056 23.8372 15.4327C23.8372 15.9597 23.9185 16.4375 24.081 16.866C24.2436 17.2896 24.4874 17.6295 24.8125 17.8856C25.1376 18.1368 25.5366 18.2624 26.0094 18.2624ZM32.8198 19.415H31.246V11.3912H32.7533V12.699H32.8567C33.0537 12.2507 33.3493 11.9035 33.7433 11.6572C34.1423 11.4109 34.6373 11.2878 35.2284 11.2878C35.7801 11.2878 36.2578 11.4035 36.6617 11.635C37.0706 11.8616 37.3858 12.2015 37.6075 12.6546C37.834 13.1078 37.9473 13.6595 37.9473 14.3096V19.415H36.3736V14.4943C36.3736 14.1102 36.3071 13.7801 36.1741 13.5043C36.0411 13.2285 35.849 13.0191 35.5978 12.8763C35.3466 12.7285 35.0412 12.6546 34.6817 12.6546C34.3172 12.6546 33.9945 12.7334 33.7138 12.8911C33.433 13.0438 33.2138 13.2728 33.0562 13.5782C32.8986 13.8786 32.8198 14.2382 32.8198 14.6569V19.415ZM41.3738 11.3912V19.9322C41.3738 20.4691 41.2753 20.9223 41.0783 21.2917C40.8862 21.666 40.598 21.9493 40.2138 22.1414C39.8345 22.3335 39.3666 22.4295 38.81 22.4295C38.7213 22.4295 38.613 22.4271 38.4849 22.4221V21.0627C38.5736 21.0627 38.6622 21.0627 38.7509 21.0627C38.9972 21.0627 39.1967 21.0183 39.3494 20.9297C39.5021 20.8459 39.6153 20.7179 39.6892 20.5455C39.7631 20.3731 39.8001 20.1662 39.8001 19.9248V11.3912H41.3738ZM40.5684 10.15C40.3911 10.15 40.2261 10.1106 40.0734 10.0317C39.9207 9.94801 39.8001 9.83472 39.7114 9.69187C39.6227 9.54411 39.5784 9.38649 39.5784 9.21902C39.5784 9.04662 39.6227 8.89146 39.7114 8.75355C39.8001 8.6107 39.9207 8.49741 40.0734 8.41368C40.2261 8.32994 40.3911 8.28807 40.5684 8.28807C40.7556 8.28807 40.9256 8.32994 41.0783 8.41368C41.2309 8.49741 41.3492 8.6107 41.4329 8.75355C41.5216 8.89146 41.5659 9.04662 41.5659 9.21902C41.5659 9.38649 41.5216 9.54411 41.4329 9.69187C41.3492 9.83472 41.2309 9.94801 41.0783 10.0317C40.9256 10.1106 40.7556 10.15 40.5684 10.15ZM46.6178 19.5776C45.8691 19.5776 45.2091 19.4052 44.6377 19.0604C44.0713 18.7156 43.6329 18.2304 43.3226 17.6049C43.0122 16.9793 42.8571 16.2577 42.8571 15.4401C42.8571 14.6126 43.0122 13.886 43.3226 13.2605C43.6329 12.6349 44.0713 12.1498 44.6377 11.805C45.2091 11.4602 45.8691 11.2878 46.6178 11.2878C47.3616 11.2878 48.0167 11.4602 48.5831 11.805C49.1496 12.1498 49.5855 12.6349 49.8909 13.2605C50.1963 13.886 50.3489 14.6126 50.3489 15.4401C50.3489 16.2577 50.1963 16.9793 49.8909 17.6049C49.5855 18.2304 49.1496 18.7156 48.5831 19.0604C48.0167 19.4052 47.3616 19.5776 46.6178 19.5776ZM46.6178 18.2624C47.0907 18.2624 47.4872 18.1368 47.8073 17.8856C48.1275 17.6295 48.3664 17.2896 48.524 16.866C48.6816 16.4375 48.7604 15.9597 48.7604 15.4327C48.7604 14.9056 48.6816 14.4279 48.524 13.9993C48.3664 13.5708 48.1275 13.2309 47.8073 12.9797C47.4872 12.7236 47.0907 12.5955 46.6178 12.5955C46.1449 12.5955 45.746 12.7236 45.4209 12.9797C45.0958 13.2309 44.852 13.5708 44.6894 13.9993C44.5269 14.4279 44.4456 14.9056 44.4456 15.4327C44.4456 15.9597 44.5269 16.4375 44.6894 16.866C44.852 17.2896 45.0958 17.6295 45.4209 17.8856C45.746 18.1368 46.1449 18.2624 46.6178 18.2624ZM56.945 11.3912H58.5114V19.415H56.9746V18.026H56.8859C56.684 18.4742 56.3786 18.8363 55.9698 19.1121C55.5659 19.383 55.0733 19.5185 54.4921 19.5185C53.97 19.5185 53.5119 19.4027 53.1178 19.1712C52.7238 18.9397 52.4135 18.5974 52.1869 18.1442C51.9652 17.6861 51.8544 17.1345 51.8544 16.4892V11.3912H53.4281V16.3045C53.4281 16.6592 53.4946 16.9719 53.6276 17.2428C53.7656 17.5088 53.9577 17.7157 54.2039 17.8635C54.4551 18.0112 54.7384 18.0851 55.0536 18.0851C55.3639 18.0851 55.6644 18.0088 55.955 17.8561C56.2456 17.7034 56.482 17.4743 56.6643 17.169C56.8515 16.8636 56.945 16.4991 56.945 16.0755V11.3912ZM60.3641 11.3912H61.8861V12.6768H61.9748C62.1176 12.2335 62.3738 11.8887 62.7432 11.6424C63.1126 11.3912 63.5288 11.2656 63.9918 11.2656C64.2381 11.2656 64.4647 11.2804 64.6716 11.3099V12.8172C64.6075 12.7925 64.4918 12.7704 64.3243 12.7507C64.1568 12.7261 63.9967 12.7137 63.8441 12.7137C63.4894 12.7137 63.1668 12.7925 62.8762 12.9502C62.5856 13.1029 62.3565 13.3171 62.189 13.593C62.0216 13.8688 61.9378 14.1791 61.9378 14.5239V19.415H60.3641V11.3912Z" fill="white"/>
</svg>
