<svg width="66" height="29" viewBox="0 0 66 29" fill="none" xmlns="http://www.w3.org/2000/svg">
<path d="M65.0955 10.0265C65.0955 4.80347 60.8613 0.569336 55.6383 0.569336H9.46707C4.24401 0.569336 0.0098877 4.80346 0.0098877 10.0265V19.1893C0.0098877 24.4123 4.24401 28.6464 9.46707 28.6464H65.0955V10.0265Z" fill="#323CEF"/>
<path d="M24.9983 7.66111L26.118 7.91834C25.9163 8.71527 25.6792 9.50211 25.4068 10.2789C25.1345 11.0455 24.8318 11.7668 24.4989 12.4427C24.166 13.1084 23.8029 13.6935 23.4095 14.1979C23.3489 14.1374 23.2582 14.0617 23.1371 13.9709C23.0261 13.8701 22.9101 13.7793 22.7891 13.6986C22.6781 13.6078 22.5772 13.5321 22.4864 13.4716C22.8698 13.0076 23.2178 12.4679 23.5305 11.8525C23.8432 11.2271 24.1206 10.5613 24.3628 9.85518C24.6149 9.13895 24.8268 8.4076 24.9983 7.66111ZM24.741 14.0769L25.8456 14.3038C25.6943 14.9696 25.5027 15.6203 25.2706 16.2558C25.0386 16.8812 24.7814 17.4714 24.4989 18.0262C24.2266 18.5709 23.934 19.0551 23.6213 19.4788C23.5507 19.4183 23.4549 19.3477 23.3338 19.267C23.2128 19.1863 23.0917 19.1106 22.9707 19.04C22.8496 18.9694 22.7437 18.9089 22.6529 18.8584C23.1169 18.2834 23.5255 17.5722 23.8785 16.7249C24.2417 15.8674 24.5292 14.9848 24.741 14.0769ZM24.847 10.521H31.6561V11.5802H24.4233L24.847 10.521ZM27.2075 10.9446H28.3272V20.1446C28.3272 20.4573 28.2869 20.7045 28.2062 20.886C28.1254 21.0676 27.9842 21.2088 27.7825 21.3097C27.5706 21.4005 27.2983 21.461 26.9654 21.4913C26.6426 21.5216 26.2441 21.5367 25.77 21.5367C25.7397 21.3753 25.6842 21.1786 25.6035 20.9466C25.5329 20.7246 25.4522 20.538 25.3614 20.3867C25.7246 20.3968 26.0524 20.4018 26.345 20.4018C26.6476 20.4018 26.8494 20.3968 26.9502 20.3867C27.041 20.3867 27.1066 20.3716 27.1469 20.3413C27.1873 20.311 27.2075 20.2455 27.2075 20.1446V10.9446ZM29.4167 14.3038L30.4456 13.9709C30.7382 14.5056 31.0105 15.0755 31.2627 15.6808C31.5149 16.2861 31.7368 16.8863 31.9285 17.4814C32.1202 18.0665 32.2563 18.5911 32.337 19.0551L31.2476 19.4334C31.177 18.9694 31.0458 18.4398 30.8542 17.8446C30.6726 17.2494 30.4557 16.6442 30.2035 16.0288C29.9614 15.4135 29.6991 14.8385 29.4167 14.3038ZM31.3232 10.521H31.4897L31.6864 10.4756L32.4581 10.642C32.3572 11.1968 32.2463 11.7769 32.1252 12.3821C32.0042 12.9773 31.8932 13.4817 31.7923 13.8953L30.8239 13.7137C30.8743 13.4514 30.9298 13.1488 30.9903 12.8058C31.0509 12.4628 31.1114 12.1098 31.1719 11.7466C31.2324 11.3734 31.2829 11.0203 31.3232 10.6874V10.521ZM21.9417 7.66111L23.016 7.97887C22.6932 8.83632 22.3099 9.68369 21.8661 10.521C21.4222 11.3481 20.943 12.1299 20.4286 12.8663C19.9141 13.6027 19.3794 14.2534 18.8246 14.8183C18.7944 14.7275 18.7389 14.6115 18.6582 14.4703C18.5876 14.3291 18.5069 14.1878 18.4161 14.0466C18.3354 13.8953 18.2597 13.7793 18.1891 13.6986C18.6935 13.2043 19.1777 12.6343 19.6417 11.9887C20.1058 11.3431 20.5345 10.6521 20.9279 9.9157C21.3213 9.16921 21.6593 8.41768 21.9417 7.66111ZM20.368 11.5499L21.4424 10.4756L21.4575 10.4907V21.4913H20.368V11.5499ZM39.7666 8.37229H46.4245V9.43149H39.7666V8.37229ZM39.2521 13.6986H47.5745V14.7729H39.2521V13.6986ZM42.8232 11.6861H43.958V20.0841C43.958 20.427 43.9126 20.6893 43.8218 20.8709C43.7311 21.0525 43.5646 21.1937 43.3225 21.2946C43.0804 21.3753 42.7576 21.4257 42.3541 21.4459C41.9506 21.4762 41.4462 21.4913 40.8409 21.4913C40.8107 21.34 40.7502 21.1534 40.6594 20.9314C40.5787 20.7196 40.498 20.533 40.4173 20.3716C40.9015 20.3816 41.3352 20.3867 41.7186 20.3867C42.1019 20.3968 42.3591 20.3968 42.4903 20.3867C42.6214 20.3766 42.7072 20.3514 42.7475 20.311C42.7979 20.2707 42.8232 20.195 42.8232 20.0841V11.6861ZM46.0159 8.37229H46.2883L46.5153 8.31176L47.2718 8.8565C46.9692 9.29027 46.6212 9.73412 46.2278 10.1881C45.8343 10.6319 45.4207 11.0556 44.987 11.4591C44.5633 11.8626 44.1447 12.2207 43.7311 12.5334C43.6504 12.4225 43.5394 12.3014 43.3982 12.1703C43.267 12.0291 43.1561 11.9231 43.0653 11.8525C43.4284 11.5802 43.7966 11.2574 44.1699 10.8841C44.5431 10.5008 44.8911 10.1124 45.2139 9.71899C45.5468 9.32557 45.8142 8.96242 46.0159 8.62952V8.37229ZM33.6535 10.7177H38.6469V11.792H33.6535V10.7177ZM35.9383 7.60058L37.0278 7.72164C36.8765 8.47821 36.71 9.28522 36.5285 10.1427C36.3469 11.0001 36.1552 11.8626 35.9535 12.7302C35.7517 13.5977 35.555 14.4299 35.3633 15.2269C35.1717 16.0238 34.9851 16.735 34.8035 17.3604L33.8653 16.8459C34.0267 16.2709 34.1982 15.6051 34.3798 14.8486C34.5715 14.0819 34.7631 13.2799 34.9548 12.4427C35.1465 11.5953 35.328 10.758 35.4995 9.93083C35.671 9.09356 35.8173 8.31681 35.9383 7.60058ZM34.4101 16.3768L35.0456 15.5749C35.6105 15.8876 36.1905 16.2508 36.7857 16.6643C37.3809 17.0679 37.9307 17.4814 38.435 17.9051C38.9495 18.3288 39.3581 18.7273 39.6607 19.1005L38.9646 20.0235C38.6721 19.6503 38.2736 19.2417 37.7693 18.7979C37.275 18.354 36.7353 17.9203 36.1502 17.4966C35.5651 17.0729 34.9851 16.6997 34.4101 16.3768ZM38.2686 10.7177H38.4502L38.6469 10.6874L39.3278 10.8236C39.1967 12.7705 38.9243 14.4451 38.5107 15.8472C38.1072 17.2393 37.5675 18.3994 36.8916 19.3275C36.2158 20.2556 35.4138 20.997 34.4857 21.5518C34.4151 21.4106 34.3092 21.2492 34.168 21.0676C34.0368 20.8961 33.9107 20.7549 33.7897 20.6439C34.6269 20.19 35.3583 19.5343 35.9837 18.6768C36.6092 17.8093 37.1136 16.735 37.4969 15.4538C37.8802 14.1626 38.1374 12.6646 38.2686 10.9598V10.7177Z" fill="white"/>
</svg>
