<svg width="108" height="30" viewBox="0 0 108 30" fill="none" xmlns="http://www.w3.org/2000/svg">
<mask id="path-1-outside-1_271_4060" maskUnits="userSpaceOnUse" x="0.175781" y="5.125" width="107" height="19" fill="black">
<rect fill="white" x="0.175781" y="5.125" width="107" height="19"/>
<path d="M3.36778 14.557C3.36778 15.421 3.47978 16.277 3.70378 17.125C3.92778 17.957 4.27978 18.709 4.75978 19.381C5.23978 20.053 5.85578 20.597 6.60778 21.013C7.35978 21.413 8.25578 21.613 9.29578 21.613C10.3358 21.613 11.2318 21.413 11.9838 21.013C12.7358 20.597 13.3518 20.053 13.8318 19.381C14.3118 18.709 14.6638 17.957 14.8878 17.125C15.1118 16.277 15.2238 15.421 15.2238 14.557C15.2238 13.693 15.1118 12.845 14.8878 12.013C14.6638 11.165 14.3118 10.405 13.8318 9.733C13.3518 9.061 12.7358 8.525 11.9838 8.125C11.2318 7.709 10.3358 7.501 9.29578 7.501C8.25578 7.501 7.35978 7.709 6.60778 8.125C5.85578 8.525 5.23978 9.061 4.75978 9.733C4.27978 10.405 3.92778 11.165 3.70378 12.013C3.47978 12.845 3.36778 13.693 3.36778 14.557ZM1.08778 14.557C1.08778 13.389 1.25578 12.269 1.59178 11.197C1.94378 10.109 2.46378 9.149 3.15178 8.317C3.83978 7.485 4.69578 6.821 5.71978 6.325C6.74378 5.829 7.93578 5.581 9.29578 5.581C10.6558 5.581 11.8478 5.829 12.8718 6.325C13.8958 6.821 14.7518 7.485 15.4398 8.317C16.1278 9.149 16.6398 10.109 16.9758 11.197C17.3278 12.269 17.5038 13.389 17.5038 14.557C17.5038 15.725 17.3278 16.853 16.9758 17.941C16.6398 19.013 16.1278 19.965 15.4398 20.797C14.7518 21.629 13.8958 22.293 12.8718 22.789C11.8478 23.269 10.6558 23.509 9.29578 23.509C7.93578 23.509 6.74378 23.269 5.71978 22.789C4.69578 22.293 3.83978 21.629 3.15178 20.797C2.46378 19.965 1.94378 19.013 1.59178 17.941C1.25578 16.853 1.08778 15.725 1.08778 14.557ZM19.5382 5.989H21.9622L30.9862 19.885H31.0342V5.989H33.1942V23.125H30.6982L21.7462 9.373H21.6982V23.125H19.5382V5.989ZM35.8985 5.989H37.9385V12.397H37.9865C38.3225 11.709 38.8505 11.213 39.5705 10.909C40.2905 10.589 41.0825 10.429 41.9465 10.429C42.9065 10.429 43.7385 10.605 44.4425 10.957C45.1625 11.309 45.7545 11.789 46.2185 12.397C46.6985 12.989 47.0585 13.677 47.2985 14.461C47.5385 15.245 47.6585 16.077 47.6585 16.957C47.6585 17.837 47.5385 18.669 47.2985 19.453C47.0745 20.237 46.7225 20.925 46.2425 21.517C45.7785 22.093 45.1865 22.549 44.4665 22.885C43.7625 23.221 42.9385 23.389 41.9945 23.389C41.6905 23.389 41.3465 23.357 40.9625 23.293C40.5945 23.229 40.2265 23.125 39.8585 22.981C39.4905 22.837 39.1385 22.645 38.8025 22.405C38.4825 22.149 38.2105 21.837 37.9865 21.469H37.9385V23.125H35.8985V5.989ZM45.4985 16.813C45.4985 16.237 45.4185 15.677 45.2585 15.133C45.1145 14.573 44.8825 14.077 44.5625 13.645C44.2585 13.213 43.8585 12.869 43.3625 12.613C42.8825 12.357 42.3145 12.229 41.6585 12.229C40.9705 12.229 40.3865 12.365 39.9065 12.637C39.4265 12.909 39.0345 13.269 38.7305 13.717C38.4265 14.149 38.2025 14.645 38.0585 15.205C37.9305 15.765 37.8665 16.333 37.8665 16.909C37.8665 17.517 37.9385 18.109 38.0825 18.685C38.2265 19.245 38.4505 19.741 38.7545 20.173C39.0745 20.605 39.4825 20.957 39.9785 21.229C40.4745 21.485 41.0745 21.613 41.7785 21.613C42.4825 21.613 43.0665 21.477 43.5305 21.205C44.0105 20.933 44.3945 20.573 44.6825 20.125C44.9705 19.677 45.1785 19.165 45.3065 18.589C45.4345 18.013 45.4985 17.421 45.4985 16.813ZM51.493 8.485H49.453V5.989H51.493V8.485ZM49.453 10.717H51.493V23.125H49.453V10.717ZM56.7653 10.717H59.2373V12.517H56.7653V20.221C56.7653 20.461 56.7813 20.653 56.8133 20.797C56.8613 20.941 56.9413 21.053 57.0533 21.133C57.1653 21.213 57.3173 21.269 57.5093 21.301C57.7173 21.317 57.9813 21.325 58.3013 21.325H59.2373V23.125H57.6773C57.1493 23.125 56.6933 23.093 56.3093 23.029C55.9413 22.949 55.6373 22.813 55.3973 22.621C55.1733 22.429 55.0053 22.157 54.8933 21.805C54.7813 21.453 54.7253 20.989 54.7253 20.413V12.517H52.6133V10.717H54.7253V6.997H56.7653V10.717ZM76.9913 11.005C76.8633 9.773 76.4153 8.885 75.6473 8.341C74.8953 7.781 73.9273 7.501 72.7433 7.501C72.2633 7.501 71.7913 7.549 71.3273 7.645C70.8633 7.741 70.4473 7.901 70.0793 8.125C69.7273 8.349 69.4393 8.653 69.2153 9.037C69.0073 9.405 68.9033 9.869 68.9033 10.429C68.9033 10.957 69.0553 11.389 69.3593 11.725C69.6793 12.045 70.0953 12.309 70.6073 12.517C71.1353 12.725 71.7273 12.901 72.3833 13.045C73.0393 13.173 73.7033 13.317 74.3753 13.477C75.0633 13.637 75.7353 13.829 76.3913 14.053C77.0473 14.261 77.6313 14.549 78.1433 14.917C78.6713 15.285 79.0873 15.749 79.3913 16.309C79.7113 16.869 79.8713 17.573 79.8713 18.421C79.8713 19.333 79.6633 20.117 79.2473 20.773C78.8473 21.413 78.3273 21.941 77.6873 22.357C77.0473 22.757 76.3273 23.045 75.5273 23.221C74.7433 23.413 73.9593 23.509 73.1753 23.509C72.2153 23.509 71.3033 23.389 70.4393 23.149C69.5913 22.909 68.8393 22.549 68.1833 22.069C67.5433 21.573 67.0313 20.949 66.6473 20.197C66.2793 19.429 66.0953 18.525 66.0953 17.485H68.2553C68.2553 18.205 68.3913 18.829 68.6633 19.357C68.9513 19.869 69.3193 20.293 69.7673 20.629C70.2313 20.965 70.7673 21.213 71.3753 21.373C71.9833 21.533 72.6073 21.613 73.2473 21.613C73.7593 21.613 74.2713 21.565 74.7833 21.469C75.3113 21.373 75.7833 21.213 76.1993 20.989C76.6153 20.749 76.9513 20.429 77.2073 20.029C77.4633 19.629 77.5913 19.117 77.5913 18.493C77.5913 17.901 77.4313 17.421 77.1113 17.053C76.8073 16.685 76.3913 16.389 75.8633 16.165C75.3513 15.925 74.7673 15.733 74.1113 15.589C73.4553 15.445 72.7833 15.301 72.0953 15.157C71.4233 14.997 70.7593 14.821 70.1033 14.629C69.4473 14.421 68.8553 14.157 68.3273 13.837C67.8153 13.501 67.3993 13.077 67.0793 12.565C66.7753 12.037 66.6233 11.381 66.6233 10.597C66.6233 9.733 66.7993 8.989 67.1513 8.365C67.5033 7.725 67.9673 7.205 68.5433 6.805C69.1353 6.389 69.7993 6.085 70.5353 5.893C71.2873 5.685 72.0553 5.581 72.8393 5.581C73.7193 5.581 74.5353 5.685 75.2873 5.893C76.0393 6.101 76.6953 6.429 77.2553 6.877C77.8313 7.325 78.2793 7.893 78.5993 8.581C78.9353 9.253 79.1193 10.061 79.1513 11.005H76.9913ZM83.0738 16.933C83.0738 17.685 83.1698 18.357 83.3618 18.949C83.5698 19.525 83.8498 20.013 84.2018 20.413C84.5538 20.797 84.9618 21.093 85.4258 21.301C85.9058 21.509 86.4098 21.613 86.9378 21.613C87.4658 21.613 87.9618 21.509 88.4258 21.301C88.9058 21.093 89.3218 20.797 89.6738 20.413C90.0258 20.013 90.2978 19.525 90.4898 18.949C90.6978 18.357 90.8018 17.685 90.8018 16.933C90.8018 16.181 90.6978 15.517 90.4898 14.941C90.2978 14.349 90.0258 13.853 89.6738 13.453C89.3218 13.053 88.9058 12.749 88.4258 12.541C87.9618 12.333 87.4658 12.229 86.9378 12.229C86.4098 12.229 85.9058 12.333 85.4258 12.541C84.9618 12.749 84.5538 13.053 84.2018 13.453C83.8498 13.853 83.5698 14.349 83.3618 14.941C83.1698 15.517 83.0738 16.181 83.0738 16.933ZM80.9138 16.933C80.9138 16.021 81.0418 15.173 81.2978 14.389C81.5538 13.589 81.9378 12.901 82.4498 12.325C82.9618 11.733 83.5938 11.269 84.3458 10.933C85.0978 10.597 85.9618 10.429 86.9378 10.429C87.9298 10.429 88.7938 10.597 89.5298 10.933C90.2818 11.269 90.9138 11.733 91.4258 12.325C91.9378 12.901 92.3218 13.589 92.5778 14.389C92.8338 15.173 92.9618 16.021 92.9618 16.933C92.9618 17.845 92.8338 18.693 92.5778 19.477C92.3218 20.261 91.9378 20.949 91.4258 21.541C90.9138 22.117 90.2818 22.573 89.5298 22.909C88.7938 23.229 87.9298 23.389 86.9378 23.389C85.9618 23.389 85.0978 23.229 84.3458 22.909C83.5938 22.573 82.9618 22.117 82.4498 21.541C81.9378 20.949 81.5538 20.261 81.2978 19.477C81.0418 18.693 80.9138 17.845 80.9138 16.933ZM95.4871 12.517H93.3991V10.717H95.4871V8.869C95.4871 7.861 95.7751 7.101 96.3511 6.589C96.9431 6.061 97.7991 5.797 98.9191 5.797C99.1111 5.797 99.3271 5.813 99.5671 5.845C99.8231 5.877 100.047 5.925 100.239 5.989V7.765C100.063 7.701 99.8711 7.661 99.6631 7.645C99.4551 7.613 99.2631 7.597 99.0871 7.597C98.5911 7.597 98.2071 7.693 97.9351 7.885C97.6631 8.077 97.5271 8.445 97.5271 8.989V10.717H99.9271V12.517H97.5271V23.125H95.4871V12.517ZM103.861 10.717H106.333V12.517H103.861V20.221C103.861 20.461 103.877 20.653 103.909 20.797C103.957 20.941 104.037 21.053 104.149 21.133C104.261 21.213 104.413 21.269 104.605 21.301C104.813 21.317 105.077 21.325 105.397 21.325H106.333V23.125H104.773C104.245 23.125 103.789 23.093 103.405 23.029C103.037 22.949 102.733 22.813 102.493 22.621C102.269 22.429 102.101 22.157 101.989 21.805C101.877 21.453 101.821 20.989 101.821 20.413V12.517H99.7087V10.717H101.821V6.997H103.861V10.717Z"/>
</mask>
<path d="M3.36778 14.557C3.36778 15.421 3.47978 16.277 3.70378 17.125C3.92778 17.957 4.27978 18.709 4.75978 19.381C5.23978 20.053 5.85578 20.597 6.60778 21.013C7.35978 21.413 8.25578 21.613 9.29578 21.613C10.3358 21.613 11.2318 21.413 11.9838 21.013C12.7358 20.597 13.3518 20.053 13.8318 19.381C14.3118 18.709 14.6638 17.957 14.8878 17.125C15.1118 16.277 15.2238 15.421 15.2238 14.557C15.2238 13.693 15.1118 12.845 14.8878 12.013C14.6638 11.165 14.3118 10.405 13.8318 9.733C13.3518 9.061 12.7358 8.525 11.9838 8.125C11.2318 7.709 10.3358 7.501 9.29578 7.501C8.25578 7.501 7.35978 7.709 6.60778 8.125C5.85578 8.525 5.23978 9.061 4.75978 9.733C4.27978 10.405 3.92778 11.165 3.70378 12.013C3.47978 12.845 3.36778 13.693 3.36778 14.557ZM1.08778 14.557C1.08778 13.389 1.25578 12.269 1.59178 11.197C1.94378 10.109 2.46378 9.149 3.15178 8.317C3.83978 7.485 4.69578 6.821 5.71978 6.325C6.74378 5.829 7.93578 5.581 9.29578 5.581C10.6558 5.581 11.8478 5.829 12.8718 6.325C13.8958 6.821 14.7518 7.485 15.4398 8.317C16.1278 9.149 16.6398 10.109 16.9758 11.197C17.3278 12.269 17.5038 13.389 17.5038 14.557C17.5038 15.725 17.3278 16.853 16.9758 17.941C16.6398 19.013 16.1278 19.965 15.4398 20.797C14.7518 21.629 13.8958 22.293 12.8718 22.789C11.8478 23.269 10.6558 23.509 9.29578 23.509C7.93578 23.509 6.74378 23.269 5.71978 22.789C4.69578 22.293 3.83978 21.629 3.15178 20.797C2.46378 19.965 1.94378 19.013 1.59178 17.941C1.25578 16.853 1.08778 15.725 1.08778 14.557ZM19.5382 5.989H21.9622L30.9862 19.885H31.0342V5.989H33.1942V23.125H30.6982L21.7462 9.373H21.6982V23.125H19.5382V5.989ZM35.8985 5.989H37.9385V12.397H37.9865C38.3225 11.709 38.8505 11.213 39.5705 10.909C40.2905 10.589 41.0825 10.429 41.9465 10.429C42.9065 10.429 43.7385 10.605 44.4425 10.957C45.1625 11.309 45.7545 11.789 46.2185 12.397C46.6985 12.989 47.0585 13.677 47.2985 14.461C47.5385 15.245 47.6585 16.077 47.6585 16.957C47.6585 17.837 47.5385 18.669 47.2985 19.453C47.0745 20.237 46.7225 20.925 46.2425 21.517C45.7785 22.093 45.1865 22.549 44.4665 22.885C43.7625 23.221 42.9385 23.389 41.9945 23.389C41.6905 23.389 41.3465 23.357 40.9625 23.293C40.5945 23.229 40.2265 23.125 39.8585 22.981C39.4905 22.837 39.1385 22.645 38.8025 22.405C38.4825 22.149 38.2105 21.837 37.9865 21.469H37.9385V23.125H35.8985V5.989ZM45.4985 16.813C45.4985 16.237 45.4185 15.677 45.2585 15.133C45.1145 14.573 44.8825 14.077 44.5625 13.645C44.2585 13.213 43.8585 12.869 43.3625 12.613C42.8825 12.357 42.3145 12.229 41.6585 12.229C40.9705 12.229 40.3865 12.365 39.9065 12.637C39.4265 12.909 39.0345 13.269 38.7305 13.717C38.4265 14.149 38.2025 14.645 38.0585 15.205C37.9305 15.765 37.8665 16.333 37.8665 16.909C37.8665 17.517 37.9385 18.109 38.0825 18.685C38.2265 19.245 38.4505 19.741 38.7545 20.173C39.0745 20.605 39.4825 20.957 39.9785 21.229C40.4745 21.485 41.0745 21.613 41.7785 21.613C42.4825 21.613 43.0665 21.477 43.5305 21.205C44.0105 20.933 44.3945 20.573 44.6825 20.125C44.9705 19.677 45.1785 19.165 45.3065 18.589C45.4345 18.013 45.4985 17.421 45.4985 16.813ZM51.493 8.485H49.453V5.989H51.493V8.485ZM49.453 10.717H51.493V23.125H49.453V10.717ZM56.7653 10.717H59.2373V12.517H56.7653V20.221C56.7653 20.461 56.7813 20.653 56.8133 20.797C56.8613 20.941 56.9413 21.053 57.0533 21.133C57.1653 21.213 57.3173 21.269 57.5093 21.301C57.7173 21.317 57.9813 21.325 58.3013 21.325H59.2373V23.125H57.6773C57.1493 23.125 56.6933 23.093 56.3093 23.029C55.9413 22.949 55.6373 22.813 55.3973 22.621C55.1733 22.429 55.0053 22.157 54.8933 21.805C54.7813 21.453 54.7253 20.989 54.7253 20.413V12.517H52.6133V10.717H54.7253V6.997H56.7653V10.717ZM76.9913 11.005C76.8633 9.773 76.4153 8.885 75.6473 8.341C74.8953 7.781 73.9273 7.501 72.7433 7.501C72.2633 7.501 71.7913 7.549 71.3273 7.645C70.8633 7.741 70.4473 7.901 70.0793 8.125C69.7273 8.349 69.4393 8.653 69.2153 9.037C69.0073 9.405 68.9033 9.869 68.9033 10.429C68.9033 10.957 69.0553 11.389 69.3593 11.725C69.6793 12.045 70.0953 12.309 70.6073 12.517C71.1353 12.725 71.7273 12.901 72.3833 13.045C73.0393 13.173 73.7033 13.317 74.3753 13.477C75.0633 13.637 75.7353 13.829 76.3913 14.053C77.0473 14.261 77.6313 14.549 78.1433 14.917C78.6713 15.285 79.0873 15.749 79.3913 16.309C79.7113 16.869 79.8713 17.573 79.8713 18.421C79.8713 19.333 79.6633 20.117 79.2473 20.773C78.8473 21.413 78.3273 21.941 77.6873 22.357C77.0473 22.757 76.3273 23.045 75.5273 23.221C74.7433 23.413 73.9593 23.509 73.1753 23.509C72.2153 23.509 71.3033 23.389 70.4393 23.149C69.5913 22.909 68.8393 22.549 68.1833 22.069C67.5433 21.573 67.0313 20.949 66.6473 20.197C66.2793 19.429 66.0953 18.525 66.0953 17.485H68.2553C68.2553 18.205 68.3913 18.829 68.6633 19.357C68.9513 19.869 69.3193 20.293 69.7673 20.629C70.2313 20.965 70.7673 21.213 71.3753 21.373C71.9833 21.533 72.6073 21.613 73.2473 21.613C73.7593 21.613 74.2713 21.565 74.7833 21.469C75.3113 21.373 75.7833 21.213 76.1993 20.989C76.6153 20.749 76.9513 20.429 77.2073 20.029C77.4633 19.629 77.5913 19.117 77.5913 18.493C77.5913 17.901 77.4313 17.421 77.1113 17.053C76.8073 16.685 76.3913 16.389 75.8633 16.165C75.3513 15.925 74.7673 15.733 74.1113 15.589C73.4553 15.445 72.7833 15.301 72.0953 15.157C71.4233 14.997 70.7593 14.821 70.1033 14.629C69.4473 14.421 68.8553 14.157 68.3273 13.837C67.8153 13.501 67.3993 13.077 67.0793 12.565C66.7753 12.037 66.6233 11.381 66.6233 10.597C66.6233 9.733 66.7993 8.989 67.1513 8.365C67.5033 7.725 67.9673 7.205 68.5433 6.805C69.1353 6.389 69.7993 6.085 70.5353 5.893C71.2873 5.685 72.0553 5.581 72.8393 5.581C73.7193 5.581 74.5353 5.685 75.2873 5.893C76.0393 6.101 76.6953 6.429 77.2553 6.877C77.8313 7.325 78.2793 7.893 78.5993 8.581C78.9353 9.253 79.1193 10.061 79.1513 11.005H76.9913ZM83.0738 16.933C83.0738 17.685 83.1698 18.357 83.3618 18.949C83.5698 19.525 83.8498 20.013 84.2018 20.413C84.5538 20.797 84.9618 21.093 85.4258 21.301C85.9058 21.509 86.4098 21.613 86.9378 21.613C87.4658 21.613 87.9618 21.509 88.4258 21.301C88.9058 21.093 89.3218 20.797 89.6738 20.413C90.0258 20.013 90.2978 19.525 90.4898 18.949C90.6978 18.357 90.8018 17.685 90.8018 16.933C90.8018 16.181 90.6978 15.517 90.4898 14.941C90.2978 14.349 90.0258 13.853 89.6738 13.453C89.3218 13.053 88.9058 12.749 88.4258 12.541C87.9618 12.333 87.4658 12.229 86.9378 12.229C86.4098 12.229 85.9058 12.333 85.4258 12.541C84.9618 12.749 84.5538 13.053 84.2018 13.453C83.8498 13.853 83.5698 14.349 83.3618 14.941C83.1698 15.517 83.0738 16.181 83.0738 16.933ZM80.9138 16.933C80.9138 16.021 81.0418 15.173 81.2978 14.389C81.5538 13.589 81.9378 12.901 82.4498 12.325C82.9618 11.733 83.5938 11.269 84.3458 10.933C85.0978 10.597 85.9618 10.429 86.9378 10.429C87.9298 10.429 88.7938 10.597 89.5298 10.933C90.2818 11.269 90.9138 11.733 91.4258 12.325C91.9378 12.901 92.3218 13.589 92.5778 14.389C92.8338 15.173 92.9618 16.021 92.9618 16.933C92.9618 17.845 92.8338 18.693 92.5778 19.477C92.3218 20.261 91.9378 20.949 91.4258 21.541C90.9138 22.117 90.2818 22.573 89.5298 22.909C88.7938 23.229 87.9298 23.389 86.9378 23.389C85.9618 23.389 85.0978 23.229 84.3458 22.909C83.5938 22.573 82.9618 22.117 82.4498 21.541C81.9378 20.949 81.5538 20.261 81.2978 19.477C81.0418 18.693 80.9138 17.845 80.9138 16.933ZM95.4871 12.517H93.3991V10.717H95.4871V8.869C95.4871 7.861 95.7751 7.101 96.3511 6.589C96.9431 6.061 97.7991 5.797 98.9191 5.797C99.1111 5.797 99.3271 5.813 99.5671 5.845C99.8231 5.877 100.047 5.925 100.239 5.989V7.765C100.063 7.701 99.8711 7.661 99.6631 7.645C99.4551 7.613 99.2631 7.597 99.0871 7.597C98.5911 7.597 98.2071 7.693 97.9351 7.885C97.6631 8.077 97.5271 8.445 97.5271 8.989V10.717H99.9271V12.517H97.5271V23.125H95.4871V12.517ZM103.861 10.717H106.333V12.517H103.861V20.221C103.861 20.461 103.877 20.653 103.909 20.797C103.957 20.941 104.037 21.053 104.149 21.133C104.261 21.213 104.413 21.269 104.605 21.301C104.813 21.317 105.077 21.325 105.397 21.325H106.333V23.125H104.773C104.245 23.125 103.789 23.093 103.405 23.029C103.037 22.949 102.733 22.813 102.493 22.621C102.269 22.429 102.101 22.157 101.989 21.805C101.877 21.453 101.821 20.989 101.821 20.413V12.517H99.7087V10.717H101.821V6.997H103.861V10.717Z" fill="#101010"/>
<path d="M3.70378 17.125L3.51041 17.1761L3.51066 17.177L3.70378 17.125ZM4.75978 19.381L4.59703 19.4972L4.75978 19.381ZM6.60778 21.013L6.51096 21.188L6.51386 21.1896L6.60778 21.013ZM11.9838 21.013L12.0777 21.1896L12.0806 21.188L11.9838 21.013ZM13.8318 19.381L13.669 19.2648L13.8318 19.381ZM14.8878 17.125L15.0809 17.177L15.0812 17.1761L14.8878 17.125ZM14.8878 12.013L14.6944 12.0641L14.6947 12.065L14.8878 12.013ZM13.8318 9.733L13.669 9.84925L13.8318 9.733ZM11.9838 8.125L11.887 8.30003L11.8899 8.30157L11.9838 8.125ZM6.60778 8.125L6.70172 8.3016L6.70459 8.30001L6.60778 8.125ZM3.70378 12.013L3.89691 12.065L3.89715 12.0641L3.70378 12.013ZM1.59178 11.197L1.40148 11.1354L1.40094 11.1372L1.59178 11.197ZM3.15178 8.317L2.99765 8.18955V8.18955L3.15178 8.317ZM5.71978 6.325L5.6326 6.145L5.6326 6.145L5.71978 6.325ZM12.8718 6.325L12.959 6.145L12.8718 6.325ZM15.4398 8.317L15.5939 8.18955V8.18955L15.4398 8.317ZM16.9758 11.197L16.7847 11.256L16.7858 11.2594L16.9758 11.197ZM16.9758 17.941L16.7855 17.8794L16.7849 17.8812L16.9758 17.941ZM12.8718 22.789L12.9567 22.9701L12.959 22.969L12.8718 22.789ZM5.71978 22.789L5.63259 22.969L5.63489 22.9701L5.71978 22.789ZM1.59178 17.941L1.40066 18L1.40176 18.0034L1.59178 17.941ZM3.36778 14.557H3.16778C3.16778 15.4385 3.28208 16.3117 3.51041 17.1761L3.70378 17.125L3.89715 17.0739C3.67748 16.2423 3.56778 15.4035 3.56778 14.557H3.36778ZM3.70378 17.125L3.51066 17.177C3.74059 18.031 4.10256 18.805 4.59703 19.4972L4.75978 19.381L4.92253 19.2648C4.45701 18.613 4.11497 17.883 3.8969 17.073L3.70378 17.125ZM4.75978 19.381L4.59703 19.4972C5.09507 20.1945 5.73398 20.7582 6.51097 21.188L6.60778 21.013L6.70459 20.838C5.97759 20.4358 5.38449 19.9115 4.92253 19.2648L4.75978 19.381ZM6.60778 21.013L6.51386 21.1896C7.3005 21.608 8.23019 21.813 9.29578 21.813V21.613V21.413C8.28138 21.413 7.41907 21.218 6.7017 20.8364L6.60778 21.013ZM9.29578 21.613V21.813C10.3614 21.813 11.2911 21.608 12.0777 21.1896L11.9838 21.013L11.8899 20.8364C11.1725 21.218 10.3102 21.413 9.29578 21.413V21.613ZM11.9838 21.013L12.0806 21.188C12.8576 20.7582 13.4965 20.1945 13.9945 19.4972L13.8318 19.381L13.669 19.2648C13.2071 19.9115 12.614 20.4358 11.887 20.838L11.9838 21.013ZM13.8318 19.381L13.9945 19.4972C14.489 18.805 14.851 18.031 15.0809 17.177L14.8878 17.125L14.6947 17.073C14.4766 17.883 14.1346 18.613 13.669 19.2648L13.8318 19.381ZM14.8878 17.125L15.0812 17.1761C15.3095 16.3117 15.4238 15.4385 15.4238 14.557H15.2238H15.0238C15.0238 15.4035 14.9141 16.2423 14.6944 17.0739L14.8878 17.125ZM15.2238 14.557H15.4238C15.4238 13.6755 15.3095 12.81 15.0809 11.961L14.8878 12.013L14.6947 12.065C14.9141 12.88 15.0238 13.7105 15.0238 14.557H15.2238ZM14.8878 12.013L15.0812 11.9619C14.8514 11.092 14.4894 10.3096 13.9945 9.61675L13.8318 9.733L13.669 9.84925C14.1341 10.5004 14.4762 11.238 14.6944 12.0641L14.8878 12.013ZM13.8318 9.733L13.9945 9.61675C13.496 8.91879 12.8561 8.36247 12.0777 7.94843L11.9838 8.125L11.8899 8.30157C12.6154 8.68753 13.2076 9.20321 13.669 9.84925L13.8318 9.733ZM11.9838 8.125L12.0806 7.94999C11.2933 7.51448 10.3626 7.301 9.29578 7.301V7.501V7.701C10.309 7.701 11.1702 7.90352 11.887 8.30001L11.9838 8.125ZM9.29578 7.501V7.301C8.229 7.301 7.29824 7.51448 6.51097 7.94999L6.60778 8.125L6.70459 8.30001C7.42133 7.90352 8.28257 7.701 9.29578 7.701V7.501ZM6.60778 8.125L6.51386 7.94843C5.73545 8.36247 5.09558 8.91879 4.59703 9.61675L4.75978 9.733L4.92253 9.84925C5.38398 9.20321 5.97611 8.68753 6.7017 8.30157L6.60778 8.125ZM4.75978 9.733L4.59703 9.61675C4.10211 10.3096 3.74021 11.092 3.51041 11.9619L3.70378 12.013L3.89715 12.0641C4.11536 11.238 4.45745 10.5004 4.92253 9.84925L4.75978 9.733ZM3.70378 12.013L3.51066 11.961C3.28208 12.81 3.16778 13.6755 3.16778 14.557H3.36778H3.56778C3.56778 13.7105 3.67748 12.88 3.8969 12.065L3.70378 12.013ZM1.08778 14.557H1.28778C1.28778 13.4085 1.45293 12.3087 1.78263 11.2568L1.59178 11.197L1.40094 11.1372C1.05863 12.2293 0.887781 13.3695 0.887781 14.557H1.08778ZM1.59178 11.197L1.78207 11.2586C2.12676 10.1932 2.63496 9.25584 3.30591 8.44445L3.15178 8.317L2.99765 8.18955C2.29261 9.04216 1.76081 10.0248 1.40149 11.1354L1.59178 11.197ZM3.15178 8.317L3.30591 8.44445C3.97464 7.63575 4.80737 6.98917 5.80697 6.50499L5.71978 6.325L5.6326 6.145C4.58419 6.65282 3.70492 7.33425 2.99765 8.18955L3.15178 8.317ZM5.71978 6.325L5.80697 6.505C6.79899 6.02449 7.96015 5.781 9.29578 5.781V5.581V5.381C7.91141 5.381 6.68858 5.63351 5.6326 6.145L5.71978 6.325ZM9.29578 5.581V5.781C10.6314 5.781 11.7926 6.02449 12.7846 6.505L12.8718 6.325L12.959 6.145C11.903 5.63351 10.6802 5.381 9.29578 5.381V5.581ZM12.8718 6.325L12.7846 6.505C13.7842 6.98917 14.6169 7.63575 15.2857 8.44445L15.4398 8.317L15.5939 8.18955C14.8866 7.33425 14.0074 6.65282 12.959 6.145L12.8718 6.325ZM15.4398 8.317L15.2857 8.44445C15.9561 9.25519 16.456 10.1916 16.7847 11.256L16.9758 11.197L17.1669 11.138C16.8236 10.0264 16.2995 9.04281 15.5939 8.18955L15.4398 8.317ZM16.9758 11.197L16.7858 11.2594C17.1309 12.3106 17.3038 13.4094 17.3038 14.557H17.5038H17.7038C17.7038 13.3686 17.5246 12.2274 17.1658 11.1346L16.9758 11.197ZM17.5038 14.557H17.3038C17.3038 15.7045 17.1309 16.8118 16.7855 17.8794L16.9758 17.941L17.1661 18.0026C17.5246 16.8942 17.7038 15.7454 17.7038 14.557H17.5038ZM16.9758 17.941L16.7849 17.8812C16.4564 18.9295 15.9565 19.8583 15.2857 20.6695L15.4398 20.797L15.5939 20.9245C16.2991 20.0717 16.8232 19.0965 17.1666 18.0008L16.9758 17.941ZM15.4398 20.797L15.2857 20.6695C14.6169 21.4782 13.7842 22.1248 12.7846 22.609L12.8718 22.789L12.959 22.969C14.0074 22.4612 14.8866 21.7798 15.5939 20.9245L15.4398 20.797ZM12.8718 22.789L12.7869 22.6079C11.7943 23.0732 10.6323 23.309 9.29578 23.309V23.509V23.709C10.6793 23.709 11.9013 23.4648 12.9567 22.9701L12.8718 22.789ZM9.29578 23.509V23.309C7.95927 23.309 6.79727 23.0732 5.80467 22.6079L5.71978 22.789L5.63489 22.9701C6.69029 23.4648 7.91229 23.709 9.29578 23.709V23.509ZM5.71978 22.789L5.80697 22.609C4.80737 22.1248 3.97464 21.4782 3.30591 20.6695L3.15178 20.797L2.99765 20.9245C3.70492 21.7798 4.58419 22.4612 5.6326 22.969L5.71978 22.789ZM3.15178 20.797L3.30591 20.6695C2.63455 19.8577 2.12636 18.928 1.7818 17.8786L1.59178 17.941L1.40176 18.0034C1.7612 19.098 2.29302 20.0723 2.99765 20.9245L3.15178 20.797ZM1.59178 17.941L1.78288 17.882C1.45293 16.8136 1.28778 15.7055 1.28778 14.557H1.08778H0.887781C0.887781 15.7445 1.05863 16.8924 1.40069 18L1.59178 17.941ZM19.5382 5.989V5.789H19.3382V5.989H19.5382ZM21.9622 5.989L22.1299 5.88007L22.0707 5.789H21.9622V5.989ZM30.9862 19.885L30.8184 19.9939L30.8776 20.085H30.9862V19.885ZM31.0342 19.885V20.085H31.2342V19.885H31.0342ZM31.0342 5.989V5.789H30.8342V5.989H31.0342ZM33.1942 5.989H33.3942V5.789H33.1942V5.989ZM33.1942 23.125V23.325H33.3942V23.125H33.1942ZM30.6982 23.125L30.5305 23.2341L30.5897 23.325H30.6982V23.125ZM21.7462 9.373L21.9138 9.26389L21.8546 9.173H21.7462V9.373ZM21.6982 9.373V9.173H21.4982V9.373H21.6982ZM21.6982 23.125V23.325H21.8982V23.125H21.6982ZM19.5382 23.125H19.3382V23.325H19.5382V23.125ZM19.5382 5.989V6.189H21.9622V5.989V5.789H19.5382V5.989ZM21.9622 5.989L21.7944 6.09793L30.8184 19.9939L30.9862 19.885L31.1539 19.7761L22.1299 5.88007L21.9622 5.989ZM30.9862 19.885V20.085H31.0342V19.885V19.685H30.9862V19.885ZM31.0342 19.885H31.2342V5.989H31.0342H30.8342V19.885H31.0342ZM31.0342 5.989V6.189H33.1942V5.989V5.789H31.0342V5.989ZM33.1942 5.989H32.9942V23.125H33.1942H33.3942V5.989H33.1942ZM33.1942 23.125V22.925H30.6982V23.125V23.325H33.1942V23.125ZM30.6982 23.125L30.8658 23.0159L21.9138 9.26389L21.7462 9.373L21.5785 9.48211L30.5305 23.2341L30.6982 23.125ZM21.7462 9.373V9.173H21.6982V9.373V9.573H21.7462V9.373ZM21.6982 9.373H21.4982V23.125H21.6982H21.8982V9.373H21.6982ZM21.6982 23.125V22.925H19.5382V23.125V23.325H21.6982V23.125ZM19.5382 23.125H19.7382V5.989H19.5382H19.3382V23.125H19.5382ZM35.8985 5.989V5.789H35.6985V5.989H35.8985ZM37.9385 5.989H38.1385V5.789H37.9385V5.989ZM37.9385 12.397H37.7385V12.597H37.9385V12.397ZM37.9865 12.397V12.597H38.1114L38.1662 12.4848L37.9865 12.397ZM39.5705 10.909L39.6483 11.0933L39.6517 11.0918L39.5705 10.909ZM44.4425 10.957L44.353 11.1359L44.3546 11.1367L44.4425 10.957ZM46.2185 12.397L46.0594 12.5184L46.0631 12.523L46.2185 12.397ZM47.2985 14.461L47.4897 14.4025L47.2985 14.461ZM47.2985 19.453L47.1072 19.3944L47.1062 19.3981L47.2985 19.453ZM46.2425 21.517L46.0871 21.391L46.0867 21.3915L46.2425 21.517ZM44.4665 22.885L44.3819 22.7038L44.3803 22.7045L44.4665 22.885ZM40.9625 23.293L40.9282 23.49L40.9296 23.4903L40.9625 23.293ZM39.8585 22.981L39.7856 23.1672L39.8585 22.981ZM38.8025 22.405L38.6773 22.5614L38.6862 22.5677L38.8025 22.405ZM37.9865 21.469L38.1573 21.365L38.0989 21.269H37.9865V21.469ZM37.9385 21.469V21.269H37.7385V21.469H37.9385ZM37.9385 23.125V23.325H38.1385V23.125H37.9385ZM35.8985 23.125H35.6985V23.325H35.8985V23.125ZM45.2585 15.133L45.0647 15.1828L45.0666 15.1894L45.2585 15.133ZM44.5625 13.645L44.3989 13.7601L44.4018 13.764L44.5625 13.645ZM43.3625 12.613L43.2683 12.7895L43.2707 12.7907L43.3625 12.613ZM39.9065 12.637L40.0051 12.811L39.9065 12.637ZM38.7305 13.717L38.8941 13.8321L38.896 13.8293L38.7305 13.717ZM38.0585 15.205L37.8647 15.1552L37.8635 15.1604L38.0585 15.205ZM38.0825 18.685L37.8884 18.7335L37.8888 18.7348L38.0825 18.685ZM38.7545 20.173L38.5909 20.2881L38.5938 20.292L38.7545 20.173ZM39.9785 21.229L39.8823 21.4044L39.8867 21.4067L39.9785 21.229ZM43.5305 21.205L43.4319 21.031L43.4293 21.0325L43.5305 21.205ZM44.6825 20.125L44.8507 20.2332L44.6825 20.125ZM35.8985 5.989V6.189H37.9385V5.989V5.789H35.8985V5.989ZM37.9385 5.989H37.7385V12.397H37.9385H38.1385V5.989H37.9385ZM37.9385 12.397V12.597H37.9865V12.397V12.197H37.9385V12.397ZM37.9865 12.397L38.1662 12.4848C38.4805 11.8412 38.9718 11.3789 39.6483 11.0933L39.5705 10.909L39.4927 10.7247C38.7292 11.0471 38.1644 11.5768 37.8068 12.3092L37.9865 12.397ZM39.5705 10.909L39.6517 11.0918C40.3437 10.7842 41.1077 10.629 41.9465 10.629V10.429V10.229C41.0572 10.229 40.2372 10.3938 39.4892 10.7262L39.5705 10.909ZM41.9465 10.429V10.629C42.8821 10.629 43.6822 10.8005 44.353 11.1359L44.4425 10.957L44.5319 10.7781C43.7947 10.4095 42.9308 10.229 41.9465 10.229V10.429ZM44.4425 10.957L44.3546 11.1367C45.0481 11.4757 45.6152 11.9362 46.0595 12.5183L46.2185 12.397L46.3775 12.2757C45.8937 11.6418 45.2769 11.1423 44.5303 10.7773L44.4425 10.957ZM46.2185 12.397L46.0631 12.523C46.5257 13.0935 46.8742 13.7582 47.1072 14.5195L47.2985 14.461L47.4897 14.4025C47.2428 13.5958 46.8712 12.8845 46.3738 12.271L46.2185 12.397ZM47.2985 14.461L47.1072 14.5195C47.341 15.2832 47.4585 16.0954 47.4585 16.957H47.6585H47.8585C47.8585 16.0586 47.7359 15.2068 47.4897 14.4025L47.2985 14.461ZM47.6585 16.957H47.4585C47.4585 17.8186 47.341 18.6308 47.1072 19.3945L47.2985 19.453L47.4897 19.5115C47.7359 18.7072 47.8585 17.8554 47.8585 16.957H47.6585ZM47.2985 19.453L47.1062 19.3981C46.889 20.158 46.549 20.8214 46.0871 21.391L46.2425 21.517L46.3978 21.643C46.896 21.0286 47.2599 20.316 47.4908 19.5079L47.2985 19.453ZM46.2425 21.517L46.0867 21.3915C45.6433 21.942 45.0763 22.3797 44.3819 22.7038L44.4665 22.885L44.551 23.0662C45.2966 22.7183 45.9137 22.244 46.3982 21.6425L46.2425 21.517ZM44.4665 22.885L44.3803 22.7045C43.7083 23.0252 42.9148 23.189 41.9945 23.189V23.389V23.589C42.9621 23.589 43.8167 23.4167 44.5526 23.0655L44.4665 22.885ZM41.9945 23.389V23.189C41.704 23.189 41.3713 23.1584 40.9953 23.0957L40.9625 23.293L40.9296 23.4903C41.3216 23.5556 41.6769 23.589 41.9945 23.589V23.389ZM40.9625 23.293L40.9967 23.096C40.6427 23.0344 40.2876 22.9342 39.9314 22.7948L39.8585 22.981L39.7856 23.1672C40.1653 23.3158 40.5463 23.4236 40.9282 23.49L40.9625 23.293ZM39.8585 22.981L39.9314 22.7948C39.5794 22.657 39.2419 22.4731 38.9187 22.2423L38.8025 22.405L38.6862 22.5677C39.035 22.8169 39.4015 23.017 39.7856 23.1672L39.8585 22.981ZM38.8025 22.405L38.9274 22.2488C38.6266 22.0081 38.3698 21.7141 38.1573 21.365L37.9865 21.469L37.8156 21.573C38.0511 21.9599 38.3384 22.2899 38.6775 22.5612L38.8025 22.405ZM37.9865 21.469V21.269H37.9385V21.469V21.669H37.9865V21.469ZM37.9385 21.469H37.7385V23.125H37.9385H38.1385V21.469H37.9385ZM37.9385 23.125V22.925H35.8985V23.125V23.325H37.9385V23.125ZM35.8985 23.125H36.0985V5.989H35.8985H35.6985V23.125H35.8985ZM45.4985 16.813H45.6985C45.6985 16.2182 45.6158 15.6392 45.4503 15.0766L45.2585 15.133L45.0666 15.1894C45.2211 15.7148 45.2985 16.2558 45.2985 16.813H45.4985ZM45.2585 15.133L45.4522 15.0832C45.3022 14.5001 45.0597 13.9802 44.7232 13.526L44.5625 13.645L44.4018 13.764C44.7053 14.1738 44.9267 14.6459 45.0648 15.1828L45.2585 15.133ZM44.5625 13.645L44.726 13.5299C44.4024 13.07 43.9772 12.7052 43.4542 12.4353L43.3625 12.613L43.2707 12.7907C43.7398 13.0328 44.1145 13.356 44.3989 13.7601L44.5625 13.645ZM43.3625 12.613L43.4566 12.4365C42.9422 12.1622 42.3406 12.029 41.6585 12.029V12.229V12.429C42.2884 12.429 42.8227 12.5518 43.2684 12.7895L43.3625 12.613ZM41.6585 12.229V12.029C40.9443 12.029 40.3245 12.1702 39.8079 12.463L39.9065 12.637L40.0051 12.811C40.4484 12.5598 40.9966 12.429 41.6585 12.429V12.229ZM39.9065 12.637L39.8079 12.463C39.3017 12.7499 38.8866 13.1308 38.565 13.6047L38.7305 13.717L38.896 13.8293C39.1824 13.4072 39.5513 13.0681 40.0051 12.811L39.9065 12.637ZM38.7305 13.717L38.5669 13.6019C38.2477 14.0555 38.0142 14.574 37.8648 15.1552L38.0585 15.205L38.2522 15.2548C38.3907 14.716 38.6052 14.2425 38.894 13.8321L38.7305 13.717ZM38.0585 15.205L37.8635 15.1604C37.7321 15.7351 37.6665 16.318 37.6665 16.909H37.8665H38.0665C38.0665 16.348 38.1288 15.7949 38.2534 15.2496L38.0585 15.205ZM37.8665 16.909H37.6665C37.6665 17.533 37.7404 18.1413 37.8884 18.7335L38.0825 18.685L38.2765 18.6365C38.1366 18.0767 38.0665 17.501 38.0665 16.909H37.8665ZM38.0825 18.685L37.8888 18.7348C38.0382 19.316 38.2717 19.8345 38.5909 20.2881L38.7545 20.173L38.918 20.0579C38.6292 19.6475 38.4147 19.174 38.2762 18.6352L38.0825 18.685ZM38.7545 20.173L38.5938 20.292C38.9319 20.7485 39.3623 21.1192 39.8823 21.4044L39.9785 21.229L40.0746 21.0536C39.6026 20.7948 39.2171 20.4615 38.9152 20.054L38.7545 20.173ZM39.9785 21.229L39.8867 21.4067C40.4175 21.6807 41.0507 21.813 41.7785 21.813V21.613V21.413C41.0982 21.413 40.5314 21.2893 40.0702 21.0513L39.9785 21.229ZM41.7785 21.613V21.813C42.5073 21.813 43.1289 21.6723 43.6316 21.3775L43.5305 21.205L43.4293 21.0325C43.0041 21.2817 42.4576 21.413 41.7785 21.413V21.613ZM43.5305 21.205L43.6291 21.379C44.1362 21.0916 44.5445 20.7094 44.8507 20.2332L44.6825 20.125L44.5142 20.0168C44.2444 20.4366 43.8847 20.7744 43.4319 21.031L43.5305 21.205ZM44.6825 20.125L44.8507 20.2332C45.1528 19.7633 45.3691 19.2289 45.5017 18.6324L45.3065 18.589L45.1112 18.5456C44.9878 19.1011 44.7882 19.5907 44.5142 20.0168L44.6825 20.125ZM45.3065 18.589L45.5017 18.6324C45.633 18.0417 45.6985 17.4351 45.6985 16.813H45.4985H45.2985C45.2985 17.4069 45.236 17.9843 45.1112 18.5456L45.3065 18.589ZM51.493 8.485V8.685H51.693V8.485H51.493ZM49.453 8.485H49.253V8.685H49.453V8.485ZM49.453 5.989V5.789H49.253V5.989H49.453ZM51.493 5.989H51.693V5.789H51.493V5.989ZM49.453 10.717V10.517H49.253V10.717H49.453ZM51.493 10.717H51.693V10.517H51.493V10.717ZM51.493 23.125V23.325H51.693V23.125H51.493ZM49.453 23.125H49.253V23.325H49.453V23.125ZM51.493 8.485V8.285H49.453V8.485V8.685H51.493V8.485ZM49.453 8.485H49.653V5.989H49.453H49.253V8.485H49.453ZM49.453 5.989V6.189H51.493V5.989V5.789H49.453V5.989ZM51.493 5.989H51.293V8.485H51.493H51.693V5.989H51.493ZM49.453 10.717V10.917H51.493V10.717V10.517H49.453V10.717ZM51.493 10.717H51.293V23.125H51.493H51.693V10.717H51.493ZM51.493 23.125V22.925H49.453V23.125V23.325H51.493V23.125ZM49.453 23.125H49.653V10.717H49.453H49.253V23.125H49.453ZM56.7653 10.717H56.5653V10.917H56.7653V10.717ZM59.2373 10.717H59.4373V10.517H59.2373V10.717ZM59.2373 12.517V12.717H59.4373V12.517H59.2373ZM56.7653 12.517V12.317H56.5653V12.517H56.7653ZM56.8133 20.797L56.6181 20.8404L56.6203 20.8505L56.6236 20.8602L56.8133 20.797ZM57.5093 21.301L57.4765 21.4983L57.4852 21.4997L57.494 21.5004L57.5093 21.301ZM59.2373 21.325H59.4373V21.125H59.2373V21.325ZM59.2373 23.125V23.325H59.4373V23.125H59.2373ZM56.3093 23.029L56.2668 23.2247L56.2765 23.2263L56.3093 23.029ZM55.3973 22.621L55.2671 22.7729L55.2724 22.7772L55.3973 22.621ZM54.8933 21.805L54.7028 21.8656L54.8933 21.805ZM54.7253 12.517H54.9253V12.317H54.7253V12.517ZM52.6133 12.517H52.4133V12.717H52.6133V12.517ZM52.6133 10.717V10.517H52.4133V10.717H52.6133ZM54.7253 10.717V10.917H54.9253V10.717H54.7253ZM54.7253 6.997V6.797H54.5253V6.997H54.7253ZM56.7653 6.997H56.9653V6.797H56.7653V6.997ZM56.7653 10.717V10.917H59.2373V10.717V10.517H56.7653V10.717ZM59.2373 10.717H59.0373V12.517H59.2373H59.4373V10.717H59.2373ZM59.2373 12.517V12.317H56.7653V12.517V12.717H59.2373V12.517ZM56.7653 12.517H56.5653V20.221H56.7653H56.9653V12.517H56.7653ZM56.7653 20.221H56.5653C56.5653 20.4677 56.5816 20.6761 56.6181 20.8404L56.8133 20.797L57.0086 20.7536C56.9811 20.6299 56.9653 20.4543 56.9653 20.221H56.7653ZM56.8133 20.797L56.6236 20.8602C56.6835 21.04 56.7872 21.1887 56.9371 21.2957L57.0533 21.133L57.1696 20.9703C57.0955 20.9173 57.0392 20.842 57.0031 20.7338L56.8133 20.797ZM57.0533 21.133L56.9371 21.2957C57.082 21.3992 57.266 21.4632 57.4765 21.4983L57.5093 21.301L57.5422 21.1037C57.3686 21.0748 57.2487 21.0268 57.1696 20.9703L57.0533 21.133ZM57.5093 21.301L57.494 21.5004C57.709 21.517 57.9786 21.525 58.3013 21.525V21.325V21.125C57.9841 21.125 57.7257 21.117 57.5247 21.1016L57.5093 21.301ZM58.3013 21.325V21.525H59.2373V21.325V21.125H58.3013V21.325ZM59.2373 21.325H59.0373V23.125H59.2373H59.4373V21.325H59.2373ZM59.2373 23.125V22.925H57.6773V23.125V23.325H59.2373V23.125ZM57.6773 23.125V22.925C57.1568 22.925 56.7123 22.8934 56.3422 22.8317L56.3093 23.029L56.2765 23.2263C56.6744 23.2926 57.1419 23.325 57.6773 23.325V23.125ZM56.3093 23.029L56.3518 22.8336C56.0073 22.7587 55.7334 22.6337 55.5223 22.4648L55.3973 22.621L55.2724 22.7772C55.5413 22.9923 55.8754 23.1393 56.2669 23.2244L56.3093 23.029ZM55.3973 22.621L55.5275 22.4691C55.3381 22.3068 55.1875 22.0698 55.0839 21.7444L54.8933 21.805L54.7028 21.8656C54.8232 22.2442 55.0086 22.5512 55.2672 22.7729L55.3973 22.621ZM54.8933 21.805L55.0839 21.7444C54.9806 21.4197 54.9253 20.9786 54.9253 20.413H54.7253H54.5253C54.5253 20.9994 54.582 21.4863 54.7028 21.8656L54.8933 21.805ZM54.7253 20.413H54.9253V12.517H54.7253H54.5253V20.413H54.7253ZM54.7253 12.517V12.317H52.6133V12.517V12.717H54.7253V12.517ZM52.6133 12.517H52.8133V10.717H52.6133H52.4133V12.517H52.6133ZM52.6133 10.717V10.917H54.7253V10.717V10.517H52.6133V10.717ZM54.7253 10.717H54.9253V6.997H54.7253H54.5253V10.717H54.7253ZM54.7253 6.997V7.197H56.7653V6.997V6.797H54.7253V6.997ZM56.7653 6.997H56.5653V10.717H56.7653H56.9653V6.997H56.7653ZM76.9913 11.005L76.7924 11.0257L76.8111 11.205H76.9913V11.005ZM75.6473 8.341L75.5279 8.50145L75.5317 8.5042L75.6473 8.341ZM71.3273 7.645L71.3679 7.84085L71.3273 7.645ZM70.0793 8.125L69.9753 7.95413L69.972 7.95627L70.0793 8.125ZM69.2153 9.037L69.0426 8.93622L69.0412 8.93859L69.2153 9.037ZM69.3593 11.725L69.2109 11.8593L69.2179 11.8664L69.3593 11.725ZM70.6073 12.517L70.5321 12.7023L70.534 12.7031L70.6073 12.517ZM72.3833 13.045L72.3405 13.2404L72.345 13.2413L72.3833 13.045ZM74.3753 13.477L74.329 13.6716L74.33 13.6718L74.3753 13.477ZM76.3913 14.053L76.3267 14.2423L76.3309 14.2436L76.3913 14.053ZM78.1433 14.917L78.0266 15.0794L78.029 15.0811L78.1433 14.917ZM79.3913 16.309L79.2155 16.4044L79.2177 16.4082L79.3913 16.309ZM79.2473 20.773L79.0784 20.6659L79.0777 20.667L79.2473 20.773ZM77.6873 22.357L77.7934 22.5266L77.7963 22.5247L77.6873 22.357ZM75.5273 23.221L75.4844 23.0256L75.4798 23.0267L75.5273 23.221ZM70.4393 23.149L70.3849 23.3414L70.3858 23.3417L70.4393 23.149ZM68.1833 22.069L68.0608 22.2271L68.0652 22.2304L68.1833 22.069ZM66.6473 20.197L66.4669 20.2835L66.4692 20.288L66.6473 20.197ZM66.0953 17.485V17.285H65.8953V17.485H66.0953ZM68.2553 17.485H68.4553V17.285H68.2553V17.485ZM68.6633 19.357L68.4854 19.4487L68.489 19.4551L68.6633 19.357ZM69.7673 20.629L69.6473 20.789L69.65 20.791L69.7673 20.629ZM71.3753 21.373L71.3244 21.5664L71.3753 21.373ZM74.7833 21.469L74.7476 21.2722L74.7465 21.2724L74.7833 21.469ZM76.1993 20.989L76.2942 21.1652L76.2993 21.1622L76.1993 20.989ZM77.2073 20.029L77.0389 19.9212L77.2073 20.029ZM77.1113 17.053L76.9571 17.1804L76.9604 17.1842L77.1113 17.053ZM75.8633 16.165L75.7784 16.3462L75.7852 16.3491L75.8633 16.165ZM72.0953 15.157L72.049 15.3516L72.0544 15.3528L72.0953 15.157ZM70.1033 14.629L70.0429 14.8197L70.0472 14.8209L70.1033 14.629ZM68.3273 13.837L68.2175 14.0043L68.2237 14.008L68.3273 13.837ZM67.0793 12.565L66.9059 12.6649L66.9097 12.671L67.0793 12.565ZM67.1513 8.365L67.3255 8.46327L67.3266 8.46138L67.1513 8.365ZM68.5433 6.805L68.6574 6.96928L68.6583 6.96864L68.5433 6.805ZM70.5353 5.893L70.5858 6.08654L70.5887 6.08576L70.5353 5.893ZM75.2873 5.893L75.3407 5.70024L75.2873 5.893ZM77.2553 6.877L77.1304 7.03319L77.1326 7.03487L77.2553 6.877ZM78.5993 8.581L78.4179 8.66538L78.4205 8.67044L78.5993 8.581ZM79.1513 11.005V11.205H79.3582L79.3512 10.9982L79.1513 11.005ZM76.9913 11.005L77.1903 10.9843C77.0583 9.71424 76.5917 8.76482 75.7629 8.17779L75.6473 8.341L75.5317 8.5042C76.239 9.00517 76.6684 9.83176 76.7924 11.0257L76.9913 11.005ZM75.6473 8.341L75.7668 8.18059C74.9721 7.5888 73.959 7.301 72.7433 7.301V7.501V7.701C73.8957 7.701 74.8186 7.97319 75.5279 8.50141L75.6473 8.341ZM72.7433 7.501V7.301C72.2499 7.301 71.7643 7.35035 71.2868 7.44915L71.3273 7.645L71.3679 7.84085C71.8184 7.74765 72.2768 7.701 72.7433 7.701V7.501ZM71.3273 7.645L71.2868 7.44915C70.8026 7.54933 70.3648 7.71712 69.9754 7.95416L70.0793 8.125L70.1833 8.29584C70.5299 8.08488 70.9241 7.93267 71.3679 7.84085L71.3273 7.645ZM70.0793 8.125L69.972 7.95627C69.5913 8.1985 69.2816 8.52654 69.0426 8.93623L69.2153 9.037L69.3881 9.13777C69.5971 8.77946 69.8634 8.4995 70.1867 8.29373L70.0793 8.125ZM69.2153 9.037L69.0412 8.93859C68.8116 9.34481 68.7033 9.84535 68.7033 10.429H68.9033H69.1033C69.1033 9.89265 69.2031 9.46519 69.3895 9.13541L69.2153 9.037ZM68.9033 10.429H68.7033C68.7033 10.9979 68.8683 11.4804 69.211 11.8592L69.3593 11.725L69.5077 11.5908C69.2423 11.2976 69.1033 10.9161 69.1033 10.429H68.9033ZM69.3593 11.725L69.2179 11.8664C69.5605 12.209 70.0006 12.4864 70.5321 12.7023L70.6073 12.517L70.6826 12.3317C70.19 12.1316 69.7982 11.881 69.5008 11.5836L69.3593 11.725ZM70.6073 12.517L70.534 12.7031C71.0735 12.9156 71.6759 13.0945 72.3405 13.2403L72.3833 13.045L72.4262 12.8497C71.7788 12.7075 71.1972 12.5344 70.6806 12.3309L70.6073 12.517ZM72.3833 13.045L72.345 13.2413C72.9983 13.3688 73.6596 13.5122 74.329 13.6716L74.3753 13.477L74.4217 13.2824C73.7471 13.1218 73.0804 12.9772 72.4216 12.8487L72.3833 13.045ZM74.3753 13.477L74.33 13.6718C75.0116 13.8303 75.6772 14.0205 76.3267 14.2423L76.3913 14.053L76.456 13.8637C75.7935 13.6375 75.1151 13.4437 74.4206 13.2822L74.3753 13.477ZM76.3913 14.053L76.3309 14.2436C76.9686 14.4458 77.5333 14.7248 78.0266 15.0794L78.1433 14.917L78.2601 14.7546C77.7294 14.3732 77.1261 14.0762 76.4518 13.8624L76.3913 14.053ZM78.1433 14.917L78.029 15.0811C78.5317 15.4315 78.9266 15.8721 79.2156 16.4044L79.3913 16.309L79.5671 16.2136C79.2481 15.6259 78.811 15.1385 78.2577 14.7529L78.1433 14.917ZM79.3913 16.309L79.2177 16.4082C79.5158 16.93 79.6713 17.5972 79.6713 18.421H79.8713H80.0713C80.0713 17.5488 79.9069 16.808 79.565 16.2098L79.3913 16.309ZM79.8713 18.421H79.6713C79.6713 19.3018 79.4708 20.0472 79.0784 20.6659L79.2473 20.773L79.4162 20.8801C79.8559 20.1868 80.0713 19.3642 80.0713 18.421H79.8713ZM79.2473 20.773L79.0777 20.667C78.6934 21.282 78.1942 21.789 77.5783 22.1893L77.6873 22.357L77.7963 22.5247C78.4605 22.093 79.0013 21.544 79.4169 20.879L79.2473 20.773ZM77.6873 22.357L77.5813 22.1874C76.9623 22.5743 76.264 22.8542 75.4844 23.0257L75.5273 23.221L75.5703 23.4163C76.3907 23.2358 77.1324 22.9397 77.7933 22.5266L77.6873 22.357ZM75.5273 23.221L75.4798 23.0267C74.7109 23.215 73.9428 23.309 73.1753 23.309V23.509V23.709C73.9758 23.709 74.7758 23.611 75.5749 23.4153L75.5273 23.221ZM73.1753 23.509V23.309C72.2322 23.309 71.3383 23.1911 70.4929 22.9563L70.4393 23.149L70.3858 23.3417C71.2684 23.5869 72.1985 23.709 73.1753 23.709V23.509ZM70.4393 23.149L70.4938 22.9566C69.6668 22.7225 68.9367 22.3724 68.3014 21.9076L68.1833 22.069L68.0652 22.2304C68.742 22.7256 69.5159 23.0955 70.3849 23.3414L70.4393 23.149ZM68.1833 22.069L68.3059 21.9109C67.6901 21.4337 67.1967 20.833 66.8255 20.106L66.6473 20.197L66.4692 20.288C66.866 21.065 67.3966 21.7123 68.0608 22.2271L68.1833 22.069ZM66.6473 20.197L66.8277 20.1106C66.4752 19.3749 66.2953 18.5016 66.2953 17.485H66.0953H65.8953C65.8953 18.5484 66.0835 19.4831 66.467 20.2834L66.6473 20.197ZM66.0953 17.485V17.685H68.2553V17.485V17.285H66.0953V17.485ZM68.2553 17.485H68.0553C68.0553 18.2302 68.1962 18.8869 68.4855 19.4486L68.6633 19.357L68.8411 19.2654C68.5865 18.7711 68.4553 18.1798 68.4553 17.485H68.2553ZM68.6633 19.357L68.489 19.4551C68.79 19.99 69.176 20.4355 69.6473 20.789L69.7673 20.629L69.8873 20.469C69.4626 20.1505 69.1127 19.748 68.8377 19.2589L68.6633 19.357ZM69.7673 20.629L69.65 20.791C70.1359 21.1428 70.6949 21.4007 71.3244 21.5664L71.3753 21.373L71.4262 21.1796C70.8398 21.0253 70.3268 20.7872 69.8846 20.467L69.7673 20.629ZM71.3753 21.373L71.3244 21.5664C71.9494 21.7309 72.5905 21.813 73.2473 21.813V21.613V21.413C72.6242 21.413 72.0173 21.3351 71.4262 21.1796L71.3753 21.373ZM73.2473 21.613V21.813C73.7719 21.813 74.2963 21.7638 74.8202 21.6656L74.7833 21.469L74.7465 21.2724C74.2464 21.3662 73.7468 21.413 73.2473 21.413V21.613ZM74.7833 21.469L74.8191 21.6658C75.365 21.5665 75.8574 21.4003 76.2942 21.1651L76.1993 20.989L76.1045 20.8129C75.7093 21.0257 75.2577 21.1795 74.7476 21.2722L74.7833 21.469ZM76.1993 20.989L76.2993 21.1622C76.7427 20.9064 77.1023 20.5641 77.3758 20.1368L77.2073 20.029L77.0389 19.9212C76.8004 20.2939 76.488 20.5916 76.0994 20.8158L76.1993 20.989ZM77.2073 20.029L77.3758 20.1368C77.6579 19.696 77.7913 19.1434 77.7913 18.493H77.5913H77.3913C77.3913 19.0906 77.2688 19.562 77.0389 19.9212L77.2073 20.029ZM77.5913 18.493H77.7913C77.7913 17.8635 77.6203 17.3335 77.2623 16.9218L77.1113 17.053L76.9604 17.1842C77.2424 17.5085 77.3913 17.9385 77.3913 18.493H77.5913ZM77.1113 17.053L77.2655 16.9256C76.9374 16.5284 76.4931 16.2149 75.9415 15.9809L75.8633 16.165L75.7852 16.3491C76.2896 16.5631 76.6773 16.8416 76.9572 17.1804L77.1113 17.053ZM75.8633 16.165L75.9482 15.9839C75.4206 15.7366 74.8221 15.5403 74.1542 15.3937L74.1113 15.589L74.0685 15.7843C74.7126 15.9257 75.2821 16.1134 75.7785 16.3461L75.8633 16.165ZM74.1113 15.589L74.1542 15.3937C73.4976 15.2495 72.8249 15.1054 72.1363 14.9612L72.0953 15.157L72.0544 15.3528C72.7418 15.4966 73.4131 15.6405 74.0685 15.7843L74.1113 15.589ZM72.0953 15.157L72.1417 14.9624C71.4729 14.8032 70.8122 14.6281 70.1595 14.4371L70.1033 14.629L70.0472 14.8209C70.7065 15.0139 71.3737 15.1908 72.049 15.3516L72.0953 15.157ZM70.1033 14.629L70.1638 14.4384C69.5212 14.2346 68.944 13.9769 68.431 13.666L68.3273 13.837L68.2237 14.008C68.7667 14.3371 69.3735 14.6074 70.0429 14.8196L70.1033 14.629ZM68.3273 13.837L68.4371 13.6698C67.9489 13.3494 67.5534 12.9462 67.2489 12.459L67.0793 12.565L66.9097 12.671C67.2453 13.2078 67.6818 13.6526 68.2176 14.0042L68.3273 13.837ZM67.0793 12.565L67.2527 12.4652C66.9705 11.9751 66.8233 11.3558 66.8233 10.597H66.6233H66.4233C66.4233 11.4062 66.5802 12.0989 66.906 12.6648L67.0793 12.565ZM66.6233 10.597H66.8233C66.8233 9.76036 66.9936 9.05166 67.3255 8.46326L67.1513 8.365L66.9771 8.26674C66.6051 8.92633 66.4233 9.70564 66.4233 10.597H66.6233ZM67.1513 8.365L67.3266 8.46138C67.6643 7.84727 68.1078 7.35093 68.6574 6.96927L68.5433 6.805L68.4293 6.64073C67.8269 7.05907 67.3423 7.60273 66.9761 8.26862L67.1513 8.365ZM68.5433 6.805L68.6583 6.96864C69.2298 6.56707 69.8717 6.27281 70.5858 6.08652L70.5353 5.893L70.4849 5.69948C69.7269 5.89719 69.0409 6.21093 68.4284 6.64136L68.5433 6.805ZM70.5353 5.893L70.5887 6.08576C71.3232 5.88259 72.0733 5.781 72.8393 5.781V5.581V5.381C72.0374 5.381 71.2515 5.48741 70.482 5.70024L70.5353 5.893ZM72.8393 5.581V5.781C73.7036 5.781 74.5014 5.88313 75.234 6.08576L75.2873 5.893L75.3407 5.70024C74.5692 5.48687 73.7351 5.381 72.8393 5.381V5.581ZM75.2873 5.893L75.234 6.08576C75.9622 6.28718 76.5934 6.60353 77.1304 7.03317L77.2553 6.877L77.3803 6.72083C76.7973 6.25447 76.1164 5.91482 75.3407 5.70024L75.2873 5.893ZM77.2553 6.877L77.1326 7.03487C77.6825 7.46257 78.1108 8.00497 78.418 8.66535L78.5993 8.581L78.7807 8.49665C78.4478 7.78103 77.9802 7.18742 77.3781 6.71913L77.2553 6.877ZM78.5993 8.581L78.4205 8.67044C78.7407 9.31099 78.9202 10.0894 78.9515 11.0118L79.1513 11.005L79.3512 10.9982C79.3185 10.0326 79.13 9.19501 78.7782 8.49156L78.5993 8.581ZM79.1513 11.005V10.805H76.9913V11.005V11.205H79.1513V11.005ZM83.3618 18.949L83.1715 19.0107L83.1737 19.0169L83.3618 18.949ZM84.2018 20.413L84.0517 20.5452L84.0544 20.5481L84.2018 20.413ZM85.4258 21.301L85.344 21.4835L85.3463 21.4845L85.4258 21.301ZM88.4258 21.301L88.3463 21.1175L88.344 21.1185L88.4258 21.301ZM89.6738 20.413L89.8213 20.5482L89.824 20.5451L89.6738 20.413ZM90.4898 18.949L90.3011 18.8827L90.3001 18.8858L90.4898 18.949ZM90.4898 14.941L90.2995 15.0027L90.3017 15.0089L90.4898 14.941ZM89.6738 13.453L89.824 13.3209L89.6738 13.453ZM88.4258 12.541L88.344 12.7235L88.3463 12.7245L88.4258 12.541ZM85.4258 12.541L85.3463 12.3575L85.344 12.3585L85.4258 12.541ZM83.3618 14.941L83.1731 14.8747L83.1721 14.8778L83.3618 14.941ZM81.2978 14.389L81.488 14.4511L81.4883 14.45L81.2978 14.389ZM82.4498 12.325L82.5993 12.4579L82.6011 12.4558L82.4498 12.325ZM84.3458 10.933L84.4274 11.1156L84.3458 10.933ZM89.5298 10.933L89.4468 11.1149L89.4483 11.1156L89.5298 10.933ZM91.4258 12.325L91.2746 12.4558L91.2764 12.4579L91.4258 12.325ZM92.5778 14.389L92.3874 14.45L92.3877 14.4511L92.5778 14.389ZM92.5778 19.477L92.3877 19.4149L92.5778 19.477ZM91.4258 21.541L91.5753 21.6739L91.5771 21.6718L91.4258 21.541ZM89.5298 22.909L89.6096 23.0924L89.6114 23.0916L89.5298 22.909ZM84.3458 22.909L84.2642 23.0916L84.2675 23.093L84.3458 22.909ZM82.4498 21.541L82.2986 21.6718L82.3004 21.6739L82.4498 21.541ZM81.2978 19.477L81.1077 19.5391L81.2978 19.477ZM83.0738 16.933H82.8738C82.8738 17.7017 82.972 18.3951 83.1716 19.0107L83.3618 18.949L83.5521 18.8873C83.3677 18.3189 83.2738 17.6683 83.2738 16.933H83.0738ZM83.3618 18.949L83.1737 19.0169C83.389 19.613 83.6808 20.1237 84.0517 20.5451L84.2018 20.413L84.352 20.2809C84.0188 19.9023 83.7507 19.437 83.55 18.8811L83.3618 18.949ZM84.2018 20.413L84.0544 20.5481C84.4244 20.9517 84.8545 21.2641 85.344 21.4835L85.4258 21.301L85.5077 21.1185C85.0691 20.9219 84.6833 20.6423 84.3493 20.2779L84.2018 20.413ZM85.4258 21.301L85.3463 21.4845C85.8517 21.7035 86.3828 21.813 86.9378 21.813V21.613V21.413C86.4369 21.413 85.96 21.3145 85.5054 21.1175L85.4258 21.301ZM86.9378 21.613V21.813C87.4929 21.813 88.0169 21.7035 88.5077 21.4835L88.4258 21.301L88.344 21.1185C87.9068 21.3145 87.4388 21.413 86.9378 21.413V21.613ZM88.4258 21.301L88.5054 21.4845C89.011 21.2654 89.4502 20.9529 89.8213 20.5481L89.6738 20.413L89.5264 20.2779C89.1935 20.6411 88.8007 20.9206 88.3463 21.1175L88.4258 21.301ZM89.6738 20.413L89.824 20.5451C90.196 20.1224 90.4803 19.6101 90.6796 19.0122L90.4898 18.949L90.3001 18.8858C90.1154 19.4399 89.8557 19.9036 89.5237 20.2809L89.6738 20.413ZM90.4898 18.949L90.6785 19.0153C90.8953 18.3982 91.0018 17.7032 91.0018 16.933H90.8018H90.6018C90.6018 17.6668 90.5004 18.3158 90.3012 18.8827L90.4898 18.949ZM90.8018 16.933H91.0018C91.0018 16.1629 90.8954 15.4752 90.678 14.8731L90.4898 14.941L90.3017 15.0089C90.5003 15.5588 90.6018 16.1991 90.6018 16.933H90.8018ZM90.4898 14.941L90.6801 14.8793C90.4811 14.2656 90.1968 13.7445 89.824 13.3209L89.6738 13.453L89.5237 13.5851C89.8549 13.9615 90.1146 14.4324 90.2996 15.0027L90.4898 14.941ZM89.6738 13.453L89.824 13.3209C89.4529 12.8992 89.0129 12.5774 88.5054 12.3575L88.4258 12.541L88.3463 12.7245C88.7988 12.9206 89.1908 13.2068 89.5237 13.5851L89.6738 13.453ZM88.4258 12.541L88.5077 12.3585C88.0169 12.1385 87.4929 12.029 86.9378 12.029V12.229V12.429C87.4388 12.429 87.9068 12.5275 88.344 12.7235L88.4258 12.541ZM86.9378 12.229V12.029C86.3828 12.029 85.8517 12.1385 85.3463 12.3575L85.4258 12.541L85.5054 12.7245C85.96 12.5275 86.4369 12.429 86.9378 12.429V12.229ZM85.4258 12.541L85.344 12.3585C84.8527 12.5788 84.4217 12.9004 84.0517 13.3209L84.2018 13.453L84.352 13.5851C84.686 13.2056 85.071 12.9192 85.5077 12.7235L85.4258 12.541ZM84.2018 13.453L84.0517 13.3209C83.68 13.7432 83.3882 14.2627 83.1731 14.8747L83.3618 14.941L83.5505 15.0073C83.7515 14.4353 84.0197 13.9628 84.352 13.5851L84.2018 13.453ZM83.3618 14.941L83.1721 14.8778C82.9719 15.4783 82.8738 16.1644 82.8738 16.933H83.0738H83.2738C83.2738 16.1976 83.3678 15.5557 83.5516 15.0042L83.3618 14.941ZM80.9138 16.933H81.1138C81.1138 16.0399 81.2392 15.213 81.488 14.4511L81.2978 14.389L81.1077 14.3269C80.8445 15.133 80.7138 16.0021 80.7138 16.933H80.9138ZM81.2978 14.389L81.4883 14.45C81.7366 13.6741 82.1075 13.0112 82.5993 12.4579L82.4498 12.325L82.3004 12.1921C81.7682 12.7908 81.3711 13.5039 81.1074 14.328L81.2978 14.389ZM82.4498 12.325L82.6011 12.4558C83.093 11.8871 83.7007 11.4403 84.4274 11.1156L84.3458 10.933L84.2643 10.7504C83.4869 11.0977 82.8307 11.5789 82.2986 12.1942L82.4498 12.325ZM84.3458 10.933L84.4274 11.1156C85.1495 10.793 85.9848 10.629 86.9378 10.629V10.429V10.229C85.9389 10.229 85.0462 10.401 84.2643 10.7504L84.3458 10.933ZM86.9378 10.429V10.629C87.9075 10.629 88.7421 10.7932 89.4468 11.1149L89.5298 10.933L89.6129 10.7511C88.8456 10.4008 87.9522 10.229 86.9378 10.229V10.429ZM89.5298 10.933L89.4483 11.1156C90.1749 11.4403 90.7827 11.8871 91.2746 12.4558L91.4258 12.325L91.5771 12.1942C91.045 11.5789 90.3887 11.0977 89.6114 10.7504L89.5298 10.933ZM91.4258 12.325L91.2764 12.4579C91.7682 13.0112 92.1391 13.6741 92.3874 14.45L92.5778 14.389L92.7683 14.328C92.5046 13.5039 92.1075 12.7908 91.5753 12.1921L91.4258 12.325ZM92.5778 14.389L92.3877 14.4511C92.6365 15.213 92.7618 16.0399 92.7618 16.933H92.9618H93.1618C93.1618 16.0021 93.0312 15.133 92.768 14.3269L92.5778 14.389ZM92.9618 16.933H92.7618C92.7618 17.8261 92.6365 18.653 92.3877 19.4149L92.5778 19.477L92.768 19.5391C93.0312 18.733 93.1618 17.8639 93.1618 16.933H92.9618ZM92.5778 19.477L92.3877 19.4149C92.1395 20.175 91.7683 20.8393 91.2746 21.4102L91.4258 21.541L91.5771 21.6718C92.1074 21.0587 92.5042 20.347 92.768 19.5391L92.5778 19.477ZM91.4258 21.541L91.2764 21.4081C90.7845 21.9615 90.1762 22.4012 89.4483 22.7264L89.5298 22.909L89.6114 23.0916C90.3875 22.7448 91.0432 22.2725 91.5753 21.6739L91.4258 21.541ZM89.5298 22.909L89.4501 22.7256C88.7445 23.0324 87.9087 23.189 86.9378 23.189V23.389V23.589C87.951 23.589 88.8432 23.4256 89.6096 23.0924L89.5298 22.909ZM86.9378 23.389V23.189C85.9836 23.189 85.1471 23.0326 84.4242 22.725L84.3458 22.909L84.2675 23.093C85.0486 23.4254 85.9401 23.589 86.9378 23.589V23.389ZM84.3458 22.909L84.4274 22.7264C83.6995 22.4012 83.0912 21.9615 82.5993 21.4081L82.4498 21.541L82.3004 21.6739C82.8325 22.2725 83.4882 22.7448 84.2643 23.0916L84.3458 22.909ZM82.4498 21.541L82.6011 21.4102C82.1074 20.8393 81.7362 20.175 81.488 19.4149L81.2978 19.477L81.1077 19.5391C81.3715 20.347 81.7683 21.0587 82.2986 21.6718L82.4498 21.541ZM81.2978 19.477L81.488 19.4149C81.2392 18.653 81.1138 17.8261 81.1138 16.933H80.9138H80.7138C80.7138 17.8639 80.8445 18.733 81.1077 19.5391L81.2978 19.477ZM95.4871 12.517H95.6871V12.317H95.4871V12.517ZM93.3991 12.517H93.1991V12.717H93.3991V12.517ZM93.3991 10.717V10.517H93.1991V10.717H93.3991ZM95.4871 10.717V10.917H95.6871V10.717H95.4871ZM96.3511 6.589L96.484 6.73848L96.4842 6.73826L96.3511 6.589ZM99.5671 5.845L99.5407 6.04325L99.5423 6.04346L99.5671 5.845ZM100.239 5.989H100.439V5.84485L100.302 5.79926L100.239 5.989ZM100.239 7.765L100.171 7.95296L100.439 8.05054V7.765H100.239ZM99.6631 7.645L99.6327 7.84267L99.6402 7.84383L99.6478 7.84441L99.6631 7.645ZM97.9351 7.885L97.8198 7.7216V7.72161L97.9351 7.885ZM97.5271 10.717H97.3271V10.917H97.5271V10.717ZM99.9271 10.717H100.127V10.517H99.9271V10.717ZM99.9271 12.517V12.717H100.127V12.517H99.9271ZM97.5271 12.517V12.317H97.3271V12.517H97.5271ZM97.5271 23.125V23.325H97.7271V23.125H97.5271ZM95.4871 23.125H95.2871V23.325H95.4871V23.125ZM95.4871 12.517V12.317H93.3991V12.517V12.717H95.4871V12.517ZM93.3991 12.517H93.5991V10.717H93.3991H93.1991V12.517H93.3991ZM93.3991 10.717V10.917H95.4871V10.717V10.517H93.3991V10.717ZM95.4871 10.717H95.6871V8.869H95.4871H95.2871V10.717H95.4871ZM95.4871 8.869H95.6871C95.6871 7.89948 95.9629 7.20169 96.484 6.73848L96.3511 6.589L96.2182 6.43952C95.5873 7.00031 95.2871 7.82252 95.2871 8.869H95.4871ZM96.3511 6.589L96.4842 6.73826C97.0269 6.25422 97.8281 5.997 98.9191 5.997V5.797V5.597C97.7701 5.597 96.8593 5.86777 96.218 6.43974L96.3511 6.589ZM98.9191 5.797V5.997C99.1003 5.997 99.3073 6.01213 99.5407 6.04324L99.5671 5.845L99.5935 5.64675C99.3469 5.61387 99.1219 5.597 98.9191 5.597V5.797ZM99.5671 5.845L99.5423 6.04346C99.7886 6.07424 99.9992 6.11985 100.176 6.17874L100.239 5.989L100.302 5.79926C100.095 5.73014 99.8576 5.67976 99.5919 5.64654L99.5671 5.845ZM100.239 5.989H100.039V7.765H100.239H100.439V5.989H100.239ZM100.239 7.765L100.307 7.57704C100.113 7.50617 99.9025 7.46282 99.6784 7.44559L99.6631 7.645L99.6478 7.84441C99.8397 7.85917 100.014 7.89582 100.171 7.95296L100.239 7.765ZM99.6631 7.645L99.6935 7.44732C99.4773 7.41407 99.275 7.397 99.0871 7.397V7.597V7.797C99.2512 7.797 99.4329 7.81193 99.6327 7.84267L99.6631 7.645ZM99.0871 7.597V7.397C98.5689 7.397 98.1383 7.49672 97.8198 7.7216L97.9351 7.885L98.0504 8.04839C98.2758 7.88928 98.6133 7.797 99.0871 7.797V7.597ZM97.9351 7.885L97.8198 7.72161C97.4679 7.96995 97.3271 8.42164 97.3271 8.989H97.5271H97.7271C97.7271 8.46836 97.8582 8.18405 98.0504 8.04839L97.9351 7.885ZM97.5271 8.989H97.3271V10.717H97.5271H97.7271V8.989H97.5271ZM97.5271 10.717V10.917H99.9271V10.717V10.517H97.5271V10.717ZM99.9271 10.717H99.7271V12.517H99.9271H100.127V10.717H99.9271ZM99.9271 12.517V12.317H97.5271V12.517V12.717H99.9271V12.517ZM97.5271 12.517H97.3271V23.125H97.5271H97.7271V12.517H97.5271ZM97.5271 23.125V22.925H95.4871V23.125V23.325H97.5271V23.125ZM95.4871 23.125H95.6871V12.517H95.4871H95.2871V23.125H95.4871ZM103.861 10.717H103.661V10.917H103.861V10.717ZM106.333 10.717H106.533V10.517H106.333V10.717ZM106.333 12.517V12.717H106.533V12.517H106.333ZM103.861 12.517V12.317H103.661V12.517H103.861ZM103.909 20.797L103.713 20.8404L103.716 20.8505L103.719 20.8602L103.909 20.797ZM104.605 21.301L104.572 21.4983L104.58 21.4997L104.589 21.5004L104.605 21.301ZM106.333 21.325H106.533V21.125H106.333V21.325ZM106.333 23.125V23.325H106.533V23.125H106.333ZM103.405 23.029L103.362 23.2247L103.372 23.2263L103.405 23.029ZM102.493 22.621L102.362 22.7729L102.368 22.7772L102.493 22.621ZM101.989 21.805L101.798 21.8656L101.989 21.805ZM101.821 12.517H102.021V12.317H101.821V12.517ZM99.7087 12.517H99.5087V12.717H99.7087V12.517ZM99.7087 10.717V10.517H99.5087V10.717H99.7087ZM101.821 10.717V10.917H102.021V10.717H101.821ZM101.821 6.997V6.797H101.621V6.997H101.821ZM103.861 6.997H104.061V6.797H103.861V6.997ZM103.861 10.717V10.917H106.333V10.717V10.517H103.861V10.717ZM106.333 10.717H106.133V12.517H106.333H106.533V10.717H106.333ZM106.333 12.517V12.317H103.861V12.517V12.717H106.333V12.517ZM103.861 12.517H103.661V20.221H103.861H104.061V12.517H103.861ZM103.861 20.221H103.661C103.661 20.4677 103.677 20.6761 103.713 20.8404L103.909 20.797L104.104 20.7536C104.076 20.6299 104.061 20.4543 104.061 20.221H103.861ZM103.909 20.797L103.719 20.8602C103.779 21.04 103.882 21.1887 104.032 21.2957L104.149 21.133L104.265 20.9703C104.191 20.9173 104.134 20.842 104.098 20.7338L103.909 20.797ZM104.149 21.133L104.032 21.2957C104.177 21.3992 104.361 21.4632 104.572 21.4983L104.605 21.301L104.638 21.1037C104.464 21.0748 104.344 21.0268 104.265 20.9703L104.149 21.133ZM104.605 21.301L104.589 21.5004C104.804 21.517 105.074 21.525 105.397 21.525V21.325V21.125C105.079 21.125 104.821 21.117 104.62 21.1016L104.605 21.301ZM105.397 21.325V21.525H106.333V21.325V21.125H105.397V21.325ZM106.333 21.325H106.133V23.125H106.333H106.533V21.325H106.333ZM106.333 23.125V22.925H104.773V23.125V23.325H106.333V23.125ZM104.773 23.125V22.925C104.252 22.925 103.808 22.8934 103.438 22.8317L103.405 23.029L103.372 23.2263C103.77 23.2926 104.237 23.325 104.773 23.325V23.125ZM103.405 23.029L103.447 22.8336C103.103 22.7587 102.829 22.6337 102.618 22.4648L102.493 22.621L102.368 22.7772C102.637 22.9923 102.971 23.1393 103.362 23.2244L103.405 23.029ZM102.493 22.621L102.623 22.4691C102.433 22.3068 102.283 22.0698 102.179 21.7444L101.989 21.805L101.798 21.8656C101.919 22.2442 102.104 22.5512 102.362 22.7729L102.493 22.621ZM101.989 21.805L102.179 21.7444C102.076 21.4197 102.021 20.9786 102.021 20.413H101.821H101.621C101.621 20.9994 101.677 21.4863 101.798 21.8656L101.989 21.805ZM101.821 20.413H102.021V12.517H101.821H101.621V20.413H101.821ZM101.821 12.517V12.317H99.7087V12.517V12.717H101.821V12.517ZM99.7087 12.517H99.9087V10.717H99.7087H99.5087V12.517H99.7087ZM99.7087 10.717V10.917H101.821V10.717V10.517H99.7087V10.717ZM101.821 10.717H102.021V6.997H101.821H101.621V10.717H101.821ZM101.821 6.997V7.197H103.861V6.997V6.797H101.821V6.997ZM103.861 6.997H103.661V10.717H103.861H104.061V6.997H103.861Z" fill="black" mask="url(#path-1-outside-1_271_4060)"/>
</svg>
