<svg width="32" height="32" viewBox="0 0 32 32" fill="none" xmlns="http://www.w3.org/2000/svg">
<path d="M24.9282 10.8594C24.9282 12.9908 23.2428 14.7188 21.1638 14.7188C19.0847 14.7188 17.3993 12.9908 17.3993 10.8594C17.3993 8.7279 19.0847 7 21.1638 7C23.2428 7 24.9282 8.7279 24.9282 10.8594Z" fill="#4C60FF"/>
<path d="M21.1638 15.9062C17.3981 15.9062 14.2781 18.7406 13.7228 22.4419C13.6255 23.0901 14.1535 23.625 14.7932 23.625H27.5344C28.1741 23.625 28.702 23.0901 28.6048 22.4419C28.0494 18.7406 24.9295 15.9062 21.1638 15.9062Z" fill="#4C60FF"/>
<path d="M15.4282 10.8594C15.4282 12.9908 13.7428 14.7188 11.6638 14.7188C9.58473 14.7188 7.89933 12.9908 7.89933 10.8594C7.89933 8.7279 9.58473 7 11.6638 7C13.7428 7 15.4282 8.7279 15.4282 10.8594Z" fill="#4C60FF"/>
<path d="M11.6638 15.9062C7.89808 15.9062 4.7781 18.7406 4.22278 22.4419C4.12553 23.0901 4.65348 23.625 5.29319 23.625H18.0344C18.6741 23.625 19.202 23.0901 19.1048 22.4419C18.5494 18.7406 15.4295 15.9062 11.6638 15.9062Z" fill="#4C60FF"/>
<path d="M20.1782 13.8594C20.1782 15.9908 18.4928 17.7188 16.4138 17.7188C14.3347 17.7188 12.6493 15.9908 12.6493 13.8594C12.6493 11.7279 14.3347 10 16.4138 10C18.4928 10 20.1782 11.7279 20.1782 13.8594Z" fill="#8AA5FF"/>
<path d="M16.4138 18.9062C12.6481 18.9062 9.5281 21.7406 8.97278 25.4419C8.87553 26.0901 9.40348 26.625 10.0432 26.625H22.7844C23.4241 26.625 23.952 26.0901 23.8548 25.4419C23.2994 21.7406 20.1795 18.9062 16.4138 18.9062Z" fill="#8AA5FF"/>
</svg>
