<svg width="32" height="33" viewBox="0 0 32 33" fill="none" xmlns="http://www.w3.org/2000/svg">
<circle cx="16" cy="16.5" r="11" fill="#8AA5FF"/>
<path d="M15.0811 18.316C15.0811 17.1259 15.4057 16.4647 16.2832 15.8036C16.9925 15.2626 17.3771 14.902 17.3771 14.325C17.3771 13.7239 16.9444 13.3513 16.187 13.3513C15.3816 13.3513 14.9489 13.9163 14.9489 14.5293H12.8572C12.8572 12.7983 14.2276 11.5 16.175 11.5C18.2547 11.5 19.4327 12.6901 19.4327 14.325C19.4327 15.2145 19 15.9238 18.2186 16.5248C17.3411 17.21 17.0646 17.6428 17.0646 18.316H15.0811ZM16.139 21.73C15.4057 21.73 14.8647 21.2011 14.8647 20.4678C14.8647 19.7345 15.4057 19.1935 16.139 19.1935C16.8722 19.1935 17.4132 19.7345 17.4132 20.4678C17.4132 21.2011 16.8722 21.73 16.139 21.73Z" fill="white"/>
</svg>
