<svg width="361" height="324" viewBox="0 0 361 324" fill="none" xmlns="http://www.w3.org/2000/svg">
<g clip-path="url(#clip0_383_5255)">
<rect x="0.930176" y="0.75" width="360" height="322.5" rx="20" fill="white"/>
<path d="M25.3534 25.0315H26.7844V34.171H25.3534V25.0315ZM21.5734 25.9765H23.0584C23.0584 27.0565 22.8244 28.042 22.3564 28.933C21.8974 29.815 21.2404 30.5845 20.3854 31.2415C19.5304 31.8895 18.5134 32.4025 17.3344 32.7805L16.7269 31.6465C17.7169 31.3315 18.5719 30.922 19.2919 30.418C20.0209 29.914 20.5834 29.3425 20.9794 28.7035C21.3754 28.0555 21.5734 27.3535 21.5734 26.5975V25.9765ZM17.3614 25.9765H22.4509V27.124H17.3614V25.9765ZM22.4374 27.4885H25.5694V28.636H22.4374V27.4885ZM22.3294 30.256H25.5019V31.4035H22.3294V30.256ZM18.8464 35.9665H27.0814V37.114H18.8464V35.9665ZM18.8464 33.28H20.2774V36.682H18.8464V33.28ZM31.9809 26.2735H33.1419V27.178C33.1419 27.934 33.0024 28.6495 32.7234 29.3245C32.4534 29.9995 32.0619 30.589 31.5489 31.093C31.0359 31.597 30.4149 31.9795 29.6859 32.2405L28.9569 31.12C29.4429 30.949 29.8704 30.7285 30.2394 30.4585C30.6174 30.1885 30.9369 29.878 31.1979 29.527C31.4589 29.167 31.6524 28.789 31.7784 28.393C31.9134 27.988 31.9809 27.583 31.9809 27.178V26.2735ZM32.2644 26.2735H33.4119V27.1645C33.4119 27.6775 33.5244 28.177 33.7494 28.663C33.9744 29.149 34.3029 29.5855 34.7349 29.9725C35.1669 30.3505 35.6934 30.6475 36.3144 30.8635L35.6124 31.9705C34.9014 31.7275 34.2939 31.363 33.7899 30.877C33.2949 30.391 32.9169 29.8285 32.6559 29.1895C32.3949 28.5505 32.2644 27.8755 32.2644 27.1645V26.2735ZM35.6259 28.123H38.1774V29.284H35.6259V28.123ZM29.3754 25.801H35.9769V26.935H29.3754V25.801ZM30.8874 33.01H39.1899V37.3705H37.7724V34.144H30.8874V33.01ZM37.7724 25.0315H39.1899V32.389H37.7724V25.0315ZM44.408 31.2415H55.586V32.3755H44.408V31.2415ZM49.403 31.9435H50.8205V34.684H49.403V31.9435ZM45.8255 25.5715H54.155V30.0265H45.8255V25.5715ZM52.751 26.692H47.2025V28.906H52.751V26.692ZM45.7715 35.9665H54.344V37.114H45.7715V35.9665ZM45.7715 33.5635H47.189V36.358H45.7715V33.5635ZM60.823 25.882C61.471 25.882 62.047 26.008 62.551 26.26C63.055 26.512 63.451 26.863 63.739 27.313C64.027 27.754 64.171 28.267 64.171 28.852C64.171 29.428 64.027 29.941 63.739 30.391C63.451 30.841 63.055 31.192 62.551 31.444C62.047 31.696 61.471 31.822 60.823 31.822C60.184 31.822 59.6125 31.696 59.1085 31.444C58.6045 31.192 58.204 30.841 57.907 30.391C57.619 29.941 57.475 29.428 57.475 28.852C57.475 28.267 57.619 27.754 57.907 27.313C58.204 26.863 58.6045 26.512 59.1085 26.26C59.6125 26.008 60.184 25.882 60.823 25.882ZM60.823 27.1105C60.454 27.1105 60.1165 27.1825 59.8105 27.3265C59.5135 27.4615 59.2795 27.6595 59.1085 27.9205C58.9375 28.1815 58.852 28.492 58.852 28.852C58.852 29.203 58.9375 29.5135 59.1085 29.7835C59.2795 30.0445 59.5135 30.247 59.8105 30.391C60.1165 30.535 60.454 30.607 60.823 30.607C61.201 30.607 61.534 30.535 61.822 30.391C62.119 30.247 62.353 30.0445 62.524 29.7835C62.695 29.5135 62.7805 29.203 62.7805 28.852C62.7805 28.492 62.695 28.1815 62.524 27.9205C62.353 27.6595 62.119 27.4615 61.822 27.3265C61.534 27.1825 61.201 27.1105 60.823 27.1105ZM65.575 25.018H66.9925V37.384H65.575V25.018ZM57.0835 34.765L56.8945 33.604C57.6415 33.604 58.4605 33.5995 59.3515 33.5905C60.2425 33.5725 61.156 33.5365 62.092 33.4825C63.037 33.4195 63.9505 33.3205 64.8325 33.1855L64.9405 34.225C64.0315 34.396 63.109 34.522 62.173 34.603C61.246 34.675 60.346 34.72 59.473 34.738C58.6 34.756 57.8035 34.765 57.0835 34.765ZM74.9107 31.336H76.3147V34.927H74.9107V31.336ZM79.4196 31.336H80.8372V34.927H79.4196V31.336ZM72.2917 34.684H83.4696V35.845H72.2917V34.684ZM77.8672 25.7335C78.7402 25.7335 79.5187 25.8685 80.2027 26.1385C80.8867 26.3995 81.4222 26.773 81.8092 27.259C82.2052 27.736 82.4031 28.303 82.4031 28.96C82.4031 29.617 82.2052 30.1885 81.8092 30.6745C81.4222 31.1515 80.8867 31.525 80.2027 31.795C79.5187 32.056 78.7402 32.1865 77.8672 32.1865C76.9942 32.1865 76.2112 32.056 75.5182 31.795C74.8342 31.525 74.2942 31.1515 73.8982 30.6745C73.5112 30.1885 73.3177 29.617 73.3177 28.96C73.3177 28.303 73.5112 27.736 73.8982 27.259C74.2942 26.773 74.8342 26.3995 75.5182 26.1385C76.2112 25.8685 76.9942 25.7335 77.8672 25.7335ZM77.8672 26.8405C77.2462 26.8405 76.6972 26.926 76.2202 27.097C75.7432 27.268 75.3697 27.5155 75.0997 27.8395C74.8387 28.1545 74.7082 28.528 74.7082 28.96C74.7082 29.392 74.8387 29.77 75.0997 30.094C75.3697 30.409 75.7432 30.6565 76.2202 30.8365C76.6972 31.0075 77.2462 31.093 77.8672 31.093C78.4882 31.093 79.0327 31.0075 79.5007 30.8365C79.9777 30.6565 80.3512 30.409 80.6212 30.094C80.8912 29.77 81.0262 29.392 81.0262 28.96C81.0262 28.528 80.8912 28.1545 80.6212 27.8395C80.3512 27.5155 79.9777 27.268 79.5007 27.097C79.0327 26.926 78.4882 26.8405 77.8672 26.8405ZM87.6536 27.1645H88.8011V27.6505C88.8011 28.3615 88.6661 29.032 88.3961 29.662C88.1261 30.283 87.7346 30.8275 87.2216 31.2955C86.7176 31.7545 86.0966 32.101 85.3586 32.335L84.6836 31.2415C85.3226 31.0435 85.8626 30.7645 86.3036 30.4045C86.7446 30.0355 87.0776 29.6125 87.3026 29.1355C87.5366 28.6495 87.6536 28.1545 87.6536 27.6505V27.1645ZM87.9101 27.1645H89.0576V27.6505C89.0576 28.0015 89.1251 28.348 89.2601 28.69C89.3951 29.023 89.5886 29.3335 89.8406 29.6215C90.1016 29.9095 90.4166 30.166 90.7856 30.391C91.1546 30.616 91.5776 30.796 92.0546 30.931L91.4066 32.0245C90.6776 31.8175 90.0476 31.498 89.5166 31.066C88.9946 30.634 88.5941 30.1255 88.3151 29.5405C88.0451 28.9555 87.9101 28.3255 87.9101 27.6505V27.1645ZM85.0481 26.422H91.6496V27.5425H85.0481V26.422ZM87.6536 24.9775H89.0576V26.8405H87.6536V24.9775ZM91.2986 28.4335H93.8771V29.5945H91.2986V28.4335ZM93.5126 25.0315H94.9301V32.4835H93.5126V25.0315ZM90.8261 32.7535C92.1131 32.7535 93.1256 32.956 93.8636 33.361C94.6106 33.766 94.9841 34.3285 94.9841 35.0485C94.9841 35.7775 94.6106 36.34 93.8636 36.736C93.1256 37.141 92.1131 37.3435 90.8261 37.3435C89.5301 37.3435 88.5086 37.141 87.7616 36.736C87.0236 36.34 86.6546 35.7775 86.6546 35.0485C86.6546 34.3285 87.0236 33.766 87.7616 33.361C88.5086 32.956 89.5301 32.7535 90.8261 32.7535ZM90.8261 33.847C90.2411 33.847 89.7416 33.8965 89.3276 33.9955C88.9136 34.0855 88.5986 34.2205 88.3826 34.4005C88.1756 34.5715 88.0721 34.7875 88.0721 35.0485C88.0721 35.3095 88.1756 35.53 88.3826 35.71C88.5986 35.89 88.9136 36.025 89.3276 36.115C89.7416 36.205 90.2411 36.25 90.8261 36.25C91.4111 36.25 91.9061 36.205 92.3111 36.115C92.7251 36.025 93.0401 35.89 93.2561 35.71C93.4721 35.53 93.5801 35.3095 93.5801 35.0485C93.5801 34.7875 93.4721 34.5715 93.2561 34.4005C93.0401 34.2205 92.7251 34.0855 92.3111 33.9955C91.9061 33.8965 91.4111 33.847 90.8261 33.847ZM99.708 38.9365C99.078 37.9105 98.5875 36.8395 98.2365 35.7235C97.8855 34.5985 97.71 33.3655 97.71 32.0245C97.71 30.6925 97.8855 29.464 98.2365 28.339C98.5875 27.214 99.078 26.1385 99.708 25.1125L100.68 25.5445C100.104 26.5165 99.6765 27.5605 99.3975 28.6765C99.1275 29.7835 98.9925 30.8995 98.9925 32.0245C98.9925 33.1585 99.1275 34.279 99.3975 35.386C99.6765 36.493 100.104 37.5325 100.68 38.5045L99.708 38.9365ZM110.744 25.0315H112.161V34.1035H110.744V25.0315ZM108.327 28.7305H110.987V29.8915H108.327V28.7305ZM106.91 25.963H108.395C108.395 27.052 108.165 28.042 107.706 28.933C107.247 29.815 106.59 30.58 105.735 31.228C104.889 31.876 103.877 32.3935 102.698 32.7805L102.104 31.6465C103.085 31.3315 103.935 30.922 104.655 30.418C105.375 29.914 105.929 29.338 106.316 28.69C106.712 28.042 106.91 27.3355 106.91 26.5705V25.963ZM102.738 25.963H107.814V27.1105H102.738V25.963ZM104.237 35.9665H112.472V37.114H104.237V35.9665ZM104.237 33.1855H105.668V36.601H104.237V33.1855ZM115.332 38.9365L114.36 38.5045C114.936 37.5325 115.364 36.493 115.643 35.386C115.922 34.279 116.061 33.1585 116.061 32.0245C116.061 30.8995 115.922 29.7835 115.643 28.6765C115.364 27.5605 114.936 26.5165 114.36 25.5445L115.332 25.1125C115.971 26.1385 116.466 27.214 116.817 28.339C117.168 29.464 117.344 30.6925 117.344 32.0245C117.344 33.3655 117.168 34.5985 116.817 35.7235C116.466 36.8395 115.971 37.9105 115.332 38.9365Z" fill="#141414"/>
<path d="M333.99 36.418C333.438 36.418 332.958 36.318 332.55 36.118C332.15 35.918 331.818 35.682 331.554 35.41L332.49 34.342C332.65 34.526 332.858 34.678 333.114 34.798C333.37 34.918 333.63 34.978 333.894 34.978C334.15 34.978 334.394 34.922 334.626 34.81C334.858 34.69 335.058 34.502 335.226 34.246C335.402 33.982 335.538 33.634 335.634 33.202C335.738 32.77 335.79 32.238 335.79 31.606C335.79 30.846 335.718 30.242 335.574 29.794C335.438 29.346 335.254 29.026 335.022 28.834C334.79 28.634 334.526 28.534 334.23 28.534C334.014 28.534 333.814 28.594 333.63 28.714C333.446 28.834 333.298 29.014 333.186 29.254C333.082 29.494 333.03 29.798 333.03 30.166C333.03 30.51 333.082 30.798 333.186 31.03C333.29 31.254 333.434 31.422 333.618 31.534C333.81 31.646 334.034 31.702 334.29 31.702C334.538 31.702 334.794 31.626 335.058 31.474C335.322 31.322 335.562 31.066 335.778 30.706L335.862 31.894C335.71 32.11 335.522 32.298 335.298 32.458C335.082 32.618 334.858 32.742 334.626 32.83C334.394 32.918 334.17 32.962 333.954 32.962C333.466 32.962 333.03 32.862 332.646 32.662C332.262 32.454 331.958 32.146 331.734 31.738C331.518 31.322 331.41 30.798 331.41 30.166C331.41 29.558 331.538 29.034 331.794 28.594C332.05 28.146 332.39 27.802 332.814 27.562C333.238 27.322 333.702 27.202 334.206 27.202C334.63 27.202 335.03 27.29 335.406 27.466C335.79 27.634 336.13 27.898 336.426 28.258C336.73 28.61 336.966 29.066 337.134 29.626C337.31 30.178 337.398 30.838 337.398 31.606C337.398 32.446 337.306 33.17 337.122 33.778C336.938 34.378 336.682 34.874 336.354 35.266C336.034 35.658 335.67 35.95 335.262 36.142C334.854 36.326 334.43 36.418 333.99 36.418ZM338.993 36.25V34.81H340.913V29.206H339.293V28.102C339.741 28.022 340.125 27.926 340.445 27.814C340.773 27.694 341.077 27.542 341.357 27.358H342.665V34.81H344.333V36.25H338.993Z" fill="#3F3F3F"/>
<path d="M17.7127 299.25C17.7427 298.626 17.7937 298.053 17.8657 297.531C17.9437 297.003 18.0547 296.508 18.1987 296.046C18.3427 295.578 18.5257 295.125 18.7477 294.687C18.9757 294.249 19.2517 293.805 19.5757 293.355H16.3717V292.653H20.5027V293.148C20.1187 293.646 19.8037 294.123 19.5577 294.579C19.3177 295.035 19.1287 295.5 18.9907 295.974C18.8587 296.448 18.7597 296.952 18.6937 297.486C18.6337 298.014 18.5917 298.602 18.5677 299.25H17.7127ZM23.6589 292.104C24.0669 292.104 24.4269 292.182 24.7389 292.338C25.0569 292.488 25.3059 292.698 25.4859 292.968C25.6659 293.238 25.7559 293.553 25.7559 293.913C25.7559 294.267 25.6659 294.582 25.4859 294.858C25.3059 295.128 25.0569 295.338 24.7389 295.488C24.4269 295.638 24.0669 295.713 23.6589 295.713C23.2569 295.713 22.8969 295.638 22.5789 295.488C22.2609 295.338 22.0089 295.128 21.8229 294.858C21.6429 294.582 21.5529 294.267 21.5529 293.913C21.5529 293.553 21.6429 293.238 21.8229 292.968C22.0089 292.698 22.2609 292.488 22.5789 292.338C22.8969 292.182 23.2569 292.104 23.6589 292.104ZM23.6589 292.725C23.3949 292.725 23.1579 292.776 22.9479 292.878C22.7439 292.974 22.5819 293.112 22.4619 293.292C22.3419 293.472 22.2819 293.679 22.2819 293.913C22.2819 294.147 22.3419 294.354 22.4619 294.534C22.5819 294.708 22.7439 294.846 22.9479 294.948C23.1579 295.05 23.3949 295.101 23.6589 295.101C23.9229 295.101 24.1569 295.05 24.3609 294.948C24.5709 294.846 24.7359 294.708 24.8559 294.534C24.9759 294.354 25.0359 294.147 25.0359 293.913C25.0359 293.679 24.9759 293.472 24.8559 293.292C24.7359 293.112 24.5709 292.974 24.3609 292.878C24.1569 292.776 23.9229 292.725 23.6589 292.725ZM27.2949 291.807H28.0419V295.974H27.2949V291.807ZM22.7769 296.379H28.0419V298.35H23.5239V299.574H22.8039V297.792H27.3039V296.973H22.7769V296.379ZM22.8039 299.241H28.3209V299.844H22.8039V299.241ZM35.9758 294.057H38.0368V294.669H35.9758V294.057ZM37.6138 291.816H38.3608V297.783H37.6138V291.816ZM33.1678 299.16H38.5858V299.772H33.1678V299.16ZM33.1678 297.252H33.9058V299.466H33.1678V297.252ZM33.7348 292.824H34.3468V293.481C34.3468 293.973 34.2508 294.438 34.0588 294.876C33.8728 295.308 33.6088 295.686 33.2668 296.01C32.9248 296.328 32.5288 296.574 32.0788 296.748L31.6918 296.145C31.9918 296.037 32.2648 295.893 32.5108 295.713C32.7628 295.533 32.9818 295.326 33.1678 295.092C33.3538 294.858 33.4948 294.603 33.5908 294.327C33.6868 294.051 33.7348 293.769 33.7348 293.481V292.824ZM33.8788 292.824H34.4908V293.481C34.4908 293.829 34.5718 294.168 34.7338 294.498C34.8958 294.828 35.1268 295.122 35.4268 295.38C35.7268 295.632 36.0718 295.827 36.4618 295.965L36.0838 296.559C35.6398 296.397 35.2528 296.163 34.9228 295.857C34.5928 295.545 34.3348 295.185 34.1488 294.777C33.9688 294.369 33.8788 293.937 33.8788 293.481V292.824ZM31.9258 292.473H36.2728V293.085H31.9258V292.473Z" fill="#777777"/>
<path d="M326.811 291.807H327.558V299.952H326.811V291.807ZM324.426 292.689H325.164C325.164 293.277 325.092 293.844 324.948 294.39C324.81 294.936 324.591 295.455 324.291 295.947C323.991 296.433 323.601 296.886 323.121 297.306C322.641 297.726 322.059 298.101 321.375 298.431L320.979 297.828C321.765 297.45 322.413 297.009 322.923 296.505C323.433 296.001 323.811 295.44 324.057 294.822C324.303 294.198 324.426 293.526 324.426 292.806V292.689ZM321.357 292.689H324.741V293.292H321.357V292.689ZM332.355 292.581H333.012V292.824C333.012 293.166 332.928 293.481 332.76 293.769C332.592 294.057 332.361 294.315 332.067 294.543C331.779 294.765 331.446 294.951 331.068 295.101C330.696 295.245 330.3 295.347 329.88 295.407L329.601 294.813C329.889 294.771 330.168 294.708 330.438 294.624C330.714 294.54 330.966 294.438 331.194 294.318C331.422 294.192 331.623 294.051 331.797 293.895C331.971 293.739 332.106 293.571 332.202 293.391C332.304 293.211 332.355 293.022 332.355 292.824V292.581ZM332.661 292.581H333.318V292.824C333.318 293.016 333.366 293.202 333.462 293.382C333.564 293.562 333.702 293.733 333.876 293.895C334.05 294.051 334.251 294.192 334.479 294.318C334.713 294.438 334.965 294.54 335.235 294.624C335.505 294.708 335.784 294.771 336.072 294.813L335.793 295.407C335.379 295.347 334.983 295.245 334.605 295.101C334.227 294.951 333.894 294.765 333.606 294.543C333.318 294.315 333.087 294.057 332.913 293.769C332.745 293.481 332.661 293.166 332.661 292.824V292.581ZM329.835 292.212H335.847V292.815H329.835V292.212ZM329.151 295.992H336.531V296.604H329.151V295.992ZM332.517 296.379H333.264V298.251H332.517V296.379ZM330.087 299.16H335.712V299.772H330.087V299.16ZM330.087 297.459H330.834V299.385H330.087V297.459ZM339.725 292.104C340.133 292.104 340.493 292.182 340.805 292.338C341.123 292.488 341.372 292.698 341.552 292.968C341.732 293.238 341.822 293.553 341.822 293.913C341.822 294.267 341.732 294.582 341.552 294.858C341.372 295.128 341.123 295.338 340.805 295.488C340.493 295.638 340.133 295.713 339.725 295.713C339.323 295.713 338.963 295.638 338.645 295.488C338.327 295.338 338.075 295.128 337.889 294.858C337.709 294.582 337.619 294.267 337.619 293.913C337.619 293.553 337.709 293.238 337.889 292.968C338.075 292.698 338.327 292.488 338.645 292.338C338.963 292.182 339.323 292.104 339.725 292.104ZM339.725 292.725C339.461 292.725 339.224 292.776 339.014 292.878C338.81 292.974 338.648 293.112 338.528 293.292C338.408 293.472 338.348 293.679 338.348 293.913C338.348 294.147 338.408 294.354 338.528 294.534C338.648 294.708 338.81 294.846 339.014 294.948C339.224 295.05 339.461 295.101 339.725 295.101C339.989 295.101 340.223 295.05 340.427 294.948C340.637 294.846 340.802 294.708 340.922 294.534C341.042 294.354 341.102 294.147 341.102 293.913C341.102 293.679 341.042 293.472 340.922 293.292C340.802 293.112 340.637 292.974 340.427 292.878C340.223 292.776 339.989 292.725 339.725 292.725ZM343.361 291.807H344.108V295.974H343.361V291.807ZM338.843 296.379H344.108V298.35H339.59V299.574H338.87V297.792H343.37V296.973H338.843V296.379ZM338.87 299.241H344.387V299.844H338.87V299.241Z" fill="#777777"/>
<line x1="15.9307" y1="286.125" x2="345.931" y2="286.125" stroke="#A8A8A8" stroke-width="0.75"/>
<path d="M328.26 257.25V251.25C328.26 251.034 328.268 250.77 328.284 250.458C328.3 250.146 328.312 249.878 328.32 249.654H328.272C328.16 249.862 328.044 250.078 327.924 250.302C327.812 250.518 327.692 250.734 327.564 250.95L325.56 253.95H330.468V254.826H324.42V254.106L328.08 248.454H329.292V257.25H328.26Z" fill="#747474"/>
<path d="M35.0875 204.906C34.5435 204.906 34.0595 204.806 33.6355 204.606C33.2115 204.406 32.8795 204.13 32.6395 203.778C32.3995 203.426 32.2795 203.022 32.2795 202.566C32.2795 202.174 32.3555 201.822 32.5075 201.51C32.6675 201.19 32.8715 200.918 33.1195 200.694C33.3675 200.462 33.6235 200.274 33.8875 200.13V200.082C33.5675 199.858 33.2875 199.582 33.0475 199.254C32.8155 198.918 32.6995 198.518 32.6995 198.054C32.6995 197.606 32.8035 197.218 33.0115 196.89C33.2275 196.554 33.5155 196.294 33.8755 196.11C34.2435 195.918 34.6555 195.822 35.1115 195.822C35.6155 195.822 36.0475 195.922 36.4075 196.122C36.7675 196.322 37.0435 196.594 37.2355 196.938C37.4275 197.282 37.5235 197.682 37.5235 198.138C37.5235 198.442 37.4595 198.73 37.3315 199.002C37.2115 199.274 37.0635 199.518 36.8875 199.734C36.7115 199.942 36.5355 200.118 36.3595 200.262V200.322C36.6155 200.466 36.8555 200.642 37.0795 200.85C37.3035 201.05 37.4835 201.298 37.6195 201.594C37.7635 201.882 37.8355 202.23 37.8355 202.638C37.8355 203.054 37.7195 203.438 37.4875 203.79C37.2635 204.134 36.9435 204.406 36.5275 204.606C36.1195 204.806 35.6395 204.906 35.0875 204.906ZM35.6875 199.974C35.9835 199.71 36.2075 199.43 36.3595 199.134C36.5115 198.83 36.5875 198.518 36.5875 198.198C36.5875 197.902 36.5275 197.638 36.4075 197.406C36.2955 197.174 36.1275 196.99 35.9035 196.854C35.6795 196.71 35.4115 196.638 35.0995 196.638C34.6915 196.638 34.3555 196.766 34.0915 197.022C33.8275 197.278 33.6955 197.622 33.6955 198.054C33.6955 198.398 33.7875 198.69 33.9715 198.93C34.1635 199.162 34.4115 199.362 34.7155 199.53C35.0195 199.69 35.3435 199.838 35.6875 199.974ZM35.0995 204.09C35.4435 204.09 35.7395 204.026 35.9875 203.898C36.2435 203.77 36.4395 203.594 36.5755 203.37C36.7195 203.146 36.7915 202.89 36.7915 202.602C36.7915 202.306 36.7275 202.054 36.5995 201.846C36.4715 201.63 36.2995 201.442 36.0835 201.282C35.8755 201.122 35.6315 200.978 35.3515 200.85C35.0715 200.722 34.7755 200.598 34.4635 200.478C34.1115 200.702 33.8195 200.986 33.5875 201.33C33.3635 201.666 33.2515 202.046 33.2515 202.47C33.2515 202.774 33.3315 203.05 33.4915 203.298C33.6515 203.546 33.8715 203.742 34.1515 203.886C34.4395 204.022 34.7555 204.09 35.0995 204.09Z" fill="#747474"/>
<rect width="26.25" height="75.75" transform="translate(21.9307 210.5)" fill="#6A8096"/>
<path d="M78.2054 172.5V171.588H80.1734V165.024H78.6014V164.328C78.9934 164.256 79.3334 164.168 79.6214 164.064C79.9174 163.96 80.1854 163.84 80.4254 163.704H81.2654V171.588H83.0294V172.5H78.2054ZM86.9617 172.656C86.5057 172.656 86.1017 172.6 85.7497 172.488C85.4057 172.376 85.1017 172.228 84.8377 172.044C84.5737 171.86 84.3457 171.66 84.1537 171.444L84.7177 170.736C84.9737 171 85.2737 171.236 85.6177 171.444C85.9697 171.644 86.3937 171.744 86.8897 171.744C87.2417 171.744 87.5497 171.68 87.8137 171.552C88.0857 171.416 88.2977 171.228 88.4497 170.988C88.6017 170.74 88.6777 170.448 88.6777 170.112C88.6777 169.76 88.5897 169.452 88.4137 169.188C88.2457 168.924 87.9617 168.72 87.5617 168.576C87.1617 168.424 86.6217 168.348 85.9417 168.348V167.508C86.5497 167.508 87.0297 167.436 87.3817 167.292C87.7337 167.14 87.9857 166.936 88.1377 166.68C88.2977 166.424 88.3777 166.14 88.3777 165.828C88.3777 165.404 88.2457 165.068 87.9817 164.82C87.7177 164.564 87.3537 164.436 86.8897 164.436C86.5377 164.436 86.2057 164.516 85.8937 164.676C85.5897 164.836 85.3137 165.04 85.0657 165.288L84.4777 164.592C84.8137 164.288 85.1777 164.04 85.5697 163.848C85.9697 163.648 86.4217 163.548 86.9257 163.548C87.4217 163.548 87.8617 163.636 88.2457 163.812C88.6377 163.98 88.9417 164.228 89.1577 164.556C89.3817 164.884 89.4937 165.28 89.4937 165.744C89.4937 166.28 89.3497 166.724 89.0617 167.076C88.7737 167.428 88.3977 167.688 87.9337 167.856V167.916C88.2777 167.996 88.5897 168.136 88.8697 168.336C89.1497 168.536 89.3737 168.788 89.5417 169.092C89.7097 169.396 89.7937 169.748 89.7937 170.148C89.7937 170.668 89.6657 171.116 89.4097 171.492C89.1537 171.868 88.8137 172.156 88.3897 172.356C87.9657 172.556 87.4897 172.656 86.9617 172.656Z" fill="#747474"/>
<rect width="26.25" height="108" transform="translate(70.6807 178.25)" fill="#6A8096"/>
<path d="M132.384 250.656C131.928 250.656 131.524 250.6 131.172 250.488C130.828 250.376 130.524 250.228 130.26 250.044C129.996 249.86 129.768 249.66 129.576 249.444L130.14 248.736C130.396 249 130.696 249.236 131.04 249.444C131.392 249.644 131.816 249.744 132.312 249.744C132.664 249.744 132.972 249.68 133.236 249.552C133.508 249.416 133.72 249.228 133.872 248.988C134.024 248.74 134.1 248.448 134.1 248.112C134.1 247.76 134.012 247.452 133.836 247.188C133.668 246.924 133.384 246.72 132.984 246.576C132.584 246.424 132.044 246.348 131.364 246.348V245.508C131.972 245.508 132.452 245.436 132.804 245.292C133.156 245.14 133.408 244.936 133.56 244.68C133.72 244.424 133.8 244.14 133.8 243.828C133.8 243.404 133.668 243.068 133.404 242.82C133.14 242.564 132.776 242.436 132.312 242.436C131.96 242.436 131.628 242.516 131.316 242.676C131.012 242.836 130.736 243.04 130.488 243.288L129.9 242.592C130.236 242.288 130.6 242.04 130.992 241.848C131.392 241.648 131.844 241.548 132.348 241.548C132.844 241.548 133.284 241.636 133.668 241.812C134.06 241.98 134.364 242.228 134.58 242.556C134.804 242.884 134.916 243.28 134.916 243.744C134.916 244.28 134.772 244.724 134.484 245.076C134.196 245.428 133.82 245.688 133.356 245.856V245.916C133.7 245.996 134.012 246.136 134.292 246.336C134.572 246.536 134.796 246.788 134.964 247.092C135.132 247.396 135.216 247.748 135.216 248.148C135.216 248.668 135.088 249.116 134.832 249.492C134.576 249.868 134.236 250.156 133.812 250.356C133.388 250.556 132.912 250.656 132.384 250.656Z" fill="#747474"/>
<rect width="26.25" height="30" transform="translate(119.431 256.25)" fill="#6A8096"/>
<path d="M181.122 232.656C180.666 232.656 180.262 232.6 179.91 232.488C179.566 232.376 179.262 232.232 178.998 232.056C178.742 231.88 178.51 231.692 178.302 231.492L178.854 230.772C179.022 230.94 179.206 231.1 179.406 231.252C179.614 231.396 179.85 231.516 180.114 231.612C180.378 231.7 180.678 231.744 181.014 231.744C181.358 231.744 181.67 231.66 181.95 231.492C182.238 231.324 182.466 231.084 182.634 230.772C182.802 230.46 182.886 230.092 182.886 229.668C182.886 229.044 182.718 228.556 182.382 228.204C182.054 227.844 181.614 227.664 181.062 227.664C180.774 227.664 180.522 227.708 180.306 227.796C180.09 227.884 179.854 228.012 179.598 228.18L179.01 227.808L179.298 223.704H183.57V224.64H180.258L180.03 227.184C180.222 227.072 180.422 226.988 180.63 226.932C180.846 226.868 181.086 226.836 181.35 226.836C181.838 226.836 182.282 226.936 182.682 227.136C183.082 227.328 183.402 227.632 183.642 228.048C183.882 228.464 184.002 228.996 184.002 229.644C184.002 230.284 183.862 230.828 183.582 231.276C183.31 231.724 182.954 232.068 182.514 232.308C182.074 232.54 181.61 232.656 181.122 232.656Z" fill="#747474"/>
<rect width="26.25" height="48" transform="translate(168.181 238.25)" fill="#6A8096"/>
<path d="M229.884 261.906C229.428 261.906 229.024 261.85 228.672 261.738C228.328 261.626 228.024 261.478 227.76 261.294C227.496 261.11 227.268 260.91 227.076 260.694L227.64 259.986C227.896 260.25 228.196 260.486 228.54 260.694C228.892 260.894 229.316 260.994 229.812 260.994C230.164 260.994 230.472 260.93 230.736 260.802C231.008 260.666 231.22 260.478 231.372 260.238C231.524 259.99 231.6 259.698 231.6 259.362C231.6 259.01 231.512 258.702 231.336 258.438C231.168 258.174 230.884 257.97 230.484 257.826C230.084 257.674 229.544 257.598 228.864 257.598V256.758C229.472 256.758 229.952 256.686 230.304 256.542C230.656 256.39 230.908 256.186 231.06 255.93C231.22 255.674 231.3 255.39 231.3 255.078C231.3 254.654 231.168 254.318 230.904 254.07C230.64 253.814 230.276 253.686 229.812 253.686C229.46 253.686 229.128 253.766 228.816 253.926C228.512 254.086 228.236 254.29 227.988 254.538L227.4 253.842C227.736 253.538 228.1 253.29 228.492 253.098C228.892 252.898 229.344 252.798 229.848 252.798C230.344 252.798 230.784 252.886 231.168 253.062C231.56 253.23 231.864 253.478 232.08 253.806C232.304 254.134 232.416 254.53 232.416 254.994C232.416 255.53 232.272 255.974 231.984 256.326C231.696 256.678 231.32 256.938 230.856 257.106V257.166C231.2 257.246 231.512 257.386 231.792 257.586C232.072 257.786 232.296 258.038 232.464 258.342C232.632 258.646 232.716 258.998 232.716 259.398C232.716 259.918 232.588 260.366 232.332 260.742C232.076 261.118 231.736 261.406 231.312 261.606C230.888 261.806 230.412 261.906 229.884 261.906Z" fill="#747474"/>
<rect width="26.25" height="18.75" transform="translate(216.931 267.5)" fill="#6A8096"/>
<path d="M273.205 190.5V189.588H275.173V183.024H273.601V182.328C273.993 182.256 274.333 182.168 274.621 182.064C274.917 181.96 275.185 181.84 275.425 181.704H276.265V189.588H278.029V190.5H273.205ZM282.142 190.656C281.59 190.656 281.106 190.488 280.69 190.152C280.282 189.816 279.966 189.308 279.742 188.628C279.518 187.948 279.406 187.096 279.406 186.072C279.406 185.048 279.518 184.204 279.742 183.54C279.966 182.868 280.282 182.368 280.69 182.04C281.106 181.712 281.59 181.548 282.142 181.548C282.702 181.548 283.186 181.716 283.594 182.052C284.002 182.38 284.318 182.876 284.542 183.54C284.766 184.204 284.878 185.048 284.878 186.072C284.878 187.096 284.766 187.948 284.542 188.628C284.318 189.308 284.002 189.816 283.594 190.152C283.186 190.488 282.702 190.656 282.142 190.656ZM282.142 189.768C282.478 189.768 282.77 189.64 283.018 189.384C283.274 189.128 283.47 188.728 283.606 188.184C283.75 187.632 283.822 186.928 283.822 186.072C283.822 185.216 283.75 184.52 283.606 183.984C283.47 183.44 283.274 183.044 283.018 182.796C282.77 182.54 282.478 182.412 282.142 182.412C281.814 182.412 281.522 182.54 281.266 182.796C281.01 183.044 280.81 183.44 280.666 183.984C280.53 184.52 280.462 185.216 280.462 186.072C280.462 186.928 280.53 187.632 280.666 188.184C280.81 188.728 281.01 189.128 281.266 189.384C281.522 189.64 281.814 189.768 282.142 189.768Z" fill="#747474"/>
<rect width="26.25" height="90" transform="translate(265.681 196.25)" fill="#6A8096"/>
<rect width="26.25" height="23.25" transform="translate(314.431 263)" fill="#214A72"/>
<path d="M18.2467 125.25C18.2867 124.442 18.3547 123.702 18.4507 123.03C18.5467 122.35 18.6867 121.71 18.8707 121.11C19.0547 120.502 19.2947 119.914 19.5907 119.346C19.8867 118.77 20.2467 118.182 20.6707 117.582H16.5307V116.406H22.2067V117.258C21.6947 117.898 21.2787 118.518 20.9587 119.118C20.6387 119.71 20.3907 120.314 20.2147 120.93C20.0387 121.546 19.9107 122.206 19.8307 122.91C19.7507 123.606 19.6947 124.386 19.6627 125.25H18.2467ZM26.4104 115.638C26.9624 115.638 27.4544 115.742 27.8864 115.95C28.3184 116.158 28.6584 116.45 28.9064 116.826C29.1544 117.194 29.2784 117.622 29.2784 118.11C29.2784 118.59 29.1544 119.014 28.9064 119.382C28.6584 119.75 28.3184 120.038 27.8864 120.246C27.4544 120.454 26.9624 120.558 26.4104 120.558C25.8584 120.558 25.3664 120.454 24.9344 120.246C24.5024 120.038 24.1584 119.75 23.9024 119.382C23.6544 119.014 23.5304 118.59 23.5304 118.11C23.5304 117.622 23.6544 117.194 23.9024 116.826C24.1584 116.45 24.5024 116.158 24.9344 115.95C25.3664 115.742 25.8584 115.638 26.4104 115.638ZM26.4104 116.658C26.0904 116.658 25.8064 116.718 25.5584 116.838C25.3104 116.958 25.1144 117.126 24.9704 117.342C24.8264 117.558 24.7544 117.81 24.7544 118.098C24.7544 118.394 24.8264 118.65 24.9704 118.866C25.1144 119.082 25.3104 119.25 25.5584 119.37C25.8064 119.482 26.0904 119.538 26.4104 119.538C26.7304 119.538 27.0144 119.482 27.2624 119.37C27.5104 119.25 27.7064 119.082 27.8504 118.866C27.9944 118.65 28.0664 118.394 28.0664 118.098C28.0664 117.81 27.9944 117.558 27.8504 117.342C27.7064 117.126 27.5064 116.958 27.2504 116.838C27.0024 116.718 26.7224 116.658 26.4104 116.658ZM31.1024 115.278H32.3624V120.834H31.1024V115.278ZM25.1744 121.326H32.3624V124.146H26.4344V125.646H25.1984V123.222H31.1264V122.31H25.1744V121.326ZM25.1984 125.118H32.6984V126.102H25.1984V125.118ZM42.4895 115.266H43.7015V126.234H42.4895V115.266ZM40.8335 119.634H42.8255V120.654H40.8335V119.634ZM40.0295 115.494H41.2055V125.694H40.0295V115.494ZM34.8455 116.55H36.1055V122.874H34.8455V116.55ZM34.8455 122.394H35.5775C36.1295 122.394 36.7135 122.374 37.3295 122.334C37.9535 122.286 38.6175 122.194 39.3215 122.058L39.4415 123.138C38.7135 123.282 38.0295 123.374 37.3895 123.414C36.7495 123.454 36.1455 123.474 35.5775 123.474H34.8455V122.394Z" fill="#777777"/>
<path d="M334.975 125.25V119.79C334.975 119.534 334.983 119.23 334.999 118.878C335.015 118.518 335.031 118.206 335.047 117.942H334.987C334.883 118.182 334.771 118.422 334.651 118.662C334.531 118.902 334.407 119.146 334.279 119.394L332.899 121.602H337.675V122.946H331.183V121.746L334.495 116.358H336.619V125.25H334.975ZM341.801 125.418C341.385 125.418 340.981 125.33 340.589 125.154C340.205 124.978 339.865 124.71 339.569 124.35C339.273 123.982 339.037 123.518 338.861 122.958C338.693 122.39 338.609 121.714 338.609 120.93C338.609 120.106 338.701 119.394 338.885 118.794C339.077 118.194 339.333 117.706 339.653 117.33C339.973 116.946 340.337 116.662 340.745 116.478C341.161 116.294 341.597 116.202 342.053 116.202C342.597 116.202 343.065 116.302 343.457 116.502C343.857 116.694 344.189 116.93 344.453 117.21L343.517 118.266C343.365 118.09 343.165 117.938 342.917 117.81C342.669 117.682 342.417 117.618 342.161 117.618C341.801 117.618 341.473 117.722 341.177 117.93C340.889 118.138 340.657 118.482 340.481 118.962C340.305 119.442 340.217 120.098 340.217 120.93C340.217 121.698 340.285 122.314 340.421 122.778C340.565 123.234 340.753 123.566 340.985 123.774C341.217 123.982 341.477 124.086 341.765 124.086C341.989 124.086 342.189 124.026 342.365 123.906C342.549 123.778 342.697 123.594 342.809 123.354C342.921 123.106 342.977 122.802 342.977 122.442C342.977 122.09 342.921 121.802 342.809 121.578C342.705 121.354 342.557 121.186 342.365 121.074C342.181 120.962 341.961 120.906 341.705 120.906C341.465 120.906 341.213 120.982 340.949 121.134C340.685 121.278 340.441 121.534 340.217 121.902L340.133 120.714C340.293 120.49 340.481 120.298 340.697 120.138C340.921 119.978 341.149 119.858 341.381 119.778C341.621 119.698 341.837 119.658 342.029 119.658C342.525 119.658 342.965 119.758 343.349 119.958C343.741 120.158 344.045 120.462 344.261 120.87C344.477 121.278 344.585 121.802 344.585 122.442C344.585 123.05 344.457 123.578 344.201 124.026C343.953 124.466 343.617 124.81 343.193 125.058C342.769 125.298 342.305 125.418 341.801 125.418Z" fill="#3F3F3F"/>
</g>
<rect x="1.30518" y="1.125" width="359.25" height="321.75" rx="19.625" stroke="#DBDFEA" stroke-width="0.75"/>
<defs>
<clipPath id="clip0_383_5255">
<rect x="0.930176" y="0.75" width="360" height="322.5" rx="20" fill="white"/>
</clipPath>
</defs>
</svg>
