<svg width="361" height="324" viewBox="0 0 361 324" fill="none" xmlns="http://www.w3.org/2000/svg">
<g clip-path="url(#clip0_383_5257)">
<rect x="0.163086" y="0.75" width="360" height="322.5" rx="20" fill="white"/>
<path d="M21.4406 32.6725C22.2866 32.6725 23.0156 32.767 23.6276 32.956C24.2396 33.145 24.7121 33.415 25.0451 33.766C25.3781 34.108 25.5446 34.5265 25.5446 35.0215C25.5446 35.5075 25.3781 35.926 25.0451 36.277C24.7121 36.628 24.2396 36.8935 23.6276 37.0735C23.0156 37.2625 22.2866 37.357 21.4406 37.357C20.5946 37.357 19.8611 37.2625 19.2401 37.0735C18.6281 36.8935 18.1556 36.628 17.8226 36.277C17.4986 35.926 17.3366 35.5075 17.3366 35.0215C17.3366 34.5265 17.4986 34.108 17.8226 33.766C18.1556 33.415 18.6281 33.145 19.2401 32.956C19.8611 32.767 20.5946 32.6725 21.4406 32.6725ZM21.4406 33.793C20.8736 33.793 20.3876 33.8425 19.9826 33.9415C19.5776 34.0315 19.2671 34.1665 19.0511 34.3465C18.8351 34.5265 18.7271 34.747 18.7271 35.008C18.7271 35.287 18.8351 35.5165 19.0511 35.6965C19.2671 35.8765 19.5776 36.016 19.9826 36.115C20.3876 36.205 20.8736 36.25 21.4406 36.25C22.0166 36.25 22.5026 36.205 22.8986 36.115C23.3036 36.016 23.6141 35.8765 23.8301 35.6965C24.0461 35.5165 24.1541 35.287 24.1541 35.008C24.1541 34.747 24.0461 34.5265 23.8301 34.3465C23.6141 34.1665 23.3036 34.0315 22.8986 33.9415C22.5026 33.8425 22.0166 33.793 21.4406 33.793ZM24.0056 25.0315H25.4096V32.3755H24.0056V25.0315ZM25.0316 28.0285H27.1511V29.203H25.0316V28.0285ZM16.2161 25.801H17.6201V27.5155H20.6306V25.801H22.0346V31.5385H16.2161V25.801ZM17.6201 28.6225V30.418H20.6306V28.6225H17.6201ZM28.1895 31.2415H39.3675V32.3755H28.1895V31.2415ZM33.1845 31.9435H34.602V34.684H33.1845V31.9435ZM29.607 25.5715H37.9365V30.0265H29.607V25.5715ZM36.5325 26.692H30.984V28.906H36.5325V26.692ZM29.553 35.9665H38.1255V37.114H29.553V35.9665ZM29.553 33.5635H30.9705V36.358H29.553V33.5635ZM43.538 26.8675H44.672V28.5955C44.672 29.2615 44.5865 29.923 44.4155 30.58C44.2535 31.228 44.0195 31.8445 43.7135 32.4295C43.4075 33.0055 43.0385 33.5185 42.6065 33.9685C42.1835 34.4095 41.7155 34.7605 41.2025 35.0215L40.3925 33.901C40.8605 33.667 41.2835 33.361 41.6615 32.983C42.0485 32.596 42.3815 32.164 42.6605 31.687C42.9485 31.201 43.1645 30.697 43.3085 30.175C43.4615 29.644 43.538 29.1175 43.538 28.5955V26.8675ZM43.8215 26.8675H44.942V28.5955C44.942 29.0815 45.014 29.572 45.158 30.067C45.302 30.553 45.509 31.0255 45.779 31.4845C46.049 31.9345 46.373 32.344 46.751 32.713C47.138 33.073 47.5655 33.3655 48.0335 33.5905L47.2505 34.711C46.7285 34.459 46.256 34.1215 45.833 33.6985C45.419 33.2665 45.059 32.776 44.753 32.227C44.456 31.678 44.2265 31.093 44.0645 30.472C43.9025 29.851 43.8215 29.2255 43.8215 28.5955V26.8675ZM40.838 26.2465H47.5475V27.421H40.838V26.2465ZM48.7625 25.0315H50.18V37.3705H48.7625V25.0315ZM49.8695 29.8915H52.097V31.066H49.8695V29.8915ZM60.9061 25.423H62.1481V26.071C62.1481 26.539 62.0671 26.989 61.9051 27.421C61.7431 27.844 61.5091 28.2355 61.2031 28.5955C60.9061 28.9555 60.5461 29.2795 60.1231 29.5675C59.7091 29.8555 59.2501 30.0985 58.7461 30.2965C58.2421 30.4855 57.7021 30.625 57.1261 30.715L56.5726 29.581C57.0766 29.509 57.5446 29.3965 57.9766 29.2435C58.4176 29.0815 58.8181 28.888 59.1781 28.663C59.5381 28.429 59.8441 28.1725 60.0961 27.8935C60.3571 27.6145 60.5551 27.322 60.6901 27.016C60.8341 26.71 60.9061 26.395 60.9061 26.071V25.423ZM61.1761 25.423H62.4046V26.071C62.4046 26.386 62.4721 26.6965 62.6071 27.0025C62.7511 27.3085 62.9536 27.601 63.2146 27.88C63.4756 28.159 63.7861 28.4155 64.1461 28.6495C64.5061 28.8745 64.9021 29.068 65.3341 29.23C65.7751 29.392 66.2431 29.509 66.7381 29.581L66.1846 30.715C65.6176 30.625 65.0821 30.481 64.5781 30.283C64.0741 30.085 63.6106 29.842 63.1876 29.554C62.7736 29.266 62.4136 28.942 62.1076 28.582C61.8106 28.222 61.5811 27.8305 61.4191 27.4075C61.2571 26.9845 61.1761 26.539 61.1761 26.071V25.423ZM60.9196 32.74H62.3236V37.3705H60.9196V32.74ZM56.0731 31.8625H67.2241V33.0235H56.0731V31.8625ZM71.0706 38.9365C70.4406 37.9105 69.9501 36.8395 69.5991 35.7235C69.2481 34.5985 69.0726 33.3655 69.0726 32.0245C69.0726 30.6925 69.2481 29.464 69.5991 28.339C69.9501 27.214 70.4406 26.1385 71.0706 25.1125L72.0426 25.5445C71.4666 26.5165 71.0391 27.5605 70.7601 28.6765C70.4901 29.7835 70.3551 30.8995 70.3551 32.0245C70.3551 33.1585 70.4901 34.279 70.7601 35.386C71.0391 36.493 71.4666 37.5325 72.0426 38.5045L71.0706 38.9365ZM82.1061 25.0315H83.5236V34.1035H82.1061V25.0315ZM79.6896 28.7305H82.3491V29.8915H79.6896V28.7305ZM78.2721 25.963H79.7571C79.7571 27.052 79.5276 28.042 79.0686 28.933C78.6096 29.815 77.9526 30.58 77.0976 31.228C76.2516 31.876 75.2391 32.3935 74.0601 32.7805L73.4661 31.6465C74.4471 31.3315 75.2976 30.922 76.0176 30.418C76.7376 29.914 77.2911 29.338 77.6781 28.69C78.0741 28.042 78.2721 27.3355 78.2721 26.5705V25.963ZM74.1006 25.963H79.1766V27.1105H74.1006V25.963ZM75.5991 35.9665H83.8341V37.114H75.5991V35.9665ZM75.5991 33.1855H77.0301V36.601H75.5991V33.1855ZM86.695 38.9365L85.723 38.5045C86.299 37.5325 86.7265 36.493 87.0055 35.386C87.2845 34.279 87.424 33.1585 87.424 32.0245C87.424 30.8995 87.2845 29.7835 87.0055 28.6765C86.7265 27.5605 86.299 26.5165 85.723 25.5445L86.695 25.1125C87.334 26.1385 87.829 27.214 88.18 28.339C88.531 29.464 88.7065 30.6925 88.7065 32.0245C88.7065 33.3655 88.531 34.5985 88.18 35.7235C87.829 36.8395 87.334 37.9105 86.695 38.9365Z" fill="#141414"/>
<path d="M333.955 36.418C333.539 36.418 333.135 36.33 332.743 36.154C332.359 35.978 332.019 35.71 331.723 35.35C331.427 34.982 331.191 34.518 331.015 33.958C330.847 33.39 330.763 32.714 330.763 31.93C330.763 31.106 330.855 30.394 331.039 29.794C331.231 29.194 331.487 28.706 331.807 28.33C332.127 27.946 332.491 27.662 332.899 27.478C333.315 27.294 333.751 27.202 334.207 27.202C334.751 27.202 335.219 27.302 335.611 27.502C336.011 27.694 336.343 27.93 336.607 28.21L335.671 29.266C335.519 29.09 335.319 28.938 335.071 28.81C334.823 28.682 334.571 28.618 334.315 28.618C333.955 28.618 333.627 28.722 333.331 28.93C333.043 29.138 332.811 29.482 332.635 29.962C332.459 30.442 332.371 31.098 332.371 31.93C332.371 32.698 332.439 33.314 332.575 33.778C332.719 34.234 332.907 34.566 333.139 34.774C333.371 34.982 333.631 35.086 333.919 35.086C334.143 35.086 334.343 35.026 334.519 34.906C334.703 34.778 334.851 34.594 334.963 34.354C335.075 34.106 335.131 33.802 335.131 33.442C335.131 33.09 335.075 32.802 334.963 32.578C334.859 32.354 334.711 32.186 334.519 32.074C334.335 31.962 334.115 31.906 333.859 31.906C333.619 31.906 333.367 31.982 333.103 32.134C332.839 32.278 332.595 32.534 332.371 32.902L332.287 31.714C332.447 31.49 332.635 31.298 332.851 31.138C333.075 30.978 333.303 30.858 333.535 30.778C333.775 30.698 333.991 30.658 334.183 30.658C334.679 30.658 335.119 30.758 335.503 30.958C335.895 31.158 336.199 31.462 336.415 31.87C336.631 32.278 336.739 32.802 336.739 33.442C336.739 34.05 336.611 34.578 336.355 35.026C336.107 35.466 335.771 35.81 335.347 36.058C334.923 36.298 334.459 36.418 333.955 36.418ZM337.757 36.25V35.23C338.565 34.51 339.253 33.842 339.821 33.226C340.397 32.61 340.837 32.038 341.141 31.51C341.445 30.974 341.597 30.478 341.597 30.022C341.597 29.734 341.545 29.482 341.441 29.266C341.337 29.05 341.185 28.886 340.985 28.774C340.793 28.654 340.553 28.594 340.265 28.594C339.945 28.594 339.649 28.686 339.377 28.87C339.113 29.046 338.869 29.258 338.645 29.506L337.661 28.558C338.077 28.11 338.501 27.774 338.933 27.55C339.373 27.318 339.893 27.202 340.493 27.202C341.053 27.202 341.541 27.318 341.957 27.55C342.381 27.774 342.709 28.09 342.941 28.498C343.173 28.906 343.289 29.386 343.289 29.938C343.289 30.474 343.153 31.022 342.881 31.582C342.617 32.134 342.261 32.686 341.813 33.238C341.365 33.79 340.869 34.334 340.325 34.87C340.557 34.838 340.805 34.814 341.069 34.798C341.341 34.774 341.581 34.762 341.789 34.762H343.709V36.25H337.757Z" fill="#3F3F3F"/>
<path d="M18.9126 246.591L57.8034 236.939L71.0116 254.758L104.399 262.182L142.189 254.758L180.346 260.326L210.064 231L229.143 244.364L253.358 254.758L270.969 267.75L306.538 267L341.413 251.417" stroke="#5080AE" stroke-opacity="0.8" stroke-width="2.25"/>
<path d="M17.4124 244.35C18.7378 244.35 19.8127 245.425 19.8127 246.75C19.8127 248.075 18.7378 249.15 17.4124 249.15C16.0869 249.15 15.012 248.075 15.012 246.75C15.012 245.425 16.0869 244.35 17.4124 244.35Z" fill="#F8F8F9" stroke="#5080AE" stroke-width="1.2"/>
<path d="M57.1624 234.6C58.4878 234.6 59.5627 235.675 59.5627 237C59.5627 238.325 58.4878 239.4 57.1624 239.4C55.8369 239.4 54.762 238.325 54.762 237C54.762 235.675 55.8369 234.6 57.1624 234.6Z" fill="#F8F8F9" stroke="#5080AE" stroke-width="1.2"/>
<path d="M70.6624 251.85C71.9878 251.85 73.0627 252.925 73.0627 254.25C73.0627 255.575 71.9878 256.65 70.6624 256.65C69.3369 256.65 68.262 255.575 68.262 254.25C68.262 252.925 69.3369 251.85 70.6624 251.85Z" fill="#F8F8F9" stroke="#5080AE" stroke-width="1.2"/>
<path d="M102.913 260.1C104.238 260.1 105.313 261.175 105.313 262.5C105.313 263.825 104.238 264.9 102.913 264.9C101.587 264.9 100.512 263.825 100.512 262.5C100.512 261.175 101.587 260.1 102.913 260.1Z" fill="#F8F8F9" stroke="#5080AE" stroke-width="1.2"/>
<path d="M138.912 252.6C140.238 252.6 141.313 253.675 141.313 255C141.313 256.325 140.238 257.4 138.912 257.4C137.587 257.4 136.512 256.325 136.512 255C136.512 253.675 137.587 252.6 138.912 252.6Z" fill="#F8F8F9" stroke="#5080AE" stroke-width="1.2"/>
<path d="M178.662 257.85C179.988 257.85 181.063 258.925 181.063 260.25C181.063 261.575 179.988 262.65 178.662 262.65C177.337 262.65 176.262 261.575 176.262 260.25C176.262 258.925 177.337 257.85 178.662 257.85Z" fill="#F8F8F9" stroke="#5080AE" stroke-width="1.2"/>
<path d="M209.413 228.6C210.738 228.6 211.813 229.675 211.813 231C211.813 232.325 210.738 233.4 209.413 233.4C208.087 233.4 207.012 232.325 207.012 231C207.012 229.675 208.087 228.6 209.413 228.6Z" fill="#F8F8F9" stroke="#5080AE" stroke-width="1.2"/>
<path d="M253.663 252.6C254.988 252.6 256.063 253.675 256.063 255C256.063 256.325 254.988 257.4 253.663 257.4C252.337 257.4 251.262 256.325 251.262 255C251.262 253.675 252.337 252.6 253.663 252.6Z" fill="#F8F8F9" stroke="#5080AE" stroke-width="1.2"/>
<path d="M271.662 266.1C272.988 266.1 274.063 267.175 274.063 268.5C274.063 269.825 272.988 270.9 271.662 270.9C270.337 270.9 269.262 269.825 269.262 268.5C269.262 267.175 270.337 266.1 271.662 266.1Z" fill="#F8F8F9" stroke="#5080AE" stroke-width="1.2"/>
<path d="M306.163 264.6C307.488 264.6 308.563 265.675 308.563 267C308.563 268.325 307.488 269.4 306.163 269.4C304.837 269.4 303.762 268.325 303.762 267C303.762 265.675 304.837 264.6 306.163 264.6Z" fill="#F8F8F9" stroke="#5080AE" stroke-width="1.2"/>
<path d="M341.413 248.85C342.738 248.85 343.813 249.925 343.813 251.25C343.813 252.575 342.738 253.65 341.413 253.65C340.087 253.65 339.012 252.575 339.012 251.25C339.012 249.925 340.087 248.85 341.413 248.85Z" fill="#F8F8F9" stroke="#5080AE" stroke-width="1.2"/>
<path d="M228.913 242.1C230.238 242.1 231.313 243.175 231.313 244.5C231.313 245.825 230.238 246.9 228.913 246.9C227.587 246.9 226.512 245.825 226.512 244.5C226.512 243.175 227.587 242.1 228.913 242.1Z" fill="#F8F8F9" stroke="#5080AE" stroke-width="1.2"/>
<line x1="15.1628" y1="286.125" x2="345.163" y2="286.125" stroke="#A8A8A8" stroke-width="0.75"/>
<path d="M15.9548 299.25V298.566H17.4308V293.643H16.2518V293.121C16.5458 293.067 16.8008 293.001 17.0168 292.923C17.2388 292.845 17.4398 292.755 17.6198 292.653H18.2498V298.566H19.5728V299.25H15.9548ZM20.551 299.25V298.764C21.241 298.158 21.808 297.606 22.252 297.108C22.702 296.61 23.035 296.148 23.251 295.722C23.467 295.29 23.575 294.885 23.575 294.507C23.575 294.255 23.53 294.03 23.44 293.832C23.356 293.634 23.224 293.481 23.044 293.373C22.864 293.259 22.636 293.202 22.36 293.202C22.09 293.202 21.838 293.274 21.604 293.418C21.376 293.562 21.172 293.745 20.992 293.967L20.515 293.499C20.779 293.205 21.064 292.971 21.37 292.797C21.676 292.623 22.039 292.536 22.459 292.536C22.855 292.536 23.194 292.617 23.476 292.779C23.764 292.935 23.986 293.16 24.142 293.454C24.304 293.742 24.385 294.081 24.385 294.471C24.385 294.909 24.274 295.353 24.052 295.803C23.836 296.253 23.533 296.712 23.143 297.18C22.759 297.642 22.309 298.116 21.793 298.602C21.967 298.59 22.147 298.578 22.333 298.566C22.525 298.548 22.705 298.539 22.873 298.539H24.7V299.25H20.551ZM31.7712 291.807H32.4912V299.952H31.7712V291.807ZM30.4572 295.083H32.0232V295.695H30.4572V295.083ZM28.3602 292.86H29.0712C29.0712 293.382 29.0202 293.892 28.9182 294.39C28.8162 294.888 28.6482 295.368 28.4142 295.83C28.1862 296.286 27.8772 296.715 27.4872 297.117C27.0972 297.513 26.6112 297.876 26.0292 298.206L25.5972 297.675C26.2812 297.291 26.8242 296.856 27.2262 296.37C27.6282 295.884 27.9162 295.359 28.0902 294.795C28.2702 294.225 28.3602 293.625 28.3602 292.995V292.86ZM25.9122 292.86H28.6032V293.472H25.9122V292.86ZM29.9712 292.023H30.6732V299.547H29.9712V292.023ZM36.0635 295.173H36.8015V296.631H36.0635V295.173ZM39.7895 291.816H40.5365V296.604H39.7895V291.816ZM33.9395 295.425L33.8495 294.876C34.3715 294.876 34.9295 294.873 35.5235 294.867C36.1235 294.855 36.7325 294.837 37.3505 294.813C37.9685 294.783 38.5685 294.735 39.1505 294.669L39.1955 295.155C38.6015 295.239 37.9955 295.302 37.3775 295.344C36.7655 295.38 36.1655 295.404 35.5775 295.416C34.9955 295.422 34.4495 295.425 33.9395 295.425ZM35.0825 296.901H40.5365V298.593H35.8385V299.511H35.1095V298.089H39.7985V297.432H35.0825V296.901ZM35.1095 299.313H40.8065V299.862H35.1095V299.313ZM38.1695 295.686H40.0325V296.172H38.1695V295.686ZM36.4775 291.969C36.8795 291.969 37.2305 292.017 37.5305 292.113C37.8305 292.209 38.0645 292.35 38.2325 292.536C38.4005 292.722 38.4845 292.941 38.4845 293.193C38.4845 293.439 38.4005 293.655 38.2325 293.841C38.0645 294.021 37.8305 294.162 37.5305 294.264C37.2305 294.36 36.8795 294.408 36.4775 294.408C36.0755 294.408 35.7215 294.36 35.4155 294.264C35.1155 294.162 34.8815 294.021 34.7135 293.841C34.5515 293.655 34.4705 293.439 34.4705 293.193C34.4705 292.941 34.5515 292.722 34.7135 292.536C34.8815 292.35 35.1155 292.209 35.4155 292.113C35.7215 292.017 36.0755 291.969 36.4775 291.969ZM36.4775 292.482C36.0815 292.482 35.7635 292.545 35.5235 292.671C35.2895 292.797 35.1725 292.971 35.1725 293.193C35.1725 293.403 35.2895 293.574 35.5235 293.706C35.7635 293.832 36.0815 293.895 36.4775 293.895C36.8735 293.895 37.1885 293.832 37.4225 293.706C37.6625 293.574 37.7825 293.403 37.7825 293.193C37.7825 292.971 37.6625 292.797 37.4225 292.671C37.1885 292.545 36.8735 292.482 36.4775 292.482ZM48.4795 294.057H50.5405V294.669H48.4795V294.057ZM50.1175 291.816H50.8645V297.783H50.1175V291.816ZM45.6715 299.16H51.0895V299.772H45.6715V299.16ZM45.6715 297.252H46.4095V299.466H45.6715V297.252ZM46.2385 292.824H46.8505V293.481C46.8505 293.973 46.7545 294.438 46.5625 294.876C46.3765 295.308 46.1125 295.686 45.7705 296.01C45.4285 296.328 45.0325 296.574 44.5825 296.748L44.1955 296.145C44.4955 296.037 44.7685 295.893 45.0145 295.713C45.2665 295.533 45.4855 295.326 45.6715 295.092C45.8575 294.858 45.9985 294.603 46.0945 294.327C46.1905 294.051 46.2385 293.769 46.2385 293.481V292.824ZM46.3825 292.824H46.9945V293.481C46.9945 293.829 47.0755 294.168 47.2375 294.498C47.3995 294.828 47.6305 295.122 47.9305 295.38C48.2305 295.632 48.5755 295.827 48.9655 295.965L48.5875 296.559C48.1435 296.397 47.7565 296.163 47.4265 295.857C47.0965 295.545 46.8385 295.185 46.6525 294.777C46.4725 294.369 46.3825 293.937 46.3825 293.481V292.824ZM44.4295 292.473H48.7765V293.085H44.4295V292.473Z" fill="#777777"/>
<path d="M326.544 291.807H327.291V299.952H326.544V291.807ZM324.159 292.689H324.897C324.897 293.277 324.825 293.844 324.681 294.39C324.543 294.936 324.324 295.455 324.024 295.947C323.724 296.433 323.334 296.886 322.854 297.306C322.374 297.726 321.792 298.101 321.108 298.431L320.712 297.828C321.498 297.45 322.146 297.009 322.656 296.505C323.166 296.001 323.544 295.44 323.79 294.822C324.036 294.198 324.159 293.526 324.159 292.806V292.689ZM321.09 292.689H324.474V293.292H321.09V292.689ZM332.087 292.581H332.744V292.824C332.744 293.166 332.66 293.481 332.492 293.769C332.324 294.057 332.093 294.315 331.799 294.543C331.511 294.765 331.178 294.951 330.8 295.101C330.428 295.245 330.032 295.347 329.612 295.407L329.333 294.813C329.621 294.771 329.9 294.708 330.17 294.624C330.446 294.54 330.698 294.438 330.926 294.318C331.154 294.192 331.355 294.051 331.529 293.895C331.703 293.739 331.838 293.571 331.934 293.391C332.036 293.211 332.087 293.022 332.087 292.824V292.581ZM332.393 292.581H333.05V292.824C333.05 293.016 333.098 293.202 333.194 293.382C333.296 293.562 333.434 293.733 333.608 293.895C333.782 294.051 333.983 294.192 334.211 294.318C334.445 294.438 334.697 294.54 334.967 294.624C335.237 294.708 335.516 294.771 335.804 294.813L335.525 295.407C335.111 295.347 334.715 295.245 334.337 295.101C333.959 294.951 333.626 294.765 333.338 294.543C333.05 294.315 332.819 294.057 332.645 293.769C332.477 293.481 332.393 293.166 332.393 292.824V292.581ZM329.567 292.212H335.579V292.815H329.567V292.212ZM328.883 295.992H336.263V296.604H328.883V295.992ZM332.249 296.379H332.996V298.251H332.249V296.379ZM329.819 299.16H335.444V299.772H329.819V299.16ZM329.819 297.459H330.566V299.385H329.819V297.459ZM339.358 295.173H340.096V296.631H339.358V295.173ZM343.084 291.816H343.831V296.604H343.084V291.816ZM337.234 295.425L337.144 294.876C337.666 294.876 338.224 294.873 338.818 294.867C339.418 294.855 340.027 294.837 340.645 294.813C341.263 294.783 341.863 294.735 342.445 294.669L342.49 295.155C341.896 295.239 341.29 295.302 340.672 295.344C340.06 295.38 339.46 295.404 338.872 295.416C338.29 295.422 337.744 295.425 337.234 295.425ZM338.377 296.901H343.831V298.593H339.133V299.511H338.404V298.089H343.093V297.432H338.377V296.901ZM338.404 299.313H344.101V299.862H338.404V299.313ZM341.464 295.686H343.327V296.172H341.464V295.686ZM339.772 291.969C340.174 291.969 340.525 292.017 340.825 292.113C341.125 292.209 341.359 292.35 341.527 292.536C341.695 292.722 341.779 292.941 341.779 293.193C341.779 293.439 341.695 293.655 341.527 293.841C341.359 294.021 341.125 294.162 340.825 294.264C340.525 294.36 340.174 294.408 339.772 294.408C339.37 294.408 339.016 294.36 338.71 294.264C338.41 294.162 338.176 294.021 338.008 293.841C337.846 293.655 337.765 293.439 337.765 293.193C337.765 292.941 337.846 292.722 338.008 292.536C338.176 292.35 338.41 292.209 338.71 292.113C339.016 292.017 339.37 291.969 339.772 291.969ZM339.772 292.482C339.376 292.482 339.058 292.545 338.818 292.671C338.584 292.797 338.467 292.971 338.467 293.193C338.467 293.403 338.584 293.574 338.818 293.706C339.058 293.832 339.376 293.895 339.772 293.895C340.168 293.895 340.483 293.832 340.717 293.706C340.957 293.574 341.077 293.403 341.077 293.193C341.077 292.971 340.957 292.797 340.717 292.671C340.483 292.545 340.168 292.482 339.772 292.482Z" fill="#777777"/>
<path d="M16.7796 229.617C16.4376 229.617 16.1346 229.575 15.8706 229.491C15.6126 229.407 15.3846 229.296 15.1866 229.158C14.9886 229.02 14.8176 228.87 14.6736 228.708L15.0966 228.177C15.2886 228.375 15.5136 228.552 15.7716 228.708C16.0356 228.858 16.3536 228.933 16.7256 228.933C16.9896 228.933 17.2206 228.885 17.4186 228.789C17.6226 228.687 17.7816 228.546 17.8956 228.366C18.0096 228.18 18.0666 227.961 18.0666 227.709C18.0666 227.445 18.0006 227.214 17.8686 227.016C17.7426 226.818 17.5296 226.665 17.2296 226.557C16.9296 226.443 16.5246 226.386 16.0146 226.386V225.756C16.4706 225.756 16.8306 225.702 17.0946 225.594C17.3586 225.48 17.5476 225.327 17.6616 225.135C17.7816 224.943 17.8416 224.73 17.8416 224.496C17.8416 224.178 17.7426 223.926 17.5446 223.74C17.3466 223.548 17.0736 223.452 16.7256 223.452C16.4616 223.452 16.2126 223.512 15.9786 223.632C15.7506 223.752 15.5436 223.905 15.3576 224.091L14.9166 223.569C15.1686 223.341 15.4416 223.155 15.7356 223.011C16.0356 222.861 16.3746 222.786 16.7526 222.786C17.1246 222.786 17.4546 222.852 17.7426 222.984C18.0366 223.11 18.2646 223.296 18.4266 223.542C18.5946 223.788 18.6786 224.085 18.6786 224.433C18.6786 224.835 18.5706 225.168 18.3546 225.432C18.1386 225.696 17.8566 225.891 17.5086 226.017V226.062C17.7666 226.122 18.0006 226.227 18.2106 226.377C18.4206 226.527 18.5886 226.716 18.7146 226.944C18.8406 227.172 18.9036 227.436 18.9036 227.736C18.9036 228.126 18.8076 228.462 18.6156 228.744C18.4236 229.026 18.1686 229.242 17.8506 229.392C17.5326 229.542 17.1756 229.617 16.7796 229.617ZM21.9068 229.617C21.4928 229.617 21.1298 229.491 20.8178 229.239C20.5118 228.987 20.2748 228.606 20.1068 228.096C19.9388 227.586 19.8548 226.947 19.8548 226.179C19.8548 225.411 19.9388 224.778 20.1068 224.28C20.2748 223.776 20.5118 223.401 20.8178 223.155C21.1298 222.909 21.4928 222.786 21.9068 222.786C22.3268 222.786 22.6898 222.912 22.9958 223.164C23.3018 223.41 23.5388 223.782 23.7068 224.28C23.8748 224.778 23.9588 225.411 23.9588 226.179C23.9588 226.947 23.8748 227.586 23.7068 228.096C23.5388 228.606 23.3018 228.987 22.9958 229.239C22.6898 229.491 22.3268 229.617 21.9068 229.617ZM21.9068 228.951C22.1588 228.951 22.3778 228.855 22.5638 228.663C22.7558 228.471 22.9028 228.171 23.0048 227.763C23.1128 227.349 23.1668 226.821 23.1668 226.179C23.1668 225.537 23.1128 225.015 23.0048 224.613C22.9028 224.205 22.7558 223.908 22.5638 223.722C22.3778 223.53 22.1588 223.434 21.9068 223.434C21.6608 223.434 21.4418 223.53 21.2498 223.722C21.0578 223.908 20.9078 224.205 20.7998 224.613C20.6978 225.015 20.6468 225.537 20.6468 226.179C20.6468 226.821 20.6978 227.349 20.7998 227.763C20.9078 228.171 21.0578 228.471 21.2498 228.663C21.4418 228.855 21.6608 228.951 21.9068 228.951Z" fill="#313131"/>
<path d="M53.5208 220.617C53.1788 220.617 52.8758 220.575 52.6118 220.491C52.3538 220.407 52.1258 220.299 51.9278 220.167C51.7358 220.035 51.5618 219.894 51.4058 219.744L51.8198 219.204C51.9458 219.33 52.0838 219.45 52.2338 219.564C52.3898 219.672 52.5668 219.762 52.7648 219.834C52.9628 219.9 53.1878 219.933 53.4398 219.933C53.6978 219.933 53.9318 219.87 54.1418 219.744C54.3578 219.618 54.5288 219.438 54.6548 219.204C54.7808 218.97 54.8438 218.694 54.8438 218.376C54.8438 217.908 54.7178 217.542 54.4658 217.278C54.2198 217.008 53.8898 216.873 53.4758 216.873C53.2598 216.873 53.0708 216.906 52.9088 216.972C52.7468 217.038 52.5698 217.134 52.3778 217.26L51.9368 216.981L52.1528 213.903H55.3568V214.605H52.8728L52.7018 216.513C52.8458 216.429 52.9958 216.366 53.1518 216.324C53.3138 216.276 53.4938 216.252 53.6918 216.252C54.0578 216.252 54.3908 216.327 54.6908 216.477C54.9908 216.621 55.2308 216.849 55.4108 217.161C55.5908 217.473 55.6808 217.872 55.6808 218.358C55.6808 218.838 55.5758 219.246 55.3658 219.582C55.1618 219.918 54.8948 220.176 54.5648 220.356C54.2348 220.53 53.8868 220.617 53.5208 220.617ZM58.657 220.617C58.243 220.617 57.88 220.491 57.568 220.239C57.262 219.987 57.025 219.606 56.857 219.096C56.689 218.586 56.605 217.947 56.605 217.179C56.605 216.411 56.689 215.778 56.857 215.28C57.025 214.776 57.262 214.401 57.568 214.155C57.88 213.909 58.243 213.786 58.657 213.786C59.077 213.786 59.44 213.912 59.746 214.164C60.052 214.41 60.289 214.782 60.457 215.28C60.625 215.778 60.709 216.411 60.709 217.179C60.709 217.947 60.625 218.586 60.457 219.096C60.289 219.606 60.052 219.987 59.746 220.239C59.44 220.491 59.077 220.617 58.657 220.617ZM58.657 219.951C58.909 219.951 59.128 219.855 59.314 219.663C59.506 219.471 59.653 219.171 59.755 218.763C59.863 218.349 59.917 217.821 59.917 217.179C59.917 216.537 59.863 216.015 59.755 215.613C59.653 215.205 59.506 214.908 59.314 214.722C59.128 214.53 58.909 214.434 58.657 214.434C58.411 214.434 58.192 214.53 58 214.722C57.808 214.908 57.658 215.205 57.55 215.613C57.448 216.015 57.397 216.537 57.397 217.179C57.397 217.821 57.448 218.349 57.55 218.763C57.658 219.171 57.808 219.471 58 219.663C58.192 219.855 58.411 219.951 58.657 219.951Z" fill="#313131"/>
<path d="M68.8088 237V236.514C69.4988 235.908 70.0658 235.356 70.5098 234.858C70.9598 234.36 71.2928 233.898 71.5088 233.472C71.7248 233.04 71.8328 232.635 71.8328 232.257C71.8328 232.005 71.7878 231.78 71.6978 231.582C71.6138 231.384 71.4818 231.231 71.3018 231.123C71.1218 231.009 70.8938 230.952 70.6178 230.952C70.3478 230.952 70.0958 231.024 69.8618 231.168C69.6338 231.312 69.4298 231.495 69.2498 231.717L68.7728 231.249C69.0368 230.955 69.3218 230.721 69.6278 230.547C69.9338 230.373 70.2968 230.286 70.7168 230.286C71.1128 230.286 71.4518 230.367 71.7338 230.529C72.0218 230.685 72.2438 230.91 72.3998 231.204C72.5618 231.492 72.6428 231.831 72.6428 232.221C72.6428 232.659 72.5318 233.103 72.3098 233.553C72.0938 234.003 71.7908 234.462 71.4008 234.93C71.0168 235.392 70.5668 235.866 70.0508 236.352C70.2248 236.34 70.4048 236.328 70.5908 236.316C70.7828 236.298 70.9628 236.289 71.1308 236.289H72.9578V237H68.8088ZM75.907 237.117C75.493 237.117 75.13 236.991 74.818 236.739C74.512 236.487 74.275 236.106 74.107 235.596C73.939 235.086 73.855 234.447 73.855 233.679C73.855 232.911 73.939 232.278 74.107 231.78C74.275 231.276 74.512 230.901 74.818 230.655C75.13 230.409 75.493 230.286 75.907 230.286C76.327 230.286 76.69 230.412 76.996 230.664C77.302 230.91 77.539 231.282 77.707 231.78C77.875 232.278 77.959 232.911 77.959 233.679C77.959 234.447 77.875 235.086 77.707 235.596C77.539 236.106 77.302 236.487 76.996 236.739C76.69 236.991 76.327 237.117 75.907 237.117ZM75.907 236.451C76.159 236.451 76.378 236.355 76.564 236.163C76.756 235.971 76.903 235.671 77.005 235.263C77.113 234.849 77.167 234.321 77.167 233.679C77.167 233.037 77.113 232.515 77.005 232.113C76.903 231.705 76.756 231.408 76.564 231.222C76.378 231.03 76.159 230.934 75.907 230.934C75.661 230.934 75.442 231.03 75.25 231.222C75.058 231.408 74.908 231.705 74.8 232.113C74.698 232.515 74.647 233.037 74.647 233.679C74.647 234.321 74.698 234.849 74.8 235.263C74.908 235.671 75.058 235.971 75.25 236.163C75.442 236.355 75.661 236.451 75.907 236.451Z" fill="#313131"/>
<path d="M98.4546 248.25V247.566H99.9306V242.643H98.7516V242.121C99.0456 242.067 99.3006 242.001 99.5166 241.923C99.7386 241.845 99.9396 241.755 100.12 241.653H100.75V247.566H102.073V248.25H98.4546ZM105.364 248.367C105.052 248.367 104.761 248.301 104.491 248.169C104.221 248.031 103.987 247.827 103.789 247.557C103.591 247.281 103.435 246.939 103.321 246.531C103.213 246.123 103.159 245.646 103.159 245.1C103.159 244.458 103.225 243.909 103.357 243.453C103.489 242.997 103.669 242.628 103.897 242.346C104.125 242.064 104.386 241.86 104.68 241.734C104.974 241.602 105.28 241.536 105.598 241.536C105.94 241.536 106.237 241.599 106.489 241.725C106.741 241.851 106.96 242.013 107.146 242.211L106.678 242.715C106.552 242.559 106.396 242.436 106.21 242.346C106.024 242.256 105.832 242.211 105.634 242.211C105.322 242.211 105.037 242.304 104.779 242.49C104.521 242.67 104.314 242.97 104.158 243.39C104.008 243.81 103.933 244.38 103.933 245.1C103.933 245.664 103.987 246.141 104.095 246.531C104.209 246.921 104.371 247.218 104.581 247.422C104.797 247.62 105.058 247.719 105.364 247.719C105.58 247.719 105.769 247.656 105.931 247.53C106.099 247.404 106.231 247.23 106.327 247.008C106.429 246.78 106.48 246.519 106.48 246.225C106.48 245.925 106.435 245.667 106.345 245.451C106.261 245.229 106.132 245.061 105.958 244.947C105.784 244.827 105.562 244.767 105.292 244.767C105.082 244.767 104.854 244.836 104.608 244.974C104.362 245.106 104.128 245.337 103.906 245.667L103.879 245.019C104.017 244.839 104.17 244.686 104.338 244.56C104.506 244.428 104.683 244.329 104.869 244.263C105.061 244.191 105.247 244.155 105.427 244.155C105.799 244.155 106.12 244.233 106.39 244.389C106.666 244.539 106.879 244.767 107.029 245.073C107.185 245.379 107.263 245.763 107.263 246.225C107.263 246.651 107.176 247.026 107.002 247.35C106.828 247.668 106.597 247.917 106.309 248.097C106.027 248.277 105.712 248.367 105.364 248.367Z" fill="#313131"/>
<path d="M134.455 240V239.316H135.931V234.393H134.752V233.871C135.046 233.817 135.301 233.751 135.517 233.673C135.739 233.595 135.94 233.505 136.12 233.403H136.75V239.316H138.073V240H134.455ZM141.175 240.117C140.767 240.117 140.404 240.042 140.086 239.892C139.768 239.742 139.519 239.535 139.339 239.271C139.159 239.007 139.069 238.704 139.069 238.362C139.069 238.068 139.126 237.804 139.24 237.57C139.36 237.33 139.513 237.126 139.699 236.958C139.885 236.784 140.077 236.643 140.275 236.535V236.499C140.035 236.331 139.825 236.124 139.645 235.878C139.471 235.626 139.384 235.326 139.384 234.978C139.384 234.642 139.462 234.351 139.618 234.105C139.78 233.853 139.996 233.658 140.266 233.52C140.542 233.376 140.851 233.304 141.193 233.304C141.571 233.304 141.895 233.379 142.165 233.529C142.435 233.679 142.642 233.883 142.786 234.141C142.93 234.399 143.002 234.699 143.002 235.041C143.002 235.269 142.954 235.485 142.858 235.689C142.768 235.893 142.657 236.076 142.525 236.238C142.393 236.394 142.261 236.526 142.129 236.634V236.679C142.321 236.787 142.501 236.919 142.669 237.075C142.837 237.225 142.972 237.411 143.074 237.633C143.182 237.849 143.236 238.11 143.236 238.416C143.236 238.728 143.149 239.016 142.975 239.28C142.807 239.538 142.567 239.742 142.255 239.892C141.949 240.042 141.589 240.117 141.175 240.117ZM141.625 236.418C141.847 236.22 142.015 236.01 142.129 235.788C142.243 235.56 142.3 235.326 142.3 235.086C142.3 234.864 142.255 234.666 142.165 234.492C142.081 234.318 141.955 234.18 141.787 234.078C141.619 233.97 141.418 233.916 141.184 233.916C140.878 233.916 140.626 234.012 140.428 234.204C140.23 234.396 140.131 234.654 140.131 234.978C140.131 235.236 140.2 235.455 140.338 235.635C140.482 235.809 140.668 235.959 140.896 236.085C141.124 236.205 141.367 236.316 141.625 236.418ZM141.184 239.505C141.442 239.505 141.664 239.457 141.85 239.361C142.042 239.265 142.189 239.133 142.291 238.965C142.399 238.797 142.453 238.605 142.453 238.389C142.453 238.167 142.405 237.978 142.309 237.822C142.213 237.66 142.084 237.519 141.922 237.399C141.766 237.279 141.583 237.171 141.373 237.075C141.163 236.979 140.941 236.886 140.707 236.796C140.443 236.964 140.224 237.177 140.05 237.435C139.882 237.687 139.798 237.972 139.798 238.29C139.798 238.518 139.858 238.725 139.978 238.911C140.098 239.097 140.263 239.244 140.473 239.352C140.689 239.454 140.926 239.505 141.184 239.505Z" fill="#313131"/>
<path d="M174.205 248.25V247.566H175.681V242.643H174.502V242.121C174.796 242.067 175.051 242.001 175.267 241.923C175.489 241.845 175.69 241.755 175.87 241.653H176.5V247.566H177.823V248.25H174.205ZM181.114 248.367C180.802 248.367 180.511 248.301 180.241 248.169C179.971 248.031 179.737 247.827 179.539 247.557C179.341 247.281 179.185 246.939 179.071 246.531C178.963 246.123 178.909 245.646 178.909 245.1C178.909 244.458 178.975 243.909 179.107 243.453C179.239 242.997 179.419 242.628 179.647 242.346C179.875 242.064 180.136 241.86 180.43 241.734C180.724 241.602 181.03 241.536 181.348 241.536C181.69 241.536 181.987 241.599 182.239 241.725C182.491 241.851 182.71 242.013 182.896 242.211L182.428 242.715C182.302 242.559 182.146 242.436 181.96 242.346C181.774 242.256 181.582 242.211 181.384 242.211C181.072 242.211 180.787 242.304 180.529 242.49C180.271 242.67 180.064 242.97 179.908 243.39C179.758 243.81 179.683 244.38 179.683 245.1C179.683 245.664 179.737 246.141 179.845 246.531C179.959 246.921 180.121 247.218 180.331 247.422C180.547 247.62 180.808 247.719 181.114 247.719C181.33 247.719 181.519 247.656 181.681 247.53C181.849 247.404 181.981 247.23 182.077 247.008C182.179 246.78 182.23 246.519 182.23 246.225C182.23 245.925 182.185 245.667 182.095 245.451C182.011 245.229 181.882 245.061 181.708 244.947C181.534 244.827 181.312 244.767 181.042 244.767C180.832 244.767 180.604 244.836 180.358 244.974C180.112 245.106 179.878 245.337 179.656 245.667L179.629 245.019C179.767 244.839 179.92 244.686 180.088 244.56C180.256 244.428 180.433 244.329 180.619 244.263C180.811 244.191 180.997 244.155 181.177 244.155C181.549 244.155 181.87 244.233 182.14 244.389C182.416 244.539 182.629 244.767 182.779 245.073C182.935 245.379 183.013 245.763 183.013 246.225C183.013 246.651 182.926 247.026 182.752 247.35C182.578 247.668 182.347 247.917 182.059 248.097C181.777 248.277 181.462 248.367 181.114 248.367Z" fill="#313131"/>
<path d="M206.872 215.367C206.56 215.367 206.269 215.301 205.999 215.169C205.729 215.031 205.495 214.827 205.297 214.557C205.099 214.281 204.943 213.939 204.829 213.531C204.721 213.123 204.667 212.646 204.667 212.1C204.667 211.458 204.733 210.909 204.865 210.453C204.997 209.997 205.177 209.628 205.405 209.346C205.633 209.064 205.894 208.86 206.188 208.734C206.482 208.602 206.788 208.536 207.106 208.536C207.448 208.536 207.745 208.599 207.997 208.725C208.249 208.851 208.468 209.013 208.654 209.211L208.186 209.715C208.06 209.559 207.904 209.436 207.718 209.346C207.532 209.256 207.34 209.211 207.142 209.211C206.83 209.211 206.545 209.304 206.287 209.49C206.029 209.67 205.822 209.97 205.666 210.39C205.516 210.81 205.441 211.38 205.441 212.1C205.441 212.664 205.495 213.141 205.603 213.531C205.717 213.921 205.879 214.218 206.089 214.422C206.305 214.62 206.566 214.719 206.872 214.719C207.088 214.719 207.277 214.656 207.439 214.53C207.607 214.404 207.739 214.23 207.835 214.008C207.937 213.78 207.988 213.519 207.988 213.225C207.988 212.925 207.943 212.667 207.853 212.451C207.769 212.229 207.64 212.061 207.466 211.947C207.292 211.827 207.07 211.767 206.8 211.767C206.59 211.767 206.362 211.836 206.116 211.974C205.87 212.106 205.636 212.337 205.414 212.667L205.387 212.019C205.525 211.839 205.678 211.686 205.846 211.56C206.014 211.428 206.191 211.329 206.377 211.263C206.569 211.191 206.755 211.155 206.935 211.155C207.307 211.155 207.628 211.233 207.898 211.389C208.174 211.539 208.387 211.767 208.537 212.073C208.693 212.379 208.771 212.763 208.771 213.225C208.771 213.651 208.684 214.026 208.51 214.35C208.336 214.668 208.105 214.917 207.817 215.097C207.535 215.277 207.22 215.367 206.872 215.367ZM209.551 215.25V214.764C210.241 214.158 210.808 213.606 211.252 213.108C211.702 212.61 212.035 212.148 212.251 211.722C212.467 211.29 212.575 210.885 212.575 210.507C212.575 210.255 212.53 210.03 212.44 209.832C212.356 209.634 212.224 209.481 212.044 209.373C211.864 209.259 211.636 209.202 211.36 209.202C211.09 209.202 210.838 209.274 210.604 209.418C210.376 209.562 210.172 209.745 209.992 209.967L209.515 209.499C209.779 209.205 210.064 208.971 210.37 208.797C210.676 208.623 211.039 208.536 211.459 208.536C211.855 208.536 212.194 208.617 212.476 208.779C212.764 208.935 212.986 209.16 213.142 209.454C213.304 209.742 213.385 210.081 213.385 210.471C213.385 210.909 213.274 211.353 213.052 211.803C212.836 212.253 212.533 212.712 212.143 213.18C211.759 213.642 211.309 214.116 210.793 214.602C210.967 214.59 211.147 214.578 211.333 214.566C211.525 214.548 211.705 214.539 211.873 214.539H213.7V215.25H209.551Z" fill="#313131"/>
<path d="M227.473 226.5V222C227.473 221.838 227.479 221.64 227.491 221.406C227.503 221.172 227.512 220.971 227.518 220.803H227.482C227.398 220.959 227.311 221.121 227.221 221.289C227.137 221.451 227.047 221.613 226.951 221.775L225.448 224.025H229.129V224.682H224.593V224.142L227.338 219.903H228.247V226.5H227.473ZM231.925 226.617C231.517 226.617 231.154 226.542 230.836 226.392C230.518 226.242 230.269 226.035 230.089 225.771C229.909 225.507 229.819 225.204 229.819 224.862C229.819 224.568 229.876 224.304 229.99 224.07C230.11 223.83 230.263 223.626 230.449 223.458C230.635 223.284 230.827 223.143 231.025 223.035V222.999C230.785 222.831 230.575 222.624 230.395 222.378C230.221 222.126 230.134 221.826 230.134 221.478C230.134 221.142 230.212 220.851 230.368 220.605C230.53 220.353 230.746 220.158 231.016 220.02C231.292 219.876 231.601 219.804 231.943 219.804C232.321 219.804 232.645 219.879 232.915 220.029C233.185 220.179 233.392 220.383 233.536 220.641C233.68 220.899 233.752 221.199 233.752 221.541C233.752 221.769 233.704 221.985 233.608 222.189C233.518 222.393 233.407 222.576 233.275 222.738C233.143 222.894 233.011 223.026 232.879 223.134V223.179C233.071 223.287 233.251 223.419 233.419 223.575C233.587 223.725 233.722 223.911 233.824 224.133C233.932 224.349 233.986 224.61 233.986 224.916C233.986 225.228 233.899 225.516 233.725 225.78C233.557 226.038 233.317 226.242 233.005 226.392C232.699 226.542 232.339 226.617 231.925 226.617ZM232.375 222.918C232.597 222.72 232.765 222.51 232.879 222.288C232.993 222.06 233.05 221.826 233.05 221.586C233.05 221.364 233.005 221.166 232.915 220.992C232.831 220.818 232.705 220.68 232.537 220.578C232.369 220.47 232.168 220.416 231.934 220.416C231.628 220.416 231.376 220.512 231.178 220.704C230.98 220.896 230.881 221.154 230.881 221.478C230.881 221.736 230.95 221.955 231.088 222.135C231.232 222.309 231.418 222.459 231.646 222.585C231.874 222.705 232.117 222.816 232.375 222.918ZM231.934 226.005C232.192 226.005 232.414 225.957 232.6 225.861C232.792 225.765 232.939 225.633 233.041 225.465C233.149 225.297 233.203 225.105 233.203 224.889C233.203 224.667 233.155 224.478 233.059 224.322C232.963 224.16 232.834 224.019 232.672 223.899C232.516 223.779 232.333 223.671 232.123 223.575C231.913 223.479 231.691 223.386 231.457 223.296C231.193 223.464 230.974 223.677 230.8 223.935C230.632 224.187 230.548 224.472 230.548 224.79C230.548 225.018 230.608 225.225 230.728 225.411C230.848 225.597 231.013 225.744 231.223 225.852C231.439 225.954 231.676 226.005 231.934 226.005Z" fill="#313131"/>
<path d="M254.473 237.75V233.25C254.473 233.088 254.479 232.89 254.491 232.656C254.503 232.422 254.512 232.221 254.518 232.053H254.482C254.398 232.209 254.311 232.371 254.221 232.539C254.137 232.701 254.047 232.863 253.951 233.025L252.448 235.275H256.129V235.932H251.593V235.392L254.338 231.153H255.247V237.75H254.473ZM258.907 237.867C258.493 237.867 258.13 237.741 257.818 237.489C257.512 237.237 257.275 236.856 257.107 236.346C256.939 235.836 256.855 235.197 256.855 234.429C256.855 233.661 256.939 233.028 257.107 232.53C257.275 232.026 257.512 231.651 257.818 231.405C258.13 231.159 258.493 231.036 258.907 231.036C259.327 231.036 259.69 231.162 259.996 231.414C260.302 231.66 260.539 232.032 260.707 232.53C260.875 233.028 260.959 233.661 260.959 234.429C260.959 235.197 260.875 235.836 260.707 236.346C260.539 236.856 260.302 237.237 259.996 237.489C259.69 237.741 259.327 237.867 258.907 237.867ZM258.907 237.201C259.159 237.201 259.378 237.105 259.564 236.913C259.756 236.721 259.903 236.421 260.005 236.013C260.113 235.599 260.167 235.071 260.167 234.429C260.167 233.787 260.113 233.265 260.005 232.863C259.903 232.455 259.756 232.158 259.564 231.972C259.378 231.78 259.159 231.684 258.907 231.684C258.661 231.684 258.442 231.78 258.25 231.972C258.058 232.158 257.908 232.455 257.8 232.863C257.698 233.265 257.647 233.787 257.647 234.429C257.647 235.071 257.698 235.599 257.8 236.013C257.908 236.421 258.058 236.721 258.25 236.913C258.442 237.105 258.661 237.201 258.907 237.201Z" fill="#313131"/>
<path d="M268.705 253.5V252.816H270.181V247.893H269.002V247.371C269.296 247.317 269.551 247.251 269.767 247.173C269.989 247.095 270.19 247.005 270.37 246.903H271V252.816H272.323V253.5H268.705ZM273.301 253.5V253.014C273.991 252.408 274.558 251.856 275.002 251.358C275.452 250.86 275.785 250.398 276.001 249.972C276.217 249.54 276.325 249.135 276.325 248.757C276.325 248.505 276.28 248.28 276.19 248.082C276.106 247.884 275.974 247.731 275.794 247.623C275.614 247.509 275.386 247.452 275.11 247.452C274.84 247.452 274.588 247.524 274.354 247.668C274.126 247.812 273.922 247.995 273.742 248.217L273.265 247.749C273.529 247.455 273.814 247.221 274.12 247.047C274.426 246.873 274.789 246.786 275.209 246.786C275.605 246.786 275.944 246.867 276.226 247.029C276.514 247.185 276.736 247.41 276.892 247.704C277.054 247.992 277.135 248.331 277.135 248.721C277.135 249.159 277.024 249.603 276.802 250.053C276.586 250.503 276.283 250.962 275.893 251.43C275.509 251.892 275.059 252.366 274.543 252.852C274.717 252.84 274.897 252.828 275.083 252.816C275.275 252.798 275.455 252.789 275.623 252.789H277.45V253.5H273.301Z" fill="#313131"/>
<path d="M301.705 251.25V250.566H303.181V245.643H302.002V245.121C302.296 245.067 302.551 245.001 302.767 244.923C302.989 244.845 303.19 244.755 303.37 244.653H304V250.566H305.323V251.25H301.705ZM308.965 251.25V246.75C308.965 246.588 308.971 246.39 308.983 246.156C308.995 245.922 309.004 245.721 309.01 245.553H308.974C308.89 245.709 308.803 245.871 308.713 246.039C308.629 246.201 308.539 246.363 308.443 246.525L306.94 248.775H310.621V249.432H306.085V248.892L308.83 244.653H309.739V251.25H308.965Z" fill="#313131"/>
<path d="M337.78 234.867C337.438 234.867 337.135 234.825 336.871 234.741C336.613 234.657 336.385 234.546 336.187 234.408C335.989 234.27 335.818 234.12 335.674 233.958L336.097 233.427C336.289 233.625 336.514 233.802 336.772 233.958C337.036 234.108 337.354 234.183 337.726 234.183C337.99 234.183 338.221 234.135 338.419 234.039C338.623 233.937 338.782 233.796 338.896 233.616C339.01 233.43 339.067 233.211 339.067 232.959C339.067 232.695 339.001 232.464 338.869 232.266C338.743 232.068 338.53 231.915 338.23 231.807C337.93 231.693 337.525 231.636 337.015 231.636V231.006C337.471 231.006 337.831 230.952 338.095 230.844C338.359 230.73 338.548 230.577 338.662 230.385C338.782 230.193 338.842 229.98 338.842 229.746C338.842 229.428 338.743 229.176 338.545 228.99C338.347 228.798 338.074 228.702 337.726 228.702C337.462 228.702 337.213 228.762 336.979 228.882C336.751 229.002 336.544 229.155 336.358 229.341L335.917 228.819C336.169 228.591 336.442 228.405 336.736 228.261C337.036 228.111 337.375 228.036 337.753 228.036C338.125 228.036 338.455 228.102 338.743 228.234C339.037 228.36 339.265 228.546 339.427 228.792C339.595 229.038 339.679 229.335 339.679 229.683C339.679 230.085 339.571 230.418 339.355 230.682C339.139 230.946 338.857 231.141 338.509 231.267V231.312C338.767 231.372 339.001 231.477 339.211 231.627C339.421 231.777 339.589 231.966 339.715 232.194C339.841 232.422 339.904 232.686 339.904 232.986C339.904 233.376 339.808 233.712 339.616 233.994C339.424 234.276 339.169 234.492 338.851 234.642C338.533 234.792 338.176 234.867 337.78 234.867ZM342.907 234.867C342.493 234.867 342.13 234.741 341.818 234.489C341.512 234.237 341.275 233.856 341.107 233.346C340.939 232.836 340.855 232.197 340.855 231.429C340.855 230.661 340.939 230.028 341.107 229.53C341.275 229.026 341.512 228.651 341.818 228.405C342.13 228.159 342.493 228.036 342.907 228.036C343.327 228.036 343.69 228.162 343.996 228.414C344.302 228.66 344.539 229.032 344.707 229.53C344.875 230.028 344.959 230.661 344.959 231.429C344.959 232.197 344.875 232.836 344.707 233.346C344.539 233.856 344.302 234.237 343.996 234.489C343.69 234.741 343.327 234.867 342.907 234.867ZM342.907 234.201C343.159 234.201 343.378 234.105 343.564 233.913C343.756 233.721 343.903 233.421 344.005 233.013C344.113 232.599 344.167 232.071 344.167 231.429C344.167 230.787 344.113 230.265 344.005 229.863C343.903 229.455 343.756 229.158 343.564 228.972C343.378 228.78 343.159 228.684 342.907 228.684C342.661 228.684 342.442 228.78 342.25 228.972C342.058 229.158 341.908 229.455 341.8 229.863C341.698 230.265 341.647 230.787 341.647 231.429C341.647 232.071 341.698 232.599 341.8 233.013C341.908 233.421 342.058 233.721 342.25 233.913C342.442 234.105 342.661 234.201 342.907 234.201Z" fill="#313131"/>
<rect x="195.163" y="53.25" width="45.75" height="30" rx="1.5" fill="#D8D8D8"/>
<path d="M212.364 65.0115H213.12V65.4105C213.12 65.7465 213.054 66.065 212.921 66.366C212.788 66.667 212.602 66.947 212.364 67.206C212.126 67.458 211.85 67.682 211.535 67.878C211.22 68.074 210.88 68.242 210.516 68.382C210.159 68.515 209.788 68.613 209.403 68.676L209.067 67.983C209.403 67.941 209.729 67.864 210.044 67.752C210.366 67.633 210.667 67.493 210.947 67.332C211.227 67.171 211.472 66.989 211.682 66.786C211.899 66.583 212.067 66.366 212.186 66.135C212.305 65.897 212.364 65.6555 212.364 65.4105V65.0115ZM212.585 65.0115H213.341V65.4105C213.341 65.6555 213.4 65.897 213.519 66.135C213.638 66.366 213.803 66.583 214.013 66.786C214.23 66.989 214.478 67.171 214.758 67.332C215.038 67.493 215.336 67.633 215.651 67.752C215.973 67.864 216.302 67.941 216.638 67.983L216.312 68.676C215.927 68.613 215.553 68.515 215.189 68.382C214.825 68.242 214.485 68.074 214.17 67.878C213.855 67.682 213.579 67.458 213.341 67.206C213.103 66.947 212.917 66.667 212.784 66.366C212.651 66.065 212.585 65.7465 212.585 65.4105V65.0115ZM212.406 69.9465H213.267V73.5585H212.406V69.9465ZM208.563 69.474H217.142V70.188H208.563V69.474ZM209.372 64.6545H216.323V65.358H209.372V64.6545ZM224.711 64.0665H225.593V71.007H224.711V64.0665ZM225.32 66.9435H226.99V67.6785H225.32V66.9435ZM222.118 64.8015H223.042C223.042 65.6205 222.86 66.3625 222.496 67.0275C222.139 67.6925 221.628 68.27 220.963 68.76C220.298 69.25 219.51 69.6385 218.6 69.9255L218.233 69.222C219.031 68.97 219.72 68.6445 220.301 68.2455C220.882 67.8465 221.33 67.388 221.645 66.87C221.96 66.352 222.118 65.792 222.118 65.19V64.8015ZM218.621 64.8015H222.569V65.526H218.621V64.8015ZM219.671 72.645H226.003V73.359H219.671V72.645ZM219.671 70.3035H220.543V72.9285H219.671V70.3035Z" fill="white"/>
<rect x="248.413" y="53.25" width="45.75" height="30" rx="1.5" fill="#44709A"/>
<path d="M264.365 67.9935H265.226V69.6945H264.365V67.9935ZM268.712 64.077H269.583V69.663H268.712V64.077ZM261.887 68.2875L261.782 67.647C262.391 67.647 263.042 67.6435 263.735 67.6365C264.435 67.6225 265.145 67.6015 265.866 67.5735C266.587 67.5385 267.287 67.4825 267.966 67.4055L268.019 67.9725C267.326 68.0705 266.619 68.144 265.898 68.193C265.184 68.235 264.484 68.263 263.798 68.277C263.119 68.284 262.482 68.2875 261.887 68.2875ZM263.22 70.0095H269.583V71.9835H264.102V73.0545H263.252V71.3955H268.722V70.629H263.22V70.0095ZM263.252 72.8235H269.898V73.464H263.252V72.8235ZM266.822 68.592H268.995V69.159H266.822V68.592ZM264.848 64.2555C265.317 64.2555 265.726 64.3115 266.076 64.4235C266.426 64.5355 266.699 64.7 266.895 64.917C267.091 65.134 267.189 65.3895 267.189 65.6835C267.189 65.9705 267.091 66.2225 266.895 66.4395C266.699 66.6495 266.426 66.814 266.076 66.933C265.726 67.045 265.317 67.101 264.848 67.101C264.379 67.101 263.966 67.045 263.609 66.933C263.259 66.814 262.986 66.6495 262.79 66.4395C262.601 66.2225 262.506 65.9705 262.506 65.6835C262.506 65.3895 262.601 65.134 262.79 64.917C262.986 64.7 263.259 64.5355 263.609 64.4235C263.966 64.3115 264.379 64.2555 264.848 64.2555ZM264.848 64.854C264.386 64.854 264.015 64.9275 263.735 65.0745C263.462 65.2215 263.325 65.4245 263.325 65.6835C263.325 65.9285 263.462 66.128 263.735 66.282C264.015 66.429 264.386 66.5025 264.848 66.5025C265.31 66.5025 265.677 66.429 265.95 66.282C266.23 66.128 266.37 65.9285 266.37 65.6835C266.37 65.4245 266.23 65.2215 265.95 65.0745C265.677 64.9275 265.31 64.854 264.848 64.854ZM277.961 64.0665H278.843V71.007H277.961V64.0665ZM278.57 66.9435H280.24V67.6785H278.57V66.9435ZM275.368 64.8015H276.292C276.292 65.6205 276.11 66.3625 275.746 67.0275C275.389 67.6925 274.878 68.27 274.213 68.76C273.548 69.25 272.76 69.6385 271.85 69.9255L271.483 69.222C272.281 68.97 272.97 68.6445 273.551 68.2455C274.132 67.8465 274.58 67.388 274.895 66.87C275.21 66.352 275.368 65.792 275.368 65.19V64.8015ZM271.871 64.8015H275.819V65.526H271.871V64.8015ZM272.921 72.645H279.253V73.359H272.921V72.645ZM272.921 70.3035H273.793V72.9285H272.921V70.3035Z" fill="white"/>
<rect x="301.663" y="53.25" width="45.75" height="30" rx="1.5" fill="#D8D8D8"/>
<path d="M319.452 65.5575H322.308V66.2715H319.452V65.5575ZM319.452 67.8255H322.308V68.5395H319.452V67.8255ZM322.004 64.077H322.875V71.091H322.004V64.077ZM316.817 72.645H323.138V73.359H316.817V72.645ZM316.817 70.3665H317.678V72.9495H316.817V70.3665ZM317.657 64.6755C318.119 64.6755 318.532 64.777 318.896 64.98C319.267 65.183 319.557 65.463 319.767 65.82C319.984 66.177 320.093 66.5865 320.093 67.0485C320.093 67.5175 319.984 67.9305 319.767 68.2875C319.557 68.6445 319.267 68.9245 318.896 69.1275C318.532 69.3305 318.119 69.432 317.657 69.432C317.188 69.432 316.768 69.3305 316.397 69.1275C316.033 68.9245 315.742 68.6445 315.525 68.2875C315.315 67.9305 315.21 67.5175 315.21 67.0485C315.21 66.5865 315.315 66.177 315.525 65.82C315.742 65.463 316.033 65.183 316.397 64.98C316.768 64.777 317.188 64.6755 317.657 64.6755ZM317.657 65.4525C317.349 65.4525 317.072 65.5225 316.827 65.6625C316.582 65.7955 316.39 65.9845 316.25 66.2295C316.11 66.4675 316.04 66.744 316.04 67.059C316.04 67.367 316.11 67.6435 316.25 67.8885C316.39 68.1335 316.582 68.326 316.827 68.466C317.072 68.599 317.349 68.6655 317.657 68.6655C317.958 68.6655 318.231 68.599 318.476 68.466C318.721 68.326 318.913 68.1335 319.053 67.8885C319.193 67.6435 319.263 67.367 319.263 67.059C319.263 66.744 319.193 66.4675 319.053 66.2295C318.913 65.9845 318.721 65.7955 318.476 65.6625C318.231 65.5225 317.958 65.4525 317.657 65.4525ZM331.211 64.0665H332.093V71.007H331.211V64.0665ZM331.82 66.9435H333.49V67.6785H331.82V66.9435ZM328.618 64.8015H329.542C329.542 65.6205 329.36 66.3625 328.996 67.0275C328.639 67.6925 328.128 68.27 327.463 68.76C326.798 69.25 326.01 69.6385 325.1 69.9255L324.733 69.222C325.531 68.97 326.22 68.6445 326.801 68.2455C327.382 67.8465 327.83 67.388 328.145 66.87C328.46 66.352 328.618 65.792 328.618 65.19V64.8015ZM325.121 64.8015H329.069V65.526H325.121V64.8015ZM326.171 72.645H332.503V73.359H326.171V72.645ZM326.171 70.3035H327.043V72.9285H326.171V70.3035Z" fill="white"/>
</g>
<rect x="0.538086" y="1.125" width="359.25" height="321.75" rx="19.625" stroke="#DBDFEA" stroke-width="0.75"/>
<defs>
<clipPath id="clip0_383_5257">
<rect x="0.163086" y="0.75" width="360" height="322.5" rx="20" fill="white"/>
</clipPath>
</defs>
</svg>
