<svg width="30" height="31" viewBox="0 0 30 31" fill="none" xmlns="http://www.w3.org/2000/svg">
<rect y="0.5" width="30" height="30" rx="15" fill="#D6DDE4"/>
<path d="M20 25.5C19.1667 25.5 18.4583 25.2083 17.875 24.625C17.2917 24.0417 17 23.3333 17 22.5C17 22.4 17.025 22.1667 17.075 21.8L10.05 17.7C9.78333 17.95 9.475 18.146 9.125 18.288C8.775 18.43 8.4 18.5007 8 18.5C7.16667 18.5 6.45833 18.2083 5.875 17.625C5.29167 17.0417 5 16.3333 5 15.5C5 14.6667 5.29167 13.9583 5.875 13.375C6.45833 12.7917 7.16667 12.5 8 12.5C8.4 12.5 8.775 12.571 9.125 12.713C9.475 12.855 9.78333 13.0507 10.05 13.3L17.075 9.2C17.0417 9.08333 17.021 8.971 17.013 8.863C17.005 8.755 17.0007 8.634 17 8.5C17 7.66667 17.2917 6.95833 17.875 6.375C18.4583 5.79167 19.1667 5.5 20 5.5C20.8333 5.5 21.5417 5.79167 22.125 6.375C22.7083 6.95833 23 7.66667 23 8.5C23 9.33333 22.7083 10.0417 22.125 10.625C21.5417 11.2083 20.8333 11.5 20 11.5C19.6 11.5 19.225 11.429 18.875 11.287C18.525 11.145 18.2167 10.9493 17.95 10.7L10.925 14.8C10.9583 14.9167 10.9793 15.0293 10.988 15.138C10.9967 15.2467 11.0007 15.3673 11 15.5C10.9993 15.6327 10.9953 15.7537 10.988 15.863C10.9807 15.9723 10.9597 16.0847 10.925 16.2L17.95 20.3C18.2167 20.05 18.525 19.8543 18.875 19.713C19.225 19.5717 19.6 19.5007 20 19.5C20.8333 19.5 21.5417 19.7917 22.125 20.375C22.7083 20.9583 23 21.6667 23 22.5C23 23.3333 22.7083 24.0417 22.125 24.625C21.5417 25.2083 20.8333 25.5 20 25.5ZM20 23.5C20.2833 23.5 20.521 23.4043 20.713 23.213C20.905 23.0217 21.0007 22.784 21 22.5C20.9993 22.216 20.9033 21.9787 20.712 21.788C20.5207 21.5973 20.2833 21.5013 20 21.5C19.7167 21.4987 19.4793 21.5947 19.288 21.788C19.0967 21.9813 19.0007 22.2187 19 22.5C18.9993 22.7813 19.0953 23.019 19.288 23.213C19.4807 23.407 19.718 23.5027 20 23.5ZM8 16.5C8.28333 16.5 8.521 16.404 8.713 16.212C8.905 16.02 9.00067 15.7827 9 15.5C8.99933 15.2173 8.90333 14.98 8.712 14.788C8.52067 14.596 8.28333 14.5 8 14.5C7.71667 14.5 7.47933 14.596 7.288 14.788C7.09667 14.98 7.00067 15.2173 7 15.5C6.99933 15.7827 7.09533 16.0203 7.288 16.213C7.48067 16.4057 7.718 16.5013 8 16.5ZM20 9.5C20.2833 9.5 20.521 9.404 20.713 9.212C20.905 9.02 21.0007 8.78267 21 8.5C20.9993 8.21733 20.9033 7.98 20.712 7.788C20.5207 7.596 20.2833 7.5 20 7.5C19.7167 7.5 19.4793 7.596 19.288 7.788C19.0967 7.98 19.0007 8.21733 19 8.5C18.9993 8.78267 19.0953 9.02033 19.288 9.213C19.4807 9.40567 19.718 9.50133 20 9.5Z" fill="#9CA3AF"/>
</svg>
