<svg width="18" height="16" viewBox="0 0 18 16" fill="none" xmlns="http://www.w3.org/2000/svg">
<g clip-path="url(#clip0_503_1032)">
<g clip-path="url(#clip1_503_1032)">
<path d="M9.90303 0.5625C9.73741 0.21875 9.38741 0 9.00303 0C8.61866 0 8.27178 0.21875 8.10303 0.5625L6.09366 4.69688L1.60616 5.35938C1.23116 5.41563 0.918658 5.67812 0.803033 6.0375C0.687408 6.39687 0.781158 6.79375 1.04991 7.05937L4.30616 10.2812L3.53741 14.8344C3.47491 15.2094 3.63116 15.5906 3.94053 15.8125C4.24991 16.0344 4.65928 16.0625 4.99678 15.8844L9.00616 13.7437L13.0155 15.8844C13.353 16.0625 13.7624 16.0375 14.0718 15.8125C14.3812 15.5875 14.5374 15.2094 14.4749 14.8344L13.703 10.2812L16.9593 7.05937C17.228 6.79375 17.3249 6.39687 17.2062 6.0375C17.0874 5.67812 16.778 5.41563 16.403 5.35938L11.9124 4.69688L9.90303 0.5625Z" fill="#FFCC00"/>
</g>
</g>
<defs>
<clipPath id="clip0_503_1032">
<rect width="18" height="16" fill="white"/>
</clipPath>
<clipPath id="clip1_503_1032">
<rect width="18" height="16" fill="white"/>
</clipPath>
</defs>
</svg>
